<svg width="100%" height="100%" viewBox="0 0 120 48" version="1.1" xmlns="http://www.w3.org/2000/svg" xmlns:xlink="http://www.w3.org/1999/xlink" xml:space="preserve" xmlns:serif="http://www.serif.com/" style="fill-rule:evenodd;clip-rule:evenodd;stroke-linejoin:round;stroke-miterlimit:2;"><path d="M120,0l0,48l-120,0l0,-48l120,0Zm-117.059,9.372c-0.041,0.149 -0.062,0.306 -0.062,0.468c-0,0.992 0.805,1.797 1.797,1.797c0.927,0 1.692,-0.703 1.788,-1.605l0.256,0.048l-0,0.24l8.64,0c-0,0 2.4,0 4.08,-0.72l0.014,0.003c-0.01,0.078 -0.015,0.157 -0.015,0.237c-0,0.992 0.805,1.797 1.797,1.797c0.736,0 1.37,-0.443 1.647,-1.077l0.637,-0l-0,-1.68l-0.48,-0l-0,-0.72l-0.24,0l-0,-0.24l0.72,0l-0,-0.131c-0,-0.07 -0.028,-0.137 -0.077,-0.186l-0.086,-0.086c-0.049,-0.049 -0.116,-0.077 -0.186,-0.077l-0.611,0l-0,-1.44l-0.72,0l-0,0.24l-0.48,0l-0,-0.24l-0.48,0l-0,-0.24c-0,0 -1.03,-0.24 -7.288,-0.24l-0.963,-0.957l-0.257,-0.002c-0.035,-0 -0.068,0.014 -0.093,0.038c-0.025,0.025 -0.039,0.058 -0.039,0.094l-0,0.202l0.72,0.733l-0,0.372l-0.24,0l-0,0.24l-3.36,0l-0,-0.48c-0,0 -7.44,0.189 -7.44,1.92l-0.72,0l-0,0.48l0.24,0l-0,0.96l-1.2,-0l-0,0.48l1.44,-0l-0,-0.24c-0,-0 1.18,-0.001 1.2,-0c0.001,0.001 0.022,0.005 0.061,0.012Z"/></svg>