<svg width="100%" height="100%" viewBox="0 0 120 48" version="1.1" xmlns="http://www.w3.org/2000/svg" xmlns:xlink="http://www.w3.org/1999/xlink" xml:space="preserve" xmlns:serif="http://www.serif.com/" style="fill-rule:evenodd;clip-rule:evenodd;stroke-linejoin:round;stroke-miterlimit:2;"><path d="M120,0l0,48l-120,0l0,-48l120,0Zm-116.021,10.558c0.285,0.705 0.975,1.202 1.781,1.202c0.606,0 1.146,-0.281 1.498,-0.72l9.964,0c0.352,0.439 0.892,0.72 1.498,0.72c0.709,0 1.33,-0.386 1.662,-0.959l0.018,-0.001c-0,-0 1.385,-0.112 1.92,-0.24c0.535,-0.128 0.72,-0.48 0.72,-0.48l0,-0.96l-0.24,-0l0,-0.24c-0.889,-0.92 -2.626,-1.488 -3.605,-1.75c-0.424,-0.113 -0.862,-0.17 -1.301,-0.17l-4.329,-0l-0.974,-0.96l-0.244,-0c-0.068,-0 -0.134,0.027 -0.183,0.076l-0.088,0.088c-0.049,0.049 -0.076,0.115 -0.076,0.183l-0,0.613l-0.24,-0l-0,-0.48l-0.48,-0l-0,0.48l-0.24,-0c-0,0.421 -0.24,0.48 -0.24,0.48l-1.92,-0c-0.372,-0 -0.48,-0.24 -0.48,-0.24l0,-0.24l-0.72,-0l-0,-0.96c-2.175,-0 -3.6,0.72 -3.6,0.72l-2.793,0.698c-0.051,0.013 -0.087,0.059 -0.087,0.112l0,1.658c0,0.109 0.049,0.212 0.133,0.281c0.34,0.273 0.827,0.611 0.827,0.611l-0.96,-0l-0,0.24c0.976,0.188 2.392,0.23 2.779,0.238Z"/></svg>