<svg width="100%" height="100%" viewBox="0 0 500 200" version="1.1" xmlns="http://www.w3.org/2000/svg" xmlns:xlink="http://www.w3.org/1999/xlink" xml:space="preserve" xmlns:serif="http://www.serif.com/" style="fill-rule:evenodd;clip-rule:evenodd;stroke-linejoin:round;stroke-miterlimit:2;"><path d="M0,0l500,0l0,200l-500,0l0,-200Zm23.7,0l30.46,0l0,1.54c0,0.32 -0.26,0.58 -0.58,0.58l-0.71,0l4.32,21.44l7.79,7.29c0.84,0.79 1.27,1.78 1.27,2.93l0,2.66l1.26,-1.94l25.48,15.53l-30.31,0l0,-2.99l-0.81,0l0,-11.36c0,-1.06 -0.36,-1.97 -1.08,-2.75l-3.15,-3.35l-0.99,0l0,6.8l0.99,0l0,3.36c2.07,0.71 3.57,2.68 3.57,5c0,2.92 -2.37,5.29 -5.29,5.29l-37.36,0c-2.46,0 -4.46,-1.99 -4.46,-4.45c0,-1.36 0.62,-2.58 1.58,-3.4l0.75,-0.78l0,-0.23c-3.85,-0.59 -7.34,-1.48 -8.82,-1.87c-0.45,-0.12 -0.75,-0.52 -0.75,-0.98l0,-21.22c0,-0.38 0.19,-0.71 0.52,-0.89l3.56,-1.95l0,-3.45c0,-0.56 0.46,-1.01 1.01,-1.01l10.22,0c0.56,0 1.02,0.45 1.02,1.01l0,0.21l0.51,0l1,-8.9l-0.42,0c-0.32,0 -0.58,-0.26 -0.58,-0.58l0,-1.54Z"/></svg>