<svg width="100%" height="100%" viewBox="0 0 120 48" version="1.1" xmlns="http://www.w3.org/2000/svg" xmlns:xlink="http://www.w3.org/1999/xlink" xml:space="preserve" xmlns:serif="http://www.serif.com/" style="fill-rule:evenodd;clip-rule:evenodd;stroke-linejoin:round;stroke-miterlimit:2;"><path d="M120,0l-0,48l-120,0l0,-48l120,0Zm-77.28,6.67l0,-0.19l-1.68,0c0,0 -1.882,-1.459 -4.164,-2.213c-0.361,-0.116 -0.737,-0.176 -1.116,-0.18l0,-0.247l-0.24,0l0,-0.18c0,-0.033 -0.027,-0.06 -0.06,-0.06l-0.12,0c-0.033,0 -0.06,0.027 -0.06,0.06l0,0.18l-2.88,0l0,0.24l-0.135,0c-0.419,-0 -0.836,0.07 -1.232,0.208c-0.823,0.286 -2.277,0.864 -3.433,1.712l-0.48,0l0,-0.24l0.12,0c0.066,0 0.12,-0.054 0.12,-0.12l0,-0.24c0,-0.066 -0.054,-0.12 -0.12,-0.12l-1.44,0c-0.066,0 -0.12,0.054 -0.12,0.12l0,0.24c0,0.066 0.054,0.12 0.12,0.12l0.36,0l0,0.24l-0.301,0c-0.047,-0 -0.093,0.019 -0.127,0.052c-0.033,0.034 -0.052,0.08 -0.052,0.127l0,1.741l-0.076,0c-0.107,-0 -0.21,0.043 -0.286,0.118c-0.075,0.076 -0.118,0.179 -0.118,0.286c0,0 0,0.769 0.001,1.113c-0,0.099 0.055,0.189 0.142,0.235c0.284,0.135 0.975,0.428 1.949,0.608c0.148,0.027 0.298,0.04 0.448,0.04l0.346,0c0.232,0.563 0.787,0.96 1.434,0.96c0.647,0 1.202,-0.397 1.434,-0.96l10.332,0c0.232,0.563 0.787,0.96 1.434,0.96c0.647,0 1.202,-0.397 1.434,-0.96l2.046,0c0.095,0 0.187,-0.038 0.254,-0.106c0.068,-0.067 0.106,-0.159 0.106,-0.254l0,-0.656c-0,-0.049 0.019,-0.096 0.054,-0.13c0.034,-0.035 0.081,-0.054 0.13,-0.054l0.056,0l0,-0.999c0,-0.144 -0.063,-0.282 -0.173,-0.376c-0.349,-0.244 -1.316,-0.718 -3.907,-1.075Zm-38.634,3.65c0.232,0.563 0.787,0.96 1.434,0.96c0.647,0 1.202,-0.397 1.434,-0.96l10.332,0c0.232,0.563 0.787,0.96 1.434,0.96c0.647,0 1.202,-0.397 1.434,-0.96l2.046,0c0.095,0 0.187,-0.038 0.254,-0.106c0.068,-0.067 0.106,-0.159 0.106,-0.254l-0,-0.656c-0,-0.049 0.019,-0.096 0.054,-0.13c0.034,-0.035 0.081,-0.054 0.13,-0.054l0.056,0l-0,-0.999c0,-0.144 -0.063,-0.282 -0.173,-0.376c-0.416,-0.29 -1.71,-0.909 -5.587,-1.265c-0,0 -1.882,-1.459 -4.164,-2.213c-0.371,-0.119 -0.759,-0.18 -1.149,-0.18c-0.854,-0.007 -2.562,-0.007 -3.462,-0.007c-0.419,-0 -0.836,0.07 -1.232,0.208c-0.823,0.286 -2.277,0.864 -3.433,1.712l-1.741,0c-0.047,-0 -0.093,0.019 -0.127,0.052c-0.033,0.034 -0.052,0.08 -0.052,0.127l-0,1.741l-0.076,0c-0.107,-0 -0.21,0.043 -0.286,0.118c-0.075,0.076 -0.118,0.179 -0.118,0.286c-0,0 -0,0.769 0.001,1.113c-0,0.099 0.055,0.189 0.142,0.235c0.284,0.135 0.975,0.428 1.949,0.608c0.148,0.027 0.298,0.04 0.448,0.04l0.346,0Zm67.194,0.72c0.199,0 0.36,-0.161 0.36,-0.36c-0,-0.199 -0.161,-0.36 -0.36,-0.36l0,-0.72c-0,-0.265 -0.215,-0.48 -0.48,-0.48l-0,-0.999c0,-0.144 -0.063,-0.282 -0.173,-0.376c-0.289,-0.202 -1.001,-0.561 -2.707,-0.882l-0,-0.383l-2.4,0l0,0.047c-0.155,-0.016 -0.315,-0.032 -0.48,-0.047c-0,0 -1.882,-1.459 -4.164,-2.213c-0.361,-0.116 -0.737,-0.176 -1.116,-0.18l-0,-0.247l-0.24,0l-0,-0.18c-0,-0.033 -0.027,-0.06 -0.06,-0.06l-0.12,0c-0.033,0 -0.06,0.027 -0.06,0.06l-0,0.18l-2.88,0l-0,0.24l-0.135,0c-0.419,-0 -0.836,0.07 -1.232,0.208c-0.823,0.286 -2.277,0.864 -3.433,1.712l-0.48,0l-0,-0.24l0.12,0c0.066,0 0.12,-0.054 0.12,-0.12l-0,-0.24c-0,-0.066 -0.054,-0.12 -0.12,-0.12l-1.44,0c-0.066,0 -0.12,0.054 -0.12,0.12l-0,0.24c-0,0.066 0.054,0.12 0.12,0.12l0.36,0l-0,0.24l-0.301,0c-0.047,-0 -0.093,0.019 -0.127,0.052c-0.033,0.034 -0.052,0.08 -0.052,0.127l-0,1.741l-0.125,-0c-0.461,0 -0.835,0.374 -0.835,0.835c-0,0 -0,0.841 0.001,1.29c0,0.162 0.102,0.308 0.256,0.362c0.342,0.105 1.02,0.28 2.002,0.383c0.06,0.007 0.12,0.01 0.181,0.01l1.239,0c0.282,0.296 0.68,0.48 1.121,0.48c0.647,0 1.202,-0.397 1.434,-0.96l10.332,0c0.232,0.563 0.787,0.96 1.434,0.96c0.305,0 0.589,-0.088 0.829,-0.24l3.731,0Zm-49.92,23.76l-18.48,0c-0.17,0 -0.48,0.138 -0.48,0.307l0,0.106c0,0.169 0.31,0.307 0.48,0.307l18.48,0c0.17,-0 0.48,-0.138 0.48,-0.307l-0,-0.106c-0,-0.169 -0.31,-0.307 -0.48,-0.307Z"/></svg>