<svg width="100%" height="100%" viewBox="0 0 120 48" version="1.1" xmlns="http://www.w3.org/2000/svg" xmlns:xlink="http://www.w3.org/1999/xlink" xml:space="preserve" xmlns:serif="http://www.serif.com/" style="fill-rule:evenodd;clip-rule:evenodd;stroke-linejoin:round;stroke-miterlimit:2;"><path d="M-0,7.817l0,-7.817l120,0l0,48l-120,0l0,-39.737c0,0.076 0.061,0.137 0.137,0.137l0.103,0l-0,0.757c-0,0.054 0.021,0.106 0.059,0.144c0.038,0.038 0.09,0.059 0.144,0.059l0.023,0c0.056,0.182 0.112,0.345 0.158,0.47c0.057,0.153 0.195,0.261 0.357,0.28l2.262,0.258c0.26,0.674 0.913,1.152 1.678,1.152c0.69,0 1.289,-0.389 1.591,-0.96l11.944,0c0.302,0.571 0.901,0.96 1.591,0.96c0.588,0 1.11,-0.283 1.438,-0.72l1.798,0c0.063,0 0.123,-0.025 0.167,-0.07c0.045,-0.044 0.07,-0.104 0.07,-0.167l-0,-2.112c-0,-0.993 -0.731,-1.835 -1.714,-1.976l-5.006,-0.715c-1.127,-0.924 -2.4,-1.68 -2.979,-1.958c-0.875,-0.419 -1.581,-0.442 -3.501,-0.442c-2.253,0 -3.6,0.24 -3.6,0.24l-0,-0.1c0,-0.037 -0.015,-0.073 -0.041,-0.099c-0.026,-0.026 -0.062,-0.041 -0.099,-0.041l-0.2,-0c-0.037,-0 -0.073,0.015 -0.099,0.041c-0.026,0.026 -0.041,0.062 -0.041,0.099l-0,0.179c0,0.043 -0.017,0.084 -0.047,0.114c-0.03,0.03 -0.071,0.047 -0.114,0.047l-1.386,-0c-0.074,-0 -0.133,0.059 -0.133,0.133l-0,0.347l-1.92,0.72l-1.718,0c-0.053,-0 -0.105,0.021 -0.143,0.059c-0.038,0.038 -0.059,0.09 -0.059,0.143l0,1.214c0,0.006 -0.003,0.012 -0.007,0.017c-0.005,0.004 -0.011,0.007 -0.017,0.007l-0.099,-0c-0.065,-0 -0.117,0.052 -0.117,0.117l-0,0.843l-0.013,-0c-0.06,0 -0.118,0.024 -0.161,0.066c-0.042,0.043 -0.066,0.101 -0.066,0.161l0,0.013l-0.103,-0c-0.076,-0 -0.137,0.061 -0.137,0.137Zm27.24,2.551c0.259,0.674 0.913,1.152 1.678,1.152c0.689,0 1.289,-0.389 1.59,-0.96l11.945,0c0.301,0.571 0.901,0.96 1.591,0.96c0.588,0 1.11,-0.283 1.438,-0.72l1.801,0c0.063,0 0.123,-0.025 0.167,-0.07c0.045,-0.044 0.07,-0.104 0.07,-0.167l-0,-2.112c-0,-0.993 -0.731,-1.835 -1.714,-1.976l-0.699,-0.1c-0.05,-0.213 -0.239,-0.372 -0.467,-0.375l0,-0.072c0,-0.044 -0.018,-0.087 -0.049,-0.119c-0.032,-0.031 -0.075,-0.049 -0.119,-0.049l-3.672,0c-1.127,-0.924 -2.4,-1.68 -2.979,-1.958c-0.875,-0.419 -1.581,-0.442 -3.501,-0.442c-2.253,0 -3.6,0.24 -3.6,0.24l-0,-0.1c0,-0.037 -0.015,-0.073 -0.041,-0.099c-0.026,-0.026 -0.062,-0.041 -0.099,-0.041l-0.2,-0c-0.037,-0 -0.073,0.015 -0.099,0.041c-0.026,0.026 -0.041,0.062 -0.041,0.099l-0,0.179c0,0.043 -0.017,0.084 -0.047,0.114c-0.03,0.03 -0.071,0.047 -0.114,0.047l-1.386,-0c-0.074,-0 -0.133,0.059 -0.133,0.133l-0,0.347l-1.92,0.72l-0.24,0l-0,-0.48l-0.24,0l-0,-0.24l-2.16,0l-0,0.24l0.48,0l-0,0.24l0.48,0l-0,0.24l-0.038,0c-0.053,-0 -0.105,0.021 -0.143,0.059c-0.038,0.038 -0.059,0.09 -0.059,0.143l0,1.214c0,0.006 -0.003,0.012 -0.007,0.017c-0.005,0.004 -0.011,0.007 -0.017,0.007l-0.099,-0c-0.065,-0 -0.117,0.052 -0.117,0.117l-0,0.843l-0.013,-0c-0.06,0 -0.118,0.024 -0.161,0.066c-0.042,0.043 -0.066,0.101 -0.066,0.161l0,0.013l-0.103,-0c-0.076,-0 -0.137,0.061 -0.137,0.137l0,0.446c0,0.076 0.061,0.137 0.137,0.137l0.103,0l-0,0.757c-0,0.054 0.021,0.106 0.059,0.144c0.038,0.038 0.09,0.059 0.144,0.059l0.023,0c0.056,0.182 0.112,0.345 0.158,0.47c0.057,0.153 0.195,0.261 0.357,0.28l2.259,0.258Zm24.78,0.912c0.264,0.153 0.571,0.24 0.898,0.24c0.326,0 0.633,-0.087 0.897,-0.24l13.331,0c0.264,0.153 0.571,0.24 0.898,0.24c0.326,0 0.633,-0.087 0.897,-0.24l4.019,0l-0,-0.48c-0,-0.133 -0.107,-0.24 -0.24,-0.24l0,-0.24c-0,-0.133 -0.107,-0.24 -0.24,-0.24l0,-1.064c-0,-0.473 -0.383,-0.856 -0.856,-0.856l-0.125,0c-0.127,-0.863 -0.807,-1.558 -1.693,-1.685l-0.699,-0.1c-0.05,-0.213 -0.239,-0.372 -0.467,-0.375l0,-0.072c0,-0.044 -0.018,-0.087 -0.049,-0.119c-0.032,-0.031 -0.075,-0.049 -0.119,-0.049l-3.672,0c-1.127,-0.924 -2.4,-1.68 -2.979,-1.958c-0.875,-0.419 -1.581,-0.442 -3.501,-0.442c-2.253,0 -3.6,0.24 -3.6,0.24l-0,-0.1c0,-0.037 -0.015,-0.073 -0.041,-0.099c-0.026,-0.026 -0.062,-0.041 -0.099,-0.041l-0.2,-0c-0.037,-0 -0.073,0.015 -0.099,0.041c-0.026,0.026 -0.041,0.062 -0.041,0.099l-0,0.179c0,0.043 -0.017,0.084 -0.047,0.114c-0.03,0.03 -0.071,0.047 -0.114,0.047l-1.386,-0c-0.074,-0 -0.133,0.059 -0.133,0.133l-0,0.347l-1.92,0.72l-0.24,0l-0,-0.48l-0.24,0l-0,-0.24l-2.16,0l-0,0.24l0.48,0l-0,0.24l0.48,0l-0,0.24l-0.038,0c-0.053,-0 -0.105,0.021 -0.143,0.059c-0.038,0.038 -0.059,0.09 -0.059,0.143l0,1.214c0,0.006 -0.003,0.012 -0.007,0.017c-0.005,0.004 -0.011,0.007 -0.017,0.007l-0.099,-0c-0.065,-0 -0.117,0.052 -0.117,0.117l-0,0.843l-0.013,-0c-0.06,0 -0.118,0.024 -0.161,0.066c-0.042,0.043 -0.066,0.101 -0.066,0.161l0,0.013l-0.103,-0c-0.076,-0 -0.137,0.061 -0.137,0.137l0,1.779c0,0.556 0.402,1.031 0.951,1.123l1.929,0.321l0.387,0.24l0.753,0Z"/></svg>