<svg width="100%" height="100%" viewBox="0 0 500 200" version="1.1" xmlns="http://www.w3.org/2000/svg" xmlns:xlink="http://www.w3.org/1999/xlink" xml:space="preserve" xmlns:serif="http://www.serif.com/" style="fill-rule:evenodd;clip-rule:evenodd;stroke-linejoin:round;stroke-miterlimit:2;"><path d="M0,0l500,0l0,200l-500,0l0,-200Zm215.66,35.94l0,-5.38c0,-1.6 0.46,-2.98 1.43,-4.25c1.41,-1.84 3.69,-4.56 6.15,-6.34l-1.26,0l0,-3.06l3.05,0l0,0.83l2.34,-0l0,1.14l11.21,-0l0,-0.93c0,-0.25 0.21,-0.46 0.47,-0.46l8.79,-0c0.25,-0 0.46,0.21 0.46,0.46l0,0.93l2.67,-0c7.05,-0 16.38,6.45 19.44,8.56c0,-0 3.63,0.14 7.68,2.46c0.67,-0.2 2,0.47 3.2,1.67c0.75,0.75 1.3,1.55 1.56,2.21c0.29,0.33 0.58,0.67 0.86,1.03l0.35,0.21l0,4.15l0.36,-0c0.39,-0 0.71,0.32 0.71,0.71l0,3.04l0.31,-0c0.32,-0 0.59,0.26 0.59,0.59l0,2.39l-8.12,-0c-1,1.63 -2.81,2.72 -4.87,2.72c-2.06,-0 -3.86,-1.09 -4.87,-2.72l-38.27,-0c-1,1.63 -2.81,2.72 -4.87,2.72c-2.06,-0 -3.86,-1.09 -4.87,-2.72l-5.4,-0c-0.55,-0 -1.01,-0.46 -1.01,-1.01l0,-7.94c0,-0.55 0.46,-1.01 1.01,-1.01l0.9,-0Zm-145.98,-8.43c0,-0 4.73,0.12 9.41,3.1c0.65,0.12 1.53,0.59 2.35,1.33c0.69,0.63 1.2,1.31 1.45,1.9c0.28,0.31 0.55,0.63 0.82,0.97l0.35,0.21l0,5.89c0,1.1 -0.9,2.01 -2.01,2.01l-3.3,-0c0,3.15 -2.56,5.7 -5.71,5.7c-3.15,-0 -5.71,-2.55 -5.71,-5.7l-1.92,-0l0,0.89l-33.86,-0l0,-0.89l-0.81,-0c0,3.15 -2.56,5.7 -5.71,5.7c-3.15,-0 -5.71,-2.55 -5.71,-5.7l-2.31,-0c-1.11,-0 -2.01,-0.91 -2.01,-2.01l0,-4.97l0.65,-0l0,-5.38c0,-1.6 0.47,-2.98 1.44,-4.25c1.64,-2.16 4.49,-5.51 7.42,-7.17c0.31,-0.17 0.63,-0.26 0.99,-0.26l24.9,-0c1.71,-0 6.19,-0.35 19.28,8.63Zm111.74,4.43c-0.81,-0.73 -1.67,-1.2 -2.32,-1.33c-4.68,-2.98 -9.42,-3.1 -9.42,-3.1c-13.09,-8.98 -17.57,-8.63 -19.28,-8.63l-2.11,-0l0,-0.93c0,-0.25 -0.2,-0.46 -0.46,-0.46l-8.79,-0c-0.25,-0 -0.46,0.21 -0.46,0.46l0,0.93l-11.21,-0l0,-1.14l-2.34,-0l0,-0.83l-3.05,-0l0,3.06l1.26,-0c-2.46,1.78 -4.75,4.5 -6.15,6.34c-0.97,1.27 -1.44,2.65 -1.44,4.25l0,5.38l-0.65,-0l0,4.97c0,1.1 0.9,2.01 2.01,2.01l2.31,-0c0,3.15 2.56,5.7 5.71,5.7c3.15,-0 5.71,-2.55 5.71,-5.7l0.82,-0l0,0.89l33.85,-0l0,-0.89l1.92,-0c0,3.15 2.56,5.7 5.71,5.7c3.15,-0 5.71,-2.55 5.71,-5.7l3.3,-0c1.11,-0 2.01,-0.91 2.01,-2.01l0,-5.89l-0.35,-0.21c-0.28,-0.36 -0.57,-0.7 -0.86,-1.02c-0.26,-0.57 -0.76,-1.24 -1.43,-1.85Z"/></svg>