<svg width="100%" height="100%" viewBox="0 0 120 48" version="1.1" xmlns="http://www.w3.org/2000/svg" xmlns:xlink="http://www.w3.org/1999/xlink" xml:space="preserve" xmlns:serif="http://www.serif.com/" style="fill-rule:evenodd;clip-rule:evenodd;stroke-linejoin:round;stroke-miterlimit:2;"><path d="M0,48l0,-48l120,0l0,48l-120,0Zm-0,-41.301c-0,0.518 -0,1.812 0.003,2.263c-0,0.104 0.041,0.204 0.115,0.278c0.741,0.707 1.875,0.993 2.195,1.063c0.056,0.011 0.113,0.017 0.171,0.017l0.494,0c0.249,0.699 0.916,1.2 1.7,1.2c0.589,0 1.113,-0.283 1.442,-0.72l12.723,0c0.33,0.437 0.853,0.72 1.442,0.72c0.685,0 1.282,-0.383 1.587,-0.947l0.855,-0.012c0.048,-0.001 0.095,-0.012 0.138,-0.033l0.72,-0.36c0.107,-0.054 0.175,-0.164 0.175,-0.284l-0,-2.204c-0,-1.44 -7.44,-1.68 -7.44,-1.68c0,0 -2.46,-2.029 -6.96,-1.92c-5.008,0 -8.383,1.814 -9.18,2.287c-0.112,0.073 -0.18,0.198 -0.18,0.332Zm48.24,2.762l0,1.246c-0,0.152 0.06,0.298 0.168,0.405c0.107,0.108 0.253,0.168 0.405,0.168l2.966,0c0.265,0.153 0.572,0.24 0.899,0.24c0.328,0 0.635,-0.087 0.899,-0.24l13.562,0c0.264,0.153 0.572,0.24 0.899,0.24c0.327,0 0.899,-0.24 0.899,-0.24l3.063,0l-0,-0.176c-0,-0.168 -0.136,-0.304 -0.304,-0.304l-0.001,0l0,-0.24l0.126,-0c0.048,0 0.093,-0.019 0.127,-0.052c0.033,-0.034 0.052,-0.079 0.052,-0.127l0,-1.322c-0,-0.048 -0.019,-0.093 -0.052,-0.127c-0.034,-0.033 -0.079,-0.052 -0.127,-0.052l-0.126,0l0,-0.48c0,-0.133 -0.107,-0.24 -0.24,-0.24l0,-0.568c0,-0.673 -1.562,-0.996 -3.295,-1.243l-0,-0.201c0,-0.039 -0.016,-0.077 -0.043,-0.105c-0.028,-0.027 -0.066,-0.043 -0.105,-0.043l-3.932,0c0,0 -1.593,-1.314 -4.56,-1.77l-0,-0.246c-0,-0.08 -0.064,-0.144 -0.144,-0.144l-0.912,0c-0.08,0 -0.144,0.064 -0.144,0.144l0,0.105c-0.309,-0.013 -0.629,-0.017 -0.96,-0.009c-2.88,0 -5.22,0.6 -6.841,1.2l-0.599,-0c-0,-0.133 -0.107,-0.24 -0.24,-0.24l-1.375,-0c-0.169,-0 -0.305,0.136 -0.305,0.305l0,0.175l0.24,0l0,0.087c0,0.085 0.068,0.153 0.153,0.153l0.327,0l-0,0.155c-0,0.094 -0.052,0.181 -0.135,0.225c-0.172,0.092 -0.307,0.169 -0.405,0.227c-0.112,0.073 -0.18,0.198 -0.18,0.332c0,0.518 0,1.812 0.003,2.263c-0,0.104 0.041,0.204 0.115,0.278l0.042,0.04c0.051,0.046 0.08,0.112 0.08,0.181Zm-18.12,1.339l12.723,0c0.33,0.437 0.853,0.72 1.442,0.72c0.685,0 1.282,-0.383 1.587,-0.947l0.855,-0.012c0.048,-0.001 0.095,-0.012 0.138,-0.033l0.72,-0.36c0.107,-0.054 0.175,-0.164 0.175,-0.284l0,-2.204c0,-0.673 -1.627,-1.084 -3.36,-1.331l-0,-0.201c0,-0.039 -0.016,-0.077 -0.043,-0.105c-0.028,-0.027 -0.066,-0.043 -0.105,-0.043l-3.932,0c0,0 -1.593,-1.314 -4.56,-1.77l0,-0.246c-0,-0.08 -0.064,-0.144 -0.144,-0.144l-1.152,0c-0.08,0 -0.144,0.064 -0.144,0.144l0,0.105c-0.309,-0.013 -0.629,-0.017 -0.96,-0.009c-2.88,0 -5.22,0.6 -6.841,1.2l-0.599,-0c-0,-0.133 -0.107,-0.24 -0.24,-0.24l-1.375,-0c-0.169,-0 -0.305,0.136 -0.305,0.305l0,0.175l0.24,0l0,0.087c0,0.085 0.068,0.153 0.153,0.153l0.327,0l-0,0.155c-0,0.094 -0.052,0.181 -0.135,0.225c-0.172,0.092 -0.307,0.169 -0.405,0.227c-0.112,0.073 -0.18,0.198 -0.18,0.332c0,0.518 0,1.812 0.003,2.263c-0,0.104 0.041,0.204 0.115,0.278c0.741,0.707 1.875,0.993 2.195,1.063c0.056,0.011 0.113,0.017 0.171,0.017l0.494,0c0.249,0.699 0.916,1.2 1.7,1.2c0.589,0 1.113,-0.283 1.442,-0.72Zm-28.2,6.96l0.96,0.24l1.68,-0.48l0.48,-0.48l0,-0.351c-2.16,0.111 -3.12,1.071 -3.12,1.071Zm5.04,-1.2c0,0 -1.242,0.008 -1.68,0.96l0,1.2l11.52,0l0,-0.24c0,0 -1.44,-1.44 -3.36,-1.68l-0.24,-0.24l-6.24,0Z"/></svg>