<svg width="100%" height="100%" viewBox="0 0 500 200" version="1.1" xmlns="http://www.w3.org/2000/svg" xmlns:xlink="http://www.w3.org/1999/xlink" xml:space="preserve" xmlns:serif="http://www.serif.com/" style="fill-rule:evenodd;clip-rule:evenodd;stroke-linejoin:round;stroke-miterlimit:2;"><path d="M0,0l500,0l0,200l-500,0l0,-200Zm4.97,39.15l0,-6.75c0,-0.82 0.17,-1.52 0.54,-2.26c0.29,-0.57 0.72,-1.25 1.35,-1.92c0.41,-0.42 0.91,-0.64 1.5,-0.63l7.95,0.14c0,0 6.06,-4.6 13.13,-8.18c1.32,-0.67 2.6,-0.98 4.08,-0.98l20.8,0c1.1,0 2.05,0.25 3,0.8c2.33,1.35 7.19,4.31 12.19,8.36c0,0 13.67,1.35 21.7,2.96c0.47,0.09 0.81,0.5 0.81,0.99l0,0.46l0.06,0.02c0.43,0.11 0.73,0.47 0.76,0.91l0.15,2.31l0.04,0c0.55,0 1.01,0.45 1.01,1.01l0,1.6c0,0.32 -0.14,0.6 -0.4,0.8c-0.95,0.72 -2.6,1.97 -3.83,2.89c-0.19,0.13 -0.38,0.2 -0.61,0.2l-5.2,0c0,3.28 -2.67,5.95 -5.95,5.95c-2.94,0 -5.37,-2.13 -5.86,-4.93l-42.31,0c-0.48,2.8 -2.92,4.93 -5.86,4.93c-3.25,0 -5.9,-2.62 -5.94,-5.86l-0.69,-0.09l-6.52,0c-0.3,0 -0.56,-0.12 -0.76,-0.35l-0.89,-1.02c-0.2,-0.23 -0.46,-0.35 -0.76,-0.35l-2.48,0c-0.56,0 -1.01,-0.45 -1.01,-1.01Zm100.01,0l-0,-6.75c-0,-0.82 0.17,-1.52 0.54,-2.26c0.29,-0.57 0.72,-1.25 1.35,-1.92c0.37,-0.38 0.82,-0.6 1.34,-0.62l-0,-1.31l-0.65,0c-0.27,0 -0.49,-0.22 -0.49,-0.48l-0,-0.69l-0.05,0c-0.27,0 -0.48,-0.22 -0.48,-0.48l-0,-0.77l-1.29,0c-0.16,0 -0.3,-0.14 -0.3,-0.3l-0,-0.44c-0,-0.17 0.14,-0.3 0.3,-0.3l3.54,0c0.16,0 0.3,0.13 0.3,0.3l-0,0.32l1.73,0c0.27,0 0.48,0.22 0.48,0.49l-0,0.68l0.5,0c0.27,0 0.49,0.22 0.49,0.49l-0,0.7c-0,0.26 -0.22,0.48 -0.49,0.48l-1.14,0l-0,1.34l5.66,0.1c-0,0 6.06,-4.6 13.13,-8.18c1.32,-0.67 2.6,-0.98 4.08,-0.98l6.16,0l0,-0.95l9.38,0l0,0.95l5.26,0c1.1,0 2.05,0.25 3,0.8c2.33,1.35 7.19,4.31 12.19,8.36c3.85,0.3 9.3,0.81 13.49,1.25c0.46,0.05 0.82,0.39 0.89,0.85c0.08,0.48 0.5,0.86 1,0.86l6.12,0c0.55,0 1.01,0.45 1.01,1.01l0,0.44c0.46,0.12 0.79,0.44 0.82,0.93l0.15,2.31l0.04,0c0.56,0 1.01,0.45 1.01,1.01l0,1.6c0,0.32 -0.14,0.6 -0.4,0.8c-0.95,0.72 -2.6,1.97 -3.83,2.89c-0.19,0.13 -0.38,0.2 -0.61,0.2l-5.2,0c0,3.28 -2.67,5.95 -5.95,5.95c-2.94,0 -5.37,-2.13 -5.86,-4.93l-42.31,0c-0.48,2.8 -2.92,4.93 -5.86,4.93c-3.25,0 -5.9,-2.62 -5.94,-5.86l-0.69,-0.09l-6.52,0c-0.3,0 -0.56,-0.12 -0.76,-0.35l-0.89,-1.02c-0.2,-0.23 -0.46,-0.35 -0.76,-0.35l-2.48,0c-0.56,0 -1.01,-0.45 -1.01,-1.01Zm99.98,-3.97l0,-2.78c0,-0.82 0.17,-1.52 0.54,-2.26c0.29,-0.57 0.72,-1.25 1.36,-1.92c0.36,-0.38 0.81,-0.6 1.33,-0.62l0,-1.31l-0.65,0c-0.27,0 -0.49,-0.22 -0.49,-0.48l0,-0.69l-0.04,0c-0.27,0 -0.49,-0.22 -0.49,-0.48l0,-0.7l0.01,-0.07l-1.29,0c-0.17,0 -0.31,-0.14 -0.31,-0.3l0,-0.44c0,-0.17 0.14,-0.3 0.31,-0.3l3.53,0c0.16,0 0.3,0.13 0.3,0.3l0,0.32l1.73,0c0.27,0 0.49,0.22 0.49,0.49l0,0.68l0.49,0c0.27,0 0.49,0.22 0.49,0.49l0,0.7c0,0.26 -0.22,0.48 -0.49,0.48l-1.13,0l0,1.34l5.65,0.1c0,0 6.07,-4.6 13.13,-8.18c1.33,-0.67 2.6,-0.98 4.08,-0.98l6.28,0l0,-0.95l9.39,0l0,0.95l5.13,0c1.1,0 2.05,0.25 3,0.8c2.33,1.35 7.19,4.31 12.2,8.36c3.84,0.3 9.29,0.81 13.48,1.25c0.46,0.05 0.82,0.39 0.89,0.85c0.08,0.48 0.5,0.86 1,0.86l6.12,0c0.55,0 1.01,0.45 1.01,1.01l0,0.44c0.46,0.12 0.79,0.44 0.82,0.93l0.15,2.31l0.04,0c0.56,0 1.01,0.45 1.01,1.01l0,1.67l0.07,0c0.55,0 1.01,0.45 1.01,1.01l0,2.35l1.02,0l0,2.16c0,1.19 -0.97,2.16 -2.16,2.16l-11.41,0c-1.09,1.28 -2.71,2.09 -4.52,2.09c-1.74,0 -3.3,-0.75 -4.39,-1.94l-44.75,0l0,-0.62c-1.07,1.54 -2.86,2.56 -4.88,2.56c-3.26,0 -5.9,-2.62 -5.95,-5.86l0,3.75l-2.08,0.47l0,-1.25l-6.18,0c-0.66,0 -1.23,-0.1 -1.84,-0.35c-1.11,-0.43 -2.97,-1.26 -4.44,-2.39c-0.26,-0.2 -0.4,-0.48 -0.4,-0.8l0,-5.21c0,-0.56 0.46,-1.01 1.01,-1.01l0.82,0Z"/></svg>