<svg width="100%" height="100%" viewBox="0 0 120 48" version="1.1" xmlns="http://www.w3.org/2000/svg" xmlns:xlink="http://www.w3.org/1999/xlink" xml:space="preserve" xmlns:serif="http://www.serif.com/" style="fill-rule:evenodd;clip-rule:evenodd;stroke-linejoin:round;stroke-miterlimit:2;"><path d="M120,0l0,48l-120,0l0,-48l120,0Zm-106.56,8.88c0,0.927 0.753,1.68 1.68,1.68c0.927,-0 1.68,-0.753 1.68,-1.68c-0,-0.846 -0.626,-1.546 -1.44,-1.663l0,-0.497l0.48,-0l-0,-0.52c-0,-0.11 -0.09,-0.2 -0.2,-0.2l-0.04,0l-0,-0.249c-0,-0.128 -0.103,-0.231 -0.231,-0.231l-0.009,-0l0,-0.31c-0,-0.094 -0.076,-0.17 -0.17,-0.17l-0.07,-0l0,-0.508c0,-0.056 -0.022,-0.11 -0.062,-0.15c-0.04,-0.04 -0.094,-0.062 -0.15,-0.062l-0.268,-0c-0,-0.133 -0.107,-0.24 -0.24,-0.24l-0.24,-0c-0.133,0 -0.24,0.107 -0.24,0.24l-0.329,-0c-0.04,0 -0.078,0.016 -0.107,0.044c-0.028,0.029 -0.044,0.067 -0.044,0.107l0,0.089l-0.24,-0l0,0.24l0.24,-0l0,0.23l-0.48,0l-1.2,-1.19l0,-0.24l0.24,-0c0.24,-0 0.872,-0.599 0.874,-1.079c0.004,-0.991 -1.081,-1.138 -1.567,-0.61c-0.183,0.199 -0.267,0.489 -0.267,0.729l-0.24,-0c-0.718,0.228 -1.513,1.111 -1.909,1.596c-0.162,0.201 -0.251,0.451 -0.251,0.709l0,0.575l-0.72,-0l-0,-0.492c0,-0.124 -0.049,-0.243 -0.137,-0.331c-0.088,-0.088 -0.207,-0.137 -0.331,-0.137l-1.212,-0c-0.353,-0 -0.48,-0.24 -0.48,-0.24l-0.73,-0l0,0.24l0.25,-0l0,0.96l0.24,-0l0,0.389l-0.448,0.672c-0.077,0.115 -0.045,0.27 0.069,0.347c0.115,0.077 0.27,0.045 0.347,-0.069l0.572,-0.859l0.18,0l0,0.24l1.2,-0c0.291,0.291 0.72,0.24 0.72,0.24l0,0.24l-0.24,-0l0,0.48l0.011,0.033c-0.282,-0.173 -0.615,-0.273 -0.971,-0.273c-1.013,-0 -1.835,0.807 -1.835,1.8c-0,0.993 0.822,1.8 1.835,1.8c0.704,-0 1.315,-0.389 1.623,-0.96l0.297,0c0,0.133 0.107,0.24 0.24,0.24l3.84,-0c0.064,0 0.125,-0.025 0.17,-0.07c0.045,-0.045 0.07,-0.106 0.07,-0.17c0.133,-0 0.24,-0.107 0.24,-0.24l-0,-0.48Zm-0,-0l-0,-0.24l0.017,-0c-0.011,0.078 -0.017,0.159 -0.017,0.24Zm-6.348,0.672c0.055,-0.011 0.109,0.02 0.127,0.073c0.009,0.023 0.018,0.048 0.026,0.072c0.011,0.03 0.008,0.064 -0.008,0.092c-0.016,0.028 -0.043,0.048 -0.075,0.055c-0.05,0.01 -0.102,0.017 -0.155,0.019c-0.402,0.019 -0.759,-0.205 -0.928,-0.544c-0.013,-0.028 -0.014,-0.06 -0.001,-0.089c0.012,-0.028 0.035,-0.051 0.065,-0.061c0.024,-0.011 0.051,-0.02 0.075,-0.029c0.054,-0.018 0.113,0.006 0.138,0.058c0.118,0.228 0.362,0.379 0.636,0.366c0.034,-0.002 0.068,-0.006 0.1,-0.012Zm0.108,-1.483c0,0.019 -0.003,0.038 -0.008,0.056l-0.031,0.101c-0.064,-0.02 -0.131,-0.03 -0.201,-0.03c-0.276,-0 -0.514,0.163 -0.622,0.398c-0.022,0.052 -0.078,0.079 -0.132,0.063c-0.026,-0.005 -0.053,-0.013 -0.078,-0.02c-0.031,-0.009 -0.056,-0.03 -0.07,-0.059c-0.014,-0.028 -0.015,-0.061 -0.003,-0.091c0.154,-0.347 0.501,-0.591 0.905,-0.591c0.083,-0 0.163,0.01 0.24,0.029l-0,0.144Zm7.275,0.539c-0.036,0.083 -0.056,0.175 -0.056,0.272c0,0.111 0.026,0.216 0.072,0.309c0.026,0.05 0.01,0.11 -0.036,0.142c-0.02,0.015 -0.043,0.031 -0.065,0.046c-0.026,0.018 -0.059,0.024 -0.089,0.016c-0.031,-0.007 -0.057,-0.028 -0.072,-0.055c-0.07,-0.138 -0.11,-0.293 -0.11,-0.458c0,-0.166 0.041,-0.323 0.113,-0.461c0.008,-0.016 0.021,-0.029 0.035,-0.039l0.208,0.228Zm1.337,0.165c-0.051,-0.336 -0.342,-0.594 -0.692,-0.594c-0.082,0 -0.161,0.015 -0.234,0.041l-0.212,-0.232c0.008,-0.007 0.017,-0.013 0.026,-0.018c0.128,-0.058 0.27,-0.091 0.42,-0.091c0.531,0 0.965,0.414 0.999,0.937l-0.001,-0l0,0.003c0.004,0.057 0.002,0.113 -0.004,0.169c-0.003,0.031 -0.02,0.06 -0.046,0.078c-0.026,0.019 -0.059,0.025 -0.09,0.018c-0.025,-0.006 -0.052,-0.012 -0.076,-0.018c-0.054,-0.013 -0.091,-0.064 -0.085,-0.119c0.003,-0.036 -0.002,-0.153 -0.005,-0.174l0,-0Zm-8.168,0.107l0.3,-0c0,0.15 -0.033,0.293 -0.094,0.421c-0.014,0.028 -0.039,0.049 -0.07,0.058c-0.03,0.008 -0.063,0.003 -0.09,-0.014c-0.022,-0.013 -0.045,-0.028 -0.066,-0.041c-0.048,-0.031 -0.065,-0.092 -0.041,-0.143c0.04,-0.085 0.061,-0.181 0.061,-0.281Zm7.998,0.466c0.037,-0.042 0.099,-0.051 0.145,-0.02c0.023,0.013 0.046,0.029 0.069,0.043c0.026,0.018 0.043,0.046 0.048,0.077c0.005,0.031 -0.004,0.063 -0.024,0.087c-0.185,0.212 -0.457,0.348 -0.76,0.348c-0.162,-0 -0.316,-0.039 -0.452,-0.108c-0.027,-0.015 -0.048,-0.04 -0.055,-0.071c-0.008,-0.03 -0.002,-0.063 0.015,-0.089c0.014,-0.022 0.03,-0.045 0.044,-0.066c0.032,-0.047 0.093,-0.063 0.143,-0.037c0.092,0.045 0.196,0.071 0.305,0.071c0.208,-0 0.394,-0.091 0.522,-0.235Z"/></svg>