<svg width="100%" height="100%" viewBox="0 0 120 48" version="1.1" xmlns="http://www.w3.org/2000/svg" xmlns:xlink="http://www.w3.org/1999/xlink" xml:space="preserve" xmlns:serif="http://www.serif.com/" style="fill-rule:evenodd;clip-rule:evenodd;stroke-linejoin:round;stroke-miterlimit:2;"><path d="M120,0l0,48l-120,0l0,-48l120,0Zm-102,7.2c-1.746,-1.527 -6.07,-1.666 -6.841,-1.679c-0.066,-0 -0.119,-0.054 -0.119,-0.119l-0,-0.098c0,-0.006 -0.003,-0.012 -0.007,-0.017c-0.005,-0.004 -0.011,-0.007 -0.017,-0.007l-0.936,-0c-1.298,-0 -3.84,0.72 -5.52,1.2c-0.784,0.224 -2.4,0.48 -2.4,0.48l0,0.207c0,0.151 0.122,0.273 0.273,0.273l0.207,-0l0,0.24l-0.094,0c-0.095,0 -0.187,0.031 -0.263,0.088l-0.686,0.514c-0.099,0.074 -0.157,0.191 -0.157,0.315l0,1c-0,0.149 0.084,0.285 0.218,0.352l1.362,0.681c0.21,0.105 0.44,0.163 0.674,0.169c0.253,0.153 0.549,0.241 0.866,0.241c0.316,0 0.613,-0.088 0.865,-0.24l10.68,0c0.303,0.297 0.718,0.48 1.175,0.48c0.457,0 0.872,-0.183 1.175,-0.48l3.865,0l-0,-0.142c0,-0.026 -0.01,-0.051 -0.029,-0.069c-0.018,-0.019 -0.043,-0.029 -0.069,-0.029c-0.161,0 -0.484,0 -0.685,-0.001c-0.034,0 -0.064,-0.019 -0.078,-0.049c-0.014,-0.03 -0.009,-0.066 0.013,-0.091c0.499,-0.582 1.147,-0.753 1.428,-0.799c0.08,-0.009 0.14,-0.077 0.14,-0.157l0,-0.003c-0,-0.061 -0.035,-0.117 -0.091,-0.143l-4.318,-2.045c-0.099,-0.048 -0.208,-0.072 -0.318,-0.072l-0.313,-0Z"/></svg>