<svg width="100%" height="100%" viewBox="0 0 500 200" version="1.1" xmlns="http://www.w3.org/2000/svg" xmlns:xlink="http://www.w3.org/1999/xlink" xml:space="preserve" xmlns:serif="http://www.serif.com/" style="fill-rule:evenodd;clip-rule:evenodd;stroke-linejoin:round;stroke-miterlimit:2;"><path d="M0,0l500,0l0,200l-500,0l0,-200Zm133.46,46l32.19,0c1.22,1.35 2.98,2.19 4.94,2.19c1.96,0 3.73,-0.84 4.94,-2.19l7.34,0c0.23,0 0.4,-0.18 0.4,-0.4c-0.11,-7.05 -3.16,-10.02 -4.04,-10.74c-0.15,-0.12 -0.32,-0.18 -0.51,-0.18l-0.49,0l-0,-2.1c-0,-0.46 -0.14,-0.85 -0.41,-1.21c-2.97,-3.91 -7.39,-6.38 -8.32,-6.87c-0.12,-0.07 -0.24,-0.09 -0.38,-0.09l-0.73,0c-0.21,0 -0.38,-0.07 -0.53,-0.2c-10.18,-8.88 -15.89,-10.07 -15.89,-10.07l0,-0.4c0,0 -2.19,-0.81 -8.71,-0.81c-6.51,0 -9.67,0.81 -9.67,0.81l-10.37,0c-0.22,0 -0.4,0.17 -0.4,0.39l0,0.5c0,0.17 0.11,0.33 0.28,0.38l3.64,1.09c0,0.18 0.01,0.31 -0.1,0.47c-2.87,3.91 -4.11,7.95 -4.11,7.95c-0.63,0 -0.81,0.45 -0.81,0.45l0,5.98c-2.73,0.47 -4.82,2.86 -4.82,5.72l-0,4.53c-0,2.65 2.15,4.8 4.8,4.8l1.88,0c1.22,1.35 2.98,2.19 4.94,2.19c1.96,0 3.73,-0.84 4.94,-2.19Zm-99.4,-0.83l30.91,0c1.19,1.82 3.25,3.02 5.58,3.02c2.78,0 5.15,-1.69 6.16,-4.1l1.54,0c0.49,0 0.91,-0.34 1,-0.83c0.1,-0.61 0.21,-1.65 0.21,-3.39c-0,-3.68 -0.47,-4.52 -0.47,-4.52l-0.8,0l-0,-2.77c-0,-0.46 -0.14,-0.85 -0.41,-1.21c-3.34,-4.4 -8.5,-6.96 -8.5,-6.96l-1.24,0c-10.31,-9.06 -16.11,-10.27 -16.11,-10.27l-0,-0.4c-0,0 -2.19,-0.81 -8.71,-0.81c-6.51,0 -9.68,0.81 -9.68,0.81l-6.34,0c-0.28,0 -0.5,0.22 -0.5,0.49l-0,2.04c-0,0.11 -0.04,0.21 -0.1,0.3c-2.87,3.91 -4.11,7.95 -4.11,7.95c-0.63,0 -0.81,0.45 -0.81,0.45l-0,6.59l-0.74,0c-0,0 -1.15,0.61 -1.15,3.5l-0,7.02c-0,1.11 0.9,2.01 2.01,2.01l0.53,0c1,2.41 3.38,4.1 6.15,4.1c2.34,0 4.39,-1.2 5.58,-3.02Zm31.94,31.83l-0,-3c-0,0 -6.263,-6.845 -13,-10l-17,0c-0,0 -3.796,3.761 -5,11c-0,0 1,2 35,2Z"/></svg>