<svg width="100%" height="100%" viewBox="0 0 120 48" version="1.1" xmlns="http://www.w3.org/2000/svg" xmlns:xlink="http://www.w3.org/1999/xlink" xml:space="preserve" xmlns:serif="http://www.serif.com/" style="fill-rule:evenodd;clip-rule:evenodd;stroke-linejoin:round;stroke-miterlimit:2;"><path d="M120,0l0,48l-120,0l0,-48l120,0Zm-86.64,2.4l-6.72,-0.002l0,-0.238l-2.4,0l-0,0.48c-0,-0 0.49,0.114 1.2,0.72l-0,0.24c-0.316,0.388 -0.687,0.683 -1.105,0.897c-0.06,0.039 -0.095,0.106 -0.095,0.177c0,0.063 0,0.144 0.005,0.213c-0,0.089 0.056,0.168 0.141,0.197c0.839,0.294 1.054,1.156 1.054,1.156c-0.763,0.819 -0.96,1.44 -0.96,1.44l-0,0.86c0,0.026 0.011,0.052 0.029,0.071c0.019,0.018 0.045,0.029 0.071,0.029l0.138,0l0.064,0.064c-0.042,0.172 -0.064,0.352 -0.064,0.537c0,1.258 1.021,2.279 2.279,2.279c0.527,0 1.013,-0.179 1.399,-0.48l1.429,-0c0.123,-0 0.242,-0.039 0.341,-0.112c0.423,-0.284 1.529,-1.019 1.883,-1.254c0.072,-0.048 0.157,-0.074 0.244,-0.074l5.489,-0c0.084,0 0.162,-0.048 0.2,-0.124l0.116,-0.232c0.038,-0.076 0.116,-0.124 0.2,-0.124l1.302,0l0,0.118c0,0.079 0.031,0.154 0.087,0.209c0.739,0.731 1.435,1.284 1.711,1.498c0.083,0.062 0.183,0.095 0.286,0.095l0.721,0c0.386,0.301 0.872,0.48 1.399,0.48c0.766,0 1.445,-0.379 1.858,-0.96l2.066,-0c0.072,0 0.141,-0.029 0.192,-0.08c0.051,-0.051 0.08,-0.12 0.08,-0.192l0,-0.485c-0,-0.054 -0.021,-0.106 -0.059,-0.144c-0.038,-0.038 -0.09,-0.059 -0.144,-0.059l-0.037,0l-0,-1.772c0,-0.23 -0.092,-0.451 -0.255,-0.614c-0.066,-0.067 -0.142,-0.121 -0.225,-0.163l0,-0.089c0,-0.378 -0.103,-0.664 -0.21,-0.864c-0.105,-0.186 -0.264,-0.336 -0.456,-0.432c-2.257,-1.11 -4.854,-1.346 -4.854,-1.346c-3.68,-2.051 -5.76,-1.92 -5.76,-1.92l-2.64,0Zm-10.08,5.76l0.133,-0c0.191,-0 0.347,-0.156 0.347,-0.347l0,-0.504c0,-0.192 -0.156,-0.347 -0.347,-0.347l-0.133,-0c-0,-0.378 -0.103,-0.664 -0.21,-0.864c-0.105,-0.186 -0.264,-0.336 -0.456,-0.432c-2.257,-1.11 -4.854,-1.346 -4.854,-1.346c-3.68,-2.051 -5.76,-1.92 -5.76,-1.92l-3.6,0c-3.239,0 -6.24,0.72 -6.24,0.72c-0.252,0.938 -1.2,0.96 -1.2,0.96l-0.625,0.417c-0.06,0.039 -0.095,0.106 -0.095,0.177c-0,0.063 -0,0.144 0.005,0.213c-0,0.089 0.056,0.168 0.141,0.197c0.839,0.294 1.054,1.156 1.054,1.156c-0.763,0.819 -0.96,1.44 -0.96,1.44l-0,0.86c0,0.026 0.011,0.052 0.029,0.071c0.019,0.018 0.045,0.029 0.071,0.029l0.138,0l0.064,0.064c-0.042,0.172 -0.064,0.352 -0.064,0.537c0,1.258 1.021,2.279 2.279,2.279c0.527,0 1.013,-0.179 1.399,-0.48l1.429,-0c0.123,-0 0.242,-0.039 0.341,-0.112c0.423,-0.284 1.529,-1.019 1.883,-1.254c0.072,-0.048 0.157,-0.074 0.244,-0.074l5.489,-0c0.084,0 0.162,-0.048 0.2,-0.124l0.116,-0.232c0.038,-0.076 0.116,-0.124 0.2,-0.124l1.302,0l0,0.118c0,0.079 0.031,0.154 0.087,0.209c0.739,0.731 1.435,1.284 1.711,1.498c0.083,0.062 0.183,0.095 0.286,0.095l0.721,0c0.386,0.301 0.872,0.48 1.399,0.48c0.766,0 1.445,-0.379 1.858,-0.96c0,0 0.27,0 0.464,-0.003c0.127,0 0.246,-0.061 0.319,-0.165c0.85,-1.185 0.835,-2.232 0.835,-2.232Z"/></svg>