<svg width="100%" height="100%" viewBox="0 0 120 48" version="1.1" xmlns="http://www.w3.org/2000/svg" xmlns:xlink="http://www.w3.org/1999/xlink" xml:space="preserve" xmlns:serif="http://www.serif.com/" style="fill-rule:evenodd;clip-rule:evenodd;stroke-linejoin:round;stroke-miterlimit:2;"><path d="M120,0l0,48l-120,0l0,-48l120,0Zm-81.36,2.379l0,-1.232c-0,-0.103 -0.084,-0.187 -0.187,-0.187l-0.346,0c-0.103,0 -0.187,0.084 -0.187,0.187l-0,1.013l-0.24,0l-0,0.201l-0.72,-0.012l-0,-0.429l-0.8,0c-0.106,-0 -0.208,0.042 -0.283,0.117c-0.075,0.075 -0.117,0.177 -0.117,0.283l-0,0.007l-5.04,-0.09l-0,-0.557l-0.8,0c-0.106,-0 -0.208,0.042 -0.283,0.117c-0.075,0.075 -0.117,0.177 -0.117,0.283l-0,0.136l-2.916,-0.052c-0.124,-0.003 -0.237,0.069 -0.289,0.181c-0.136,0.305 -0.416,0.954 -0.684,1.707c-0.069,-0.126 -0.203,-0.212 -0.357,-0.212l-0.628,-0c-0.224,0 -0.406,0.182 -0.406,0.406l0,3.508c0,0.224 0.182,0.406 0.406,0.406l0.074,0l-0,0.24c-0,0 0.369,0.96 2.88,0.96c-0,1.192 0.968,2.16 2.16,2.16c1.111,0 2.027,-0.841 2.147,-1.92l10.333,0l0.013,-0.001c0.119,1.08 1.036,1.921 2.147,1.921c1.192,0 2.16,-0.968 2.16,-2.16l0.24,0c-0,0 0.609,-0.018 0.96,-0.48l-0,-2.64c0,-0.064 -0.025,-0.125 -0.07,-0.17c-0.045,-0.045 -0.106,-0.07 -0.17,-0.07c0,-0 -1.176,-0.894 -6.24,-1.2c0,0 -0.659,-1.139 -1.275,-2.136c-0.103,-0.165 -0.282,-0.266 -0.475,-0.27l-0.89,-0.015Zm17.157,7.701l1.083,0l0,0.24l8.16,0l0,-0.24l1.323,0c0.297,0.839 1.097,1.44 2.037,1.44c0.847,0 1.581,-0.489 1.935,-1.2l0.856,0c0.58,-0 1.049,-0.469 1.049,-1.049l-0,-1.351c0,-0.128 -0.051,-0.25 -0.14,-0.34c-0.09,-0.089 -0.212,-0.14 -0.34,-0.14l-0,-0l-0,-1.2c0,-0.064 -0.025,-0.125 -0.07,-0.17c-0.045,-0.045 -0.106,-0.07 -0.17,-0.07c0,-0 -1.176,-0.894 -6.24,-1.2c-0,0 -0.659,-1.139 -1.275,-2.136c-0.103,-0.165 -0.282,-0.266 -0.475,-0.27l-0.89,-0.015l-0,-1.232c-0,-0.103 -0.084,-0.187 -0.187,-0.187l-0.346,0c-0.103,0 -0.187,0.084 -0.187,0.187l-0,1.013l-0.24,0l-0,0.201l-0.72,-0.012l-0,-0.429l-0.8,0c-0.106,-0 -0.208,0.042 -0.283,0.117c-0.075,0.075 -0.117,0.177 -0.117,0.283l-0,0.007l-5.04,-0.09l-0,-0.557l-0.8,0c-0.106,-0 -0.208,0.042 -0.283,0.117c-0.075,0.075 -0.117,0.177 -0.117,0.283l-0,0.136l-2.916,-0.052c-0.124,-0.003 -0.237,0.069 -0.289,0.181c-0.136,0.305 -0.416,0.954 -0.684,1.707c-0.069,-0.126 -0.203,-0.212 -0.357,-0.212l-0.628,-0c-0.224,0 -0.406,0.182 -0.406,0.406l0,3.508c0,0.224 0.182,0.406 0.406,0.406l0.554,0l-0,1.461c0,0.254 0.205,0.459 0.459,0.459l2.064,-0c0.297,0.839 1.097,1.44 2.037,1.44c0.94,0 1.74,-0.601 2.037,-1.44Zm-39.477,4.56l-13.44,-0l-0,2.16l13.44,0l-0,-2.16Zm-12.72,-5.28c-0,1.192 0.968,2.16 2.16,2.16c1.111,0 2.027,-0.841 2.147,-1.92l10.333,0l0.013,-0.001c0.119,1.08 1.036,1.921 2.147,1.921c1.192,0 2.16,-0.968 2.16,-2.16l0.24,0c-0,0 0.609,-0.018 0.96,-0.48l-0,-2.64c0,-0.064 -0.025,-0.125 -0.07,-0.17c-0.045,-0.045 -0.106,-0.07 -0.17,-0.07c0,-0 -1.176,-0.894 -6.24,-1.2c-0,0 -0.659,-1.139 -1.275,-2.136c-0.103,-0.165 -0.282,-0.266 -0.475,-0.27l-2.57,-0.045l-0,-0.429l-0.8,0c-0.106,-0 -0.208,0.042 -0.283,0.117c-0.075,0.075 -0.117,0.177 -0.117,0.283l-0,0.007l-5.04,-0.09l-0,-0.557l-0.8,0c-0.106,-0 -0.208,0.042 -0.283,0.117c-0.075,0.075 -0.117,0.177 -0.117,0.283l-0,0.136l-2.916,-0.052c-0.124,-0.003 -0.237,0.069 -0.289,0.181c-0.136,0.305 -0.416,0.954 -0.684,1.707c-0.069,-0.126 -0.203,-0.212 -0.357,-0.212l-0.628,-0c-0.224,0 -0.406,0.182 -0.406,0.406l0,3.508c0,0.224 0.182,0.406 0.406,0.406l0.074,0l-0,0.24c-0,0 0.369,0.96 2.88,0.96Z"/></svg>