<svg width="100%" height="100%" viewBox="0 0 120 48" version="1.1" xmlns="http://www.w3.org/2000/svg" xmlns:xlink="http://www.w3.org/1999/xlink" xml:space="preserve" xmlns:serif="http://www.serif.com/" style="fill-rule:evenodd;clip-rule:evenodd;stroke-linejoin:round;stroke-miterlimit:2;"><path d="M0,6.346l0,-6.346l120,0l0,48l-120,0l0,-41.626c-0,0.028 0.011,0.055 0.031,0.075c0.02,0.02 0.047,0.031 0.075,0.031l0.134,0l-0,0.508c-0,0.056 0.022,0.11 0.062,0.15c0.04,0.04 0.094,0.062 0.15,0.062l0.028,-0l-0,0.515c0,0.054 0.022,0.106 0.06,0.145c0.039,0.038 0.091,0.06 0.145,0.06l0.275,-0l0,0.24l-0.24,-0l0,0.24c0.265,0.045 0.427,0.203 0.48,0.48l-0.96,0.96l0,0.48c0,-0 0.691,0.24 1.622,0.24c0.932,-0 0.949,-0.011 0.949,-0.011l-0.015,0.011l0.646,-0c0.198,0.559 0.732,0.96 1.358,0.96c0.426,0 0.809,-0.185 1.073,-0.48l12.014,-0c0.264,0.295 0.647,0.48 1.073,0.48c0.426,0 0.809,-0.185 1.073,-0.48l1.807,-0c0,-0.31 1.016,-0.428 1.467,-0.465c0.12,-0.01 0.213,-0.11 0.213,-0.23c0,-0.294 0,-0.814 -0,-1.072c-0,-0.098 -0.045,-0.191 -0.122,-0.252c-0.913,-0.726 -1.798,-1.101 -1.798,-1.101l-0.48,-0c0.194,-0.401 0.48,-0.48 0.48,-0.48l0,-0.24l-1.2,-0l0,-0.24l-3.36,-0c-1.32,-0 -3.12,0.72 -3.12,0.72l-0.48,-0c0,-0.541 -1.346,-1.44 -2.16,-1.44l-2.64,-0l0,-0.381c-0,-0.026 -0.01,-0.051 -0.029,-0.07c-0.019,-0.019 -0.044,-0.029 -0.07,-0.029c-0.247,0 -0.892,0 -1.188,0.001c-0.105,0 -0.208,0.025 -0.301,0.072c-0.726,0.375 -1.292,0.887 -1.292,0.887c-0.879,-0.491 -2.16,-0.72 -2.16,-0.72l-3.12,0c-0.133,0 -0.24,0.107 -0.24,0.24l-0.134,0c-0.028,-0 -0.055,0.011 -0.075,0.031c-0.02,0.02 -0.031,0.047 -0.031,0.075Zm4.137,9.26c1.921,0.643 2.538,2.489 2.538,2.489c0.053,0.157 0.223,0.242 0.38,0.19c0.157,-0.053 0.242,-0.223 0.19,-0.38c-0,0 -0.712,-2.14 -2.937,-2.875c-0.072,-0.117 -0.201,-0.196 -0.348,-0.196c-0.224,0 -0.406,0.182 -0.406,0.406c0,0.224 0.182,0.406 0.406,0.406c0.063,-0 0.123,-0.015 0.177,-0.04Zm23.305,-5.046c0.198,0.559 0.732,0.96 1.358,0.96c0.294,-0 0.568,-0.088 0.796,-0.24l12.568,-0c0.228,0.152 0.502,0.24 0.796,0.24c0.294,-0 0.568,-0.088 0.796,-0.24l4.244,-0l0,-0.48c0,-0.285 -0.216,-0.403 -0.361,-0.44c-0.071,-0.022 -0.119,-0.088 -0.119,-0.162l0,-0.407c-0,-0.106 -0.085,-0.191 -0.191,-0.191l-0.289,0c-0.576,-0.924 -1.44,-1.68 -1.44,-1.68l-0.48,-0c0.194,-0.401 0.48,-0.48 0.48,-0.48l0,-0.24l-1.2,-0l0,-0.24l-3.36,-0c-0.539,-0 -1.158,0.12 -1.702,0.262c-1.87,-0.925 -3.372,-1.311 -3.876,-1.426c-0.122,-0.024 -0.246,-0.036 -0.37,-0.036c-0.762,0 -3.584,0.001 -3.739,0.001c-0.105,0 -0.208,0.025 -0.301,0.072c-0.726,0.375 -1.292,0.887 -1.292,0.887c-0.879,-0.491 -2.16,-0.72 -2.16,-0.72l-3.12,0c-0.133,0 -0.24,0.107 -0.24,0.24l-0.134,0c-0.028,-0 -0.055,0.011 -0.075,0.031c-0.02,0.02 -0.031,0.047 -0.031,0.075l0,0.028c-0,0.028 0.011,0.055 0.031,0.075c0.02,0.02 0.047,0.031 0.075,0.031l0.134,-0l-0,0.508c-0,0.056 0.022,0.11 0.062,0.15c0.04,0.04 0.094,0.062 0.15,0.062l0.028,-0l-0,0.515c0,0.054 0.022,0.106 0.06,0.145c0.039,0.038 0.091,0.06 0.145,0.06l0.275,-0l0,0.24l-0.24,-0l0,0.24c0.265,0.045 0.427,0.203 0.48,0.48l-0.96,0.96l0,0.48c0,-0 0.691,0.24 1.622,0.24c0.932,-0 0.949,-0.011 0.949,-0.011l-0.015,0.011l0.646,-0Z"/></svg>