<svg width="100%" height="100%" viewBox="0 0 120 48" version="1.1" xmlns="http://www.w3.org/2000/svg" xmlns:xlink="http://www.w3.org/1999/xlink" xml:space="preserve" xmlns:serif="http://www.serif.com/" style="fill-rule:evenodd;clip-rule:evenodd;stroke-linejoin:round;stroke-miterlimit:2;"><path d="M120,0l0,48l-120,0l0,-48l120,0Zm-74.64,5.931l0,-0.171l-1.68,0l0,0.002c-0.078,-0.001 -0.158,-0.002 -0.24,-0.002c-0,-0.064 -0.025,-0.125 -0.07,-0.17c-0.045,-0.045 -0.106,-0.07 -0.17,-0.07l-1.2,0c0,0 -2.88,-2.88 -7.2,-2.88c-2.507,0 -4.475,0.108 -5.946,0.24l-1.254,0l0,-0.24l-2.4,0l0,0.24l0.24,0l0,0.24l0.24,0l0,0.188c-0.047,0.01 -0.087,0.018 -0.12,0.025c-0.079,0.02 -0.147,0.07 -0.189,0.14c-0.553,0.954 -0.651,2.287 -0.651,2.287l-0.133,-0c-0.028,-0 -0.056,0.011 -0.076,0.031c-0.02,0.02 -0.031,0.048 -0.031,0.076l0,2.293l-0.139,0c-0.027,-0 -0.053,0.011 -0.071,0.03c-0.019,0.018 -0.03,0.044 -0.03,0.071l0,1.256c-0,0.086 0.034,0.168 0.094,0.229c0.061,0.06 0.143,0.094 0.229,0.094l1.117,0c0,0.133 0.107,0.24 0.24,0.24l0.735,0c0.118,0.947 0.927,1.68 1.905,1.68c0.71,0 1.331,-0.386 1.663,-0.96l11.554,-0c0.332,0.574 0.953,0.96 1.663,0.96c0.71,0 1.331,-0.386 1.663,-0.96l1.522,-0c0.409,0 0.791,-0.205 1.018,-0.545l0.117,-0.175c0.133,-0 0.24,-0.107 0.24,-0.24l0,-0.24c0,-0.064 -0.025,-0.125 -0.07,-0.17c-0.045,-0.045 -0.106,-0.07 -0.17,-0.07l0,-1.2c0,-0.133 -0.107,-0.24 -0.24,-0.24l0,-0.48c-0,-0.133 -0.107,-0.24 -0.24,-0.24c0,0 -0.098,-0.887 -1.92,-1.269Zm-27.583,4.869c0.332,0.574 0.953,0.96 1.663,0.96c0.71,0 1.331,-0.386 1.663,-0.96l1.522,-0c0.409,0 0.791,-0.205 1.018,-0.545l0.117,-0.175c0.133,-0 0.24,-0.107 0.24,-0.24l-0,-0.24c0,-0.064 -0.025,-0.125 -0.07,-0.17c-0.045,-0.045 -0.106,-0.07 -0.17,-0.07l0,-1.2c0,-0.133 -0.107,-0.24 -0.24,-0.24l-0,-0.48c-0,-0.133 -0.107,-0.24 -0.24,-0.24c0,0 -0.158,-1.44 -3.84,-1.44c-0,-0.064 -0.025,-0.125 -0.07,-0.17c-0.045,-0.045 -0.106,-0.07 -0.17,-0.07l-1.2,0c0,0 -2.88,-2.88 -7.2,-2.88c-5.72,0 -8.635,0.561 -9.24,0.693c-0.079,0.02 -0.147,0.07 -0.189,0.14c-0.553,0.954 -0.651,2.287 -0.651,2.287l-0.133,-0c-0.028,-0 -0.056,0.011 -0.076,0.031c-0.02,0.02 -0.031,0.048 -0.031,0.076l0,2.293l-0.139,0c-0.027,-0 -0.053,0.011 -0.071,0.03c-0.019,0.018 -0.03,0.044 -0.03,0.071l0,1.256c-0,0.086 0.034,0.168 0.094,0.229c0.061,0.06 0.143,0.094 0.229,0.094l1.117,0c0,0.133 0.107,0.24 0.24,0.24l0.735,0c0.118,0.947 0.927,1.68 1.905,1.68c0.71,0 1.331,-0.386 1.663,-0.96l11.554,-0Zm32.438,0.24l0.847,-0c0.352,0.439 0.892,0.72 1.498,0.72c0.606,0 1.146,-0.281 1.498,-0.72l11.884,-0c0.352,0.439 0.892,0.72 1.498,0.72c0.606,0 1.146,-0.281 1.498,-0.72l2.792,-0c0.071,0 0.14,-0.028 0.191,-0.079c0.051,-0.051 0.079,-0.12 0.079,-0.191l0,-1.53c0,-0.095 -0.038,-0.187 -0.106,-0.254c-0.038,-0.039 -0.084,-0.068 -0.134,-0.085l0,-0.741c0,-0.133 -0.107,-0.24 -0.24,-0.24l0,-0.48c-0,-0.133 -0.107,-0.24 -0.24,-0.24c0,0 -0.098,-0.887 -1.92,-1.269l0,-0.171l-1.68,0l0,0.002c-0.078,-0.001 -0.158,-0.002 -0.24,-0.002c-0,-0.064 -0.025,-0.125 -0.07,-0.17c-0.045,-0.045 -0.106,-0.07 -0.17,-0.07l-1.2,0c0,0 -2.88,-2.88 -7.2,-2.88c-2.507,0 -4.475,0.108 -5.946,0.24l-1.254,0l0,-0.24l-2.4,0l-0,0.24l0.24,0l-0,0.24l0.24,0l-0,0.188c-0.047,0.01 -0.087,0.018 -0.12,0.025c-0.079,0.02 -0.147,0.07 -0.189,0.14c-0.553,0.954 -0.651,2.287 -0.651,2.287l-0.133,-0c-0.028,-0 -0.056,0.011 -0.076,0.031c-0.02,0.02 -0.031,0.048 -0.031,0.076l0,2.293l-0.139,0c-0.027,-0 -0.053,0.011 -0.071,0.03c-0.019,0.018 -0.03,0.044 -0.03,0.071l0,0.804c0,1.091 0.884,1.975 1.975,1.975Z"/></svg>