<svg width="100%" height="100%" viewBox="0 0 120 48" version="1.1" xmlns="http://www.w3.org/2000/svg" xmlns:xlink="http://www.w3.org/1999/xlink" xml:space="preserve" xmlns:serif="http://www.serif.com/" style="fill-rule:evenodd;clip-rule:evenodd;stroke-linejoin:round;stroke-miterlimit:2;"><path d="M120,0l0,48l-120,0l0,-48l120,0Zm-95.759,9.12l-0.001,-0c0,-0 0,0.388 0.002,0.723c-0,0.289 0.184,0.545 0.458,0.636c1.06,0.332 2.352,0.514 3.867,0.553c0.276,0.438 0.764,0.728 1.319,0.728c0.551,-0 1.037,-0.287 1.314,-0.72l11.523,-0c0.277,0.433 0.762,0.72 1.314,0.72c0.552,-0 1.037,-0.287 1.314,-0.72l2.649,-0c0.133,-0 0.24,-0.107 0.24,-0.24l0,-1.68c-0,-0.133 -0.107,-0.24 -0.24,-0.24l0,-0.275c-0,-0.113 -0.092,-0.205 -0.205,-0.205l-0.035,0l-0,-0.606c-0,-0.566 -0.336,-1.077 -0.855,-1.3c-0.179,-0.078 -0.374,-0.127 -0.578,-0.143l-0.967,-0.074l0,-0.001c0,-0.136 -0.054,-0.268 -0.151,-0.365c-0.097,-0.097 -0.229,-0.151 -0.365,-0.151l-2.069,0c-0.078,-0 -0.153,0.031 -0.209,0.086c-0.055,0.056 -0.086,0.131 -0.086,0.209l-0.72,-0.055c-2.16,-1.92 -2.64,-2.88 -8.88,-2.88c-6.343,-0 -7.2,0.24 -7.2,0.24l0,0.24l0.48,-0l0,0.13c-0,0.072 -0.018,0.143 -0.053,0.206l-1.147,2.064c-0.129,0.024 -0.236,0.083 -0.328,0.166c-0,0 -0.152,0.554 -0.152,1.274l0,0.72l-0.048,-0c-0.051,0 -0.1,0.02 -0.136,0.056c-0.036,0.036 -0.056,0.085 -0.056,0.136c0,0.189 0,0.487 0.001,0.768Zm-19.872,1.44c0.162,0.688 0.78,1.2 1.517,1.2c0.737,0 1.355,-0.512 1.517,-1.2l11.117,-0c0.162,0.688 0.78,1.2 1.517,1.2c0.823,0 1.497,-0.638 1.555,-1.446c0.529,-0.001 1.079,0 1.52,0.002c0.235,0 0.461,-0.093 0.628,-0.259c0.166,-0.166 0.26,-0.392 0.26,-0.627l-0,-0.825c-0,-0.113 -0.092,-0.205 -0.205,-0.205l-0.035,0l-0,-0.606c-0,-0.566 -0.336,-1.077 -0.855,-1.3c-0.179,-0.078 -0.374,-0.127 -0.578,-0.143l-4.567,-0.351c-2.16,-1.92 -2.64,-2.88 -8.88,-2.88c-6.343,-0 -7.2,0.24 -7.2,0.24l-0,0.24l0.48,-0l0,0.13c-0,0.072 -0.018,0.143 -0.053,0.206l-1.147,2.064c-0.129,0.024 -0.236,0.083 -0.328,0.166c-0,0 -0.152,0.554 -0.152,1.274l-0,0.72l-0.048,-0c-0.051,0 -0.1,0.02 -0.136,0.056c-0.036,0.036 -0.056,0.085 -0.056,0.136c-0,0.325 -0,0.977 0.003,1.299c0,0.108 0.049,0.211 0.133,0.279c0.34,0.194 1.389,0.63 3.944,0.63l0.049,-0Z"/></svg>