<svg width="100%" height="100%" viewBox="0 0 120 48" version="1.1" xmlns="http://www.w3.org/2000/svg" xmlns:xlink="http://www.w3.org/1999/xlink" xml:space="preserve" xmlns:serif="http://www.serif.com/" style="fill-rule:evenodd;clip-rule:evenodd;stroke-linejoin:round;stroke-miterlimit:2;"><path d="M120,0l0,48l-120,0l0,-48l120,0Zm-89.979,10.8l12.428,-0c0.301,0.571 0.9,0.96 1.59,0.96c0.689,-0 1.288,-0.389 1.589,-0.96l2.612,-0c0.064,0 0.125,-0.025 0.17,-0.07c0.045,-0.045 0.07,-0.106 0.07,-0.17l0.24,-0l-0,-0.72l-0.24,0l-0,-1.2c-0,-0.053 -0.018,-0.104 -0.05,-0.146c-0.713,-0.924 -1.613,-1.472 -1.613,-1.472c-0.046,-0.043 -0.073,-0.103 -0.075,-0.166c-0.025,-0.244 -0.193,-0.544 -0.468,-0.794c-0.273,-0.247 -0.584,-0.386 -0.828,-0.386c-0.063,0.003 -0.125,-0.019 -0.173,-0.062c-3.667,-3.315 -5.315,-4.495 -5.773,-4.804c-0.097,-0.059 -0.208,-0.091 -0.322,-0.093c-1.559,-0.027 -12.641,-0.214 -13.868,-0.234c-0.071,-0.001 -0.138,0.029 -0.184,0.083c-0.864,1.047 -0.886,3.034 -0.886,3.034l0,4.32l-0.059,-0c-0.048,0 -0.094,0.019 -0.128,0.053c-0.034,0.034 -0.053,0.08 -0.053,0.128l-0,1.634c0,0.219 0.087,0.429 0.242,0.583c0.154,0.155 0.364,0.242 0.583,0.242l1.912,0c0.246,0.699 0.912,1.2 1.694,1.2c0.69,0 1.289,-0.389 1.59,-0.96Zm-27.382,-0.72c0.06,0.937 0.84,1.68 1.792,1.68c0.87,0 1.596,-0.619 1.761,-1.44l12.086,0c0.165,0.821 0.891,1.44 1.761,1.44c0.869,0 1.595,-0.619 1.76,-1.44l1.481,0c0.133,0 0.24,-0.107 0.24,-0.24l0,-2.296c0,-0.066 -0.028,-0.13 -0.076,-0.175c-0.215,-0.2 -0.425,-0.395 -0.627,-0.587c-0.046,-0.043 -0.073,-0.103 -0.075,-0.166c-0.025,-0.244 -0.193,-0.544 -0.468,-0.794c-0.273,-0.247 -0.584,-0.386 -0.828,-0.386c-0.063,0.003 -0.125,-0.019 -0.173,-0.062c-3.667,-3.315 -5.315,-4.495 -5.773,-4.804c-0.097,-0.059 -0.208,-0.091 -0.322,-0.093c-1.559,-0.027 -12.641,-0.214 -13.868,-0.234c-0.071,-0.001 -0.138,0.029 -0.184,0.083c-0.864,1.047 -0.886,3.034 -0.886,3.034l-0,6.24c0,0.133 0.107,0.24 0.24,0.24l2.159,0Z"/></svg>