<svg width="100%" height="100%" viewBox="0 0 120 48" version="1.1" xmlns="http://www.w3.org/2000/svg" xmlns:xlink="http://www.w3.org/1999/xlink" xml:space="preserve" xmlns:serif="http://www.serif.com/" style="fill-rule:evenodd;clip-rule:evenodd;stroke-linejoin:round;stroke-miterlimit:2;"><path d="M120,0l0,48l-120,0l0,-48l120,0Zm-50.657,10.8l3.055,-0c0.021,0 0.042,-0.009 0.058,-0.024c0.015,-0.016 0.024,-0.037 0.024,-0.058l0,-0.234c-0,-0.091 -0.073,-0.164 -0.164,-0.164l-0.076,-0l-0,-0.96c-0,-0.265 -0.215,-0.48 -0.48,-0.48l-0,-0l-0,-0.475c0,-0.065 -0.026,-0.128 -0.072,-0.173c-0.045,-0.046 -0.108,-0.072 -0.173,-0.072l0,-0.05c0,-0.574 -0.297,-1.107 -0.785,-1.409c-0.759,-0.46 -1.823,-0.701 -2.81,-0.825l0,-0.116c0,-0.132 -0.108,-0.24 -0.24,-0.24l-1.44,-0c-0.13,-0 -0.235,0.103 -0.24,0.231c-0.442,-0.004 -0.72,0.009 -0.72,0.009c-1.608,-1.074 -3.237,-1.713 -4.04,-2.001c-0.327,-0.106 -0.668,-0.159 -1.012,-0.159l-4.308,-0c-2.358,-0 -4.184,0.724 -5.402,1.44l-0.598,-0l0,-0.24l-0.96,-0l0,1.4c-0.087,0.085 -0.146,0.151 -0.178,0.191c-0.04,0.063 -0.062,0.136 -0.062,0.21l0,1.319l-0.053,0c-0.236,0 -0.427,0.191 -0.427,0.426l0,0.719c0,0.396 0.158,0.777 0.438,1.057c0.28,0.28 0.661,0.438 1.057,0.438l1.045,-0c0.285,0.703 0.975,1.2 1.78,1.2c0.71,-0 1.331,-0.386 1.663,-0.96l11.794,-0c0.332,0.574 0.953,0.96 1.663,0.96c0.71,-0 1.331,-0.386 1.663,-0.96Zm-21.823,-1.44l-0.005,-1.25c0,-0.574 -0.297,-1.107 -0.785,-1.409c-0.759,-0.46 -1.823,-0.701 -2.81,-0.825l-0,-0.116c-0,-0.132 -0.108,-0.24 -0.24,-0.24l-1.44,-0c-0.13,-0 -0.235,0.103 -0.24,0.231c-0.442,-0.004 -0.72,0.009 -0.72,0.009c-1.608,-1.074 -3.237,-1.713 -4.04,-2.001c-0.327,-0.106 -0.668,-0.159 -1.012,-0.159l-4.308,-0c-2.358,-0 -4.184,0.724 -5.402,1.44l-0.598,-0l-0,-0.24l-0.96,-0l-0,1.4c-0.087,0.085 -0.146,0.151 -0.178,0.191c-0.04,0.063 -0.062,0.136 -0.062,0.21c0,0.439 0,1.946 0.003,2.393c0,0.088 0.027,0.174 0.076,0.246c0.159,0.218 0.378,0.404 0.513,0.511c0.076,0.058 0.17,0.089 0.265,0.089l1.063,-0c0,1.06 0.86,1.92 1.92,1.92c0.805,-0 1.495,-0.497 1.78,-1.2l1.34,-0c0,-0 0.72,-0.48 4.08,-0.48c4.192,-0 6,0.24 6,0.24l0.061,-0c0.213,0.828 0.965,1.44 1.859,1.44c0.895,-0 1.648,-0.613 1.86,-1.442l0.373,-0.002c0.102,0 0.201,-0.038 0.276,-0.107c0.322,-0.289 0.724,-0.354 0.939,-0.364c0.084,-0.002 0.152,-0.071 0.152,-0.156l0,-0.089c0.133,-0 0.24,-0.107 0.24,-0.24Zm-24,0l-0.005,-1.25c0,-0.574 -0.297,-1.107 -0.785,-1.409c-1.836,-1.113 -5.45,-0.941 -5.45,-0.941c-1.608,-1.074 -3.237,-1.713 -4.04,-2.001c-0.327,-0.106 -0.668,-0.159 -1.012,-0.159l-4.308,-0c-4.32,-0 -6.853,2.429 -7.138,2.791c-0.04,0.063 -0.062,0.136 -0.062,0.21c-0,0.439 -0,1.946 0.003,2.393c0,0.088 0.027,0.174 0.076,0.246c0.159,0.218 0.378,0.404 0.513,0.511c0.076,0.058 0.17,0.089 0.265,0.089l1.063,-0c-0,1.06 0.86,1.92 1.92,1.92c0.805,-0 1.495,-0.497 1.78,-1.2l1.34,-0c-0,-0 0.72,-0.48 4.08,-0.48c4.192,-0 6,0.24 6,0.24l0.061,-0c0.213,0.828 0.965,1.44 1.859,1.44c0.895,-0 1.648,-0.613 1.86,-1.442l0.373,-0.002c0.102,0 0.201,-0.038 0.276,-0.107c0.322,-0.289 0.724,-0.354 0.939,-0.364c0.084,-0.002 0.152,-0.071 0.152,-0.156l0,-0.089c0.133,-0 0.24,-0.107 0.24,-0.24Z"/></svg>