<svg width="100%" height="100%" viewBox="0 0 120 48" version="1.1" xmlns="http://www.w3.org/2000/svg" xmlns:xlink="http://www.w3.org/1999/xlink" xml:space="preserve" xmlns:serif="http://www.serif.com/" style="fill-rule:evenodd;clip-rule:evenodd;stroke-linejoin:round;stroke-miterlimit:2;"><path d="M120,0l0,48l-120,0l0,-48l120,0Zm-116.934,10.8c0.207,0.694 0.85,1.2 1.61,1.2c0.67,0 1.249,-0.393 1.518,-0.96l11.612,0c0.269,0.567 0.848,0.96 1.518,0.96c0.669,-0 1.248,-0.393 1.518,-0.96l1.718,0c0.398,-0 0.72,-0.322 0.72,-0.72c0.064,0 0.125,-0.025 0.17,-0.07c0.045,-0.045 0.07,-0.106 0.07,-0.17l-0,-1.44c-0,-0.133 -0.107,-0.24 -0.24,-0.24l-0,-0.24c-0,0 -0.28,-1.002 -5.04,-1.44c-0,0 -2.989,-1.694 -6.53,-2.121c-0.226,-0.026 -0.455,-0.039 -0.683,-0.039c-0.854,0 -3.653,0 -5.004,0.001c-0.532,-0 -1.059,0.103 -1.552,0.305c-0.68,0.28 -1.679,0.748 -2.551,1.374l-0.24,0l-0,-0.355c-0,-0.069 -0.056,-0.125 -0.125,-0.125l-1.133,0c-0.1,0 -0.182,0.082 -0.182,0.182l-0,0.298l0.221,0c0.143,0 0.259,0.116 0.259,0.259l-0,2.141l-0.053,0c-0.05,-0 -0.097,0.02 -0.132,0.055c-0.035,0.035 -0.055,0.082 -0.055,0.132l-0,0.574c-0,0.161 0.048,0.319 0.139,0.453c0.161,0.23 0.487,0.578 1.109,0.869c0.108,0.051 0.226,0.077 0.345,0.077l0.993,0Z"/></svg>