<svg width="100%" height="100%" viewBox="0 0 240 72" version="1.1" xmlns="http://www.w3.org/2000/svg" xmlns:xlink="http://www.w3.org/1999/xlink" xml:space="preserve" xmlns:serif="http://www.serif.com/" style="fill-rule:evenodd;clip-rule:evenodd;stroke-linejoin:round;stroke-miterlimit:2;"><path d="M240,0l0,72l-240,0l0,-72l240,0Zm-219.36,8.16l0,-0.561c0,-0.409 -0.178,-0.798 -0.488,-1.066c-1.539,-1.294 -6.484,-5.093 -11.512,-5.093l-0.96,-0c-0.064,-0 -0.125,0.025 -0.17,0.07c-0.045,0.045 -0.07,0.106 -0.07,0.17c-0,-0 -1.664,0.044 -2.716,0.823c-0.295,0.229 -0.657,0.353 -1.03,0.353c-0.291,0.024 -0.574,0.024 -0.574,0.024l0,1.68l0.72,-0l-0.622,0.622c-0.205,0.205 -0.219,0.533 -0.032,0.755c0.504,0.58 1.59,1.407 3.993,2.116c0.241,0.071 0.49,0.107 0.741,0.107c0.935,0.003 2.958,-0 4.08,-0c0.602,-0 1.06,0.14 1.632,0.549l0.943,0.673c0.199,0.142 0.436,0.218 0.679,0.218l2.506,0c0.96,0 2.88,-0.48 2.88,-1.44Zm21.185,1.44l1.465,0.218c0.1,0.015 0.201,0.022 0.302,0.022l2.536,-0c0.106,-0 0.192,-0.086 0.192,-0.192l-0,-0.159c0,-0.083 -0.029,-0.165 -0.081,-0.23c-0.336,-0.419 -1.63,-2.034 -2.213,-2.758c-0.195,-0.243 -0.418,-0.461 -0.665,-0.65c-1.373,-1.028 -6.233,-4.411 -10.656,-4.411l-0.96,0c-0.064,-0 -0.125,0.025 -0.169,0.07c-0.045,0.045 -0.071,0.106 -0.071,0.17c0,-0 -1.663,0.044 -2.716,0.823c-0.295,0.229 -0.657,0.353 -1.029,0.353c-0.292,0.024 -0.575,0.024 -0.575,0.024l0,1.68l0.72,0l-0.621,0.622c-0.206,0.205 -0.22,0.533 -0.032,0.755c0.255,0.293 0.659,0.65 1.308,1.023l-0.72,0l0,0.24c0.875,0.925 2.88,0.96 2.88,0.96l5.345,0c0.603,0 1.061,0.14 1.632,0.549l0.944,0.673c0.198,0.142 0.435,0.218 0.679,0.218l2.505,0Z"/></svg>