<svg width="100%" height="100%" viewBox="0 0 120 48" version="1.1" xmlns="http://www.w3.org/2000/svg" xmlns:xlink="http://www.w3.org/1999/xlink" xml:space="preserve" xmlns:serif="http://www.serif.com/" style="fill-rule:evenodd;clip-rule:evenodd;stroke-linejoin:round;stroke-miterlimit:2;"><path d="M120,0l0,48l-120,0l0,-48l120,0Zm-102.768,10.8c0.284,0.296 0.684,0.48 1.127,0.48c0.442,-0 0.842,-0.184 1.126,-0.48l2.929,-0c0.038,0 0.076,-0.015 0.103,-0.043c0.028,-0.027 0.043,-0.065 0.043,-0.103l0,-1.294c-0,-0.133 -0.107,-0.24 -0.24,-0.24l-0.262,-0.262c-0.14,-0.14 -0.329,-0.218 -0.526,-0.218l-0.412,0c-0.807,-0.52 -1.805,-0.955 -2.212,-1.125c-0.123,-0.05 -0.254,-0.075 -0.385,-0.075l-0.763,-0c-2.092,-0.995 -4.197,-1.332 -4.841,-1.417c-0.125,-0.016 -0.251,-0.023 -0.377,-0.023l-2.702,-0l0,-0.24c0,-0 -0.098,-0 -0.222,0.001c-0.348,0 -0.695,0.023 -1.039,0.068c-3.586,0.466 -5.818,0.903 -6.592,1.065c-0.18,0.04 -0.307,0.199 -0.307,0.382l-0,0.404l-0.002,0c-0.132,0 -0.238,0.106 -0.238,0.238l-0,0.484c0,0.132 0.106,0.238 0.238,0.238l0.242,0l-0,0.24l-0.72,0c0,0.795 0.645,1.44 1.44,1.44l1.2,0l0.137,0.025c0.242,0.547 0.789,0.928 1.424,0.928c0.439,0 0.835,-0.181 1.118,-0.473l10.713,-0Zm54.768,0.24l0,-0.137c-0,-0.057 -0.046,-0.103 -0.103,-0.103l-0.137,-0c-0,-0.133 -0.107,-0.24 -0.24,-0.24l-0,-0.394c0,-0.15 -0.06,-0.294 -0.166,-0.4c-0.106,-0.106 -0.25,-0.166 -0.4,-0.166l-0.154,0c-0.132,0 -0.24,-0.108 -0.24,-0.24c-0,-0.133 -0.107,-0.24 -0.24,-0.24l-0.262,-0.262c-0.14,-0.14 -0.329,-0.218 -0.526,-0.218l-0.412,0c-0.807,-0.52 -1.805,-0.955 -2.212,-1.125c-0.123,-0.05 -0.254,-0.075 -0.385,-0.075l-0.763,0c-2.092,-0.995 -4.197,-1.332 -4.841,-1.417c-0.125,-0.016 -0.251,-0.023 -0.377,-0.023l-2.702,0l-0,-0.24c-0,0 -0.098,0 -0.222,0.001c-0.348,0 -0.695,0.023 -1.039,0.068c-2.311,0.301 -4.06,0.589 -5.219,0.799l-0,-0.294c-0,-0.184 -0.15,-0.334 -0.334,-0.334l-1.586,0l-0,0.48l0.72,-0l-0,0.378l-0.173,0.036c-0.18,0.04 -0.307,0.199 -0.307,0.382l-0,0.404l-0.002,0c-0.132,0 -0.238,0.106 -0.238,0.238l-0,0.484c0,0.132 0.106,0.238 0.238,0.238l0.242,0l-0,0.24l-0.679,0c-0.023,0 -0.041,0.018 -0.041,0.041c0,0.498 0.198,0.976 0.55,1.329c0.353,0.352 0.831,0.55 1.329,0.55l1.205,-0c0.283,0.292 0.679,0.473 1.117,0.473c0.301,0 0.582,-0.085 0.82,-0.233l11.305,-0c0.241,0.152 0.527,0.24 0.833,0.24c0.305,-0 0.591,-0.088 0.832,-0.24l4.809,-0Zm-64.56,8.88l9.12,0.96c1.92,-0.24 2.88,-1.44 2.88,-1.44c-3.36,-2.16 -7.92,-2.16 -9.84,-1.92c-1.506,0.188 -2.16,2.4 -2.16,2.4Zm19.92,-13.292l-0,-0.294c-0,-0.184 -0.15,-0.334 -0.334,-0.334l-1.586,-0l0,0.48l0.72,-0l0,0.378l-0.173,0.036c-0.18,0.04 -0.307,0.199 -0.307,0.382l-0,0.404l-0.002,0c-0.132,0 -0.238,0.106 -0.238,0.238l-0,0.484c0,0.132 0.106,0.238 0.238,0.238l0.242,0l-0,0.24l-0.72,0c0,0.795 0.645,1.44 1.44,1.44l1.2,0l0.137,0.025c0.242,0.547 0.789,0.928 1.424,0.928c0.439,0 0.835,-0.181 1.118,-0.473l10.713,-0c0.284,0.296 0.684,0.48 1.127,0.48c0.442,-0 0.842,-0.184 1.126,-0.48l2.929,-0c0.038,0 0.076,-0.015 0.103,-0.043c0.028,-0.027 0.043,-0.065 0.043,-0.103l0,-1.294c-0,-0.133 -0.107,-0.24 -0.24,-0.24l-0.262,-0.262c-0.14,-0.14 -0.329,-0.218 -0.526,-0.218l-0.412,0c-0.807,-0.52 -1.805,-0.955 -2.212,-1.125c-0.123,-0.05 -0.254,-0.075 -0.385,-0.075l-0.763,-0c-2.092,-0.995 -4.197,-1.332 -4.841,-1.417c-0.125,-0.016 -0.251,-0.023 -0.377,-0.023l-2.702,-0l-0,-0.24c-0,-0 -0.098,-0 -0.222,0.001c-0.348,0 -0.695,0.023 -1.039,0.068c-2.311,0.301 -4.06,0.589 -5.219,0.799Z"/></svg>