<svg width="100%" height="100%" viewBox="0 0 120 48" version="1.1" xmlns="http://www.w3.org/2000/svg" xmlns:xlink="http://www.w3.org/1999/xlink" xml:space="preserve" xmlns:serif="http://www.serif.com/" style="fill-rule:evenodd;clip-rule:evenodd;stroke-linejoin:round;stroke-miterlimit:2;"><path d="M8.771,0l111.229,0l0,48l-120,0l0,-48l7.68,0l0,0.492l0.838,1.055c1.099,1.89 0.995,4.06 0.697,5.592l-1.055,-1.319l0,-2.46l-0.48,-0l0,1.86l-2.406,-3.007c-0.059,-0.074 -0.146,-0.113 -0.234,-0.113c0,0 0,0.297 0.004,0.525c0,0.179 0.052,0.354 0.149,0.504c0.296,0.531 0.784,1.741 0.784,3.935l-0.457,-0.458l0,-2.046l-0.24,0l0,1.806l-2.286,-2.286c-0.011,-0.01 -0.022,-0.019 -0.034,-0.026c-0.05,-0.036 -0.08,-0.094 -0.08,-0.155l0,-0.059l-0.24,-0l0,0.518c0,0.05 -0.014,0.112 0.02,0.149c0.644,0.665 0.897,2.617 0.7,3.653l-0.328,-0c-0.1,0 -0.199,0.023 -0.288,0.068l-1.209,0.604c-0.058,0.03 -0.095,0.089 -0.095,0.155l0,0.2c0,0.096 0.077,0.173 0.173,0.173l0.307,0l2.4,1.86l0,0.06l-0.84,0c-0.464,0 -0.84,0.161 -0.84,0.36c0,0.199 0.376,0.36 0.84,0.36l15.36,0c0.464,0 0.84,-0.161 0.84,-0.36c0,-0.199 -0.376,-0.36 -0.84,-0.36l-1.68,0l0.177,-0.236c0.747,-0 2.087,-0.052 3.006,-0.374c0.517,-0.182 0.9,-0.455 1.023,-0.83l0.088,-0c0.039,0 0.076,-0.015 0.103,-0.043c0.028,-0.027 0.043,-0.064 0.043,-0.103l0,-0.334l-0.24,0l-0,-0.333c0,-0.039 -0.015,-0.076 -0.043,-0.104c-0.028,-0.028 -0.065,-0.043 -0.104,-0.043l-0.093,0l-0,-0.48l-1.059,0l1.156,-0.65c0.089,-0.05 0.143,-0.143 0.143,-0.244l0,-0.266c-0.033,-0 -0.067,0.008 -0.098,0.026l-0.073,0.041l-0.002,-0.001l-1.92,-0.96c-0.024,-0.012 -0.049,-0.017 -0.074,-0.016l-1.433,-1.146l-0,-1.344l-1.68,-0.007l-0,-0.713l0.72,0l0,0.24l0.24,0l0,-0.598c-0,-0.067 -0.055,-0.122 -0.122,-0.122l-0.358,0c-0.133,-0 -0.24,-0.107 -0.24,-0.24l-0.582,0c-0.037,-0 -0.072,0.015 -0.098,0.04c-0.025,0.026 -0.04,0.061 -0.04,0.098l0,0.434l-2.795,1.531l-0.805,-1.073l0,-0.31l0.48,0l0,-0.72l-0.48,0l0,-0.24l1.2,0l0,-0.24l-0.24,0l0,-0.24l-0.96,0l0,-0.24l-0.259,0c-0.122,0 -0.221,0.099 -0.221,0.221l0,0.739l-0.48,0l0,0.72l0.48,0l0,1.099l-2.779,-3.499l0.51,0c0.06,0 0.109,0.049 0.109,0.109l-0,0.022c-0,0.06 0.049,0.109 0.109,0.109l1.942,-0c0.06,-0 0.109,-0.049 0.109,-0.109l-0,-0.022c-0,-0.029 0.011,-0.057 0.032,-0.077c0.02,-0.021 0.048,-0.032 0.077,-0.032l0.502,0c0.029,-0 0.057,0.011 0.077,0.032c0.021,0.02 0.032,0.048 0.032,0.077l-0,0.022c-0,0.029 0.011,0.057 0.032,0.077c0.02,0.021 0.048,0.032 0.077,0.032l1.462,-0c0.029,-0 0.057,0.011 0.077,0.032c0.021,0.02 0.032,0.048 0.032,0.077l-0,0.502c-0,0.06 0.049,0.109 0.109,0.109l1.222,0c0.06,0 0.109,0.049 0.109,0.109l-0,0.022c-0,0.06 0.049,0.109 0.109,0.109l1.222,0c0.06,0 0.109,0.049 0.109,0.109l-0,0.022c-0,0.029 0.011,0.057 0.032,0.077c0.02,0.021 0.048,0.032 0.077,0.032l0.982,-0c0.029,0 0.057,-0.011 0.077,-0.032c0.021,-0.02 0.032,-0.048 0.032,-0.077l0,-0.022c0,-0.029 -0.011,-0.057 -0.032,-0.077c-0.02,-0.021 -0.048,-0.032 -0.077,-0.032l-0.502,-0c-0.029,0 -0.057,-0.011 -0.077,-0.032c-0.021,-0.02 -0.032,-0.048 -0.032,-0.077l0,-0.022c0,-0.029 -0.011,-0.057 -0.032,-0.077c-0.02,-0.021 -0.048,-0.032 -0.077,-0.032l-1.462,-0c-0.029,0 -0.057,-0.011 -0.077,-0.032c-0.021,-0.02 -0.032,-0.048 -0.032,-0.077l0,-0.022c0,-0.06 -0.049,-0.109 -0.109,-0.109l-1.222,-0c-0.06,-0 -0.109,-0.049 -0.109,-0.109l0,-0.502c0,-0.06 -0.049,-0.109 -0.109,-0.109l-1.222,-0c-0.06,-0 -0.109,-0.049 -0.109,-0.109l0,-0.022c0,-0.06 -0.049,-0.109 -0.109,-0.109l-1.222,0c-0.06,0 -0.109,0.049 -0.109,0.109l0,0.022c0,0.029 -0.011,0.057 -0.032,0.077c-0.02,0.021 -0.048,0.032 -0.077,0.032l-0.742,-0c-0.029,0 -0.057,-0.011 -0.077,-0.032c-0.021,-0.02 -0.032,-0.048 -0.032,-0.077l0,-0.022c0,-0.029 -0.011,-0.057 -0.032,-0.077c-0.02,-0.021 -0.048,-0.032 -0.077,-0.032l-0.502,-0c-0.029,0 -0.057,-0.011 -0.077,-0.032c-0.021,-0.02 -0.032,-0.048 -0.032,-0.077l0,-0.022c0,-0.029 -0.011,-0.057 -0.032,-0.077c-0.02,-0.021 -0.048,-0.032 -0.077,-0.032l-0.502,-0c-0.029,0 -0.057,-0.011 -0.077,-0.032c-0.021,-0.02 -0.032,-0.048 -0.032,-0.077l0,-0.022c0,-0.029 -0.011,-0.057 -0.032,-0.077c-0.02,-0.021 -0.048,-0.032 -0.077,-0.032Zm10.96,6.913l1.142,0.571l-0.598,0.337l-0.544,-0.908Zm0.153,1.128l-1.644,-1.137l-0,-0.424l-0.24,0l-0,-0.24l-0.24,0l-0,-0.48l-1.68,0l-0,-0.24l0.48,0c-0,-0.132 0.161,-0.24 0.36,-0.24c0.199,0 0.36,0.108 0.36,0.24l0.42,0l1.625,1.3l0.689,1.148l-0.13,0.073Zm-7.884,0.839l1.206,0l-1.206,0.65l-0,-0.65Zm0.769,1.2l1.151,-0.614l-0,0.614l-1.151,0Zm-6.781,-2.16l0.009,0.72l-0.477,0l-0,-0.72l0.468,0Zm12.252,-0.651l1.353,0.935l-0.348,0.196l-0.765,0l-0,0.24l0.339,0l-1.397,0.786c-0.065,0.036 -0.102,0.104 -0.102,0.174l-0.28,0l-0,0.24l-0.48,0l-0,-0.72l-0.48,0l-0,-0.48l1.2,0l-0,0.48l0.24,0l-0,-0.24l0.24,0l-0,-0.24l0.24,0c-0,-0.421 0.24,-0.48 0.24,-0.48l-0,-0.891Zm-16.08,1.611l0.859,-0.43c0.022,-0.01 0.047,-0.009 0.068,0.004c0.02,0.012 0.033,0.035 0.033,0.059l0,0.607l-0.24,0l0,-0.24l-0.72,0Zm16.793,0.144c-0.002,0.268 0.007,0.816 0.007,0.816l-0.24,0l-0,0.24l0.483,0c0.131,-0 0.237,-0.106 0.237,-0.237l-0,-0.003l0.48,0c-0,0 0.121,-0.24 0.48,-0.24c0.359,0 0.48,0.24 0.48,0.24l0.161,-0c-0.038,0.072 -0.091,0.137 -0.156,0.197c-0.158,0.145 -0.382,0.259 -0.642,0.35c-0.818,0.287 -1.981,0.35 -2.725,0.357c0.001,-0.01 0.002,-0.021 0.002,-0.032l0,-0.06c0,-0.051 0.041,-0.092 0.092,-0.092l0.491,-0c0.088,-0 0.172,-0.035 0.234,-0.097l0.143,-0.143l-0,-0.24l-0.96,0l-0,-0.28c0.033,0 0.067,-0.008 0.098,-0.026l1.335,-0.75Zm-6.953,-5.094l2.943,3.925c-0.019,0.021 -0.04,0.043 -0.063,0.065l-0,0.694l-2.64,1.408l-0,-0.063c0,-0.031 -0.013,-0.062 -0.035,-0.084c-0.022,-0.022 -0.053,-0.035 -0.084,-0.035l-0.063,0l2.146,-1.157c0.121,0.085 0.288,0.084 0.41,-0.013c0.149,-0.118 0.174,-0.335 0.056,-0.484l-2.67,-3.362l0,-0.894Zm-3.36,5.19l-0.24,0l0,-0.24l-0.24,0l0,-0.48l0.737,0c-0.142,0.453 -0.257,0.72 -0.257,0.72Zm0,0l2.4,-0c0.13,-0.13 0.299,-0.212 0.48,-0.234l-0,0.714l-0.24,0l-0,-0.24l-2.64,0l0,-0.24Zm6.468,-1.546l-2.121,-2.829l2.613,-1.431l0,0.517l-0.48,0.009l0,0.24c0,0 0.24,0.144 0.24,0.48c0,0.336 -0.24,0.48 -0.24,0.48l0,0.48l0.48,0l0,0.24l-0.96,0l-0,0.72c0.33,0.125 0.24,0.48 0.24,0.48c0.212,0.208 0.285,0.413 0.228,0.614Zm-11.101,0.826c0.367,-0.441 0.793,-0.48 0.793,-0.48l0.48,0l0,0.72l-0.72,0l0,-0.24l-0.553,0Zm10.562,0.72l0.45,-0.24l0.581,0l0,0.24l-1.031,0Zm-7.369,-0.24c0,0 0,-0.48 0.48,-0.48l0,0.48l-0.48,0Zm-2.64,1.44l0,0.48l-0.24,0l-1.92,-1.44l0.72,0l1.2,0.96l0.24,0Z"/></svg>