<svg width="100%" height="100%" viewBox="0 0 120 48" version="1.1" xmlns="http://www.w3.org/2000/svg" xmlns:xlink="http://www.w3.org/1999/xlink" xml:space="preserve" xmlns:serif="http://www.serif.com/" style="fill-rule:evenodd;clip-rule:evenodd;stroke-linejoin:round;stroke-miterlimit:2;"><path d="M120,0l0,48l-120,0l0,-48l120,0Zm-118.32,6.48c-0.795,-0 -1.44,0.645 -1.44,1.44c0,0.795 0.645,1.44 1.44,1.44l1.2,0c0.133,0 0.24,-0.107 0.24,-0.24l0.48,0l-0,0.385c-0,0.185 0.15,0.335 0.335,0.335l1.585,0c0,0.064 0.025,0.125 0.07,0.17c0.045,0.045 0.106,0.07 0.17,0.07l2.943,-0c0.113,-0 0.222,-0.045 0.302,-0.125l0.257,-0.257c0.063,-0.063 0.148,-0.098 0.236,-0.098l5.622,0l0,0.24l0.72,0l0,-0.48c2.476,0 4.952,-0.13 6.562,-0.398c0.297,-0.077 0.529,-0.308 0.607,-0.604c0.079,-0.296 -0.008,-0.612 -0.228,-0.826c-3.206,-2.915 -9.541,-3.66 -10.605,-3.688c-0.111,-0.001 -0.218,-0.046 -0.296,-0.124l-0.6,-0.722c-0.076,-0.076 -0.178,-0.118 -0.285,-0.118l-2.595,0c-0.064,-0 -0.125,0.025 -0.17,0.07c-0.045,0.045 -0.07,0.106 -0.07,0.17l-1.92,-0c-0.133,0 -0.24,0.107 -0.24,0.24l-1.2,-0c-0.133,-0 -0.24,0.107 -0.24,0.24l-2.008,-0c-0.084,-0 -0.152,0.068 -0.152,0.152l0,0.176c0,0.084 0.068,0.152 0.152,0.152l0.328,0l0,0.24l-1.68,0l0,-0.24l-0.72,0l0,0.24l3.36,1.92l0.24,0l0,0.24l-2.4,-0Z"/></svg>