<svg width="100%" height="100%" viewBox="0 0 120 48" version="1.1" xmlns="http://www.w3.org/2000/svg" xmlns:xlink="http://www.w3.org/1999/xlink" xml:space="preserve" xmlns:serif="http://www.serif.com/" style="fill-rule:evenodd;clip-rule:evenodd;stroke-linejoin:round;stroke-miterlimit:2;"><path d="M120,0l0,48l-120,0l0,-48l120,0Zm-60,6.137l-0,-0.447c-0,-0.094 -0.076,-0.17 -0.17,-0.17l-0.14,0c-0.045,-0 -0.088,0.018 -0.12,0.05c-0.032,0.032 -0.05,0.075 -0.05,0.12l-0,0.07l-1.441,-0c-0.132,-0 -0.239,0.107 -0.239,0.239c-3.463,-0.017 -4.883,-0.187 -6.72,0.961c-0.933,0.583 -1.267,1.301 -1.382,1.672l-1.188,0.687c-0.043,0.026 -0.07,0.072 -0.07,0.122l0,0.081c0,0.049 0.025,0.094 0.066,0.119c0.481,0.299 3.462,2.119 4.734,2.119l18.278,0c0.044,0 0.086,-0.023 0.11,-0.06c0.024,-0.037 0.028,-0.084 0.01,-0.125c-0.149,-0.335 -0.463,-1.042 -0.613,-1.386c-0.051,-0.117 -0.067,-0.246 -0.045,-0.372c0.013,-0.071 0.02,-0.144 0.02,-0.217c0,-1.033 -1.332,-1.939 -2.64,-2.124l-0,-0.096c-0,-0.099 -0.081,-0.18 -0.18,-0.18l-1.26,0l0,-0.24l-1.68,-0c-0.314,-0 -0.58,0.201 -0.679,0.48l-1.001,0c0,0 -1.401,-0.943 -3.6,-1.303Zm-25.68,-0.137c-3.816,0 -5.28,-0.24 -7.2,0.96c-0.933,0.583 -1.267,1.301 -1.382,1.672l-1.188,0.687c-0.043,0.026 -0.07,0.072 -0.07,0.122l0,0.081c0,0.049 0.025,0.094 0.066,0.119c0.481,0.299 3.462,2.119 4.734,2.119l14.64,-0.002c1.44,0.002 3.12,-0.997 3.12,-2.158c0,-1.161 -1.68,-2.16 -3.12,-2.158l-4.32,-0.002c0,0 -2.14,-1.44 -5.28,-1.44Zm-14.4,5.758c1.44,0.002 3.12,-0.997 3.12,-2.158c0,-1.161 -1.68,-2.16 -3.12,-2.158l-4.32,-0.002c0,-0 -2.14,-1.44 -5.28,-1.44c-1.932,0 -3.485,0.272 -4.395,0.481c-0.529,0.125 -1.036,0.326 -1.507,0.599l-3.868,2.239c-0.043,0.026 -0.07,0.072 -0.07,0.122l0,0.081c0,0.049 0.025,0.094 0.066,0.119c0.481,0.299 3.462,2.119 4.734,2.119l14.64,-0.002Z"/></svg>