<svg width="100%" height="100%" viewBox="0 0 500 200" version="1.1" xmlns="http://www.w3.org/2000/svg" xmlns:xlink="http://www.w3.org/1999/xlink" xml:space="preserve" xmlns:serif="http://www.serif.com/" style="fill-rule:evenodd;clip-rule:evenodd;stroke-linejoin:round;stroke-miterlimit:2;"><path d="M0,0l500,0l0,200l-500,0l0,-200Zm37.67,41.42l-6.57,-6.16c0,0 -15.98,-1.79 -25.86,-4.24c-0.63,-0.16 -1.06,-0.71 -1.06,-1.36l0,-1.44c0,-0.41 0.15,-0.76 0.45,-1.04c1.27,-1.15 6.05,-3.86 24.07,-7.7l1.34,-2.72c0,0 1.33,-1.05 3.96,-1.05c2.04,-4.82 8.2,-8.32 15.47,-8.32c7.28,0 13.44,3.5 15.48,8.32c2.63,0 3.95,1.05 3.95,1.05l1.34,2.72c18.03,3.84 22.81,6.55 24.07,7.7c0.3,0.28 0.46,0.63 0.46,1.04l0,1.44c0,0.65 -0.43,1.2 -1.06,1.36c-9.89,2.45 -25.86,4.24 -25.86,4.24l-6.57,6.16l-23.61,0Zm98.3,-1.56l-4.92,-4.6c0,0 -1.7,-0.19 -4.34,-0.54l-0.06,0.43c-0.35,0.14 -0.6,0.49 -0.6,0.9c0,0.31 0.14,0.58 0.36,0.76l-0.1,0.77c-0.07,0.43 -0.39,0.77 -0.82,0.84c-1.44,0.25 -2.55,0.18 -2.66,0.17c0.09,-0.66 -0.89,-1.35 -2.2,-1.53c-1.11,-0.16 -2.1,0.1 -2.43,0.59c-0.19,-0.16 -0.4,-0.34 -0.63,-0.55l0.28,-2c0.67,-0.47 1.12,-0.57 1.12,-0.57c-0.77,-0.51 -0.89,-1.04 -0.89,-1.04c-4.36,-0.68 -9.07,-1.53 -12.88,-2.47c-0.64,-0.16 -1.07,-0.71 -1.07,-1.36l0,-1.44c0,-0.41 0.16,-0.76 0.46,-1.04c1.27,-1.15 6.05,-3.86 24.07,-7.7l1.34,-2.72c0,0 1.33,-1.05 3.95,-1.05c2.05,-4.82 8.2,-8.32 15.48,-8.32c7.28,0 13.44,3.5 15.48,8.32c2.62,0 3.95,1.05 3.95,1.05l1.34,2.72c18.03,3.84 22.8,6.55 24.07,7.7c0.3,0.28 0.46,0.63 0.46,1.04l0,1.44c0,0.65 -0.43,1.2 -1.06,1.36c-3.81,0.94 -8.53,1.79 -12.89,2.47c0,0 -0.12,0.53 -0.88,1.04c0,0 0.44,0.1 1.11,0.57l0.29,2c-0.23,0.21 -0.45,0.39 -0.64,0.55c-0.32,-0.49 -1.31,-0.75 -2.43,-0.59c-1.31,0.18 -2.29,0.87 -2.19,1.53l-0.01,0c-0.11,0.01 -1.21,0.08 -2.65,-0.17c-0.44,-0.07 -0.76,-0.41 -0.82,-0.84l-0.11,-0.77c0.22,-0.18 0.36,-0.45 0.36,-0.76c0,-0.41 -0.25,-0.76 -0.6,-0.9l-0.06,-0.43c-2.64,0.35 -4.34,0.54 -4.34,0.54l-4.91,4.6l-0.78,0l0,0.6c0,0.35 -0.29,0.63 -0.64,0.63l-0.63,0l3.21,5.01c0,0 -0.6,0.13 -1.59,0.3c-1.04,-1.11 -5.61,-0.62 -6.42,0.67c-0.7,0.02 -1.4,0.02 -2.1,0.02c-0.24,-0.83 -1.01,-1.46 -1.96,-1.62c0,2.13 -5.12,2.13 -5.12,0c-0.95,0.16 -1.71,0.79 -1.96,1.62c-0.7,0 -1.39,0 -2.09,-0.02c-0.82,-1.29 -5.38,-1.78 -6.43,-0.67c-0.98,-0.17 -1.58,-0.3 -1.58,-0.3l3.2,-5.01l-0.63,0c-0.35,0 -0.64,-0.28 -0.64,-0.63l0,-0.6l-0.77,0Zm99.95,0l-4.91,-4.6c0,0 -1.7,-0.19 -4.34,-0.54l-0.06,0.43c-0.35,0.14 -0.6,0.49 -0.6,0.9c0,0.31 0.14,0.58 0.36,0.76l-0.11,0.77c-0.06,0.43 -0.38,0.77 -0.82,0.84c-1.44,0.25 -2.54,0.18 -2.65,0.17l-0.01,0c0.1,-0.66 -0.88,-1.35 -2.19,-1.53c-1.12,-0.16 -2.11,0.1 -2.43,0.59c-0.19,-0.16 -0.41,-0.34 -0.64,-0.55l0.29,-2c0.67,-0.47 1.12,-0.57 1.12,-0.57c-0.77,-0.51 -0.89,-1.04 -0.89,-1.04c-4.36,-0.68 -9.08,-1.53 -12.89,-2.47c-0.63,-0.16 -1.06,-0.71 -1.06,-1.36l0,-1.44c0,-0.41 0.16,-0.76 0.46,-1.04c1.27,-1.15 6.04,-3.86 24.07,-7.7l1.34,-2.72c0,0 1.33,-1.05 3.95,-1.05c2.05,-4.82 8.2,-8.32 15.48,-8.32c7.28,0 13.43,3.5 15.48,8.32c2.62,0 3.95,1.05 3.95,1.05l1.34,2.72c18.03,3.84 22.8,6.55 24.07,7.7c0.3,0.28 0.46,0.63 0.46,1.04l0,1.44c0,0.65 -0.43,1.2 -1.07,1.36c-3.81,0.94 -8.52,1.79 -12.88,2.47c0,0 -0.12,0.53 -0.89,1.04c0,0 0.45,0.1 1.12,0.57l0.28,2c-0.23,0.21 -0.44,0.39 -0.63,0.55c-0.33,-0.49 -1.32,-0.75 -2.43,-0.59c-1.31,0.18 -2.29,0.87 -2.2,1.53c-0.11,0.01 -1.22,0.08 -2.66,-0.17c-0.43,-0.07 -0.75,-0.41 -0.81,-0.84l-0.11,-0.77c0.22,-0.18 0.36,-0.45 0.36,-0.76c0,-0.41 -0.25,-0.76 -0.6,-0.9l-0.06,-0.43c-2.64,0.35 -4.34,0.54 -4.34,0.54l-4.92,4.6l-0.77,0l0,0.6c0,0.35 -0.29,0.63 -0.64,0.63l-0.63,0l3.21,5.01c0,0 -0.61,0.13 -1.59,0.3c-1.05,-1.11 -5.61,-0.62 -6.43,0.67c-0.69,0.02 -1.39,0.02 -2.09,0.02c-0.25,-0.83 -1.01,-1.46 -1.96,-1.62c0,2.13 -5.12,2.13 -5.12,0c-0.95,0.16 -1.72,0.79 -1.96,1.62c-0.7,0 -1.4,0 -2.09,-0.02c-0.82,-1.29 -5.38,-1.78 -6.43,-0.67c-0.99,-0.17 -1.59,-0.3 -1.59,-0.3l3.21,-5.01l-0.63,0c-0.35,0 -0.64,-0.28 -0.64,-0.63l0,-0.6l-0.78,0Zm99.96,0l-4.91,-4.6c0,0 -1.7,-0.19 -4.34,-0.54l-0.06,0.43c-0.36,0.14 -0.6,0.49 -0.6,0.9c0,0.31 0.14,0.58 0.36,0.76l-0.11,0.77c-0.06,0.43 -0.38,0.77 -0.82,0.84c-1.44,0.25 -2.54,0.18 -2.65,0.17l-0.01,0c0.1,-0.66 -0.89,-1.35 -2.19,-1.53c-1.12,-0.16 -2.11,0.1 -2.43,0.59c-0.19,-0.16 -0.41,-0.34 -0.64,-0.55l0.29,-2c0.67,-0.47 1.11,-0.57 1.11,-0.57c-0.76,-0.51 -0.88,-1.04 -0.88,-1.04c-4.36,-0.68 -9.08,-1.53 -12.89,-2.47c-0.63,-0.16 -1.06,-0.71 -1.06,-1.36l0,-1.44c0,-0.41 0.16,-0.76 0.46,-1.04c1.26,-1.15 6.04,-3.86 24.07,-7.7l1.34,-2.72c0,0 1.32,-1.05 3.95,-1.05c2.04,-4.82 8.2,-8.32 15.48,-8.32c7.28,0 13.43,3.5 15.47,8.32c2.63,0 3.96,1.05 3.96,1.05l1.34,2.72c18.02,3.84 22.8,6.55 24.07,7.7c0.3,0.28 0.45,0.63 0.45,1.04l0,1.44c0,0.65 -0.43,1.2 -1.06,1.36c-3.81,0.94 -8.52,1.79 -12.88,2.47c0,0 -0.12,0.53 -0.89,1.04c0,0 0.45,0.1 1.12,0.57l0.28,2c-0.23,0.21 -0.44,0.39 -0.63,0.55c-0.33,-0.49 -1.32,-0.75 -2.43,-0.59c-1.31,0.18 -2.29,0.87 -2.2,1.53l-0.01,0c-0.1,0.01 -1.21,0.08 -2.65,-0.17c-0.43,-0.07 -0.75,-0.41 -0.82,-0.84l-0.11,-0.77c0.23,-0.18 0.37,-0.45 0.37,-0.76c0,-0.41 -0.25,-0.76 -0.6,-0.9l-0.06,-0.43c-2.64,0.35 -4.35,0.54 -4.35,0.54l-4.91,4.6l-0.78,0l0,0.6c0,0.35 -0.28,0.63 -0.63,0.63l-0.64,0l3.21,5.01c0,0 -0.6,0.13 -1.58,0.3c-1.05,-1.11 -5.61,-0.62 -6.43,0.67c-0.7,0.02 -1.39,0.02 -2.09,0.02c-0.25,-0.83 -1.01,-1.46 -1.96,-1.62c0,2.13 -5.12,2.13 -5.12,0c-0.95,0.16 -1.72,0.79 -1.96,1.62c-0.7,0 -1.4,0 -2.1,-0.02c-0.81,-1.29 -5.38,-1.78 -6.42,-0.67c-0.99,-0.17 -1.59,-0.3 -1.59,-0.3l3.21,-5.01l-0.63,0c-0.35,0 -0.64,-0.28 -0.64,-0.63l0,-0.6l-0.78,0Zm99.96,0l-4.91,-4.6c-0,0 -1.71,-0.19 -4.34,-0.54l-0.06,0.43c-0.36,0.14 -0.61,0.49 -0.61,0.9c-0,0.31 0.15,0.58 0.37,0.76l-0.11,0.77c-0.06,0.43 -0.39,0.77 -0.82,0.84c-1.44,0.25 -2.55,0.18 -2.65,0.17l-0.01,0c0.09,-0.66 -0.89,-1.35 -2.19,-1.53c-1.12,-0.16 -2.11,0.1 -2.43,0.59c-0.2,-0.16 -0.41,-0.34 -0.64,-0.55l0.29,-2c0.67,-0.47 1.11,-0.57 1.11,-0.57c-0.77,-0.51 -0.89,-1.04 -0.89,-1.04c-4.35,-0.68 -9.07,-1.53 -12.88,-2.47c-0.63,-0.16 -1.06,-0.71 -1.06,-1.36l-0,-1.44c-0,-0.41 0.15,-0.76 0.46,-1.04c1.26,-1.15 6.04,-3.86 24.06,-7.7l1.35,-2.72c-0,0 1.32,-1.05 3.95,-1.05c2.04,-4.82 8.2,-8.32 15.48,-8.32c7.27,0 13.43,3.5 15.47,8.32c2.63,0 3.96,1.05 3.96,1.05l1.34,2.72c18.02,3.84 22.8,6.55 24.07,7.7c0.3,0.28 0.45,0.63 0.45,1.04l-0,1.44c-0,0.65 -0.43,1.2 -1.06,1.36c-3.81,0.94 -8.53,1.79 -12.88,2.47c-0,0 -0.12,0.53 -0.89,1.04c-0,0 0.44,0.1 1.12,0.57l0.28,2c-0.23,0.21 -0.44,0.39 -0.64,0.55c-0.32,-0.49 -1.31,-0.75 -2.43,-0.59c-1.3,0.18 -2.28,0.87 -2.19,1.53l-0.01,0c-0.1,0.01 -1.21,0.08 -2.65,-0.17c-0.43,-0.07 -0.76,-0.41 -0.82,-0.84l-0.11,-0.77c0.23,-0.18 0.37,-0.45 0.37,-0.76c-0,-0.41 -0.25,-0.76 -0.61,-0.9l-0.06,-0.43c-2.63,0.35 -4.34,0.54 -4.34,0.54l-4.91,4.6l-0.78,0l-0,0.6c-0,0.35 -0.28,0.63 -0.63,0.63l-0.64,0l3.21,5.01c-0,0 -0.6,0.13 -1.59,0.3c-1.04,-1.11 -5.6,-0.62 -6.42,0.67c-0.7,0.02 -1.39,0.02 -2.09,0.02c-0.25,-0.83 -1.01,-1.46 -1.96,-1.62c-0,2.13 -5.13,2.13 -5.13,0c-0.95,0.16 -1.71,0.79 -1.96,1.62c-0.69,0 -1.39,0 -2.09,-0.02c-0.82,-1.29 -5.38,-1.78 -6.42,-0.67c-0.99,-0.17 -1.59,-0.3 -1.59,-0.3l3.21,-5.01l-0.64,0c-0.34,0 -0.63,-0.28 -0.63,-0.63l-0,-0.6l-0.78,0Z"/></svg>