<svg width="100%" height="100%" viewBox="0 0 500 200" version="1.1" xmlns="http://www.w3.org/2000/svg" xmlns:xlink="http://www.w3.org/1999/xlink" xml:space="preserve" xmlns:serif="http://www.serif.com/" style="fill-rule:evenodd;clip-rule:evenodd;stroke-linejoin:round;stroke-miterlimit:2;"><path d="M0,0l500,0l0,200l-500,0l0,-200Zm8.98,37.41c0,0.47 0.31,0.87 0.77,0.98c0.93,0.24 2.75,0.58 5.51,0.58l0,-0.78l1.42,-0c-0.33,0.87 -0.51,1.8 -0.51,2.78c0,4.34 3.52,7.86 7.86,7.86c4,-0 7.29,-2.98 7.79,-6.84l34.75,0l0.65,-1.02l2.94,0c0,4.34 3.52,7.86 7.86,7.86c4.34,0 7.85,-3.52 7.85,-7.86c0,-0.98 -0.18,-1.91 -0.5,-2.78l1.35,0l0,1.9l1.49,0c0.55,0 1.01,-0.45 1.01,-1.01l0,-4.78l0.64,-0.64l0,-3.5l1.48,0l0,-4.46l-1.02,0l0,-0.78c0,-0.51 -0.37,-0.94 -0.87,-1c-5.15,-0.66 -16.22,-1.68 -25.5,-2.31c0,0 -4.04,-8.31 -6.13,-12.39c0,0 -0.24,-0.41 -2.23,-0.41l0,-0.15c0,-0.55 -0.45,-1.01 -1.01,-1.01l-41.24,0c-0.56,0 -1.01,0.46 -1.01,1.01l0,0.15l-1.34,0c-0.51,0 -0.94,0.38 -1,0.89c-0.28,2.32 -1.01,8.59 -1.01,11.91l0,8.3l-0.66,0c-0.3,0 -0.55,0.25 -0.55,0.55l0,4.41c0,0.3 0.25,0.55 0.55,0.55l0.66,0l0,1.99Zm99.99,0c0,0.47 0.3,0.87 0.76,0.98c0.93,0.24 2.75,0.58 5.51,0.58l0,-0.78l1.42,0c-0.32,0.87 -0.5,1.8 -0.5,2.78c0,4.34 3.51,7.86 7.85,7.86c4,0 7.29,-2.98 7.79,-6.84l34.75,0l0.65,-1.02l2.94,0c0,4.34 3.52,7.86 7.86,7.86c4.34,0 7.86,-3.52 7.86,-7.86c0,-0.98 -0.18,-1.91 -0.51,-2.78l1.36,0l0,1.9l1.48,0c0.55,0 1.01,-0.45 1.01,-1.01l0,-4.78l0.74,-0.64l0,-3.5l1.38,0l0,-4.46l-1.02,0l0,-0.78c0,-0.51 -0.37,-0.94 -0.87,-1c-5.15,-0.66 -16.21,-1.68 -25.5,-2.31c0,0 -4.04,-8.31 -6.13,-12.39c0,0 -0.24,-0.41 -2.22,-0.41l0,-0.15c0,-0.55 -0.46,-1.01 -1.01,-1.01l-41.25,0c-0.56,0 -1.01,0.46 -1.01,1.01l0,0.15l-1.34,0c-0.51,0 -0.94,0.38 -1,0.89c-0.21,1.76 -0.68,5.79 -0.89,9.08l-1.36,0c-1.02,0 -1.86,0.83 -1.86,1.86l0,9.73c0,1.02 0.84,1.85 1.86,1.85l0.04,0l0,2.65c0,0.3 0.24,0.55 0.54,0.55l0.67,0l0,1.99Zm100.33,0.76c0.12,0.1 0.26,0.18 0.43,0.22c0.26,0.07 0.59,0.14 1,0.22l-0,6.2l1.46,0l-0,-6c0.84,0.1 1.86,0.16 3.05,0.16l-0,-0.78l1.42,0c-0.33,0.87 -0.5,1.8 -0.5,2.78c-0,4.34 3.51,7.86 7.85,7.86c4,0 7.29,-2.98 7.79,-6.84l33.93,0l-0,2.82l1.46,0l-0,-3.82l0.01,-0.02l2.94,0c-0,4.34 3.52,7.86 7.86,7.86c4.34,0 7.85,-3.52 7.85,-7.86c-0,-0.98 -0.17,-1.91 -0.5,-2.78l1.36,0l-0,1.9c1.48,0 2.97,0.01 4.46,0.01c0.9,0 1.64,-0.74 1.64,-1.64l-0,-2.2l1.56,0l-0,-1.62l-1.56,0l-0,-2.92l1.56,0l-0,-1.62l-1.56,0l-0,-4.34l-1.26,0l-0,6.34l-1.61,0l-0,-1.94l1.38,0l-0,-4.46l-1.02,0l-0,-0.78c-0,-0.51 -0.37,-0.94 -0.87,-1c-5.15,-0.66 -16.22,-1.68 -25.5,-2.31c-0,0 -4.04,-8.31 -6.13,-12.39c-0,0 -0.24,-0.41 -2.22,-0.41l-0,-0.15c-0,-0.55 -0.46,-1.01 -1.02,-1.01l-5.97,0l-0,-4.96l-2.9,0l-0,1.08l-6.56,3.88l-25.81,0c-0.56,0 -1.01,0.46 -1.01,1.01l-0,0.15l-1.34,0c-0.51,0 -0.94,0.38 -1,0.89c-0.22,1.76 -0.68,5.79 -0.9,9.08l-1.35,0c-1.02,0 -1.86,0.83 -1.86,1.86l-0,9.73c-0,1.02 0.84,1.85 1.86,1.85l0.04,0l-0,2.65c-0,0.3 0.24,0.55 0.54,0.55l0.66,0l-0,0.36l-0.44,0c-0.49,0 -0.89,0.4 -0.89,0.89l-0,0.61c-0,0.49 0.4,0.89 0.89,0.89l0.78,0Zm79.9,0.68l0,-1.95l2.35,0l0.01,1.56c0,0.21 -0.18,0.39 -0.39,0.39l-1.97,0Zm0,-2.79l0,-1.76l0.74,-0.64l0,-0.73l1.61,0l0,3.13l-2.35,0Zm-43.51,-28.41l-3.3,0l3.3,-1.95l0,1.95Z"/></svg>