<svg width="100%" height="100%" viewBox="0 0 500 200" version="1.1" xmlns="http://www.w3.org/2000/svg" xmlns:xlink="http://www.w3.org/1999/xlink" xml:space="preserve" xmlns:serif="http://www.serif.com/" style="fill-rule:evenodd;clip-rule:evenodd;stroke-linejoin:round;stroke-miterlimit:2;"><path d="M0,0l500,0l0,200l-500,0l0,-200Zm7.62,36.77l0.42,0l0,-2.87l0.7,-1.29l0,-1.42c0,0 1.51,-2.13 3.77,-3.19l2.92,0c0,0 7.75,-3.35 15.99,-6.13c2.28,-0.77 4.33,-1.1 6.73,-1.1l12.47,0c3.43,0 6.37,0.69 9.43,2.23c2.55,1.29 5.63,3.17 8.37,5.79c7.43,0.3 13.29,0.47 20.07,3.02c2.31,0.87 3.66,3.07 3.66,5.53l0,5.76c0,0.46 -0.38,0.84 -0.84,0.84l-2.29,0l0,0.31c0,0.43 -0.35,0.78 -0.78,0.78l-7.85,0c-1.2,1.98 -3.38,3.3 -5.86,3.3c-2.49,0 -4.66,-1.32 -5.87,-3.3l-39.25,0c-1.2,1.98 -3.38,3.3 -5.86,3.3c-2.92,0 -5.41,-1.82 -6.4,-4.39l-6.36,0c-1.55,0 -2.81,-1.27 -2.81,-2.82l0,-1.27l-0.36,0c-0.33,0 -0.6,-0.27 -0.6,-0.6l0,-1.89c0,-0.33 0.27,-0.59 0.6,-0.59Zm99.98,0l0.43,0l0,-2.87l0.69,-1.29l0,-1.42c0,0 1.51,-2.13 3.78,-3.19l0.42,0l-0.58,-0.75l-2.43,0c-0.46,0 -0.84,-0.38 -0.84,-0.84c0,-0.46 0.38,-0.83 0.84,-0.83l6.4,0c0.46,0 0.83,0.37 0.83,0.83c0,0.46 -0.37,0.84 -0.83,0.84l-1.35,0l0.55,0.71c0.91,-0.39 8.19,-3.49 15.9,-6.09c2.27,-0.77 4.33,-1.1 6.73,-1.1l12.47,0c3.43,0 6.37,0.69 9.43,2.23c2.55,1.29 5.63,3.17 8.37,5.79c7.43,0.3 13.29,0.47 20.07,3.02c2.31,0.87 3.65,3.07 3.65,5.53l0,5.76c0,0.46 -0.38,0.84 -0.84,0.84l-2.28,0l0,0.31c0,0.43 -0.35,0.78 -0.78,0.78l-7.85,0c-1.2,1.98 -3.38,3.3 -5.86,3.3c-2.49,0 -4.67,-1.32 -5.87,-3.3l-39.25,0c-1.2,1.98 -3.38,3.3 -5.86,3.3c-2.92,0 -5.42,-1.82 -6.41,-4.39l-6.36,0c-1.54,0 -2.81,-1.27 -2.81,-2.82l0,-1.27l-0.36,0c-0.32,0 -0.59,-0.27 -0.59,-0.6l0,-1.89c0,-0.33 0.27,-0.59 0.59,-0.59Zm100,0l0.42,0l0,-2.87l0.7,-1.29l0,-1.42c0,0 1.51,-2.13 3.77,-3.19l0.43,0l-0.58,-0.75l-2.44,0c-0.46,0 -0.83,-0.38 -0.83,-0.84c0,-0.46 0.37,-0.83 0.83,-0.83l6.4,0c0.46,0 0.84,0.37 0.84,0.83c0,0.46 -0.38,0.84 -0.84,0.84l-1.34,0l0.55,0.71c0.9,-0.39 8.19,-3.49 15.9,-6.09c2.27,-0.77 4.32,-1.1 6.72,-1.1l12.47,0c3.43,0 6.37,0.69 9.44,2.23c2.55,1.29 5.62,3.17 8.37,5.79l14,0l0,1.27c1.98,0.41 3.98,0.97 6.07,1.75c2.3,0.87 3.65,3.07 3.65,5.53l0,1.9l1.17,0c0.44,0 0.8,0.36 0.8,0.8l0,1.43l0.29,0c0.44,0 0.8,0.36 0.8,0.8l0,2.25l0.26,0c0.44,0 0.8,0.36 0.8,0.8l0,0.88c0,0.44 -0.36,0.8 -0.8,0.8l-16.88,0c-1.13,0.84 -2.54,1.33 -4.06,1.33c-1.52,0 -2.92,-0.49 -4.06,-1.33l-42.86,0c-1.13,0.84 -2.54,1.33 -4.06,1.33c-2.02,0 -3.84,-0.88 -5.1,-2.27l-6.51,0c-3.31,0 -6.01,-2.7 -6.01,-6.01l0,-1.1c0,-0.56 0.46,-1.01 1.01,-1.01l0.08,0l0,-0.58c0,-0.33 0.27,-0.59 0.6,-0.59Z"/></svg>