<svg width="100%" height="100%" viewBox="0 0 120 48" version="1.1" xmlns="http://www.w3.org/2000/svg" xmlns:xlink="http://www.w3.org/1999/xlink" xml:space="preserve" xmlns:serif="http://www.serif.com/" style="fill-rule:evenodd;clip-rule:evenodd;stroke-linejoin:round;stroke-miterlimit:2;"><path d="M0,0l120,0l0,48l-120,0l0,-48Zm7.68,0l0,0.24l-0.48,0l0,0.257c0,0.058 0.023,0.114 0.064,0.155c0.042,0.041 0.097,0.064 0.156,0.064c0.375,-0.009 1.131,0.043 1.46,0.484l0,0.48c0,0 -2.96,-0.139 -4.673,0.435c-0.076,0.027 -0.127,0.099 -0.127,0.179l0,0.199c0,0.086 0.059,0.162 0.142,0.183c0.518,0.127 2.258,0.62 2.258,1.404c0,0.524 -0.254,0.794 -0.393,0.902c-0.051,0.033 -0.082,0.089 -0.082,0.15c-0.005,0.139 -0.005,0.388 -0.005,0.388l0.109,0l0.744,-0.63c0.069,-0.058 0.157,-0.09 0.247,-0.09l0.673,0c0.093,-0 0.182,0.033 0.251,0.094c0.128,0.177 0.354,0.591 0.374,1.457c0.004,0.071 0.063,0.128 0.134,0.128c0.056,0.001 0.108,0.001 0.108,0.001c0,-0 0.344,-0.48 1.2,-0.48c0.856,0 0.96,0.48 0.96,0.48l-0,0.477c0,0.151 -0.069,0.293 -0.187,0.386c-0.631,0.443 -2.817,1.786 -6.293,1.777l-0,0.24l-0.48,-0l-0,-0.24l-0.72,-0.72l-0.48,0l-0,0.24l0.24,0l-0,0.48l-0.48,-0l-0.24,-0.24l-0.24,-0l-0,-0.24l-0.48,0l-0,0.48l-0.48,-0c-0,-0 0.24,0.72 0.96,1.2l0.96,0c-0,0 0.24,-0.075 0.24,-0.24c-0,0 5.836,0.312 6.96,-0.48l0.24,0l-0,1.44l-0.96,0l-0,0.72c-0,0 0.023,0.24 0.24,0.24l0.96,0c-0,0 0.94,-0.522 1.44,-1.2l0.24,-0l-0,0.24l0.48,-0c-0,-0 0.48,-0.543 0.48,-1.2l1.68,-0c-0,-0 0.76,-0.14 1.2,-0.48l-0,0.72l1.2,-0l0,0.24l0.96,-0l-0,0.24l0.24,-0l0,0.48l0.24,-0l0,-0.24l0.24,-0l0,0.24l0.24,-0l0,-0.48l0.24,-0l0,-0.48l-0.24,-0l0,-0.24l-0.24,-0l0,-0.48l0.48,-0l0,0.24l0.48,-0l0,-0.48l0.24,-0l0,-0.72l-1.2,0l0,0.24l-0.96,0l0,-0.24c0,0 0.679,-0.538 1.2,-0.96l0.48,-0l0,0.24l0.48,-0l0,-0.24l0.24,-0l0,0.24l0.301,0c0.11,-0 0.21,-0.062 0.259,-0.16l0.16,-0.32l0.24,-0l0,0.24l0.147,-0c0.025,-0 0.048,0.01 0.066,0.027c0.017,0.018 0.027,0.041 0.027,0.066l0,0.054c0,0.025 -0.01,0.048 -0.027,0.066c-0.018,0.017 -0.041,0.027 -0.066,0.027l-0.147,-0l0,0.48l0.267,0c0.138,0 0.272,-0.047 0.38,-0.133l0.866,-0.693c0.106,-0.085 0.167,-0.213 0.167,-0.348l0,-0.569c0,-0.047 -0.019,-0.092 -0.052,-0.125c-0.033,-0.033 -0.078,-0.052 -0.125,-0.052l-0.873,-0l-0.51,-0.583c-0.076,-0.087 -0.186,-0.137 -0.302,-0.137l-0.298,-0l0,0.24l-0.338,-0l-0.622,-0.72l-0.96,-0l-2.4,1.2l-0.96,-0c0,-0 -0.516,-0.5 -0.72,-0.96c-0.204,-0.46 -0.574,-1.071 -0.48,-2.88l0.48,-0l0,-0.183c0,-0.187 -0.092,-0.361 -0.247,-0.466c-0.499,-0.33 -1.679,-1.07 -2.873,-1.511c0,-0 -1.201,-0.24 -4.08,-0.24Z"/></svg>