<svg width="100%" height="100%" viewBox="0 0 120 48" version="1.1" xmlns="http://www.w3.org/2000/svg" xmlns:xlink="http://www.w3.org/1999/xlink" xml:space="preserve" xmlns:serif="http://www.serif.com/" style="fill-rule:evenodd;clip-rule:evenodd;stroke-linejoin:round;stroke-miterlimit:2;"><path d="M120,0l0,48l-120,0l0,-48l120,0Zm-116.662,10.8c0.301,0.571 0.9,0.96 1.59,0.96c0.588,-0 1.11,-0.283 1.438,-0.72l10.803,-0c0.328,0.437 0.85,0.72 1.438,0.72c0.689,-0 1.289,-0.389 1.59,-0.96l2.175,-0c0.104,-0 0.188,-0.084 0.188,-0.188l0,-0.292c0,-0.133 -0.107,-0.24 -0.24,-0.24l0,-0.827c0,-1.046 -0.756,-1.939 -1.788,-2.111l-3.972,-0.662c-1.249,-0.78 -2.497,-1.358 -3.216,-1.671c-0.399,-0.164 -0.826,-0.249 -1.257,-0.249l-3.687,0c-1.901,0 -3.36,0.48 -3.36,0.48l-1.018,0c-0.117,-0 -0.228,0.046 -0.31,0.128l-1.312,1.312c-0.678,0.678 -0.48,1.44 -0.48,1.44l-0.321,0.321c-0.102,0.102 -0.159,0.24 -0.159,0.383l0,1.096c0,0.597 0.484,1.08 1.08,1.08l0.818,0Zm26.669,-6l-0.967,0l0,-0.24l-1.68,0l0,0.24l0.24,0l0,0.24l0.422,0c-0.117,-0 -0.228,0.046 -0.31,0.128l-1.312,1.312c-0.678,0.678 -0.48,1.44 -0.48,1.44l-0.561,0.565c-0.102,0.101 -0.159,0.239 -0.159,0.382l0,1.096c0,0.107 0.023,0.203 0.065,0.288c0.08,0.284 0.232,0.546 0.445,0.759c0.326,0.327 0.769,0.51 1.231,0.51l1.09,0c0.264,0.153 0.57,0.24 0.897,0.24c0.326,0 0.633,-0.087 0.897,-0.24l11.885,0c0.264,0.153 0.57,0.24 0.897,0.24c0.326,0 0.633,-0.087 0.897,-0.24l4.016,0l0,-0.24l-0.24,0l0,-0.24l-0.24,0l0,-1.2l-0.24,-0c-0,-0.265 -0.215,-0.48 -0.48,-0.48l0,-0.107c0,-1.046 -0.756,-1.939 -1.788,-2.111l-0.612,-0.102l0,-0.32l-1.92,-0c-0,-0.064 -0.025,-0.125 -0.07,-0.17c-0.045,-0.045 -0.106,-0.07 -0.17,-0.07l-1.2,0c-1.249,-0.78 -2.497,-1.358 -3.216,-1.671c-0.399,-0.164 -0.826,-0.249 -1.257,-0.249l-3.687,0c-0.951,0 -1.791,0.12 -2.393,0.24Z"/></svg>