<svg width="100%" height="100%" viewBox="0 0 120 48" version="1.1" xmlns="http://www.w3.org/2000/svg" xmlns:xlink="http://www.w3.org/1999/xlink" xml:space="preserve" xmlns:serif="http://www.serif.com/" style="fill-rule:evenodd;clip-rule:evenodd;stroke-linejoin:round;stroke-miterlimit:2;"><path d="M0,11.04l0,-11.04l120,0l0,48l-120,0l0,-36.72l3.891,-0c0.338,0.299 0.783,0.48 1.269,0.48c0.487,-0 0.931,-0.181 1.27,-0.48l11.144,-0c0.339,0.299 0.783,0.48 1.27,0.48c0.486,-0 0.931,-0.181 1.269,-0.48l3.887,-0l0,-0.48l-0.24,-0l-0,-0.96l-0.24,0l-0,-0.24c-0,0 -0.407,-1.49 -4.56,-2.4l-1.2,0l-0,0.48l-2.88,-0c-0,-0.133 -0.107,-0.24 -0.24,-0.24l-0.96,0l-0,-0.084c-0,-0.041 -0.016,-0.081 -0.046,-0.11c-0.029,-0.03 -0.069,-0.046 -0.11,-0.046l-0.408,0c-0.041,-0 -0.081,0.016 -0.11,0.046c-0.03,0.029 -0.046,0.069 -0.046,0.11l-0,0.084l-0.24,0c-0,0 -1.088,-0.281 -1.598,-1.06c-0.052,-0.085 -0.143,-0.136 -0.242,-0.136c-0.572,-0.004 -2.517,-0.004 -3.2,-0.004c-0.133,-0 -0.24,0.107 -0.24,0.24l-1.144,-0c-0.198,-0 -0.394,0.034 -0.58,0.101c-0.688,0.274 -2.528,1.075 -4.276,2.539l-0,0.72l-0.24,0l-0.96,0.96l-0,0.074c-0,0.092 -0.074,0.166 -0.166,0.166l-0.074,-0Z"/></svg>