<svg width="100%" height="100%" viewBox="0 0 216 120" version="1.1" xmlns="http://www.w3.org/2000/svg" xmlns:xlink="http://www.w3.org/1999/xlink" xml:space="preserve" xmlns:serif="http://www.serif.com/" style="fill-rule:evenodd;clip-rule:evenodd;stroke-linejoin:round;stroke-miterlimit:2;"><path d="M0,7.68l0,-7.68l216,0l-0,120l-216,-0l0,-111.36c-0,0.064 0.025,0.125 0.07,0.17c0.045,0.045 0.106,0.07 0.17,0.07c-0,-0 -0,0.045 0.001,0.095c0,0.092 0.047,0.177 0.125,0.225c1.066,0.637 2.514,0.64 2.514,0.64l0.015,0.002c0.119,0.946 0.927,1.678 1.905,1.678c0.805,-0 1.495,-0.497 1.78,-1.2c1.785,-0 7.317,-0 11.319,-0.002c0.284,0.704 0.975,1.202 1.781,1.202c0.807,-0 1.499,-0.499 1.782,-1.205c0.343,-0.001 0.595,-0.001 0.734,-0.002c0.108,-0 0.214,-0.017 0.316,-0.05c0.66,-0.214 1.138,-0.585 1.358,-0.776c0.083,-0.079 0.13,-0.189 0.13,-0.304c0,-0.133 0,-0.329 -0,-0.542c0,0.063 0.025,0.124 0.07,0.169c0.045,0.045 0.106,0.07 0.17,0.07c-0,-0 0,0.045 0.001,0.095c0,0.092 0.047,0.177 0.125,0.225c1.066,0.637 2.514,0.64 2.514,0.64l0.015,0.002c0.119,0.946 0.927,1.678 1.905,1.678c0.805,-0 1.495,-0.497 1.78,-1.2c1.785,-0 7.317,-0 11.319,-0.002c0.284,0.704 0.975,1.202 1.781,1.202c0.807,-0 1.499,-0.499 1.782,-1.205c0.343,-0.001 0.595,-0.001 0.734,-0.002c0.108,-0 0.214,-0.017 0.316,-0.05c0.66,-0.214 1.138,-0.585 1.358,-0.776c0.083,-0.079 0.13,-0.189 0.13,-0.304c0,-0.133 0,-0.329 -0,-0.542c0,0.063 0.025,0.124 0.07,0.169c0.045,0.045 0.106,0.07 0.17,0.07l-0,0.24l0.001,0c-0,0.103 0.05,0.199 0.135,0.257c0.359,0.234 1.398,0.851 2.718,1.104c0.319,0.617 0.964,1.039 1.706,1.039c0.606,-0 1.146,-0.281 1.498,-0.72l11.884,0c0.352,0.439 0.892,0.72 1.498,0.72c0.609,-0 1.152,-0.284 1.504,-0.727c0.506,-0.038 1.746,-0.437 2.694,-1.313c0.078,-0.074 0.122,-0.176 0.122,-0.283c-0.001,-0.397 -0.002,-1.389 -0.005,-1.575c0,-0.125 -0.042,-0.246 -0.119,-0.345c-1.514,-1.795 -6.836,-1.997 -6.836,-1.997c-1.039,-0.754 -1.986,-1.331 -2.743,-1.753c-1.055,-0.582 -2.24,-0.887 -3.444,-0.887l-6.053,-0c-0.133,-0 -0.24,0.107 -0.24,0.24l-1.988,-0c-0.095,-0 -0.172,0.077 -0.172,0.172l0,0.308l0.131,-0c0.06,0 0.109,0.049 0.109,0.109l0,0.262c-0,0.06 -0.049,0.109 -0.109,0.109c-0.008,-0 -0.016,-0 -0.024,0.001c-0.073,-0 -0.144,0.017 -0.208,0.051c-0.93,0.489 -1.554,1.104 -1.752,1.314c-0.043,0.048 -0.067,0.111 -0.067,0.176l-0,0.138c-0.133,0 -0.24,0.107 -0.24,0.24l-0,1.68c-0.133,0 -0.24,0.107 -0.24,0.24l-0,0.96c-0.001,-0.367 -0.002,-0.784 -0.005,-1.018c0,-0.125 -0.042,-0.246 -0.119,-0.345c-1.514,-1.795 -6.836,-1.997 -6.836,-1.997c-1.039,-0.754 -1.986,-1.331 -2.743,-1.753c-1.055,-0.582 -2.24,-0.887 -3.444,-0.887l-6.053,-0c-0.133,-0 -0.24,0.107 -0.24,0.24l-1.988,-0c-0.095,-0 -0.172,0.077 -0.172,0.172l0,0.308l0.131,-0c0.06,0 0.109,0.049 0.109,0.109l0,0.262c-0,0.06 -0.049,0.109 -0.109,0.109c-0.008,-0 -0.016,-0 -0.024,0.001c-0.073,-0 -0.144,0.017 -0.208,0.051c-0.93,0.489 -1.554,1.104 -1.752,1.314c-0.043,0.048 -0.067,0.111 -0.067,0.176l-0,0.138c-0.133,0 -0.24,0.107 -0.24,0.24l-0,1.68c-0.133,0 -0.24,0.107 -0.24,0.24l-0,0.96c-0.001,-0.367 -0.002,-0.784 -0.005,-1.018c0,-0.125 -0.042,-0.246 -0.119,-0.345c-1.514,-1.795 -6.836,-1.997 -6.836,-1.997c-1.039,-0.754 -1.986,-1.331 -2.743,-1.753c-1.055,-0.582 -2.24,-0.887 -3.444,-0.887l-6.053,-0c-0.133,-0 -0.24,0.107 -0.24,0.24l-1.988,-0c-0.095,-0 -0.172,0.077 -0.172,0.172l-0,0.308l0.131,-0c0.06,0 0.109,0.049 0.109,0.109l-0,0.262c-0,0.06 -0.049,0.109 -0.109,0.109c-0.008,-0 -0.016,-0 -0.024,0.001c-0.073,-0 -0.144,0.017 -0.208,0.051c-0.93,0.489 -1.554,1.104 -1.752,1.314c-0.043,0.048 -0.067,0.111 -0.067,0.176l-0,0.138c-0.133,0 -0.24,0.107 -0.24,0.24l-0,1.68c-0.133,0 -0.24,0.107 -0.24,0.24Zm116.64,-1.922l0,-0.314c0,-0.043 -0.017,-0.085 -0.048,-0.116c-0.031,-0.031 -0.073,-0.048 -0.116,-0.048l-3.196,-0l0,0.013c-0.154,-0.01 -0.24,-0.013 -0.24,-0.013c-1.039,-0.754 -1.986,-1.331 -2.744,-1.753c-1.054,-0.582 -2.239,-0.887 -3.443,-0.887l-6.053,-0c-0.133,-0 -0.24,0.107 -0.24,0.24l-1.988,-0c-0.095,-0 -0.172,0.077 -0.172,0.172l-0,0.308l0.131,-0c0.06,0 0.109,0.049 0.109,0.109l-0,0.262c-0,0.06 -0.049,0.109 -0.109,0.109c-0.008,-0 -0.016,-0 -0.024,0.001c-0.073,-0 -0.144,0.017 -0.208,0.051c-0.93,0.489 -1.554,1.104 -1.752,1.314c-0.043,0.048 -0.067,0.111 -0.067,0.176l-0,0.138c-0.133,0 -0.24,0.107 -0.24,0.24l-0,1.68c-0.133,0 -0.24,0.107 -0.24,0.24l-0,0.96c-0,0.064 0.025,0.125 0.07,0.17c0.045,0.045 0.106,0.07 0.17,0.07l-0,0.24l0.001,0c-0,0.103 0.05,0.199 0.135,0.257c0.359,0.234 1.398,0.851 2.718,1.104c0.319,0.617 0.964,1.039 1.706,1.039c0.606,-0 1.146,-0.281 1.498,-0.72l11.883,0c0.352,0.439 0.893,0.72 1.499,0.72c0.609,-0 1.152,-0.284 1.504,-0.727c0.505,-0.038 1.745,-0.437 2.694,-1.313c0.078,-0.074 0.122,-0.176 0.122,-0.283c-0.001,-0.397 -0.003,-1.389 -0.005,-1.575c-0,-0.125 -0.042,-0.246 -0.119,-0.345c-0.634,-0.752 -1.937,-1.224 -3.236,-1.519Zm24.538,5.042l2.451,0c0.072,-0 0.131,-0.059 0.131,-0.131l-0,-0.243c0,-0.068 -0.027,-0.133 -0.075,-0.181l-0.088,-0.088c-0.049,-0.049 -0.116,-0.077 -0.186,-0.077l-0.131,-0l-0,-0.13c0.205,-0.138 0.407,-0.295 0.598,-0.47c0.078,-0.074 0.122,-0.176 0.122,-0.283c-0.001,-0.397 -0.003,-1.389 -0.005,-1.575c-0,-0.125 -0.042,-0.246 -0.119,-0.345c-1.514,-1.795 -6.836,-1.997 -6.836,-1.997c-1.039,-0.754 -1.986,-1.331 -2.744,-1.753c-1.054,-0.582 -2.239,-0.887 -3.443,-0.887l-6.053,-0c-0.133,-0 -0.24,0.107 -0.24,0.24l-1.47,-0l-0.518,-0l-0.691,-0c-0.123,0 -0.236,0.07 -0.291,0.18l-0.022,0.044c-0.028,0.055 -0.025,0.12 0.008,0.172c0.032,0.052 0.089,0.084 0.15,0.084l0.805,-0c0.06,0 0.109,0.049 0.109,0.109l-0,0.262c-0,0.06 -0.049,0.109 -0.109,0.109c-0.008,-0 -0.016,-0 -0.024,0.001c-0.073,-0 -0.144,0.017 -0.208,0.051c-0.93,0.489 -1.554,1.104 -1.752,1.314c-0.043,0.048 -0.067,0.111 -0.067,0.176l-0,0.138c-0.133,0 -0.24,0.107 -0.24,0.24l-0,1.68c-0.133,0 -0.24,0.107 -0.24,0.24l-0,0.96c-0,0.064 0.025,0.125 0.07,0.17c0.045,0.045 0.106,0.07 0.17,0.07l-0,0.24l0.001,0c-0,0.103 0.05,0.199 0.135,0.257c0.359,0.234 1.398,0.851 2.718,1.104c0.319,0.617 0.964,1.039 1.706,1.039c0.606,-0 1.146,-0.281 1.498,-0.72l11.883,0c0.352,0.439 0.893,0.72 1.499,0.72c0.606,-0 1.146,-0.281 1.498,-0.72Zm-47.994,-0.007c0.506,-0.038 1.746,-0.437 2.694,-1.313c0.078,-0.074 0.122,-0.176 0.122,-0.283c-0.001,-0.397 -0.002,-1.389 -0.005,-1.575c0,-0.125 -0.042,-0.246 -0.119,-0.345c-1.514,-1.795 -6.836,-1.997 -6.836,-1.997c-1.039,-0.754 -1.986,-1.331 -2.743,-1.753c-1.055,-0.582 -2.24,-0.887 -3.444,-0.887l-6.053,-0c-0.133,-0 -0.24,0.107 -0.24,0.24l-1.988,-0c-0.095,-0 -0.172,0.077 -0.172,0.172l0,0.308l0.131,-0c0.06,0 0.109,0.049 0.109,0.109l0,0.262c-0,0.06 -0.049,0.109 -0.109,0.109c-0.008,-0 -0.016,-0 -0.024,0.001c-0.073,-0 -0.144,0.017 -0.208,0.051c-0.93,0.489 -1.554,1.104 -1.752,1.314c-0.043,0.048 -0.067,0.111 -0.067,0.176l-0,0.138c-0.133,0 -0.24,0.107 -0.24,0.24l-0,1.68c-0.133,0 -0.24,0.107 -0.24,0.24l0,0.96c-0,0.064 0.025,0.125 0.07,0.17c0.045,0.045 0.106,0.07 0.17,0.07l-0,0.24l0.001,0c-0,0.103 0.05,0.199 0.135,0.257c0.359,0.234 1.398,0.851 2.718,1.104c0.319,0.617 0.964,1.039 1.706,1.039c0.606,-0 1.146,-0.281 1.498,-0.72l11.884,0c0.352,0.439 0.892,0.72 1.498,0.72c0.609,-0 1.152,-0.284 1.504,-0.727Z"/></svg>