<svg width="100%" height="100%" viewBox="0 0 120 48" version="1.1" xmlns="http://www.w3.org/2000/svg" xmlns:xlink="http://www.w3.org/1999/xlink" xml:space="preserve" xmlns:serif="http://www.serif.com/" style="fill-rule:evenodd;clip-rule:evenodd;stroke-linejoin:round;stroke-miterlimit:2;"><path d="M120,0l0,48l-120,0l0,-48l120,0Zm-88.587,5.76l-4.533,0l0,1.405c-0.469,0.126 -0.946,0.285 -1.367,0.48c-0.045,0.021 -0.073,0.066 -0.073,0.116l0,1.829c0.005,0.256 0.028,0.685 0.118,1.072c0.029,0.114 0.12,0.202 0.234,0.228c0.323,0.068 0.858,0.15 1.568,0.15l0,0c0.329,0.437 0.852,0.72 1.44,0.72c0.472,0 0.902,-0.182 1.223,-0.48l11.714,-0c0.321,0.298 0.751,0.48 1.223,0.48c0.472,0 0.902,-0.182 1.223,-0.48l2.238,-0c0.037,0 0.072,-0.015 0.098,-0.041c0.026,-0.026 0.041,-0.061 0.041,-0.098l0,-0.581l0.029,-0c0.117,-0 0.211,-0.094 0.211,-0.211l0,-1.147c0,-0.022 -0.009,-0.043 -0.024,-0.058c-0.015,-0.015 -0.036,-0.024 -0.058,-0.024l-0.158,0c0,0 -0.849,-0.957 -2.4,-1.2c0,0 -1.06,-0.339 -2.16,-0.48c0,0 -2.817,-1.68 -7.68,-1.68l-0,-0.627c-0,-0.023 -0.01,-0.045 -0.028,-0.06c-0.018,-0.015 -0.041,-0.022 -0.064,-0.018c-0.335,0.057 -1.539,0.277 -2.815,0.705Zm-28.053,5.28c0.329,0.437 0.852,0.72 1.44,0.72c0.472,-0 0.902,-0.182 1.223,-0.48l11.714,-0c0.321,0.298 0.751,0.48 1.223,0.48c0.472,-0 0.902,-0.182 1.223,-0.48l2.238,-0c0.037,0 0.072,-0.015 0.098,-0.041c0.026,-0.026 0.041,-0.061 0.041,-0.098l0,-0.581l0.029,-0c0.117,-0 0.211,-0.094 0.211,-0.211l-0,-1.147c0,-0.022 -0.009,-0.043 -0.024,-0.058c-0.015,-0.015 -0.036,-0.024 -0.058,-0.024l-0.158,-0c0,-0 -0.849,-0.957 -2.4,-1.2c0,-0 -1.06,-0.339 -2.16,-0.48c0,-0 -2.817,-1.68 -7.68,-1.68l-0,-0.627c-0,-0.023 -0.01,-0.045 -0.028,-0.06c-0.018,-0.015 -0.041,-0.022 -0.064,-0.018c-0.529,0.09 -3.223,0.587 -4.948,1.665c0,-0 -2.248,0.22 -3.767,0.925c-0.045,0.021 -0.073,0.066 -0.073,0.116l0,1.829c0.005,0.256 0.028,0.685 0.118,1.072c0.029,0.114 0.12,0.202 0.234,0.228c0.323,0.068 0.858,0.15 1.568,0.15l0,-0Zm68.16,0.48l0,-0.48c-0,-0.133 -0.107,-0.24 -0.24,-0.24l0,-0.48c-0,-0.133 -0.107,-0.24 -0.24,-0.24l0,-0.48c0,-0.133 -0.107,-0.24 -0.24,-0.24l0,-0.158c0,-0.022 -0.009,-0.043 -0.024,-0.058c-0.015,-0.015 -0.036,-0.024 -0.058,-0.024l-0.158,-0c0,-0 -0.849,-0.957 -2.4,-1.2c0,-0 -1.06,-0.339 -2.16,-0.48c0,-0 -2.817,-1.68 -7.68,-1.68l-0,-0.627c-0,-0.023 -0.01,-0.045 -0.028,-0.06c-0.018,-0.015 -0.041,-0.022 -0.064,-0.018c-0.335,0.057 -1.539,0.277 -2.815,0.705l-4.533,-0l-0,1.405c-0.469,0.126 -0.946,0.285 -1.367,0.48c-0.045,0.021 -0.073,0.066 -0.073,0.116l0,1.829l0.022,1.544c0.003,0.214 0.177,0.386 0.391,0.386l2.049,-0c0.264,0.153 0.571,0.24 0.898,0.24c0.327,-0 0.634,-0.087 0.898,-0.24l12.364,-0c0.264,0.153 0.571,0.24 0.898,0.24c0.327,-0 0.634,-0.087 0.898,-0.24l3.662,-0Z"/></svg>