<svg width="100%" height="100%" viewBox="0 0 500 200" version="1.1" xmlns="http://www.w3.org/2000/svg" xmlns:xlink="http://www.w3.org/1999/xlink" xml:space="preserve" xmlns:serif="http://www.serif.com/" style="fill-rule:evenodd;clip-rule:evenodd;stroke-linejoin:round;stroke-miterlimit:2;"><path d="M0,0l500,0l0,200l-500,0l0,-200Zm92.46,33.62l0.99,0c0.44,0 0.8,0.36 0.8,0.8l-0,3.55c-0,0.43 -0.34,0.79 -0.76,0.8c-0.22,0.01 -0.38,0.19 -0.38,0.4l-0,1.6c-0,0.22 -0.18,0.4 -0.4,0.4l-0.55,0l-0,0.45c-0,0.22 -0.18,0.4 -0.4,0.4l-6.85,0c-0,3.29 -2.67,5.96 -5.97,5.96c-2.9,0 -5.31,-2.07 -5.85,-4.81l-3.85,0c-0.22,0 -0.4,-0.18 -0.4,-0.4l-0,-0.35c-0,-0.22 -0.18,-0.4 -0.4,-0.4l-33.83,0c-0.22,0 -0.4,0.18 -0.4,0.4l-0,0.35c-0,0.22 -0.18,0.4 -0.4,0.4l-3.96,0c-0.53,2.74 -2.95,4.81 -5.85,4.81c-2.9,0 -5.32,-2.07 -5.85,-4.81l-1.54,0c-0.82,0 -1.5,-0.67 -1.5,-1.5l-0,-0.5l-7.82,0c-0.82,0 -1.5,-0.67 -1.5,-1.5l-0,-0.55c-0,-0.22 0.18,-0.4 0.4,-0.4l1.14,0c0.22,0 0.4,-0.18 0.4,-0.4l-0,-0.41c-0,-0.22 -0.18,-0.4 -0.4,-0.4l-0.18,0c-0.22,0 -0.4,-0.18 -0.4,-0.39l-0,-3.03c-0,-0.22 0.18,-0.4 0.4,-0.4l0.18,0c0.22,0 0.4,-0.18 0.4,-0.4l-0,-7.22c-0,-0.22 0.18,-0.4 0.4,-0.4l26.47,0l3.2,-10.58c0.05,-0.17 0.2,-0.28 0.38,-0.28l17.2,0c1.02,0.43 2.06,1.96 2.06,1.96l15.17,8.9l15.67,3.62c1.85,0.43 3.24,1.67 3.87,3.45l0.31,0.88Zm13.4,0.99c-0,-0.52 0.43,-0.95 0.95,-0.95l0.58,-0c0.22,-0 0.4,-0.15 0.4,-0.37l-0,-7.22c-0,-0.22 0.18,-0.4 0.4,-0.4l26.47,-0l3.2,-10.58c0.05,-0.17 0.2,-0.28 0.38,-0.28l17.21,-0c1.01,0.43 2.05,1.96 2.05,1.96l15.17,8.9l15.67,3.62c1.85,0.43 3.24,1.67 3.87,3.45l0.32,0.88c0.46,0.27 1.86,0.81 1.86,2.83l0,0.4c0.64,0.18 1.11,0.77 1.11,1.46l0,4.73c0,1.11 -0.91,2.01 -2.01,2.01l-9.35,0c-1.04,1.76 -2.95,2.93 -5.13,2.93c-2.19,0 -4.1,-1.17 -5.14,-2.93l-44.67,0c-1.04,1.76 -2.95,2.93 -5.14,2.93c-2.18,0 -4.1,-1.17 -5.14,-2.93l-9.67,0c-1.87,0 -3.39,-1.52 -3.39,-3.4l0,-7.04Zm-90.53,83.13l5.95,-0c-0.24,-0.01 -0.42,-0.21 -0.42,-0.44l-0,-4.13c-0,-0.25 0.2,-0.45 0.44,-0.45l13.54,-0c0.24,-0 0.44,0.2 0.44,0.45l-0,4.13c-0,0.23 -0.19,0.43 -0.42,0.44l0.8,-0c0.29,-0 0.53,0.24 0.53,0.53l-0,1.86l0.55,-0l-0,-3.66c-0,-0.35 0.29,-0.64 0.64,-0.64l0.27,-0c0.35,-0 0.64,0.29 0.64,0.64l-0,11.61l-30.42,-0.87c-0.08,-0 -0.14,-0.06 -0.14,-0.14l-0,-1.32c-0,-0.08 0.06,-0.14 0.14,-0.14l4.95,-0l-0,-1.6c-0,-0.17 0.14,-0.31 0.32,-0.31l2.19,-0c-0.29,-0 -0.53,-0.24 -0.53,-0.53l-0,-4.9c-0,-0.29 0.24,-0.53 0.53,-0.53Zm19.95,8.53l-0,-2.57l-1.27,-0c0.17,0.01 0.3,0.14 0.3,0.31l-0,2.26l0.97,-0Zm-10.58,-8.53c0.29,-0 0.52,0.24 0.52,0.53l-0,4.9c-0,0.29 -0.23,0.53 -0.52,0.53l1.59,-0c-0.29,-0 -0.53,-0.24 -0.53,-0.53l-0,-4.9c-0,-0.29 0.24,-0.53 0.53,-0.53l-1.59,-0Z"/></svg>