<svg width="100%" height="100%" viewBox="0 0 500 200" version="1.1" xmlns="http://www.w3.org/2000/svg" xmlns:xlink="http://www.w3.org/1999/xlink" xml:space="preserve" xmlns:serif="http://www.serif.com/" style="fill-rule:evenodd;clip-rule:evenodd;stroke-linejoin:round;stroke-miterlimit:2;"><path d="M500,0l0,200l-500,0l0,-200l500,0Zm-419,149l-63,0l0,1l63,0l0,-1Zm-58,-69l41,0l-4,-7l-30.492,0c-3,2 -6.508,7 -6.508,7Zm158.619,-42c0.21,-0 0.381,-0.171 0.381,-0.381c0,-0.931 0,-3.307 -0,-4.238c0,-0.21 -0.171,-0.381 -0.381,-0.381c-0.283,0 -0.619,0 -0.619,0c0,0 -0.184,-0.552 -0.394,-1.182c-0.371,-1.114 -1.34,-1.923 -2.503,-2.089c-3.825,-0.546 -12.103,-1.729 -12.103,-1.729l-3.751,-4.287c-2.065,-2.36 -5.047,-3.713 -8.182,-3.713l-17.067,0c-6,0 -12,8 -12,8c-6,3 -8,6 -8,9c0,2 0,3.654 0,3.654c0,3.026 2.311,5.55 5.325,5.817l5.978,0.529c0.939,1.315 2.477,2.173 4.213,2.173c1.737,-0 3.275,-0.858 4.214,-2.173l31.592,0c0.938,1.315 2.476,2.173 4.213,2.173c1.737,-0 3.275,-0.858 4.213,-2.173c3.252,0 4.252,-3 4.252,-9l0.619,0Zm-100.641,-5c0,-0 -0.154,-0.475 -0.341,-1.047c-0.39,-1.196 -1.426,-2.066 -2.671,-2.244c-3.882,-0.554 -11.966,-1.709 -11.966,-1.709l-3.751,-4.287c-2.065,-2.36 -5.047,-3.713 -8.182,-3.713l-17.067,0c-6,0 -12,8 -12,8l-7.12,2.67c-0.529,0.199 -0.88,0.704 -0.88,1.27l-0,9.795c0,0.718 0.544,1.319 1.258,1.391l8.742,0.874l0.344,0.031c0.017,2.841 2.328,5.142 5.172,5.142c2.526,-0 4.631,-1.814 5.083,-4.209l0.401,0.036l29,0l0.413,-0.275c0.353,2.512 2.513,4.448 5.122,4.448c2.855,-0 5.173,-2.318 5.173,-5.173c-0,-0.342 -0.034,-0.676 -0.097,-1l2.556,-0c0.221,0 0.433,-0.088 0.589,-0.244c0.156,-0.156 0.244,-0.368 0.244,-0.589l-0,-4.167l0.619,0c0.21,-0 0.381,-0.171 0.381,-0.381c0,-0.931 0,-3.307 0,-4.238c0,-0.21 -0.171,-0.381 -0.381,-0.381c-0.291,-0 -0.641,-0 -0.641,-0Z"/></svg>