<svg width="100%" height="100%" viewBox="0 0 120 48" version="1.1" xmlns="http://www.w3.org/2000/svg" xmlns:xlink="http://www.w3.org/1999/xlink" xml:space="preserve" xmlns:serif="http://www.serif.com/" style="fill-rule:evenodd;clip-rule:evenodd;stroke-linejoin:round;stroke-miterlimit:2;"><path d="M120,0l0,48l-120,0l0,-48l120,0Zm-107.28,9.12l0.96,-0l0,-0.24l0.498,-0l0.943,0.533c0.028,1.3 1.092,2.347 2.399,2.347c1.074,0 1.984,-0.707 2.29,-1.68l1.07,0l0,-0.24l-1.008,0c0.016,-0.079 0.028,-0.159 0.036,-0.24l2.652,0l-0,0.114c0,0.07 0.056,0.126 0.126,0.126l0.468,0c0.07,-0 0.126,-0.056 0.126,-0.126l0,-0.468c-0,-0.07 -0.056,-0.126 -0.126,-0.126l-0.468,-0c-0.07,0 -0.126,0.056 -0.126,0.126l0,0.114l-2.64,-0c-0,-0.164 -0.017,-0.325 -0.048,-0.48l1.248,-0l-0,0.114c0,0.07 0.056,0.126 0.126,0.126l0.468,0c0.07,-0 0.126,-0.056 0.126,-0.126l0,-0.468c-0,-0.07 -0.056,-0.126 -0.126,-0.126l-0.468,-0c-0.07,0 -0.126,0.056 -0.126,0.126l0,0.114l-0.72,-0l-0,-0.24l-0.68,-0c-0.371,-0.847 -1.217,-1.44 -2.2,-1.44c-0.905,-0 -1.694,0.502 -2.102,1.242l-2.199,-1.242l0.941,-0l-0,0.24l0.24,-0l-0,-0.24l0.48,-0l-0,-0.72l-0.48,-0l-0,-0.24l-1.68,-0l-0,-0.96c-0,-0 0.72,0.061 0.72,-0.72l0.13,-0c0.029,-0 0.057,-0.012 0.078,-0.032c0.02,-0.021 0.032,-0.049 0.032,-0.078c-0,-0.265 -0,-0.94 -0,-1.213c-0,-0.065 -0.052,-0.117 -0.117,-0.117c-0.15,-0 -0.404,-0 -0.529,-0c-0.058,-0 -0.116,0.01 -0.171,0.029c-0.255,0.089 -0.948,0.414 -1.343,1.411l-2.4,-0c-0,-0 -2.316,0.529 -5.28,1.2c-2.964,0.671 -3.36,1.44 -3.36,1.44l0.72,-0c-0,-0 0.47,-0.24 1.92,-0.24c1.45,-0 1.68,0.48 1.68,0.48l0.72,-0l-0,0.24l-0.24,-0l-0,0.72l-0.081,-0c-0.416,-0.717 -1.191,-1.2 -2.079,-1.2c-1.325,-0 -2.4,1.075 -2.4,2.4c-0,1.325 1.075,2.4 2.4,2.4c1.244,-0 2.268,-0.948 2.388,-2.16l0.492,-0l-0,-0.24l0.48,-0l-0,0.24l3.6,-0l-0,-0.24l2.64,-0l-0,-0.24Zm-6.48,-1.68l0.872,-0c0.201,-0 0.385,-0.114 0.475,-0.293l0.093,-0.187l0.48,-0l-0,0.48c-0,-0 -0.133,0.48 -0.96,0.48l-0.96,-0l-0,-0.48Zm6.24,0.72l0.48,-0l0.96,0.48l-1.44,-0l-0,-0.48Z"/></svg>