<svg width="100%" height="100%" viewBox="0 0 120 48" version="1.1" xmlns="http://www.w3.org/2000/svg" xmlns:xlink="http://www.w3.org/1999/xlink" xml:space="preserve" xmlns:serif="http://www.serif.com/" style="fill-rule:evenodd;clip-rule:evenodd;stroke-linejoin:round;stroke-miterlimit:2;"><path d="M0,8.717l0,-8.717l120,0l0,48l-120,0l-0,-39.031c0,0.097 0.035,0.191 0.1,0.265l1.441,1.647c0.088,0.101 0.216,0.159 0.351,0.159l1.965,0c0.332,0.574 0.953,0.96 1.663,0.96c0.71,-0 1.331,-0.386 1.663,-0.96l0.497,0c0,0.133 0.107,0.24 0.24,0.24l9.12,0c0.133,0 0.24,-0.107 0.24,-0.24l0.257,0c0.332,0.574 0.953,0.96 1.663,0.96c0.71,-0 1.331,-0.386 1.663,-0.96l0.497,0c0,0.064 0.025,0.125 0.07,0.17c0.045,0.045 0.106,0.07 0.17,0.07l0.905,-0c0.038,-0 0.076,-0.006 0.112,-0.017c0.251,-0.08 0.495,-0.195 0.732,-0.345c0.107,-0.069 0.171,-0.187 0.171,-0.315c-0,-0.354 -0,-1.088 -0.004,-1.37c0,-0.081 -0.021,-0.161 -0.061,-0.231c-1.186,-1.975 -6.175,-1.802 -6.175,-1.802c-0,-0.133 -0.107,-0.24 -0.24,-0.24l-2.88,-0c-3.6,-2.88 -6.973,-1.627 -7.2,-1.68c-2.897,0.257 -4.32,1.2 -4.32,1.2l-1.44,-0l-0,-0.147c-0,-0.051 -0.042,-0.093 -0.093,-0.093l-0.294,-0c-0.051,-0 -0.093,0.042 -0.093,0.093l-0,0.147l-0.126,0c-0.063,0 -0.114,0.051 -0.114,0.114l-0,1.806l-0.163,0c-0.084,-0 -0.165,0.033 -0.224,0.093c-0.06,0.059 -0.093,0.14 -0.093,0.224Zm48.123,1.603l0.093,0c0.006,-0 0.012,0.003 0.017,0.007c0.004,0.005 0.007,0.011 0.007,0.017l0,0.456c0,0.133 0.107,0.24 0.24,0.24c-0,0.133 0.107,0.24 0.24,0.24l2.64,0c0,0.133 0.107,0.24 0.24,0.24l0.651,-0c0.338,0.299 0.783,0.48 1.269,0.48c0.337,-0 0.654,-0.087 0.93,-0.24l11.82,-0c0.276,0.153 0.593,0.24 0.93,0.24c0.337,-0 0.654,-0.087 0.93,-0.24l3.702,0c0.045,0 0.087,-0.018 0.119,-0.049c0.031,-0.032 0.049,-0.074 0.049,-0.119l-0,-1.511c-0,-0.266 -0.215,-0.481 -0.481,-0.481c-0.001,-0.149 -0.002,-0.279 -0.003,-0.367c0,-0.081 -0.021,-0.161 -0.061,-0.231c-0.628,-1.045 -2.32,-1.489 -3.775,-1.675c-0,-0.07 -0.057,-0.127 -0.127,-0.127l-0.353,-0c-0,-0.133 -0.107,-0.24 -0.24,-0.24l-0.48,-0c-0,-0.133 -0.107,-0.24 -0.24,-0.24l-2.64,0c-0.133,0 -0.24,0.107 -0.24,0.24l-1.2,-0c-1.562,-1.25 -3.082,-1.721 -4.32,-1.859l-0,-0.184c0,-0.031 -0.012,-0.061 -0.034,-0.083c-0.022,-0.022 -0.052,-0.034 -0.083,-0.034l-1.686,0c-0.065,0 -0.117,0.052 -0.117,0.117l-0,0.207c-0.473,0.04 -0.96,0.156 -0.96,0.156c-2.897,0.257 -4.32,1.2 -4.32,1.2l-0.24,-0l-0,-0.48l-0.24,-0l-0,-0.24l-0.24,-0l-0,-0.24l-0.24,-0l-0,-0.24l-0.96,-0l0,1.2l-0.126,0c-0.063,0 -0.114,0.051 -0.114,0.114l0,1.806l-0.163,0c-0.084,-0 -0.165,0.033 -0.224,0.093c-0.06,0.059 -0.093,0.14 -0.093,0.224l0,1.48c0,0.068 0.055,0.123 0.123,0.123Zm-14.283,-5.219l-0,-0.184c0,-0.031 -0.012,-0.061 -0.034,-0.083c-0.022,-0.022 -0.052,-0.034 -0.083,-0.034l-1.686,0c-0.065,0 -0.117,0.052 -0.117,0.117l-0,0.207c-0.473,0.04 -0.96,0.156 -0.96,0.156c-2.897,0.257 -4.32,1.2 -4.32,1.2l-0.24,-0l-0,-0.48l-0.24,-0l-0,-0.24l-0.24,-0l-0,-0.24l-0.24,-0l-0,-0.24l-0.96,-0l0,1.2l-0.126,0c-0.063,0 -0.114,0.051 -0.114,0.114l0,1.806l-0.163,0c-0.084,-0 -0.165,0.033 -0.224,0.093c-0.06,0.059 -0.093,0.14 -0.093,0.224l-0,0.252c0,0.097 0.035,0.191 0.1,0.265l1.441,1.647c0.088,0.101 0.216,0.159 0.351,0.159l1.965,0c0.332,0.574 0.953,0.96 1.663,0.96c0.71,-0 1.331,-0.386 1.663,-0.96l0.497,0c0,0.133 0.107,0.24 0.24,0.24l9.12,0c0.133,0 0.24,-0.107 0.24,-0.24l0.257,0c0.332,0.574 0.953,0.96 1.663,0.96c0.71,-0 1.331,-0.386 1.663,-0.96l0.497,0c0,0.064 0.025,0.125 0.07,0.17c0.045,0.045 0.106,0.07 0.17,0.07l0.905,-0c0.038,-0 0.076,-0.006 0.112,-0.017c0.251,-0.08 0.495,-0.195 0.732,-0.345c0.107,-0.069 0.171,-0.187 0.171,-0.315c0,-0.354 0,-1.088 -0.004,-1.37c0,-0.081 -0.021,-0.161 -0.061,-0.231c-0.628,-1.045 -2.32,-1.489 -3.775,-1.675c-0,-0.07 -0.057,-0.127 -0.127,-0.127l-0.353,-0c-0,-0.133 -0.107,-0.24 -0.24,-0.24l-0.48,-0c-0,-0.133 -0.107,-0.24 -0.24,-0.24l-2.64,0c-0.133,0 -0.24,0.107 -0.24,0.24l-1.2,-0c-1.562,-1.25 -3.082,-1.721 -4.32,-1.859Z"/></svg>