<svg width="100%" height="100%" viewBox="0 0 120 48" version="1.1" xmlns="http://www.w3.org/2000/svg" xmlns:xlink="http://www.w3.org/1999/xlink" xml:space="preserve" xmlns:serif="http://www.serif.com/" style="fill-rule:evenodd;clip-rule:evenodd;stroke-linejoin:round;stroke-miterlimit:2;"><path d="M120,0l0,48l-120,0l0,-48l120,0Zm-92.541,11.04c0.32,0.298 0.749,0.48 1.219,0.48c0.471,-0 0.899,-0.182 1.219,-0.479c3.056,0 7.652,0 11.244,-0c0.32,0.297 0.748,0.479 1.219,0.479c0.47,-0 0.899,-0.182 1.218,-0.48l2.732,0c0.138,0 0.25,-0.112 0.25,-0.25l0,-1.19c0,-0.133 -0.107,-0.24 -0.24,-0.24l0,-0.24c0,-0 -0.577,-1.174 -1.92,-1.2c0,-0 -0.413,-0.72 -3.12,-0.72c0,-0 -1.177,-0.694 -2.64,-1.2l-0.72,-0l0,0.48c0,-0 -0.581,-0.24 -4.32,-0.24l0,-0.367c-0,-0.062 -0.051,-0.113 -0.113,-0.113l-0.964,0c-0.082,-0 -0.163,0.008 -0.243,0.024c-0.597,0.122 -3.303,0.683 -5.4,1.276l-0,-0.58l-1.571,-0c-0.06,0 -0.109,0.049 -0.109,0.109l0,0.131l0.584,-0c0.087,0 0.171,0.035 0.232,0.096l0.048,0.048c0.061,0.061 0.096,0.145 0.096,0.232l0,0.192c-0.624,0.274 -0.96,0.814 -0.96,1.538l0,0.302c-0,1.432 1.542,1.912 2.16,1.912l0.099,0Zm24.325,0.24c0.263,0.153 0.569,0.24 0.895,0.24c0.326,-0 0.632,-0.087 0.896,-0.24l11.889,-0c0.264,0.153 0.57,0.24 0.896,0.24c0.326,-0 0.632,-0.087 0.895,-0.24l4.265,-0l0,-0.154c0,-0.047 -0.038,-0.085 -0.085,-0.085l-0.155,-0.001l0,-0.96c-0,-0.095 -0.385,-0.48 -0.48,-0.48l-0.24,0c0,-0.133 -0.107,-0.24 -0.24,-0.24l0,-0.24c0,-0 -0.577,-1.174 -1.92,-1.2c0,-0 -0.413,-0.72 -3.12,-0.72c0,-0 -1.177,-0.694 -2.64,-1.2l-0.72,-0l0,0.48c0,-0 -0.581,-0.24 -4.32,-0.24l0,-0.367c-0,-0.062 -0.051,-0.113 -0.113,-0.113l-0.964,0c-0.082,-0 -0.163,0.008 -0.243,0.024c-0.597,0.122 -3.303,0.683 -5.4,1.276l0,-0.58l-1.571,-0c-0.06,0 -0.109,0.049 -0.109,0.109l0,0.131l0.584,-0c0.087,0 0.171,0.035 0.232,0.096l0.048,0.048c0.061,0.061 0.096,0.145 0.096,0.232l0,0.192c-0.624,0.274 -0.96,0.814 -0.96,1.538l0,0.294l-0.127,-0c-0.062,0 -0.113,0.051 -0.113,0.113l-0,1.348c-0,0.14 0.056,0.275 0.155,0.374l0.17,0.17c0.099,0.099 0.234,0.155 0.374,0.155l2.125,-0Zm-48.327,-0.24c0.319,0.298 0.748,0.48 1.219,0.48c0.47,-0 0.898,-0.182 1.218,-0.479c3.058,0 7.659,0 11.252,-0c0.32,0.297 0.748,0.479 1.219,0.479c0.47,-0 0.899,-0.182 1.218,-0.48l2.727,0c0.138,0 0.25,-0.112 0.25,-0.25l-0,-1.19c0,-0.133 -0.107,-0.24 -0.24,-0.24l-0,-0.24c-0,-0 -0.577,-1.174 -1.92,-1.2c-0,-0 -0.413,-0.72 -3.12,-0.72c-0,-0 -1.177,-0.694 -2.64,-1.2l-0.72,-0l-0,0.48c-0,-0 -0.581,-0.24 -4.32,-0.24l-0,-0.367c-0,-0.062 -0.051,-0.113 -0.113,-0.113l-0.964,0c-0.082,-0 -0.163,0.008 -0.243,0.024c-0.644,0.132 -3.739,0.774 -5.88,1.416c-0.778,0.233 -1.2,0.814 -1.2,1.626l-0,0.302c-0,1.432 1.542,1.912 2.16,1.912l0.097,0Z"/></svg>