<svg width="100%" height="100%" viewBox="0 0 120 48" version="1.1" xmlns="http://www.w3.org/2000/svg" xmlns:xlink="http://www.w3.org/1999/xlink" xml:space="preserve" xmlns:serif="http://www.serif.com/" style="fill-rule:evenodd;clip-rule:evenodd;stroke-linejoin:round;stroke-miterlimit:2;"><path d="M-0,7.325l0,-7.325l120,0l0,48l-120,0l-0,-39.6l0.236,0c-0.001,0.038 -0.002,0.076 -0.002,0.115c-0,1.526 1.239,2.765 2.765,2.765c0.837,0 1.587,-0.372 2.094,-0.96l1.147,0l-0,0.24l0.96,-0l-0,-0.24l6.48,0l0,0.24l0.48,-0l0,0.24l1.92,0c0,0.064 0.025,0.125 0.07,0.17c0.045,0.045 0.106,0.07 0.17,0.07l4.654,-0c0.288,0.153 0.617,0.24 0.965,0.24c1.138,0 2.061,-0.923 2.061,-2.061c0,-1.137 -0.923,-2.06 -2.061,-2.06c-0.634,-0 -1.201,0.287 -1.579,0.738l-4.718,-2.696c-0.185,-0.105 -0.394,-0.161 -0.607,-0.161l-1.115,-0c-0,-0.133 -0.107,-0.24 -0.24,-0.24l-1.44,-0c-0,-0.133 -0.107,-0.24 -0.24,-0.24l-1.44,-0c-0,-0.127 -0.051,-0.249 -0.141,-0.339c-0.09,-0.09 -0.212,-0.141 -0.339,-0.141l-2.044,0c-0.03,-0 -0.06,-0.012 -0.082,-0.034c-0.022,-0.022 -0.034,-0.052 -0.034,-0.082c-0.01,-0.072 -0.072,-0.125 -0.144,-0.125c-0.151,0.001 -0.382,0.001 -0.501,0.001c-0.02,0 -0.039,-0.008 -0.053,-0.022c-0.014,-0.014 -0.022,-0.033 -0.022,-0.053l-0,-0.001c-0,-0.223 -0.181,-0.404 -0.404,-0.404l-1.276,-0l-0,0.72l-0.24,-0l-0,-0.72l-0.593,-0c-0.082,0 -0.163,0.027 -0.229,0.076l-0.858,0.644l0,0.24l0.24,-0l0,0.24l-0.24,-0l0,0.24l-0.24,-0l0,-0.48l-1.2,-0l0,0.24l0.72,-0l0,0.24l-0.48,-0l0,0.24l-0.96,-0l0,0.24l0.48,-0l0,0.24l0.24,-0l0,0.24l-0.24,-0l-1.2,0.96l0,0.229l-0.007,0.011l-0.348,-0c-0.097,-0 -0.189,0.038 -0.258,0.107c-0.069,0.069 -0.107,0.161 -0.107,0.258Z"/></svg>