<svg width="100%" height="100%" viewBox="0 0 120 48" version="1.1" xmlns="http://www.w3.org/2000/svg" xmlns:xlink="http://www.w3.org/1999/xlink" xml:space="preserve" xmlns:serif="http://www.serif.com/" style="fill-rule:evenodd;clip-rule:evenodd;stroke-linejoin:round;stroke-miterlimit:2;"><path d="M120,0l0,48l-120,0l0,-48l120,0Zm-52.08,6.502l0,-0.262l-1.92,0l0,0.012c-0.299,-0.014 -0.48,-0.012 -0.48,-0.012c0,0 -3.862,-2.152 -4.8,-2.4c-0.158,-0.042 -0.318,-0.077 -0.48,-0.105l0,-0.375l-2.4,-0l0,0.24l-0.24,-0c-2.924,-0 -3.6,0.48 -3.6,0.48l-1.68,0l0,0.48c-0.263,0.096 -0.502,0.189 -0.72,0.279l0,-0.039l-0.48,-0l0,-0.24l-0.24,-0l0,-0.24l-0.24,0l0,-0.24l-0.72,0l0,0.24l-0.48,0l0,0.24l0.24,-0l0,1.378c-0.203,0.192 -0.24,0.302 -0.24,0.302l0,1.92l-0.72,0l-0,0.48c0,1.193 0.967,2.16 2.16,2.16l1.036,-0c0.283,0.296 0.682,0.48 1.124,0.48c0.305,-0 0.59,-0.088 0.831,-0.24l12.258,-0c0.241,0.152 0.526,0.24 0.831,0.24c0.305,-0 0.59,-0.088 0.831,-0.24l3.969,-0l-0,-0.299c0,-0.048 -0.019,-0.094 -0.053,-0.128c-0.034,-0.034 -0.08,-0.053 -0.128,-0.053l-0.059,-0l-0,-1.143c-0,-0.429 -0.348,-0.777 -0.777,-0.777l-0.183,0l0,-0.96c-0.713,-0.624 -1.716,-0.978 -2.64,-1.178Zm-64.318,3.819c0.234,0.563 0.79,0.959 1.438,0.959c0.565,-0 1.06,-0.301 1.333,-0.751l11.173,-0.153c0.247,0.533 0.788,0.904 1.414,0.904c0.642,-0 1.193,-0.389 1.432,-0.943l1.208,-0.017c0.628,-0 0.96,-0.48 0.96,-0.48l-0,-2.16c-1.698,-1.485 -5.04,-1.44 -5.04,-1.44c-0,-0 -3.862,-2.152 -4.8,-2.4c-0.938,-0.248 -1.92,-0.24 -3.12,-0.24c-2.924,-0 -3.6,0.48 -3.6,0.48l-1.68,-0l-0,0.48c-2.64,0.96 -2.88,1.68 -2.88,1.68l-0,1.68l-0.24,-0l0,0.96c-0,0.681 0.516,1.252 1.194,1.319l1.206,0.121l0.002,0.001Zm40.318,-3.819l-0,-0.228l-1.58,0c-0.497,-0.038 -0.82,-0.034 -0.82,-0.034c0,-0 -3.862,-2.152 -4.8,-2.4c-0.158,-0.042 -0.318,-0.077 -0.48,-0.105l-0,-0.375l-2.4,-0l-0,0.24l-0.24,-0c-2.924,-0 -3.6,0.48 -3.6,0.48l-1.68,-0l0,0.48c-0.263,0.096 -0.502,0.189 -0.72,0.279l-0,-0.039l-0.48,-0l-0,-0.24l-0.24,-0l-0,-0.24l-0.24,-0l-0,-0.24l-0.72,-0l-0,0.24l-0.48,-0l-0,0.24l0.24,-0l-0,1.378c-0.203,0.192 -0.24,0.302 -0.24,0.302l0,1.68l-0.24,-0l0,0.96c-0,0.681 0.516,1.252 1.194,1.319l1.206,0.121l0.002,0.001c0.234,0.563 0.79,0.959 1.438,0.959c0.565,-0 1.06,-0.301 1.333,-0.751l11.173,-0.153c0.247,0.533 0.788,0.904 1.414,0.904c0.642,-0 1.193,-0.389 1.432,-0.943l1.208,-0.017c0.628,-0 0.96,-0.48 0.96,-0.48l0,-2.16c-0.713,-0.624 -1.716,-0.978 -2.64,-1.178Zm-39.84,11.738c4.8,1.2 14.16,0.96 14.16,0.96c-2.566,-2.612 -5.52,-3.36 -5.52,-3.36c-0,-0 -3.784,-0.231 -5.52,-0c-1.736,0.231 -3.12,1.2 -3.12,1.2l-0,1.2Z"/></svg>