<svg width="100%" height="100%" viewBox="0 0 500 200" version="1.1" xmlns="http://www.w3.org/2000/svg" xmlns:xlink="http://www.w3.org/1999/xlink" xml:space="preserve" xmlns:serif="http://www.serif.com/" style="fill-rule:evenodd;clip-rule:evenodd;stroke-linejoin:round;stroke-miterlimit:2;"><path d="M0,0l500,0l0,200l-500,0l0,-200Zm34.98,45.09l30.37,0c0.29,0 0.52,-0.24 0.52,-0.53l-0,-0.57l2.09,0c0.82,2.29 3.01,3.93 5.58,3.93c2.89,0 5.3,-2.07 5.82,-4.81l1.47,0l-0,0.6l1.64,0l-0,-0.6l1.01,0c0.44,0 0.8,-0.36 0.8,-0.8l-0,-4.84c-0,-0.44 -0.36,-0.8 -0.8,-0.8l-0.85,0c-6.2,-8.42 -16.7,-8.22 -18.09,-8.22l-2.72,0c-0.11,-0.24 -0.22,-0.46 -0.34,-0.69c-3,-5.77 -8.58,-9.16 -15.09,-9.16l-6.23,0c-4.08,0 -7.58,0.99 -11.06,3.14c-8.83,5.46 -13.76,14.39 -14.54,15.88c-0.07,0.14 -0.2,0.22 -0.35,0.22l-0.37,0c-0.14,0 -0.26,0.06 -0.33,0.17c-1.17,1.7 -1.41,3.18 -1.45,3.72c-0.01,0.11 0.08,0.21 0.2,0.21l1.37,0l-0,0.73c-0,0.24 0.2,0.44 0.44,0.44l2.71,0c0.25,0 0.45,-0.2 0.45,-0.44l-0,-0.7l2.89,0.02c-0,3.28 2.65,5.93 5.93,5.93c2.57,0 4.76,-1.64 5.58,-3.93l2.83,0l-0,0.57c-0,0.29 0.23,0.53 0.52,0.53Z"/></svg>