<svg width="100%" height="100%" viewBox="0 0 120 48" version="1.1" xmlns="http://www.w3.org/2000/svg" xmlns:xlink="http://www.w3.org/1999/xlink" xml:space="preserve" xmlns:serif="http://www.serif.com/" style="fill-rule:evenodd;clip-rule:evenodd;stroke-linejoin:round;stroke-miterlimit:2;"><path d="M120,0l0,48l-120,0l0,-48l120,0Zm-104.939,3.36l-1.381,0l0,0.24l-11.978,0c-0.261,-0 -0.51,0.103 -0.694,0.288c-0.185,0.184 -0.288,0.433 -0.288,0.694l0,5.934c0,0.157 0.127,0.284 0.284,0.284l1.636,0c0,0.53 0.43,0.96 0.96,0.96c0.355,0 0.665,-0.193 0.831,-0.48l0.129,-0l0,0.24l1.68,-0l0,-0.24l0.129,-0c0.166,0.287 0.476,0.48 0.831,0.48c0.53,0 0.96,-0.43 0.96,-0.96l6.24,-0c0,0.53 0.43,0.96 0.96,0.96c0.355,0 0.665,-0.193 0.831,-0.48l0.129,-0l0,0.24l1.68,-0l0,-0.24l0.129,-0c0.166,0.287 0.476,0.48 0.831,0.48c0.53,0 0.96,-0.43 0.96,-0.96l2.298,-0c0.147,0 0.286,-0.064 0.38,-0.176l0.804,-0.95c0.076,-0.09 0.118,-0.204 0.118,-0.322l-0,-2.472c-0,-0.267 -0.04,-0.533 -0.118,-0.789c-0.528,-1.731 -0.732,-2.261 -0.803,-2.424c-0.049,-0.043 -0.112,-0.067 -0.177,-0.067l-4.662,-0l0,-0.24l-1.621,-0l1.935,-0.774c0.076,-0.031 0.126,-0.104 0.126,-0.186c0,-0.082 -0.05,-0.155 -0.126,-0.186l-2.234,-0.893l0,-0.279c-0,-0.045 -0.037,-0.082 -0.082,-0.082l-0.305,0c-0.045,0 -0.082,0.037 -0.082,0.082l0,0.274l-2.245,0.898c-0.076,0.031 -0.126,0.104 -0.126,0.186c0,0.082 0.05,0.155 0.126,0.186l1.935,0.774Zm-1.322,-0.96l1.861,-0.745l1.861,0.745l-1.861,0.745l-1.861,-0.745Z"/></svg>