<svg width="100%" height="100%" viewBox="0 0 120 48" version="1.1" xmlns="http://www.w3.org/2000/svg" xmlns:xlink="http://www.w3.org/1999/xlink" xml:space="preserve" xmlns:serif="http://www.serif.com/" style="fill-rule:evenodd;clip-rule:evenodd;stroke-linejoin:round;stroke-miterlimit:2;"><path d="M60.24,0l59.76,0l0,48l-120,0l0,-48l10.791,-0c-1.052,0.055 -2.454,0.25 -3.415,0.848c-0.111,0.073 -0.24,0.112 -0.372,0.112l-0.479,-0c-0.157,-0 -0.285,0.128 -0.285,0.285l0,0.195c0,-0 -0.375,0.24 -0.96,0.24l-0,0.24c-0,-0 0.309,0.249 0.885,0.454c-0.38,0.157 -0.795,0.363 -1.198,0.631c-0.092,0.062 -0.117,0.187 -0.055,0.279c0.349,0.493 1.502,1.989 3.248,2.956c0,0 2.41,1.657 5.323,3.028c0.12,0.056 0.197,0.177 0.197,0.31l0,0.022l-1.241,-0c-0.053,-0 -0.103,0.021 -0.141,0.058c-0.037,0.038 -0.058,0.088 -0.058,0.141l0,0.091c-0,0.117 0.065,0.224 0.17,0.277c0.153,0.073 0.401,0.184 0.718,0.293c0.181,0.064 0.371,0.096 0.562,0.096c0.433,0.004 1.314,0.004 1.71,0.004c0.126,0 0.244,0.059 0.32,0.16l0.547,0.729c0.033,0.045 0.086,0.071 0.141,0.071l0.056,0c0.06,0 0.116,-0.03 0.148,-0.08l1.211,-1.863c1.227,-1.888 0.93,-4.383 -0.707,-5.93c-1.268,-1.192 -2.935,-2.405 -4.876,-2.927l0,-0.72l22.551,0c-1.052,0.055 -2.454,0.25 -3.415,0.848c-0.111,0.073 -0.24,0.112 -0.372,0.112l-0.479,-0c-0.157,-0 -0.285,0.128 -0.285,0.285l0,0.195c0,0 -0.375,0.24 -0.96,0.24l0,0.24c0,0 0.309,0.249 0.885,0.454c-0.377,0.156 -0.789,0.36 -1.189,0.625c-0.047,0.031 -0.079,0.08 -0.09,0.135c-0.011,0.055 0.001,0.113 0.033,0.159c0.204,0.288 0.668,0.898 1.354,1.546c-1.31,-0.026 -2.389,0.289 -2.958,0.5c-0.073,0.03 -0.12,0.101 -0.12,0.179c0,0.079 0.047,0.15 0.12,0.18c0.582,0.209 1.71,0.522 3.165,0.481l0,0.456c0,0.188 0.135,0.348 0.32,0.378c0.511,0.085 1.512,0.252 2.099,0.351c0.303,0.05 0.588,0.175 0.83,0.363c0.418,0.322 1.154,0.874 2.005,1.454c0.172,0.117 0.375,0.179 0.582,0.179l1.364,0l0,0.24l-1.241,-0c-0.053,-0 -0.103,0.021 -0.141,0.058c-0.037,0.038 -0.058,0.088 -0.058,0.141l0,0.091c-0,0.117 0.065,0.224 0.17,0.277c0.153,0.073 0.401,0.184 0.718,0.293c0.181,0.064 0.371,0.096 0.562,0.096c0.433,0.004 1.314,0.004 1.71,0.004c0.126,0 0.244,0.059 0.32,0.16l0.547,0.729c0.033,0.045 0.086,0.071 0.141,0.071l0.056,0c0.06,0 0.116,-0.03 0.148,-0.08l1.211,-1.863c1.227,-1.888 0.93,-4.383 -0.707,-5.93c-1.268,-1.192 -2.935,-2.405 -4.876,-2.927l0,-0.72l22.551,0c-1.052,0.055 -2.454,0.25 -3.415,0.848c-0.111,0.073 -0.24,0.112 -0.372,0.112l-0.479,-0c-0.157,-0 -0.285,0.128 -0.285,0.285l-0,0.195c-0.245,0.155 -0.575,0.225 -0.96,0.24c-1.486,0.071 -2.64,0.586 -2.64,1.2c0,0.649 1.292,1.179 2.903,1.199l0,0.001l0.937,0l0,0.72c-1.479,0 -2.62,0.337 -3.193,0.55c-0.067,0.029 -0.111,0.096 -0.111,0.169c-0,0.074 0.044,0.141 0.112,0.169c0.573,0.209 1.714,0.533 3.192,0.491l0,0.456c0,0.188 0.135,0.348 0.32,0.378c0.511,0.085 1.512,0.252 2.099,0.351c0.066,0.011 0.131,0.025 0.195,0.043l-1.894,1.473l1.2,0c0,0.133 0.107,0.24 0.24,0.24l0.48,0c-0,0 -1.205,0.904 -1.2,0.96c0.004,0.043 3.029,0.02 4.39,0.007c0.027,0.033 0.06,0.06 0.1,0.08c0.153,0.073 0.401,0.184 0.718,0.293c0.181,0.064 0.371,0.096 0.562,0.096c0.433,0.004 1.314,0.004 1.71,0.004c0.126,0 0.244,0.059 0.32,0.16l0.547,0.729c0.033,0.045 0.086,0.071 0.141,0.071l0.056,0c0.06,0 0.116,-0.03 0.148,-0.08l1.211,-1.863c1.227,-1.888 0.93,-4.383 -0.707,-5.93c-1.268,-1.192 -2.935,-2.405 -4.876,-2.927l-0,-0.72Zm-48,12.72l-0,1.68l1.68,0.96l0.96,0l1.2,0.96l-0,1.2c-0,0 0.308,0.24 1.2,0.24l0,-0.96c0.133,-0 0.24,-0.107 0.24,-0.24l0,-0.481c0,-0.152 -0.065,-0.297 -0.18,-0.398c-0.57,-0.492 -2.398,-2.018 -4.124,-2.844c-0.165,-0.076 -0.344,-0.115 -0.526,-0.115c-0.204,-0.002 -0.45,-0.002 -0.45,-0.002Zm-5.766,18.24l1.206,0l0.24,0.96l1.732,0c0.501,-0 0.908,-0.407 0.908,-0.908l0,-1.563c0,-0.112 -0.021,-0.222 -0.061,-0.326l-0.915,-2.381c-0.135,-0.351 -0.472,-0.582 -0.848,-0.582l-3.216,0c-1.226,0 -1.92,0.96 -1.92,0.96c0.276,0.41 0.597,0.792 0.789,1.011c-0.056,0.091 -0.151,0.152 -0.259,0.166c-0.114,0.014 -0.228,-0.029 -0.305,-0.114c-0.198,-0.216 -0.442,-0.343 -0.705,-0.343c-0.357,0 -0.678,0.235 -0.918,0.594c-0.05,0.082 -0.132,0.139 -0.227,0.155c-0.094,0.017 -0.191,-0.008 -0.266,-0.068c-0.147,-0.127 -0.322,-0.201 -0.509,-0.201c-0.53,0 -0.96,0.591 -0.96,1.32c0,0.729 0.43,1.32 0.96,1.32c0.187,0 0.362,-0.074 0.495,-0.219c0.08,-0.065 0.183,-0.091 0.284,-0.073c0.101,0.017 0.19,0.078 0.243,0.166c0.22,0.371 0.541,0.606 0.898,0.606c0.263,0 0.507,-0.127 0.704,-0.344c0.078,-0.085 0.192,-0.128 0.307,-0.114c0.114,0.014 0.215,0.083 0.27,0.185c0.244,0.462 0.596,0.753 0.988,0.753c0.448,0 0.844,-0.379 1.085,-0.96Z"/></svg>