<svg width="100%" height="100%" viewBox="0 0 1000 300" version="1.1" xmlns="http://www.w3.org/2000/svg" xmlns:xlink="http://www.w3.org/1999/xlink" xml:space="preserve" xmlns:serif="http://www.serif.com/" style="fill-rule:evenodd;clip-rule:evenodd;stroke-linejoin:round;stroke-miterlimit:2;"><path d="M465.89,42.73l3.11,-0l0,1.54l-3.11,-0c-0.24,-0 -0.43,-0.19 -0.43,-0.42l0,-0.7c0,-0.23 0.19,-0.42 0.43,-0.42Zm7.01,2.59c0.17,0 0.3,-0.13 0.3,-0.3l0,-1.22c0,-0.17 -0.13,-0.3 -0.3,-0.3l-0.66,0l0,-1.25c0,-0.22 -0.18,-0.4 -0.4,-0.4l-1.69,0c-0.22,0 -0.4,0.18 -0.4,0.4l0,2.67c0,0.22 0.18,0.4 0.4,0.4l2.75,0Zm12.64,-1.73l6.28,-0c0.23,-0 0.42,0.19 0.42,0.42l0,0.89c0,0.23 -0.19,0.42 -0.42,0.42l-6.28,-0c-0.23,-0 -0.42,-0.19 -0.42,-0.42l0,-0.89c0,-0.23 0.19,-0.42 0.42,-0.42Zm5.46,-2.52l1.48,-0l6.62,-2.09l0,-2.21l-15.96,-1.83c-1.17,-0.78 -2.57,-1.25 -4.08,-1.25c-0.92,-0 -1.8,0.17 -2.61,0.49l-12.16,-1.4l0,-1.06l-1.53,-0l0,1.06l-0.99,-0l0,1.94l-2.57,-0l0,-0.98l-0.88,-0l0,-0.85c0,-0.22 -0.19,-0.41 -0.41,-0.41l-0.64,-0c-0.22,-0 -0.41,0.19 -0.41,0.41l0,2.53l-4.54,-0l-0.59,-0.78c1.15,-0.55 1.93,-1.36 1.93,-2.89c0,-1.53 -1.64,-3.28 -3.66,-3.28c-2.36,-0 -4.39,2.14 -3.43,4.43l0.02,0.44l-1.47,-0l0,-2.75l0.15,-0c0.44,-0 0.79,-0.36 0.79,-0.8l0,-3.41c0,-0.36 -0.29,-0.65 -0.65,-0.65l-6.12,-0c-0.47,-0 -0.87,0.09 -1.28,0.31l-14.97,7.73l-3.23,-0l-2.79,-8.04l-10.38,-0l0,1.95l-4.8,-0c0.72,10.2 5.95,13.39 5.95,13.39l2.07,-0c0,3.95 3.21,7.16 7.16,7.16c2,-0 3.8,-0.82 5.1,-2.14l51.79,-0c1.32,1.32 3.14,2.14 5.15,2.14c2.01,-0 3.83,-0.82 5.14,-2.14l4.77,-0l0,0.3c0,0.44 0.36,0.8 0.8,0.8l9.53,-0c0.44,-0 0.8,-0.36 0.8,-0.8l0,-1.07l-2.85,-0c-0.24,-0 -0.42,-0.19 -0.42,-0.42l0,-0.89c0,-0.23 0.18,-0.42 0.42,-0.42l2.85,-0l0,-0.94c0,-0.44 -0.36,-0.8 -0.8,-0.8l-8.3,-0l0,-0.78Zm-449.28,-15.34l-3.06,-0c-0.82,-0 -1.51,0.16 -2.24,0.52l-13.03,6.5c-0.04,0.02 -0.09,0.03 -0.13,0.03l-0.92,-0c-0.17,-0 -0.3,0.14 -0.3,0.3l0,0.51c0,0.16 -0.14,0.3 -0.3,0.3l-3.37,-0c-0.17,-0 -0.3,-0.14 -0.3,-0.3l0,-3.45c0,-0.16 -0.14,-0.3 -0.3,-0.3l-11.58,-0c-0.16,-0 -0.29,0.14 -0.29,0.3l0,10.63c0,0.16 0.13,0.3 0.29,0.3l5.49,-0c0.09,-0 0.19,0.05 0.27,0.09c0.05,3.85 3.19,6.97 7.06,6.97c1.93,-0 3.68,-0.78 4.95,-2.04l47.99,-0c1.29,1.32 3.1,2.14 5.1,2.14c1.99,-0 3.8,-0.82 5.1,-2.14l15.79,-0c0.11,-0 0.2,-0.09 0.2,-0.2l0,-3.84c0,-0.11 -0.09,-0.2 -0.2,-0.2l-0.91,-0c-0.11,-0 -0.2,0.09 -0.2,0.2l0,2.13l-0.49,-0l0,-2.2c0,-0.08 -0.05,-0.15 -0.12,-0.19l-16.82,-7.69c-0.31,-0.15 -0.61,-0.21 -0.95,-0.21l-3.94,-0c-0.11,-0 -0.19,-0.09 -0.19,-0.2l0,-0.71c0,-0.11 -0.09,-0.2 -0.2,-0.2l-14.66,-0c-0.09,-0 -0.17,0.02 -0.25,0.07l-3.36,1.92c-0.07,0.05 -0.15,0.07 -0.24,0.07l-3.59,-0l-0.59,-0.2c1.15,-0.55 1.93,-1.64 1.93,-2.89c0,-1.81 -1.64,-3.28 -3.66,-3.28c-2.02,-0 -3.66,1.47 -3.66,3.28c0,0.41 0.08,0.8 0.23,1.15l-0.35,-0.12l-3.2,-0c-0.28,-0 -0.5,-0.22 -0.5,-0.5l0,-6.05c0,-0.28 -0.22,-0.5 -0.5,-0.5Zm70.18,14.33c-0.08,-0.03 -0.15,-0.07 -0.23,-0.07l-5.49,0c-0.17,0 -0.3,-0.14 -0.3,-0.3l0,-9.55c0,-0.16 0.13,-0.3 0.3,-0.3l2.34,0c0.08,0 0.14,-0.01 0.2,-0.05l3.45,-2.03c0.07,-0.03 0.13,-0.05 0.2,-0.05l5.28,0c0.22,0 0.4,0.18 0.4,0.4l0,5.48c0,0.16 0.13,0.3 0.3,0.3l3.37,0c0.17,0 0.3,-0.14 0.3,-0.3l0,-0.51c0,-0.16 0.13,-0.3 0.3,-0.3l0.92,0c0.04,0 0.09,-0.01 0.13,-0.03l13.03,-6.5c0.73,-0.36 1.42,-0.52 2.24,-0.52l3.06,0c0.28,0 0.5,0.22 0.5,0.5l0,2.59l1.23,0c0.45,0 0.81,0.36 0.81,0.8l0,3.16l1.66,0l0.35,0.12c-0.15,-0.35 -0.23,-0.74 -0.23,-1.15c0,-1.81 1.64,-3.28 3.66,-3.28c2.02,0 3.66,1.47 3.66,3.28c0,1.25 -0.78,2.34 -1.93,2.89l0.59,0.2l3.59,0c0.09,0 0.17,-0.02 0.24,-0.07l1.37,-0.78c0.13,-0.07 0.25,-0.1 0.4,-0.1l0.21,0c0,0 8.86,0.54 15.28,1.2c1.13,-0.74 2.48,-1.18 3.94,-1.18c0.99,0 1.93,0.2 2.79,0.56l0.02,-0.01c0.11,-0.05 0.22,-0.05 0.34,0l2.54,1.17c0.33,0.15 0.64,0.21 1,0.21l2.13,0c0.38,0 0.71,0.08 1.05,0.24c3.1,1.5 6.69,3.73 9.37,5.77c0.03,0.03 0.05,0.08 0.05,0.13l0,2.2l0.49,0l0,-2.13c0,-0.11 0.09,-0.2 0.2,-0.2l0.91,0c0.11,0 0.2,0.09 0.2,0.2l0,3.84c0,0.11 -0.09,0.2 -0.2,0.2l-15.79,0c-1.3,1.32 -3.11,2.14 -5.1,2.14c-2,0 -3.8,-0.82 -5.1,-2.14l-47.84,0c-1.3,1.32 -3.11,2.14 -5.1,2.14c-3.96,0 -7.16,-3.21 -7.16,-7.16c0,-0.34 0.02,-0.68 0.07,-1.01Zm140.42,-4.64l6.51,-0c0,-0 8.5,-2.64 13.01,-2.64l7.93,-0c1.93,-0 3.59,0.39 5.32,1.24c2.4,1.19 6.05,3.09 9.16,5.12l0,0.67l-0.95,-0l0,0.7l-0.83,-0l0,0.56l-0.32,-0l0,0.78l7.15,-0c0.44,-0 0.8,0.36 0.8,0.8l0,0.94l-2.79,-0c-0.23,-0 -0.42,0.19 -0.42,0.42l0,0.89c0,0.23 0.19,0.42 0.42,0.42l2.79,-0l0,1.07c0,0.44 -0.36,0.8 -0.8,0.8l-9.52,-0c-0.44,-0 -0.8,-0.36 -0.8,-0.8l0,-0.3l-4.82,-0c-1.3,1.32 -3.1,2.14 -5.1,2.14c-2,-0 -3.8,-0.82 -5.1,-2.14l-51.84,-0c-1.3,1.32 -3.1,2.14 -5.1,2.14c-2.47,-0 -4.65,-1.26 -5.94,-3.17l-5.4,-0c-0.44,-0 -0.8,-0.35 -0.8,-0.79l0,-13.6c0,-0.44 0.36,-0.8 0.8,-0.8l4.09,-0c0.22,-0 0.41,-0.08 0.56,-0.23l1.55,-1.55c0.16,-0.16 0.35,-0.23 0.57,-0.23l8.02,-0c0.44,-0 0.8,0.35 0.8,0.79l0,4.44c0,0.44 0.36,0.8 0.8,0.8l0.54,-0c0.16,-0 0.29,-0.04 0.43,-0.12l9.24,-5.79c0.13,-0.09 0.27,-0.12 0.42,-0.12l12.57,-0c0.44,-0 0.8,0.35 0.8,0.79l0,1.14c0,0.44 -0.36,0.8 -0.8,0.8l-0.15,-0l0,2.75l1.47,-0l-0.01,-0.44c-0.97,-2.29 1.06,-4.43 3.42,-4.43c2.02,-0 3.66,1.75 3.66,3.28c0,1.53 -0.78,2.34 -1.93,2.89l0.59,0.78Zm33.29,8.17l6.27,-0c0.24,-0 0.42,0.19 0.42,0.42l0,0.89c0,0.23 -0.18,0.42 -0.42,0.42l-6.27,-0c-0.24,-0 -0.42,-0.19 -0.42,-0.42l0,-0.89c0,-0.23 0.18,-0.42 0.42,-0.42Zm-19.66,-0.86l3.12,-0l0,1.54l-3.12,-0c-0.23,-0 -0.42,-0.19 -0.42,-0.42l0,-0.7c0,-0.23 0.19,-0.42 0.42,-0.42Zm7.02,2.59c0.16,-0 0.29,-0.13 0.29,-0.3l0,-1.22c0,-0.17 -0.13,-0.3 -0.29,-0.3l-0.66,-0l0,-1.25c0,-0.22 -0.18,-0.4 -0.4,-0.4l-1.7,-0c-0.22,-0 -0.4,0.18 -0.4,0.4l0,2.67c0,0.22 0.18,0.4 0.4,0.4l2.76,-0Zm-29.07,-14.73l-0.48,-0c-0.44,-0 -0.8,0.36 -0.8,0.8l0,1.15c0,0.44 0.36,0.8 0.8,0.8l0.48,-0l0,-2.75Zm118.24,-0c-0.22,-0 -0.4,0.18 -0.4,0.4l0,2.5c0,0.22 -0.18,0.4 -0.4,0.4l-1.21,-0l0,-0.99l-0.88,-0l0,-0.85c0,-0.23 -0.19,-0.41 -0.41,-0.41l-0.64,-0c-0.23,-0 -0.41,0.18 -0.41,0.41l0,3.37l-5.46,-0l-0.59,-0.78c1.15,-0.55 1.93,-1.36 1.93,-2.89c0,-1.53 -1.64,-3.28 -3.66,-3.28c-2.36,-0 -4.39,2.14 -3.43,4.43l0.02,0.44l-1.46,-0l0,-2.75l0.14,-0c0.43,-0 0.8,-0.36 0.8,-0.8l0,-5.12c0,-0.44 -0.36,-0.8 -0.8,-0.8l-3.22,-0c-0.21,0.01 -4.93,0.55 -19.01,9.9c-0.14,0.08 -0.27,0.12 -0.43,0.12l-0.54,-0c-0.44,-0 -0.8,-0.36 -0.8,-0.8l0,-7.62c0,-0.44 -0.36,-0.8 -0.8,-0.8l-9.32,-0c-0.19,-0 -0.34,0.15 -0.34,0.34l0,0.81c0,0.19 0.15,0.34 0.34,0.34l0.75,-0l0,1.59l-6.99,-0c2.82,4.65 2.8,12.72 -0.14,17.31l6.31,-0c1.29,1.91 3.47,3.17 5.94,3.17c2,-0 3.8,-0.82 5.1,-2.14l51.84,-0c1.3,1.32 3.1,2.14 5.1,2.14c1.99,-0 3.8,-0.82 5.1,-2.14l4.81,-0l0,0.3c0,0.44 0.36,0.8 0.8,0.8l9.53,-0c0.44,-0 0.8,-0.36 0.8,-0.8l0,-1.07l-2.94,-0c-0.18,-0 -0.33,-0.19 -0.33,-0.42l0,-0.89c0,-0.23 0.15,-0.42 0.33,-0.42l2.94,-0l0,-0.94c0,-0.44 -0.36,-0.8 -0.8,-0.8l-7.15,-0l0,-0.78l5.16,-0l0,-0.78c0,-0.36 -0.23,-0.66 -0.57,-0.76l-13.06,-3.93c-1.25,-1.05 -2.86,-1.69 -4.62,-1.69c-0.29,-0 -0.57,0.02 -0.84,0.05l-10.19,-3.06c-0.72,-0.22 -1.37,-0.31 -2.13,-0.31l-3.77,-0Zm23.41,13l6.28,-0c0.23,-0 0.42,0.19 0.42,0.42l-0,0.89c-0,0.23 -0.19,0.42 -0.42,0.42l-6.28,-0c-0.23,-0 -0.42,-0.19 -0.42,-0.42l-0,-0.89c-0,-0.23 0.19,-0.42 0.42,-0.42Zm-19.65,-0.86l3.12,-0l-0,1.54l-3.12,-0c-0.24,-0 -0.43,-0.19 -0.43,-0.42l-0,-0.7c-0,-0.23 0.19,-0.42 0.43,-0.42Zm7.02,2.59c0.16,0 0.29,-0.13 0.29,-0.3l-0,-1.22c-0,-0.17 -0.13,-0.3 -0.29,-0.3l-0.67,0l-0,-1.25c-0,-0.22 -0.18,-0.4 -0.4,-0.4l-1.69,0c-0.22,0 -0.4,0.18 -0.4,0.4l-0,2.67c-0,0.22 0.18,0.4 0.4,0.4l2.76,0Zm-29.03,-14.73l-0.47,-0c-0.44,-0 -0.8,0.36 -0.8,0.8l-0,1.15c-0,0.44 0.36,0.8 0.8,0.8l0.47,-0l-0,-2.75Zm100,-0l-0.48,-0c-0.44,-0 -0.8,0.36 -0.8,0.8l-0,1.15c-0,0.44 0.36,0.8 0.8,0.8l0.48,-0l-0,-2.75Zm-443.89,-30.59l1000,-0l-0,300l-1000,0l-0,-300Z"/></svg>