<svg width="100%" height="100%" viewBox="0 0 500 200" version="1.1" xmlns="http://www.w3.org/2000/svg" xmlns:xlink="http://www.w3.org/1999/xlink" xml:space="preserve" xmlns:serif="http://www.serif.com/" style="fill-rule:evenodd;clip-rule:evenodd;stroke-linejoin:round;stroke-miterlimit:2;"><path d="M0,0l500,0l0,200l-500,0l0,-200Zm110.17,35.44l-0.69,0.21c-0.11,0.03 -0.19,0.12 -0.21,0.23c-0.08,0.45 -0.25,1.94 -0.26,6.4c0,0.25 0.06,0.46 0.18,0.67c0.29,0.48 0.93,1.34 2.08,1.74c1.64,0.58 7.15,1.11 11.69,1.11l2.19,0c1.05,1.64 2.89,2.73 4.99,2.73c1.8,0 3.42,-0.81 4.51,-2.09l1.22,0.11l38.65,0c1.08,1.21 2.66,1.98 4.41,1.98c2.14,0 4,-1.13 5.05,-2.82l0.65,0l0.22,0.84l9.93,0c0.17,0 0.3,-0.13 0.3,-0.3l0,-1.05c0,-0.13 -0.09,-0.25 -0.22,-0.28l-0.55,-0.15l0,-3.59c0,-1.1 -0.23,-2.59 -0.99,-2.59c-1.64,0 0,-3.45 -1.99,-3.45l0,-2.99c0,-0.56 -0.46,-1.01 -1.02,-1.01l-0.57,0c-0.08,-0.12 -0.18,-0.21 -0.3,-0.29c-2.73,-1.77 -19.65,-2.62 -19.65,-2.62c-2.53,-3.44 -6.72,-7.14 -6.72,-7.14l0,-0.4c0,-0.56 -0.45,-1.02 -1.01,-1.02l-36.65,0c-1.77,0 -3.3,0.69 -4.48,2.01c-3.73,4.17 -6.9,8.78 -6.9,8.78l-1.72,0.4c-0.21,0.05 -0.35,0.2 -0.47,0.37c-0.59,0.84 -1,1.74 -1.26,2.46c-0.23,0.6 -0.36,1.15 -0.41,1.75Zm-96.17,45.56l57,0l0,-3l-7,-7l-42,0l-8,10Zm10.09,-39.44c-0.06,0.34 -0.09,0.68 -0.09,1.04c-0,3.27 2.65,5.93 5.93,5.93c3.27,0 5.92,-2.66 5.92,-5.93l36.81,0l0.46,-0.49c-0.02,0.16 -0.02,0.32 -0.02,0.49c-0,3.27 2.65,5.93 5.92,5.93c3.28,0 5.93,-2.66 5.93,-5.93c0,-0.27 -0.02,-0.53 -0.05,-0.79l2.05,0.04c0.48,0.01 0.81,-0.25 0.95,-0.64l1.59,0c0.45,0 0.84,-0.28 0.97,-0.72l0.71,-2.42c0.03,-0.09 0.01,-0.19 -0.04,-0.26c-0.06,-0.08 -0.15,-0.12 -0.24,-0.12l-0.85,0l0,-1.7l0.16,0c0.15,0 0.28,-0.13 0.28,-0.28l0,-4.29c0,-0.16 -0.13,-0.28 -0.28,-0.28l-0.3,0c-0.08,-0.12 -0.18,-0.21 -0.3,-0.29c-2.73,-1.77 -19.65,-2.62 -19.65,-2.62c-2.53,-3.44 -6.72,-7.14 -6.72,-7.14l0,-0.4c0,-0.56 -0.46,-1.01 -1.01,-1.02l-36.74,-0.15c-1.77,-0.01 -3.3,0.68 -4.48,2c-3.73,4.18 -6.9,8.79 -6.9,8.79l-1.63,0.55c-0.21,0.07 -0.35,0.2 -0.47,0.37c-0.59,0.84 -1,1.74 -1.27,2.46c-0.3,0.82 -0.44,1.56 -0.44,2.44l0,1.39l-1.18,0l0.79,3.21l4.54,0l0.28,0.83l9.37,0Z"/></svg>