<?xml version="1.0" encoding="UTF-8" standalone="no"?><!DOCTYPE svg PUBLIC "-//W3C//DTD SVG 1.1//EN" "http://www.w3.org/Graphics/SVG/1.1/DTD/svg11.dtd"><svg width="100%" height="100%" viewBox="0 0 1000 500" version="1.1" xmlns="http://www.w3.org/2000/svg" xmlns:xlink="http://www.w3.org/1999/xlink" xml:space="preserve" xmlns:serif="http://www.serif.com/" style="fill-rule:evenodd;clip-rule:evenodd;stroke-linejoin:round;stroke-miterlimit:2;"><path d="M0,0l1000,0l0,500l-1000,0l0,-500Zm352.56,0.1l-35.27,0l0,1.7l1.16,0l-0.1,1.64l-2.66,-0l0,-1.24l-1.26,0l0,4.42l1.26,0l0,-1.04l1.04,0l0,-1.09l1.56,0l-0.81,13.49c-0.96,0 -3.1,-0.1 -5.16,1.08c-0.64,0.36 -1.01,1 -1.01,1.73l0,0.14l-1.29,0l0,-17.23l-1.03,0l0,-3.6l-3,0l0,15.04l-0.79,-0l0,3.08l-1.06,-0l0,2.14l-0.81,-0l0,4.87l-1.49,-0l0,2.05l1.49,-0l0,9.1l-1.02,-0l0,1.35l1.02,-0l0,0.9l3.18,-0l0,2.83l-1.29,-0l0,0.79l4.9,-0l0,0.01l0.72,-0l0.15,1.36l0.72,-0.08l0.29,1.34l0.71,-0.16l0.44,1.3l0.68,-0.23l0.58,1.24l0.66,-0.31l0.71,1.17l0.62,-0.37l0.83,1.08l0.57,-0.44l0.45,0.41c2.94,-0 7.03,-0.01 9.98,-0.01l0.15,-0.46l1.36,0.06l0.04,-0.72l1.36,-0.09l-0.05,-0.72l1.35,-0.24l-0.12,-0.71l1.31,-0.38l-0.2,-0.7l1.26,-0.52l-0.27,-0.67l1.2,-0.66l-0.35,-0.63l1.12,-0.78l-0.41,-0.6l1.02,-0.9l-0.47,-0.54l0.92,-1.01l-0.53,-0.49l0.05,-0.07l3.71,-0l0,6.54l1.66,-0l0,-1.97l8.37,-0l0,1.97l1.67,-0l0,-6.54l12.3,-0l0,4.98l1.66,-0l0,-4.98l1.02,-0l-0.12,0.17l0.43,0.3l-0.48,0.88l0.47,0.25l-0.38,0.92l0.48,0.2l-0.28,0.96l0.51,0.15l-0.19,0.98l0.47,0.08l-0.07,0.88l0.4,0.03l0,0.74l0.52,-0l0.11,0.99l0.53,-0.06l0.21,0.97l0.52,-0.11l0.32,0.94l0.5,-0.17l0.42,0.91l0.48,-0.22l0.51,0.85l0.45,-0.27l0.37,0.46c2.54,0.01 6.81,0.01 9.36,0.01l0.02,-0.53l1,-0.07l-0.04,-0.52l0.99,-0.17l-0.09,-0.53l0.95,-0.27l-0.14,-0.5l0.92,-0.39l-0.2,-0.49l0.87,-0.48l-0.25,-0.46l0.81,-0.57l-0.3,-0.43l0.75,-0.66l-0.35,-0.39l0.68,-0.74l-0.39,-0.36l0.59,-0.8l-0.42,-0.31l0.5,-0.86l-0.46,-0.27l0.4,-0.91l-0.48,-0.21l0.29,-0.92l2.6,-0l-0,-5.15c-0.63,-1.97 -3.83,-4.97 -3.83,-4.97l-0,-7.59l-1.51,-0.36l-0,1.19c-0.6,-0.47 -1.56,-0.95 -3.06,-1.13c-7.65,-0.92 -15.71,-1.3 -23.57,-1.67l-0,-1.31l-5.14,-0.23l-1.26,-6.63l1.5,-0l-0,0.85l1.88,-0l-0,-7.93l-1.25,-0l-0,1.43l-0.63,-0l-0,0.82l-2.39,-0l-0,0.13l-0.45,-2.38l1.12,-0l-0,-1.7Zm-100,0l-35.26,0l-0,1.7l1.15,0l-0.96,16.18c-0.96,0 -3.1,-0.1 -5.16,1.08c-0.65,0.36 -1.01,1 -1.01,1.73l-0,0.14l-1.29,0l-0,-17.23l-1.04,0l-0,-3.6l-2.99,0l-0,15.04l-0.79,0l-0,3.08l-1.06,0l-0,2.14l-0.81,0l-0,4.87l-1.49,0l-0,2.05l1.49,0l-0,9.1l-1.02,0l-0,1.35l1.02,0l-0,0.9l3.17,0l-0,2.83l-1.29,0l-0,0.79l4.91,0l-0,0.01l0.72,0l0.15,1.36l0.72,-0.08l0.29,1.34l0.71,-0.16l0.44,1.3l0.68,-0.23l0.58,1.24l0.65,-0.31l0.72,1.17l0.61,-0.37l0.84,1.08l0.57,-0.44l0.44,0.41c2.95,0 7.03,-0.01 9.99,-0.01l0.15,-0.46l1.36,0.06l0.03,-0.72l1.37,-0.09l-0.05,-0.72l1.35,-0.24l-0.12,-0.71l1.31,-0.38l-0.2,-0.7l1.26,-0.52l-0.27,-0.67l1.2,-0.66l-0.35,-0.63l1.12,-0.78l-0.42,-0.6l1.03,-0.9l-0.48,-0.54l0.93,-1.01l-0.53,-0.49l0.05,-0.07l3.71,0l-0,6.54l1.66,0l-0,-1.97l8.37,0l-0,1.97l1.67,0l-0,-6.54l14.98,0l-0.12,0.17l0.43,0.3l-0.48,0.88l0.46,0.25l-0.38,0.92l0.49,0.2l-0.28,0.96l0.5,0.15l-0.18,0.98l0.47,0.08l-0.07,0.88l0.4,0.03l-0,0.74l0.52,0l0.11,0.99l0.53,-0.06l0.21,0.97l0.51,-0.11l0.33,0.94l0.5,-0.17l0.41,0.91l0.48,-0.22l0.52,0.85l0.45,-0.27l0.37,0.46c2.54,0.01 6.81,0.01 9.36,0.01l0.02,-0.53l1,-0.07l-0.04,-0.52l0.98,-0.17l-0.08,-0.53l0.95,-0.27l-0.14,-0.5l0.92,-0.39l-0.21,-0.49l0.88,-0.48l-0.25,-0.46l0.81,-0.57l-0.3,-0.43l0.75,-0.66l-0.35,-0.39l0.68,-0.74l-0.39,-0.36l0.59,-0.8l-0.43,-0.31l0.51,-0.86l-0.46,-0.27l0.4,-0.91l-0.48,-0.21l0.29,-0.92l2.27,0l-0,-3.28c-0,0 -1.41,-1.36 -4.82,-1.36l-0.16,-0.54l-0,-2.33c-0,0 -0.03,-1.47 0.83,-1.47l-0,-6.84c-0,-0.13 -0.79,-1.81 -3.93,-2.19c-9.23,-1.11 -19.07,-1.43 -28.45,-1.9l-1.51,-7.94l1.5,0l-0,0.85l1.88,0l-0,-7.93l-1.25,0l-0,1.43l-0.63,0l-0,0.82l-2.39,0l-0,0.13l-0.45,-2.38l1.11,0l-0,-1.7Zm-99.99,0l-35.26,0l-0,1.7l1.15,0l-0.96,16.18c-0.96,0 -3.1,-0.1 -5.16,1.08c-0.65,0.36 -1.02,1 -1.02,1.73l-0,5.22l-0.16,0.07l0.16,0.37l-0,0.36l-1.05,0.61l0.36,0.63l-1.11,0.81l0.43,0.58l-0.64,0.58l-0,-2.27l-1.55,0l-0,5.47l0.73,0l-0.21,0.3l0.59,0.42l-0.66,1.2l0.63,0.34l-0.52,1.27l0.66,0.28l-0.38,1.31l0.69,0.2l-0.24,1.35l0.64,0.11l-0.1,1.21l0.54,0.04l-0,1.01l0.73,0l0.15,1.36l0.72,-0.08l0.29,1.34l0.71,-0.16l0.43,1.3l0.69,-0.23l0.58,1.24l0.65,-0.31l0.71,1.17l0.62,-0.37l0.83,1.08l0.58,-0.44l0.44,0.41c2.95,0 7.03,-0.01 9.99,-0.01l0.14,-0.46l1.37,0.06l0.03,-0.72l1.37,-0.09l-0.05,-0.72l1.35,-0.24l-0.13,-0.71l1.32,-0.38l-0.2,-0.7l1.26,-0.52l-0.28,-0.67l1.2,-0.66l-0.34,-0.63l1.12,-0.78l-0.42,-0.6l1.03,-0.9l-0.48,-0.54l0.93,-1.01l-0.53,-0.49l0.05,-0.07l3.7,0l-0,6.54l1.67,0l-0,-1.97l8.37,0l-0,1.97l1.67,0l-0,-6.54l14.97,0l-0.11,0.17l0.43,0.3l-0.48,0.88l0.46,0.25l-0.38,0.92l0.48,0.2l-0.27,0.96l0.5,0.15l-0.18,0.98l0.47,0.08l-0.07,0.88l0.39,0.03l-0,0.74l0.53,0l0.11,0.99l0.53,-0.06l0.21,0.97l0.51,-0.11l0.32,0.94l0.5,-0.17l0.42,0.91l0.48,-0.22l0.52,0.85l0.45,-0.27l0.37,0.46c2.53,0.01 6.81,0.01 9.36,0.01l0.02,-0.53l1,-0.07l-0.04,-0.52l0.98,-0.17l-0.09,-0.53l0.96,-0.27l-0.14,-0.5l0.92,-0.39l-0.21,-0.49l0.88,-0.48l-0.25,-0.46l0.81,-0.57l-0.3,-0.43l0.74,-0.66l-0.34,-0.39l0.68,-0.74l-0.39,-0.36l0.59,-0.8l-0.43,-0.31l0.5,-0.86l-0.45,-0.27l0.4,-0.91l-0.48,-0.21l0.29,-0.92l2.27,0l-0,-3.28c-0,0 -1.41,-1.36 -4.83,-1.36l-0.16,-0.54l-0,-2.33c-0,0 -0.02,-1.47 0.84,-1.47l-0,-6.84c-0,-0.13 -0.79,-1.81 -3.93,-2.19c-9.23,-1.11 -19.08,-1.43 -28.46,-1.9l-1.5,-7.94l1.5,0l-0,0.85l1.88,0l-0,-7.93l-1.25,0l-0,1.43l-0.63,0l-0,0.82l-2.4,0l-0,0.13l-0.45,-2.38l1.12,0l-0,-1.7Zm-89.41,0l-2.92,0l-0,1.7l-0.61,0l-0,9.75l-1.02,0l-0,5.53l-4.3,-0.26l-1.5,-7.94l1.5,0l-0,0.85l1.88,0l-0,-7.93l-1.26,0l-0,1.43l-0.62,0l-0,0.82l-2.4,0l-0,0.13l-0.45,-2.38l1.12,0l-0,-1.7l-35.26,0l-0,1.7l1.15,0l-0.96,16.18c-0.96,0 -3.1,-0.1 -5.17,1.08c-0.64,0.36 -1.01,1 -1.01,1.73l-0,5.22l-0.16,0.07l0.16,0.37l-0,0.36l-1.06,0.61l0.36,0.63l-1.1,0.81l0.43,0.58l-1.02,0.92l0.49,0.54l-0.9,1.03l0.54,0.47l-0.78,1.12l0.59,0.42l-0.66,1.2l0.63,0.34l-0.52,1.27l0.66,0.28l-0.38,1.31l0.69,0.2l-0.24,1.35l0.64,0.11l-0.1,1.21l0.54,0.04l-0,1.01l0.72,0l0.15,1.36l0.72,-0.08l0.3,1.34l0.7,-0.16l0.44,1.3l0.69,-0.23l0.58,1.24l0.65,-0.31l0.71,1.17l0.62,-0.37l0.83,1.08l0.58,-0.44l0.44,0.41c2.95,0 7.03,-0.01 9.99,-0.01l0.14,-0.46l1.37,0.06l0.03,-0.72l1.37,-0.09l-0.05,-0.72l1.35,-0.24l-0.13,-0.71l1.32,-0.38l-0.21,-0.7l1.27,-0.52l-0.28,-0.67l1.2,-0.66l-0.35,-0.63l1.12,-0.78l-0.41,-0.6l1.03,-0.9l-0.48,-0.54l0.93,-1.01l-0.53,-0.49l0.05,-0.07l3.7,0l-0,6.54l1.67,0l-0,-1.97l8.37,0l-0,1.97l1.66,0l-0,-6.54l14.98,0l-0.11,0.17l0.43,0.3l-0.48,0.88l0.46,0.25l-0.38,0.92l0.48,0.2l-0.28,0.96l0.51,0.15l-0.18,0.98l0.47,0.08l-0.07,0.88l0.39,0.03l-0,0.74l0.53,0l0.11,0.99l0.53,-0.06l0.21,0.97l0.51,-0.11l0.32,0.94l0.5,-0.17l0.42,0.91l0.48,-0.22l0.52,0.85l0.45,-0.27l0.37,0.46c2.53,0.01 6.81,0.01 9.36,0.01l0.02,-0.53l0.99,-0.07l-0.03,-0.52l0.98,-0.17l-0.09,-0.53l0.96,-0.27l-0.15,-0.5l0.93,-0.39l-0.21,-0.49l0.87,-0.48l-0.25,-0.46l0.82,-0.57l-0.3,-0.43l0.74,-0.66l-0.34,-0.39l0.67,-0.74l-0.38,-0.36l0.59,-0.8l-0.43,-0.31l0.5,-0.86l-0.46,-0.27l0.41,-0.91l-0.49,-0.21l0.3,-0.92l2.27,0l-0,-3.28c-0,0 -1.41,-1.36 -4.83,-1.36l-0.16,-0.54l-0,-2.33c-0,0 -0.02,-1.47 0.83,-1.47l-0,-6.84c-0,0 -0.78,-1.78 -3.92,-2.19c-1.87,-0.24 -11.62,-0.87 -19.19,-1.34l-0,-5.83l-1.02,0l-0,-9.75l0.6,0l-0,-1.7Zm287.55,37.63l-8.37,0l-0,2.9l8.37,0l-0,-2.9Zm1.31,-32.84l0.61,3.2l-0,-0.05l1.65,0l-0,-3.15l-2.26,0Zm-101.3,32.84l-8.37,0l-0,2.9l8.37,0l-0,-2.9Zm1.31,-32.84l0.61,3.2l-0,-0.05l1.65,0l-0,-3.15l-2.26,0Zm-101.3,32.84l-8.37,0l-0,2.9l8.37,0l-0,-2.9Zm1.31,-32.84l0.61,3.2l-0,-0.05l1.65,0l-0,-3.15l-2.26,0Zm-101.3,32.84l-8.37,0l-0,2.9l8.37,0l-0,-2.9Zm1.31,-32.84l0.6,3.2l-0,-0.05l1.66,0l-0,-3.15l-2.26,0Z"/></svg>