<svg width="100%" height="100%" viewBox="0 0 120 48" version="1.1" xmlns="http://www.w3.org/2000/svg" xmlns:xlink="http://www.w3.org/1999/xlink" xml:space="preserve" xmlns:serif="http://www.serif.com/" style="fill-rule:evenodd;clip-rule:evenodd;stroke-linejoin:round;stroke-miterlimit:2;"><path d="M120,0l0,48l-120,0l0,-48l120,0Zm-106.971,11.04l1.611,-0c1.2,-0 2.16,-0.96 2.167,-1.861c0,-0.001 0,-0.001 -0,-0.001c0.018,-1.149 -0.226,-7.373 -7.622,-7.956c-0.076,-0.007 -0.15,0.021 -0.204,0.074c-0.053,0.053 -0.081,0.127 -0.076,0.202c0.078,0.682 0.39,2.428 1.624,4.131c0.049,0.068 0.044,0.16 -0.012,0.222l-1.858,2.026c-0.167,0.182 -0.259,0.42 -0.259,0.666l-0,0.791c0,0.545 0.441,0.986 0.986,0.986l0.594,-0c0.285,0.703 0.975,1.2 1.78,1.2c0.486,-0 0.931,-0.181 1.269,-0.48Zm42.541,-5.04l-0.327,-0l0,1.2l0.126,-0c-0.184,0.458 -0.172,0.99 0.078,1.458l1.142,2.142l1.622,-0c0.352,0.439 0.892,0.72 1.498,0.72c0.487,-0 0.931,-0.181 1.27,-0.48l1.61,-0c1.2,-0 2.16,-0.96 2.168,-1.861c-0,-0.001 -0.001,-0.001 -0.001,-0.001c0.018,-1.149 -0.226,-7.373 -7.622,-7.956c-0.075,-0.007 -0.15,0.021 -0.203,0.074c-0.054,0.053 -0.082,0.127 -0.077,0.202c0.029,0.255 0.077,0.584 0.207,1.078c-1.141,0.731 -1.467,2.059 -1.491,3.424Zm0.843,-0l-0.409,-0c0.021,-1.227 0.224,-2.211 1.211,-2.891c0.066,0.22 0.066,0.225 0.162,0.468c-0.728,0.601 -0.913,1.443 -0.964,2.423Zm0.49,0l-0.076,0c0.045,-0.845 0.144,-1.445 0.738,-1.979c0.205,0.476 0.429,0.904 0.773,1.409c-0.549,0.203 -1.024,0.395 -1.435,0.57Zm-22.641,4.8c0.352,0.439 0.892,0.72 1.498,0.72c0.486,-0 0.931,-0.181 1.269,-0.48l1.611,-0c1.2,-0 2.16,-0.96 2.167,-1.861c0,-0.001 0,-0.001 -0,-0.001c0.018,-1.149 -0.226,-7.373 -7.622,-7.956c-0.076,-0.007 -0.15,0.021 -0.204,0.074c-0.053,0.053 -0.081,0.127 -0.076,0.202c0.075,0.656 0.366,2.293 1.484,3.932c-0.953,0.353 -1.685,0.671 -2.241,0.927c-0.799,0.468 -1.086,1.484 -0.65,2.301l1.142,2.142l1.622,-0Z"/></svg>