<?xml version="1.0" encoding="UTF-8" standalone="no"?>
<!DOCTYPE svg PUBLIC "-//W3C//DTD SVG 1.1//EN" "http://www.w3.org/Graphics/SVG/1.1/DTD/svg11.dtd">
<svg width="100%" height="100%" viewBox="0 0 45 35" version="1.1" xmlns="http://www.w3.org/2000/svg" xmlns:xlink="http://www.w3.org/1999/xlink" xml:space="preserve" xmlns:serif="http://www.serif.com/" style="fill-rule:evenodd;clip-rule:evenodd;stroke-linejoin:round;stroke-miterlimit:2;">
    <g id="Logo-Klavogonki-small">
        <g id="logo-wrapper" transform="matrix(0.225,0,0,1,0,-0.5)">
            <rect x="0" y="0.5" width="200" height="35" style="fill:none;"/>
        </g>
        <g id="_1_K" serif:id="1_K" transform="matrix(1,0,0,1,1.31,0)">
            <g id="_10" serif:id="10" transform="matrix(1,0,0,1,0,-0.5)">
                <path d="M15.51,27.32L19.24,27.32C19.61,27.32 19.91,27.63 19.91,28L19.91,31.73C19.91,32.1 19.61,32.41 19.24,32.41L15.51,32.41C15.13,32.41 14.83,32.1 14.83,31.73L14.83,28C14.83,27.63 15.13,27.32 15.51,27.32Z" style="fill:rgb(55,52,53);"/>
            </g>
            <g id="_9" serif:id="9" transform="matrix(1,0,0,1,0,-0.5)">
                <path d="M12.54,21.39L16.27,21.39C16.64,21.39 16.95,21.69 16.95,22.07L16.95,25.8C16.95,26.17 16.64,26.47 16.27,26.47L12.54,26.47C12.17,26.47 11.86,26.17 11.86,25.8L11.86,22.07C11.86,21.69 12.17,21.39 12.54,21.39Z" style="fill:rgb(55,52,53);"/>
            </g>
            <g id="_8" serif:id="8" transform="matrix(1,0,0,1,0,-0.5)">
                <path d="M15.51,3.59L19.24,3.59C19.61,3.59 19.91,3.9 19.91,4.27L19.91,8C19.91,8.37 19.61,8.68 19.24,8.68L15.51,8.68C15.13,8.68 14.83,8.37 14.83,8L14.83,4.27C14.83,3.9 15.13,3.59 15.51,3.59Z" style="fill:rgb(55,52,53);"/>
            </g>
            <g id="_7" serif:id="7" transform="matrix(1,0,0,1,0,-0.5)">
                <path d="M12.54,9.53L16.27,9.53C16.64,9.53 16.95,9.83 16.95,10.2L16.95,13.93C16.95,14.31 16.64,14.61 16.27,14.61L12.54,14.61C12.17,14.61 11.86,14.31 11.86,13.93L11.86,10.2C11.86,9.83 12.17,9.53 12.54,9.53Z" style="fill:rgb(55,52,53);"/>
            </g>
            <g id="_6" serif:id="6" transform="matrix(1,0,0,1,0,-0.5)">
                <path d="M9.58,15.46L13.31,15.46C13.68,15.46 13.98,15.76 13.98,16.14L13.98,19.87C13.98,20.24 13.68,20.54 13.31,20.54L9.58,20.54C9.2,20.54 8.9,20.24 8.9,19.87L8.9,16.14C8.9,15.76 9.2,15.46 9.58,15.46Z" style="fill:rgb(55,52,53);"/>
            </g>
            <g id="_5" serif:id="5" transform="matrix(1,0,0,1,0,-0.5)">
                <path d="M3.64,27.32L7.37,27.32C7.75,27.32 8.05,27.63 8.05,28L8.05,31.73C8.05,32.1 7.75,32.41 7.37,32.41L3.64,32.41C3.27,32.41 2.97,32.1 2.97,31.73L2.97,28C2.97,27.63 3.27,27.32 3.64,27.32Z" style="fill:rgb(55,52,53);"/>
            </g>
            <g id="_4" serif:id="4" transform="matrix(1,0,0,1,0,-0.5)">
                <path d="M3.64,21.39L7.37,21.39C7.75,21.39 8.05,21.69 8.05,22.07L8.05,25.8C8.05,26.17 7.75,26.47 7.37,26.47L3.64,26.47C3.27,26.47 2.97,26.17 2.97,25.8L2.97,22.07C2.97,21.69 3.27,21.39 3.64,21.39Z" style="fill:rgb(55,52,53);"/>
            </g>
            <g id="_3" serif:id="3" transform="matrix(1,0,0,1,0,-0.5)">
                <path d="M3.64,15.46L7.37,15.46C7.75,15.46 8.05,15.76 8.05,16.14L8.05,19.87C8.05,20.24 7.75,20.54 7.37,20.54L3.64,20.54C3.27,20.54 2.97,20.24 2.97,19.87L2.97,16.14C2.97,15.76 3.27,15.46 3.64,15.46Z" style="fill:rgb(55,52,53);"/>
            </g>
            <g id="_2" serif:id="2" transform="matrix(1,0,0,1,0,-0.5)">
                <path d="M3.64,9.53L7.37,9.53C7.75,9.53 8.05,9.83 8.05,10.2L8.05,13.93C8.05,14.31 7.75,14.61 7.37,14.61L3.64,14.61C3.27,14.61 2.97,14.31 2.97,13.93L2.97,10.2C2.97,9.83 3.27,9.53 3.64,9.53Z" style="fill:rgb(55,52,53);"/>
            </g>
            <g id="_1" serif:id="1" transform="matrix(1,0,0,1,0,-0.5)">
                <path d="M3.64,3.59L7.37,3.59C7.75,3.59 8.05,3.9 8.05,4.27L8.05,8C8.05,8.37 7.75,8.68 7.37,8.68L3.64,8.68C3.27,8.68 2.97,8.37 2.97,8L2.97,4.27C2.97,3.9 3.27,3.59 3.64,3.59Z" style="fill:rgb(55,52,53);"/>
            </g>
        </g>
        <g id="_6_G" serif:id="6_G" transform="matrix(1,0,0,1,-76.65,0)">
            <g id="_71" serif:id="7" transform="matrix(1,0,0,1,0,-0.5)">
                <path d="M112.97,3.59L116.7,3.59C117.07,3.59 117.37,3.9 117.37,4.27L117.37,8C117.37,8.37 117.07,8.68 116.7,8.68L112.97,8.68C112.59,8.68 112.29,8.37 112.29,8L112.29,4.27C112.29,3.9 112.59,3.59 112.97,3.59Z" style="fill:rgb(55,52,53);"/>
            </g>
            <g id="_61" serif:id="6" transform="matrix(1,0,0,1,0,-0.5)">
                <path d="M107.03,3.59L110.76,3.59C111.14,3.59 111.44,3.9 111.44,4.27L111.44,8C111.44,8.37 111.14,8.68 110.76,8.68L107.03,8.68C106.66,8.68 106.36,8.37 106.36,8L106.36,4.27C106.36,3.9 106.66,3.59 107.03,3.59Z" style="fill:rgb(55,52,53);"/>
            </g>
            <g id="_51" serif:id="5" transform="matrix(1,0,0,1,0,-0.5)">
                <path d="M101.1,3.59L104.83,3.59C105.2,3.59 105.51,3.9 105.51,4.27L105.51,8C105.51,8.37 105.2,8.68 104.83,8.68L101.1,8.68C100.73,8.68 100.42,8.37 100.42,8L100.42,4.27C100.42,3.9 100.73,3.59 101.1,3.59Z" style="fill:rgb(55,52,53);"/>
            </g>
            <g id="_41" serif:id="4" transform="matrix(1,0,0,1,0,-0.5)">
                <path d="M101.1,9.53L104.83,9.53C105.2,9.53 105.51,9.83 105.51,10.2L105.51,13.93C105.51,14.31 105.2,14.61 104.83,14.61L101.1,14.61C100.73,14.61 100.42,14.31 100.42,13.93L100.42,10.2C100.42,9.83 100.73,9.53 101.1,9.53Z" style="fill:rgb(55,52,53);"/>
            </g>
            <g id="_31" serif:id="3" transform="matrix(1,0,0,1,0,-0.5)">
                <path d="M101.1,15.46L104.83,15.46C105.2,15.46 105.51,15.76 105.51,16.14L105.51,19.87C105.51,20.24 105.2,20.54 104.83,20.54L101.1,20.54C100.73,20.54 100.42,20.24 100.42,19.87L100.42,16.14C100.42,15.76 100.73,15.46 101.1,15.46Z" style="fill:rgb(55,52,53);"/>
            </g>
            <g id="_21" serif:id="2" transform="matrix(1,0,0,1,0,-0.5)">
                <path d="M101.1,21.39L104.83,21.39C105.2,21.39 105.51,21.69 105.51,22.07L105.51,25.8C105.51,26.17 105.2,26.47 104.83,26.47L101.1,26.47C100.73,26.47 100.42,26.17 100.42,25.8L100.42,22.07C100.42,21.69 100.73,21.39 101.1,21.39Z" style="fill:rgb(55,52,53);"/>
            </g>
            <g id="_11" serif:id="1" transform="matrix(1,0,0,1,0,-0.5)">
                <path d="M101.1,27.32L104.83,27.32C105.2,27.32 105.51,27.63 105.51,28L105.51,31.73C105.51,32.1 105.2,32.41 104.83,32.41L101.1,32.41C100.73,32.41 100.42,32.1 100.42,31.73L100.42,28C100.42,27.63 100.73,27.32 101.1,27.32Z" style="fill:rgb(55,52,53);"/>
            </g>
        </g>
    </g>
</svg>
