<svg width="100%" height="100%" viewBox="0 0 200 35" version="1.1" xmlns="http://www.w3.org/2000/svg" xmlns:xlink="http://www.w3.org/1999/xlink" xml:space="preserve" xmlns:serif="http://www.serif.com/" style="fill-rule:evenodd;clip-rule:evenodd;stroke-linejoin:round;stroke-miterlimit:2;">
    <g id="Logo-Klavogonki">
        <g id="logo-wrapper">
            <path d="M200,0.5L0,0.5L0,35.5L200,35.5L200,0.5Z" style="fill:none;"/>
        </g>
        <g id="_1_K" serif:id="1_K">
            <g id="_10" serif:id="10">
                <path d="M15.51,27.32L19.24,27.32C19.61,27.32 19.91,27.63 19.91,28L19.91,31.73C19.91,32.1 19.61,32.41 19.24,32.41L15.51,32.41C15.13,32.41 14.83,32.1 14.83,31.73L14.83,28C14.83,27.63 15.13,27.32 15.51,27.32Z" style="fill:rgb(55,52,53);"/>
            </g>
            <g id="_9" serif:id="9">
                <path d="M12.54,21.39L16.27,21.39C16.64,21.39 16.95,21.69 16.95,22.07L16.95,25.8C16.95,26.17 16.64,26.47 16.27,26.47L12.54,26.47C12.17,26.47 11.86,26.17 11.86,25.8L11.86,22.07C11.86,21.69 12.17,21.39 12.54,21.39Z" style="fill:rgb(55,52,53);"/>
            </g>
            <g id="_8" serif:id="8">
                <path d="M15.51,3.59L19.24,3.59C19.61,3.59 19.91,3.9 19.91,4.27L19.91,8C19.91,8.37 19.61,8.68 19.24,8.68L15.51,8.68C15.13,8.68 14.83,8.37 14.83,8L14.83,4.27C14.83,3.9 15.13,3.59 15.51,3.59Z" style="fill:rgb(55,52,53);"/>
            </g>
            <g id="_7" serif:id="7">
                <path d="M12.54,9.53L16.27,9.53C16.64,9.53 16.95,9.83 16.95,10.2L16.95,13.93C16.95,14.31 16.64,14.61 16.27,14.61L12.54,14.61C12.17,14.61 11.86,14.31 11.86,13.93L11.86,10.2C11.86,9.83 12.17,9.53 12.54,9.53Z" style="fill:rgb(55,52,53);"/>
            </g>
            <g id="_6" serif:id="6">
                <path d="M9.58,15.46L13.31,15.46C13.68,15.46 13.98,15.76 13.98,16.14L13.98,19.87C13.98,20.24 13.68,20.54 13.31,20.54L9.58,20.54C9.2,20.54 8.9,20.24 8.9,19.87L8.9,16.14C8.9,15.76 9.2,15.46 9.58,15.46Z" style="fill:rgb(55,52,53);"/>
            </g>
            <g id="_5" serif:id="5">
                <path d="M3.64,27.32L7.37,27.32C7.75,27.32 8.05,27.63 8.05,28L8.05,31.73C8.05,32.1 7.75,32.41 7.37,32.41L3.64,32.41C3.27,32.41 2.97,32.1 2.97,31.73L2.97,28C2.97,27.63 3.27,27.32 3.64,27.32Z" style="fill:rgb(55,52,53);"/>
            </g>
            <g id="_4" serif:id="4">
                <path d="M3.64,21.39L7.37,21.39C7.75,21.39 8.05,21.69 8.05,22.07L8.05,25.8C8.05,26.17 7.75,26.47 7.37,26.47L3.64,26.47C3.27,26.47 2.97,26.17 2.97,25.8L2.97,22.07C2.97,21.69 3.27,21.39 3.64,21.39Z" style="fill:rgb(55,52,53);"/>
            </g>
            <g id="_3" serif:id="3">
                <path d="M3.64,15.46L7.37,15.46C7.75,15.46 8.05,15.76 8.05,16.14L8.05,19.87C8.05,20.24 7.75,20.54 7.37,20.54L3.64,20.54C3.27,20.54 2.97,20.24 2.97,19.87L2.97,16.14C2.97,15.76 3.27,15.46 3.64,15.46Z" style="fill:rgb(55,52,53);"/>
            </g>
            <g id="_2" serif:id="2">
                <path d="M3.64,9.53L7.37,9.53C7.75,9.53 8.05,9.83 8.05,10.2L8.05,13.93C8.05,14.31 7.75,14.61 7.37,14.61L3.64,14.61C3.27,14.61 2.97,14.31 2.97,13.93L2.97,10.2C2.97,9.83 3.27,9.53 3.64,9.53Z" style="fill:rgb(55,52,53);"/>
            </g>
            <g id="_1" serif:id="1">
                <path d="M3.64,3.59L7.37,3.59C7.75,3.59 8.05,3.9 8.05,4.27L8.05,8C8.05,8.37 7.75,8.68 7.37,8.68L3.64,8.68C3.27,8.68 2.97,8.37 2.97,8L2.97,4.27C2.97,3.9 3.27,3.59 3.64,3.59Z" style="fill:rgb(55,52,53);"/>
            </g>
        </g>
        <g id="_2_L" serif:id="2_L">
            <g id="_91" serif:id="9">
                <path d="M35,27.32L38.73,27.32C39.1,27.32 39.41,27.63 39.41,28L39.41,31.73C39.41,32.1 39.1,32.41 38.73,32.41L35,32.41C34.63,32.41 34.32,32.1 34.32,31.73L34.32,28C34.32,27.63 34.63,27.32 35,27.32Z" style="fill:rgb(55,52,53);"/>
            </g>
            <g id="_81" serif:id="8">
                <path d="M35,21.39L38.73,21.39C39.1,21.39 39.41,21.69 39.41,22.07L39.41,25.8C39.41,26.17 39.1,26.47 38.73,26.47L35,26.47C34.63,26.47 34.32,26.17 34.32,25.8L34.32,22.07C34.32,21.69 34.63,21.39 35,21.39Z" style="fill:rgb(55,52,53);"/>
            </g>
            <g id="_71" serif:id="7">
                <path d="M35,15.46L38.73,15.46C39.1,15.46 39.41,15.76 39.41,16.14L39.41,19.87C39.41,20.24 39.1,20.54 38.73,20.54L35,20.54C34.63,20.54 34.32,20.24 34.32,19.87L34.32,16.14C34.32,15.76 34.63,15.46 35,15.46Z" style="fill:rgb(55,52,53);"/>
            </g>
            <g id="_61" serif:id="6">
                <path d="M35,9.53L38.73,9.53C39.1,9.53 39.41,9.83 39.41,10.2L39.41,13.93C39.41,14.31 39.1,14.61 38.73,14.61L35,14.61C34.63,14.61 34.32,14.31 34.32,13.93L34.32,10.2C34.32,9.83 34.63,9.53 35,9.53Z" style="fill:rgb(55,52,53);"/>
            </g>
            <g id="_51" serif:id="5">
                <path d="M29.07,3.59L32.8,3.59C33.17,3.59 33.47,3.9 33.47,4.27L33.47,8C33.47,8.37 33.17,8.68 32.8,8.68L29.07,8.68C28.69,8.68 28.39,8.37 28.39,8L28.39,4.27C28.39,3.9 28.69,3.59 29.07,3.59Z" style="fill:rgb(55,52,53);"/>
            </g>
            <g id="_41" serif:id="4">
                <path d="M23.13,9.53L26.86,9.53C27.24,9.53 27.54,9.83 27.54,10.2L27.54,13.93C27.54,14.31 27.24,14.61 26.86,14.61L23.13,14.61C22.76,14.61 22.46,14.31 22.46,13.93L22.46,10.2C22.46,9.83 22.76,9.53 23.13,9.53Z" style="fill:rgb(55,52,53);"/>
            </g>
            <g id="_31" serif:id="3">
                <path d="M23.13,15.46L26.86,15.46C27.24,15.46 27.54,15.76 27.54,16.14L27.54,19.87C27.54,20.24 27.24,20.54 26.86,20.54L23.13,20.54C22.76,20.54 22.46,20.24 22.46,19.87L22.46,16.14C22.46,15.76 22.76,15.46 23.13,15.46Z" style="fill:rgb(55,52,53);"/>
            </g>
            <g id="_21" serif:id="2">
                <path d="M23.13,21.39L26.86,21.39C27.24,21.39 27.54,21.69 27.54,22.07L27.54,25.8C27.54,26.17 27.24,26.47 26.86,26.47L23.13,26.47C22.76,26.47 22.46,26.17 22.46,25.8L22.46,22.07C22.46,21.69 22.76,21.39 23.13,21.39Z" style="fill:rgb(55,52,53);"/>
            </g>
            <g id="_11" serif:id="1">
                <path d="M23.13,27.32L26.86,27.32C27.24,27.32 27.54,27.63 27.54,28L27.54,31.73C27.54,32.1 27.24,32.41 26.86,32.41L23.13,32.41C22.76,32.41 22.46,32.1 22.46,31.73L22.46,28C22.46,27.63 22.76,27.32 23.13,27.32Z" style="fill:rgb(55,52,53);"/>
            </g>
        </g>
        <g id="_3_A" serif:id="3_A">
            <g id="_101" serif:id="10">
                <path d="M48.56,15.46L52.29,15.46C52.66,15.46 52.97,15.76 52.97,16.14L52.97,19.87C52.97,20.24 52.66,20.54 52.29,20.54L48.56,20.54C48.19,20.54 47.88,20.24 47.88,19.87L47.88,16.14C47.88,15.76 48.19,15.46 48.56,15.46Z" style="fill:rgb(55,52,53);"/>
            </g>
            <g id="_92" serif:id="9">
                <path d="M54.49,27.32L58.22,27.32C58.59,27.32 58.9,27.63 58.9,28L58.9,31.73C58.9,32.1 58.59,32.41 58.22,32.41L54.49,32.41C54.12,32.41 53.81,32.1 53.81,31.73L53.81,28C53.81,27.63 54.12,27.32 54.49,27.32Z" style="fill:rgb(55,52,53);"/>
            </g>
            <g id="_82" serif:id="8">
                <path d="M54.49,21.39L58.22,21.39C58.59,21.39 58.9,21.69 58.9,22.07L58.9,25.8C58.9,26.17 58.59,26.47 58.22,26.47L54.49,26.47C54.12,26.47 53.81,26.17 53.81,25.8L53.81,22.07C53.81,21.69 54.12,21.39 54.49,21.39Z" style="fill:rgb(55,52,53);"/>
            </g>
            <g id="_72" serif:id="7">
                <path d="M54.49,15.46L58.22,15.46C58.59,15.46 58.9,15.76 58.9,16.14L58.9,19.87C58.9,20.24 58.59,20.54 58.22,20.54L54.49,20.54C54.12,20.54 53.81,20.24 53.81,19.87L53.81,16.14C53.81,15.76 54.12,15.46 54.49,15.46Z" style="fill:rgb(55,52,53);"/>
            </g>
            <g id="_62" serif:id="6">
                <path d="M54.49,9.53L58.22,9.53C58.59,9.53 58.9,9.83 58.9,10.2L58.9,13.93C58.9,14.31 58.59,14.61 58.22,14.61L54.49,14.61C54.12,14.61 53.81,14.31 53.81,13.93L53.81,10.2C53.81,9.83 54.12,9.53 54.49,9.53Z" style="fill:rgb(55,52,53);"/>
            </g>
            <g id="_52" serif:id="5">
                <path d="M48.56,3.59L52.29,3.59C52.66,3.59 52.97,3.9 52.97,4.27L52.97,8C52.97,8.37 52.66,8.68 52.29,8.68L48.56,8.68C48.19,8.68 47.88,8.37 47.88,8L47.88,4.27C47.88,3.9 48.19,3.59 48.56,3.59Z" style="fill:rgb(55,52,53);"/>
            </g>
            <g id="_42" serif:id="4">
                <path d="M42.63,9.53L46.36,9.53C46.73,9.53 47.03,9.83 47.03,10.2L47.03,13.93C47.03,14.31 46.73,14.61 46.36,14.61L42.63,14.61C42.25,14.61 41.95,14.31 41.95,13.93L41.95,10.2C41.95,9.83 42.25,9.53 42.63,9.53Z" style="fill:rgb(55,52,53);"/>
            </g>
            <g id="_32" serif:id="3">
                <path d="M42.63,15.46L46.36,15.46C46.73,15.46 47.03,15.76 47.03,16.14L47.03,19.87C47.03,20.24 46.73,20.54 46.36,20.54L42.63,20.54C42.25,20.54 41.95,20.24 41.95,19.87L41.95,16.14C41.95,15.76 42.25,15.46 42.63,15.46Z" style="fill:rgb(55,52,53);"/>
            </g>
            <g id="_22" serif:id="2">
                <path d="M42.63,21.39L46.36,21.39C46.73,21.39 47.03,21.69 47.03,22.07L47.03,25.8C47.03,26.17 46.73,26.47 46.36,26.47L42.63,26.47C42.25,26.47 41.95,26.17 41.95,25.8L41.95,22.07C41.95,21.69 42.25,21.39 42.63,21.39Z" style="fill:rgb(55,52,53);"/>
            </g>
            <g id="_12" serif:id="1">
                <path d="M42.63,27.32L46.36,27.32C46.73,27.32 47.03,27.63 47.03,28L47.03,31.73C47.03,32.1 46.73,32.41 46.36,32.41L42.63,32.41C42.25,32.41 41.95,32.1 41.95,31.73L41.95,28C41.95,27.63 42.25,27.32 42.63,27.32Z" style="fill:rgb(55,52,53);"/>
            </g>
        </g>
        <g id="_4_B" serif:id="4_B">
            <g id="_111" serif:id="11">
                <path d="M73.98,21.39L77.71,21.39C78.08,21.39 78.39,21.69 78.39,22.07L78.39,25.8C78.39,26.17 78.08,26.47 77.71,26.47L73.98,26.47C73.61,26.47 73.3,26.17 73.3,25.8L73.3,22.07C73.3,21.69 73.61,21.39 73.98,21.39Z" style="fill:rgb(55,52,53);"/>
            </g>
            <g id="_102" serif:id="10">
                <path d="M73.98,15.46L77.71,15.46C78.08,15.46 78.39,15.76 78.39,16.14L78.39,19.87C78.39,20.24 78.08,20.54 77.71,20.54L73.98,20.54C73.61,20.54 73.3,20.24 73.3,19.87L73.3,16.14C73.3,15.76 73.61,15.46 73.98,15.46Z" style="fill:rgb(55,52,53);"/>
            </g>
            <g id="_93" serif:id="9">
                <path d="M73.98,9.53L77.71,9.53C78.08,9.53 78.39,9.83 78.39,10.2L78.39,13.93C78.39,14.31 78.08,14.61 77.71,14.61L73.98,14.61C73.61,14.61 73.3,14.31 73.3,13.93L73.3,10.2C73.3,9.83 73.61,9.53 73.98,9.53Z" style="fill:rgb(55,52,53);"/>
            </g>
            <g id="_83" serif:id="8">
                <path d="M68.05,27.32L71.78,27.32C72.15,27.32 72.46,27.63 72.46,28L72.46,31.73C72.46,32.1 72.15,32.41 71.78,32.41L68.05,32.41C67.68,32.41 67.37,32.1 67.37,31.73L67.37,28C67.37,27.63 67.68,27.32 68.05,27.32Z" style="fill:rgb(55,52,53);"/>
            </g>
            <g id="_73" serif:id="7">
                <path d="M68.05,15.46L71.78,15.46C72.15,15.46 72.46,15.76 72.46,16.14L72.46,19.87C72.46,20.24 72.15,20.54 71.78,20.54L68.05,20.54C67.68,20.54 67.37,20.24 67.37,19.87L67.37,16.14C67.37,15.76 67.68,15.46 68.05,15.46Z" style="fill:rgb(55,52,53);"/>
            </g>
            <g id="_63" serif:id="6">
                <path d="M68.05,3.59L71.78,3.59C72.15,3.59 72.46,3.9 72.46,4.27L72.46,8C72.46,8.37 72.15,8.68 71.78,8.68L68.05,8.68C67.68,8.68 67.37,8.37 67.37,8L67.37,4.27C67.37,3.9 67.68,3.59 68.05,3.59Z" style="fill:rgb(55,52,53);"/>
            </g>
            <g id="_53" serif:id="5">
                <path d="M62.12,3.59L65.85,3.59C66.22,3.59 66.52,3.9 66.52,4.27L66.52,8C66.52,8.37 66.22,8.68 65.85,8.68L62.12,8.68C61.74,8.68 61.44,8.37 61.44,8L61.44,4.27C61.44,3.9 61.74,3.59 62.12,3.59Z" style="fill:rgb(55,52,53);"/>
            </g>
            <g id="_43" serif:id="4">
                <path d="M62.12,9.53L65.85,9.53C66.22,9.53 66.52,9.83 66.52,10.2L66.52,13.93C66.52,14.31 66.22,14.61 65.85,14.61L62.12,14.61C61.74,14.61 61.44,14.31 61.44,13.93L61.44,10.2C61.44,9.83 61.74,9.53 62.12,9.53Z" style="fill:rgb(55,52,53);"/>
            </g>
            <g id="_33" serif:id="3">
                <path d="M62.12,15.46L65.85,15.46C66.22,15.46 66.52,15.76 66.52,16.14L66.52,19.87C66.52,20.24 66.22,20.54 65.85,20.54L62.12,20.54C61.74,20.54 61.44,20.24 61.44,19.87L61.44,16.14C61.44,15.76 61.74,15.46 62.12,15.46Z" style="fill:rgb(55,52,53);"/>
            </g>
            <g id="_23" serif:id="2">
                <path d="M62.12,21.39L65.85,21.39C66.22,21.39 66.52,21.69 66.52,22.07L66.52,25.8C66.52,26.17 66.22,26.47 65.85,26.47L62.12,26.47C61.74,26.47 61.44,26.17 61.44,25.8L61.44,22.07C61.44,21.69 61.74,21.39 62.12,21.39Z" style="fill:rgb(55,52,53);"/>
            </g>
            <g id="_13" serif:id="1">
                <path d="M62.12,27.32L65.85,27.32C66.22,27.32 66.52,27.63 66.52,28L66.52,31.73C66.52,32.1 66.22,32.41 65.85,32.41L62.12,32.41C61.74,32.41 61.44,32.1 61.44,31.73L61.44,28C61.44,27.63 61.74,27.32 62.12,27.32Z" style="fill:rgb(55,52,53);"/>
            </g>
        </g>
        <g id="_5_O" serif:id="5_O">
            <g id="_84" serif:id="8">
                <path d="M93.47,21.39L97.2,21.39C97.58,21.39 97.88,21.69 97.88,22.07L97.88,25.8C97.88,26.17 97.58,26.47 97.2,26.47L93.47,26.47C93.1,26.47 92.8,26.17 92.8,25.8L92.8,22.07C92.8,21.69 93.1,21.39 93.47,21.39Z" style="fill:rgb(55,52,53);"/>
            </g>
            <g id="_74" serif:id="7">
                <path d="M93.47,15.46L97.2,15.46C97.58,15.46 97.88,15.76 97.88,16.14L97.88,19.87C97.88,20.24 97.58,20.54 97.2,20.54L93.47,20.54C93.1,20.54 92.8,20.24 92.8,19.87L92.8,16.14C92.8,15.76 93.1,15.46 93.47,15.46Z" style="fill:rgb(55,52,53);"/>
            </g>
            <g id="_64" serif:id="6">
                <path d="M93.47,9.53L97.2,9.53C97.58,9.53 97.88,9.83 97.88,10.2L97.88,13.93C97.88,14.31 97.58,14.61 97.2,14.61L93.47,14.61C93.1,14.61 92.8,14.31 92.8,13.93L92.8,10.2C92.8,9.83 93.1,9.53 93.47,9.53Z" style="fill:rgb(55,52,53);"/>
            </g>
            <g id="_54" serif:id="5">
                <path d="M87.54,3.59L91.27,3.59C91.64,3.59 91.95,3.9 91.95,4.27L91.95,8C91.95,8.37 91.64,8.68 91.27,8.68L87.54,8.68C87.17,8.68 86.86,8.37 86.86,8L86.86,4.27C86.86,3.9 87.17,3.59 87.54,3.59Z" style="fill:rgb(55,52,53);"/>
            </g>
            <g id="_44" serif:id="4">
                <path d="M81.61,9.53L85.34,9.53C85.71,9.53 86.02,9.83 86.02,10.2L86.02,13.93C86.02,14.31 85.71,14.61 85.34,14.61L81.61,14.61C81.24,14.61 80.93,14.31 80.93,13.93L80.93,10.2C80.93,9.83 81.24,9.53 81.61,9.53Z" style="fill:rgb(55,52,53);"/>
            </g>
            <g id="_34" serif:id="3">
                <path d="M81.61,15.46L85.34,15.46C85.71,15.46 86.02,15.76 86.02,16.14L86.02,19.87C86.02,20.24 85.71,20.54 85.34,20.54L81.61,20.54C81.24,20.54 80.93,20.24 80.93,19.87L80.93,16.14C80.93,15.76 81.24,15.46 81.61,15.46Z" style="fill:rgb(55,52,53);"/>
            </g>
            <g id="_24" serif:id="2">
                <path d="M81.61,21.39L85.34,21.39C85.71,21.39 86.02,21.69 86.02,22.07L86.02,25.8C86.02,26.17 85.71,26.47 85.34,26.47L81.61,26.47C81.24,26.47 80.93,26.17 80.93,25.8L80.93,22.07C80.93,21.69 81.24,21.39 81.61,21.39Z" style="fill:rgb(55,52,53);"/>
            </g>
            <g id="_14" serif:id="1">
                <path d="M87.54,27.32L91.27,27.32C91.64,27.32 91.95,27.63 91.95,28L91.95,31.73C91.95,32.1 91.64,32.41 91.27,32.41L87.54,32.41C87.17,32.41 86.86,32.1 86.86,31.73L86.86,28C86.86,27.63 87.17,27.32 87.54,27.32Z" style="fill:rgb(55,52,53);"/>
            </g>
        </g>
        <g id="_6_G" serif:id="6_G">
            <g id="_75" serif:id="7">
                <path d="M112.97,3.59L116.7,3.59C117.07,3.59 117.37,3.9 117.37,4.27L117.37,8C117.37,8.37 117.07,8.68 116.7,8.68L112.97,8.68C112.59,8.68 112.29,8.37 112.29,8L112.29,4.27C112.29,3.9 112.59,3.59 112.97,3.59Z" style="fill:rgb(55,52,53);"/>
            </g>
            <g id="_65" serif:id="6">
                <path d="M107.03,3.59L110.76,3.59C111.14,3.59 111.44,3.9 111.44,4.27L111.44,8C111.44,8.37 111.14,8.68 110.76,8.68L107.03,8.68C106.66,8.68 106.36,8.37 106.36,8L106.36,4.27C106.36,3.9 106.66,3.59 107.03,3.59Z" style="fill:rgb(55,52,53);"/>
            </g>
            <g id="_55" serif:id="5">
                <path d="M101.1,3.59L104.83,3.59C105.2,3.59 105.51,3.9 105.51,4.27L105.51,8C105.51,8.37 105.2,8.68 104.83,8.68L101.1,8.68C100.73,8.68 100.42,8.37 100.42,8L100.42,4.27C100.42,3.9 100.73,3.59 101.1,3.59Z" style="fill:rgb(55,52,53);"/>
            </g>
            <g id="_45" serif:id="4">
                <path d="M101.1,9.53L104.83,9.53C105.2,9.53 105.51,9.83 105.51,10.2L105.51,13.93C105.51,14.31 105.2,14.61 104.83,14.61L101.1,14.61C100.73,14.61 100.42,14.31 100.42,13.93L100.42,10.2C100.42,9.83 100.73,9.53 101.1,9.53Z" style="fill:rgb(55,52,53);"/>
            </g>
            <g id="_35" serif:id="3">
                <path d="M101.1,15.46L104.83,15.46C105.2,15.46 105.51,15.76 105.51,16.14L105.51,19.87C105.51,20.24 105.2,20.54 104.83,20.54L101.1,20.54C100.73,20.54 100.42,20.24 100.42,19.87L100.42,16.14C100.42,15.76 100.73,15.46 101.1,15.46Z" style="fill:rgb(55,52,53);"/>
            </g>
            <g id="_25" serif:id="2">
                <path d="M101.1,21.39L104.83,21.39C105.2,21.39 105.51,21.69 105.51,22.07L105.51,25.8C105.51,26.17 105.2,26.47 104.83,26.47L101.1,26.47C100.73,26.47 100.42,26.17 100.42,25.8L100.42,22.07C100.42,21.69 100.73,21.39 101.1,21.39Z" style="fill:rgb(55,52,53);"/>
            </g>
            <g id="_15" serif:id="1">
                <path d="M101.1,27.32L104.83,27.32C105.2,27.32 105.51,27.63 105.51,28L105.51,31.73C105.51,32.1 105.2,32.41 104.83,32.41L101.1,32.41C100.73,32.41 100.42,32.1 100.42,31.73L100.42,28C100.42,27.63 100.73,27.32 101.1,27.32Z" style="fill:rgb(55,52,53);"/>
            </g>
        </g>
        <g id="_7_O" serif:id="7_O">
            <g id="_85" serif:id="8">
                <path d="M130.76,21.39L134.49,21.39C134.87,21.39 135.17,21.69 135.17,22.07L135.17,25.8C135.17,26.17 134.87,26.47 134.49,26.47L130.76,26.47C130.39,26.47 130.08,26.17 130.08,25.8L130.08,22.07C130.08,21.69 130.39,21.39 130.76,21.39Z" style="fill:rgb(55,52,53);"/>
            </g>
            <g id="_76" serif:id="7">
                <path d="M130.76,15.46L134.49,15.46C134.87,15.46 135.17,15.76 135.17,16.14L135.17,19.87C135.17,20.24 134.87,20.54 134.49,20.54L130.76,20.54C130.39,20.54 130.08,20.24 130.08,19.87L130.08,16.14C130.08,15.76 130.39,15.46 130.76,15.46Z" style="fill:rgb(55,52,53);"/>
            </g>
            <g id="_66" serif:id="6">
                <path d="M130.76,9.53L134.49,9.53C134.87,9.53 135.17,9.83 135.17,10.2L135.17,13.93C135.17,14.31 134.87,14.61 134.49,14.61L130.76,14.61C130.39,14.61 130.08,14.31 130.08,13.93L130.08,10.2C130.08,9.83 130.39,9.53 130.76,9.53Z" style="fill:rgb(55,52,53);"/>
            </g>
            <g id="_56" serif:id="5">
                <path d="M124.83,3.59L128.56,3.59C128.93,3.59 129.24,3.9 129.24,4.27L129.24,8C129.24,8.37 128.93,8.68 128.56,8.68L124.83,8.68C124.46,8.68 124.15,8.37 124.15,8L124.15,4.27C124.15,3.9 124.46,3.59 124.83,3.59Z" style="fill:rgb(55,52,53);"/>
            </g>
            <g id="_46" serif:id="4">
                <path d="M118.9,9.53L122.63,9.53C123,9.53 123.3,9.83 123.3,10.2L123.3,13.93C123.3,14.31 123,14.61 122.63,14.61L118.9,14.61C118.52,14.61 118.22,14.31 118.22,13.93L118.22,10.2C118.22,9.83 118.52,9.53 118.9,9.53Z" style="fill:rgb(55,52,53);"/>
            </g>
            <g id="_36" serif:id="3">
                <path d="M118.9,15.46L122.63,15.46C123,15.46 123.3,15.76 123.3,16.14L123.3,19.87C123.3,20.24 123,20.54 122.63,20.54L118.9,20.54C118.52,20.54 118.22,20.24 118.22,19.87L118.22,16.14C118.22,15.76 118.52,15.46 118.9,15.46Z" style="fill:rgb(55,52,53);"/>
            </g>
            <g id="_26" serif:id="2">
                <path d="M118.9,21.39L122.63,21.39C123,21.39 123.3,21.69 123.3,22.07L123.3,25.8C123.3,26.17 123,26.47 122.63,26.47L118.9,26.47C118.52,26.47 118.22,26.17 118.22,25.8L118.22,22.07C118.22,21.69 118.52,21.39 118.9,21.39Z" style="fill:rgb(55,52,53);"/>
            </g>
            <g id="_16" serif:id="1">
                <path d="M124.83,27.32L128.56,27.32C128.93,27.32 129.24,27.63 129.24,28L129.24,31.73C129.24,32.1 128.93,32.41 128.56,32.41L124.83,32.41C124.46,32.41 124.15,32.1 124.15,31.73L124.15,28C124.15,27.63 124.46,27.32 124.83,27.32Z" style="fill:rgb(55,52,53);"/>
            </g>
        </g>
        <g id="_8_N" serif:id="8_N">
            <g id="_112" serif:id="11">
                <path d="M150.25,27.32L153.98,27.32C154.36,27.32 154.66,27.63 154.66,28L154.66,31.73C154.66,32.1 154.36,32.41 153.98,32.41L150.25,32.41C149.88,32.41 149.58,32.1 149.58,31.73L149.58,28C149.58,27.63 149.88,27.32 150.25,27.32Z" style="fill:rgb(55,52,53);"/>
            </g>
            <g id="_103" serif:id="10">
                <path d="M150.25,21.39L153.98,21.39C154.36,21.39 154.66,21.69 154.66,22.07L154.66,25.8C154.66,26.17 154.36,26.47 153.98,26.47L150.25,26.47C149.88,26.47 149.58,26.17 149.58,25.8L149.58,22.07C149.58,21.69 149.88,21.39 150.25,21.39Z" style="fill:rgb(55,52,53);"/>
            </g>
            <g id="_94" serif:id="9">
                <path d="M150.25,15.46L153.98,15.46C154.36,15.46 154.66,15.76 154.66,16.14L154.66,19.87C154.66,20.24 154.36,20.54 153.98,20.54L150.25,20.54C149.88,20.54 149.58,20.24 149.58,19.87L149.58,16.14C149.58,15.76 149.88,15.46 150.25,15.46Z" style="fill:rgb(55,52,53);"/>
            </g>
            <g id="_86" serif:id="8">
                <path d="M150.25,9.53L153.98,9.53C154.36,9.53 154.66,9.83 154.66,10.2L154.66,13.93C154.66,14.31 154.36,14.61 153.98,14.61L150.25,14.61C149.88,14.61 149.58,14.31 149.58,13.93L149.58,10.2C149.58,9.83 149.88,9.53 150.25,9.53Z" style="fill:rgb(55,52,53);"/>
            </g>
            <g id="_77" serif:id="7">
                <path d="M150.25,3.59L153.98,3.59C154.36,3.59 154.66,3.9 154.66,4.27L154.66,8C154.66,8.37 154.36,8.68 153.98,8.68L150.25,8.68C149.88,8.68 149.58,8.37 149.58,8L149.58,4.27C149.58,3.9 149.88,3.59 150.25,3.59Z" style="fill:rgb(55,52,53);"/>
            </g>
            <g id="_67" serif:id="6">
                <path d="M144.32,15.46L148.05,15.46C148.42,15.46 148.73,15.76 148.73,16.14L148.73,19.87C148.73,20.24 148.42,20.54 148.05,20.54L144.32,20.54C143.95,20.54 143.64,20.24 143.64,19.87L143.64,16.14C143.64,15.76 143.95,15.46 144.32,15.46Z" style="fill:rgb(55,52,53);"/>
            </g>
            <g id="_57" serif:id="5">
                <path d="M138.39,27.32L142.12,27.32C142.49,27.32 142.8,27.63 142.8,28L142.8,31.73C142.8,32.1 142.49,32.41 142.12,32.41L138.39,32.41C138.02,32.41 137.71,32.1 137.71,31.73L137.71,28C137.71,27.63 138.02,27.32 138.39,27.32Z" style="fill:rgb(55,52,53);"/>
            </g>
            <g id="_47" serif:id="4">
                <path d="M138.39,21.39L142.12,21.39C142.49,21.39 142.8,21.69 142.8,22.07L142.8,25.8C142.8,26.17 142.49,26.47 142.12,26.47L138.39,26.47C138.02,26.47 137.71,26.17 137.71,25.8L137.71,22.07C137.71,21.69 138.02,21.39 138.39,21.39Z" style="fill:rgb(55,52,53);"/>
            </g>
            <g id="_37" serif:id="3">
                <path d="M138.39,15.46L142.12,15.46C142.49,15.46 142.8,15.76 142.8,16.14L142.8,19.87C142.8,20.24 142.49,20.54 142.12,20.54L138.39,20.54C138.02,20.54 137.71,20.24 137.71,19.87L137.71,16.14C137.71,15.76 138.02,15.46 138.39,15.46Z" style="fill:rgb(55,52,53);"/>
            </g>
            <g id="_27" serif:id="2">
                <path d="M138.39,9.53L142.12,9.53C142.49,9.53 142.8,9.83 142.8,10.2L142.8,13.93C142.8,14.31 142.49,14.61 142.12,14.61L138.39,14.61C138.02,14.61 137.71,14.31 137.71,13.93L137.71,10.2C137.71,9.83 138.02,9.53 138.39,9.53Z" style="fill:rgb(55,52,53);"/>
            </g>
            <g id="_17" serif:id="1">
                <path d="M138.39,3.59L142.12,3.59C142.49,3.59 142.8,3.9 142.8,4.27L142.8,8C142.8,8.37 142.49,8.68 142.12,8.68L138.39,8.68C138.02,8.68 137.71,8.37 137.71,8L137.71,4.27C137.71,3.9 138.02,3.59 138.39,3.59Z" style="fill:rgb(55,52,53);"/>
            </g>
        </g>
        <g id="_9_K" serif:id="9_K">
            <g id="_104" serif:id="10">
                <path d="M169.74,27.32L173.47,27.32C173.85,27.32 174.15,27.63 174.15,28L174.15,31.73C174.15,32.1 173.85,32.41 173.47,32.41L169.74,32.41C169.37,32.41 169.07,32.1 169.07,31.73L169.07,28C169.07,27.63 169.37,27.32 169.74,27.32Z" style="fill:rgb(55,52,53);"/>
            </g>
            <g id="_95" serif:id="9">
                <path d="M166.78,21.39L170.51,21.39C170.88,21.39 171.19,21.69 171.19,22.07L171.19,25.8C171.19,26.17 170.88,26.47 170.51,26.47L166.78,26.47C166.41,26.47 166.1,26.17 166.1,25.8L166.1,22.07C166.1,21.69 166.41,21.39 166.78,21.39Z" style="fill:rgb(55,52,53);"/>
            </g>
            <g id="_87" serif:id="8">
                <path d="M169.74,3.59L173.47,3.59C173.85,3.59 174.15,3.9 174.15,4.27L174.15,8C174.15,8.37 173.85,8.68 173.47,8.68L169.74,8.68C169.37,8.68 169.07,8.37 169.07,8L169.07,4.27C169.07,3.9 169.37,3.59 169.74,3.59Z" style="fill:rgb(55,52,53);"/>
            </g>
            <g id="_78" serif:id="7">
                <path d="M166.78,9.53L170.51,9.53C170.88,9.53 171.19,9.83 171.19,10.2L171.19,13.93C171.19,14.31 170.88,14.61 170.51,14.61L166.78,14.61C166.41,14.61 166.1,14.31 166.1,13.93L166.1,10.2C166.1,9.83 166.41,9.53 166.78,9.53Z" style="fill:rgb(55,52,53);"/>
            </g>
            <g id="_68" serif:id="6">
                <path d="M163.81,15.46L167.54,15.46C167.92,15.46 168.22,15.76 168.22,16.14L168.22,19.87C168.22,20.24 167.92,20.54 167.54,20.54L163.81,20.54C163.44,20.54 163.14,20.24 163.14,19.87L163.14,16.14C163.14,15.76 163.44,15.46 163.81,15.46Z" style="fill:rgb(55,52,53);"/>
            </g>
            <g id="_58" serif:id="5">
                <path d="M157.88,27.32L161.61,27.32C161.98,27.32 162.29,27.63 162.29,28L162.29,31.73C162.29,32.1 161.98,32.41 161.61,32.41L157.88,32.41C157.51,32.41 157.2,32.1 157.2,31.73L157.2,28C157.2,27.63 157.51,27.32 157.88,27.32Z" style="fill:rgb(55,52,53);"/>
            </g>
            <g id="_48" serif:id="4">
                <path d="M157.88,21.39L161.61,21.39C161.98,21.39 162.29,21.69 162.29,22.07L162.29,25.8C162.29,26.17 161.98,26.47 161.61,26.47L157.88,26.47C157.51,26.47 157.2,26.17 157.2,25.8L157.2,22.07C157.2,21.69 157.51,21.39 157.88,21.39Z" style="fill:rgb(55,52,53);"/>
            </g>
            <g id="_38" serif:id="3">
                <path d="M157.88,15.46L161.61,15.46C161.98,15.46 162.29,15.76 162.29,16.14L162.29,19.87C162.29,20.24 161.98,20.54 161.61,20.54L157.88,20.54C157.51,20.54 157.2,20.24 157.2,19.87L157.2,16.14C157.2,15.76 157.51,15.46 157.88,15.46Z" style="fill:rgb(55,52,53);"/>
            </g>
            <g id="_28" serif:id="2">
                <path d="M157.88,9.53L161.61,9.53C161.98,9.53 162.29,9.83 162.29,10.2L162.29,13.93C162.29,14.31 161.98,14.61 161.61,14.61L157.88,14.61C157.51,14.61 157.2,14.31 157.2,13.93L157.2,10.2C157.2,9.83 157.51,9.53 157.88,9.53Z" style="fill:rgb(55,52,53);"/>
            </g>
            <g id="_18" serif:id="1">
                <path d="M157.88,3.59L161.61,3.59C161.98,3.59 162.29,3.9 162.29,4.27L162.29,8C162.29,8.37 161.98,8.68 161.61,8.68L157.88,8.68C157.51,8.68 157.2,8.37 157.2,8L157.2,4.27C157.2,3.9 157.51,3.59 157.88,3.59Z" style="fill:rgb(55,52,53);"/>
            </g>
        </g>
        <g id="_10_I" serif:id="10_I">
            <g id="_131" serif:id="13">
                <path d="M192.63,27.32L196.36,27.32C196.73,27.32 197.03,27.63 197.03,28L197.03,31.73C197.03,32.1 196.73,32.41 196.36,32.41L192.63,32.41C192.25,32.41 191.95,32.1 191.95,31.73L191.95,28C191.95,27.63 192.25,27.32 192.63,27.32Z" style="fill:rgb(55,52,53);"/>
            </g>
            <g id="_121" serif:id="12">
                <path d="M192.63,21.39L196.36,21.39C196.73,21.39 197.03,21.69 197.03,22.07L197.03,25.8C197.03,26.17 196.73,26.47 196.36,26.47L192.63,26.47C192.25,26.47 191.95,26.17 191.95,25.8L191.95,22.07C191.95,21.69 192.25,21.39 192.63,21.39Z" style="fill:rgb(55,52,53);"/>
            </g>
            <g id="_113" serif:id="11">
                <path d="M192.63,15.46L196.36,15.46C196.73,15.46 197.03,15.76 197.03,16.14L197.03,19.87C197.03,20.24 196.73,20.54 196.36,20.54L192.63,20.54C192.25,20.54 191.95,20.24 191.95,19.87L191.95,16.14C191.95,15.76 192.25,15.46 192.63,15.46Z" style="fill:rgb(55,52,53);"/>
            </g>
            <g id="_105" serif:id="10">
                <path d="M192.63,9.53L196.36,9.53C196.73,9.53 197.03,9.83 197.03,10.2L197.03,13.93C197.03,14.31 196.73,14.61 196.36,14.61L192.63,14.61C192.25,14.61 191.95,14.31 191.95,13.93L191.95,10.2C191.95,9.83 192.25,9.53 192.63,9.53Z" style="fill:rgb(55,52,53);"/>
            </g>
            <g id="_96" serif:id="9">
                <path d="M192.63,3.59L196.36,3.59C196.73,3.59 197.03,3.9 197.03,4.27L197.03,8C197.03,8.37 196.73,8.68 196.36,8.68L192.63,8.68C192.25,8.68 191.95,8.37 191.95,8L191.95,4.27C191.95,3.9 192.25,3.59 192.63,3.59Z" style="fill:rgb(55,52,53);"/>
            </g>
            <g id="_88" serif:id="8">
                <path d="M186.69,9.53L190.42,9.53C190.8,9.53 191.1,9.83 191.1,10.2L191.1,13.93C191.1,14.31 190.8,14.61 190.42,14.61L186.69,14.61C186.32,14.61 186.02,14.31 186.02,13.93L186.02,10.2C186.02,9.83 186.32,9.53 186.69,9.53Z" style="fill:rgb(55,52,53);"/>
            </g>
            <g id="_79" serif:id="7">
                <path d="M185,15.46L188.73,15.46C189.1,15.46 189.41,15.76 189.41,16.14L189.41,19.87C189.41,20.24 189.1,20.54 188.73,20.54L185,20.54C184.63,20.54 184.32,20.24 184.32,19.87L184.32,16.14C184.32,15.76 184.63,15.46 185,15.46Z" style="fill:rgb(55,52,53);"/>
            </g>
            <g id="_69" serif:id="6">
                <path d="M183.3,21.39L187.03,21.39C187.41,21.39 187.71,21.69 187.71,22.07L187.71,25.8C187.71,26.17 187.41,26.47 187.03,26.47L183.3,26.47C182.93,26.47 182.63,26.17 182.63,25.8L182.63,22.07C182.63,21.69 182.93,21.39 183.3,21.39Z" style="fill:rgb(55,52,53);"/>
            </g>
            <g id="_59" serif:id="5">
                <path d="M177.37,27.32L181.1,27.32C181.47,27.32 181.78,27.63 181.78,28L181.78,31.73C181.78,32.1 181.47,32.41 181.1,32.41L177.37,32.41C177,32.41 176.69,32.1 176.69,31.73L176.69,28C176.69,27.63 177,27.32 177.37,27.32Z" style="fill:rgb(55,52,53);"/>
            </g>
            <g id="_49" serif:id="4">
                <path d="M177.37,21.39L181.1,21.39C181.47,21.39 181.78,21.69 181.78,22.07L181.78,25.8C181.78,26.17 181.47,26.47 181.1,26.47L177.37,26.47C177,26.47 176.69,26.17 176.69,25.8L176.69,22.07C176.69,21.69 177,21.39 177.37,21.39Z" style="fill:rgb(55,52,53);"/>
            </g>
            <g id="_39" serif:id="3">
                <path d="M177.37,15.46L181.1,15.46C181.47,15.46 181.78,15.76 181.78,16.14L181.78,19.87C181.78,20.24 181.47,20.54 181.1,20.54L177.37,20.54C177,20.54 176.69,20.24 176.69,19.87L176.69,16.14C176.69,15.76 177,15.46 177.37,15.46Z" style="fill:rgb(55,52,53);"/>
            </g>
            <g id="_29" serif:id="2">
                <path d="M177.37,9.53L181.1,9.53C181.47,9.53 181.78,9.83 181.78,10.2L181.78,13.93C181.78,14.31 181.47,14.61 181.1,14.61L177.37,14.61C177,14.61 176.69,14.31 176.69,13.93L176.69,10.2C176.69,9.83 177,9.53 177.37,9.53Z" style="fill:rgb(55,52,53);"/>
            </g>
            <g id="_19" serif:id="1">
                <path d="M177.37,3.59L181.1,3.59C181.47,3.59 181.78,3.9 181.78,4.27L181.78,8C181.78,8.37 181.47,8.68 181.1,8.68L177.37,8.68C177,8.68 176.69,8.37 176.69,8L176.69,4.27C176.69,3.9 177,3.59 177.37,3.59Z" style="fill:rgb(55,52,53);"/>
            </g>
        </g>
    </g>
</svg>
