<?xml version="1.0" encoding="UTF-8" standalone="no"?>
<!DOCTYPE svg PUBLIC "-//W3C//DTD SVG 1.1//EN" "http://www.w3.org/Graphics/SVG/1.1/DTD/svg11.dtd">
<svg width="100%" height="100%" viewBox="0 0 546 202" version="1.1" xmlns="http://www.w3.org/2000/svg" xmlns:xlink="http://www.w3.org/1999/xlink" xml:space="preserve" xmlns:serif="http://www.serif.com/" style="fill-rule:evenodd;clip-rule:evenodd;stroke-miterlimit:2.61313;">
    <g id="keyboard_en">
        <path id="keyboard-wrapper" d="M0,0L546,0L546,202L0,202L0,0Z" style="fill:none;"/>
        <path id="keyboard-bg" d="M9.5,4L536.5,4C538.7,4 540.5,5.8 540.5,8L540.5,159.29C540.5,161.49 538.7,163.29 536.5,163.29L9.5,163.29C7.3,163.29 5.5,161.49 5.5,159.29L5.5,8C5.5,5.8 7.3,4 9.5,4Z" style="fill:rgb(16,16,16);stroke:rgb(207,238,241);stroke-width:2.08px;"/>
        <g id="fingers">
            <path d="M16,174.02L68,174.02C70.2,174.02 72,175.82 72,178.02L72,188.02C72,190.22 70.2,192.02 68,192.02L16,192.02C13.8,192.02 12,190.22 12,188.02L12,178.02C12,175.82 13.8,174.02 16,174.02Z" style="fill:rgb(241,207,207);"/>
            <path d="M23.72,185.38L23.72,180.71L24.61,180.71L26.6,184L26.12,184L28.08,180.71L28.97,180.71L28.98,185.38L27.96,185.38L27.96,182.26L28.15,182.26L26.58,184.88L26.1,184.88L24.5,182.26L24.73,182.26L24.73,185.38L23.72,185.38ZM30.14,185.38L30.14,180.71L31.21,180.71L31.21,183.75L33.44,180.71L34.45,180.71L34.45,185.38L33.38,185.38L33.38,182.34L31.16,185.38L30.14,185.38ZM35.19,184.96L35.52,184.19C35.72,184.31 35.94,184.4 36.17,184.47C36.4,184.53 36.62,184.57 36.84,184.57C37.06,184.58 37.26,184.56 37.44,184.51C37.62,184.46 37.76,184.39 37.87,184.29C37.98,184.19 38.04,184.07 38.04,183.92C38.04,183.74 37.96,183.61 37.82,183.52C37.67,183.43 37.47,183.39 37.23,183.39L36.09,183.39L36.09,182.58L37.15,182.58C37.37,182.58 37.54,182.53 37.66,182.44C37.78,182.36 37.84,182.23 37.84,182.08C37.84,181.94 37.8,181.84 37.71,181.75C37.62,181.67 37.5,181.61 37.35,181.57C37.19,181.53 37.02,181.51 36.83,181.52C36.64,181.52 36.44,181.55 36.24,181.61C36.03,181.67 35.84,181.75 35.65,181.85L35.32,181.02C35.63,180.86 35.94,180.75 36.28,180.69C36.62,180.63 36.94,180.62 37.25,180.65C37.57,180.68 37.85,180.75 38.1,180.86C38.36,180.97 38.56,181.12 38.71,181.31C38.86,181.49 38.94,181.7 38.94,181.95C38.94,182.17 38.88,182.37 38.76,182.54C38.65,182.72 38.49,182.85 38.28,182.94C38.07,183.04 37.84,183.08 37.57,183.08L37.6,182.84C37.91,182.84 38.18,182.9 38.41,183C38.64,183.11 38.81,183.25 38.94,183.43C39.07,183.62 39.13,183.83 39.13,184.07C39.13,184.29 39.07,184.49 38.95,184.67C38.84,184.84 38.67,184.99 38.47,185.11C38.27,185.23 38.03,185.32 37.77,185.38C37.51,185.44 37.23,185.46 36.93,185.45C36.64,185.44 36.34,185.4 36.04,185.32C35.75,185.24 35.46,185.12 35.19,184.96ZM39.98,185.38L39.98,180.71L41.06,180.71L41.06,183.75L43.28,180.71L44.3,180.71L44.3,185.38L43.23,185.38L43.23,182.34L41,185.38L39.98,185.38ZM48.66,180.71L49.74,180.71L49.74,185.38L48.66,185.38L48.66,180.71ZM46.54,185.38L45.46,185.38L45.46,180.71L46.54,180.71L46.54,185.38ZM48.74,183.46L46.46,183.46L46.46,182.55L48.74,182.55L48.74,183.46ZM51.9,182.59L54.14,182.59L54.14,183.43L51.9,183.43L51.9,182.59ZM51.98,184.51L54.51,184.51L54.51,185.38L50.9,185.38L50.9,180.71L54.43,180.71L54.43,181.58L51.98,181.58L51.98,184.51ZM55.39,185.38L55.39,180.71L56.46,180.71L56.46,184.5L58.54,184.5L58.54,180.71L59.61,180.71L59.61,185.38L55.39,185.38ZM59.29,186.36L59.29,185.12L59.52,185.38L58.54,185.38L58.54,184.5L60.28,184.5L60.28,186.36L59.29,186.36Z" style="fill:rgb(16,16,16);fill-rule:nonzero;"/>
            <path d="M86,174.02L143,174.02C145.2,174.02 147,175.82 147,178.02L147,188.02C147,190.22 145.2,192.02 143,192.02L86,192.02C83.8,192.02 82,190.22 82,188.02L82,178.02C82,175.82 83.8,174.02 86,174.02Z" style="fill:rgb(241,239,207);"/>
            <path d="M87.5,185.38L87.5,180.71L91.27,180.71L91.27,181.57L88.57,181.57L88.57,182.53L89.87,182.53C90.43,182.53 90.86,182.65 91.16,182.88C91.45,183.12 91.6,183.46 91.6,183.91C91.6,184.37 91.44,184.73 91.11,184.99C90.78,185.25 90.31,185.38 89.71,185.38L87.5,185.38ZM88.57,184.58L89.65,184.58C89.93,184.58 90.14,184.52 90.29,184.41C90.43,184.31 90.51,184.15 90.51,183.94C90.51,183.53 90.22,183.32 89.65,183.32L88.57,183.32L88.57,184.58ZM93.41,182.59L95.66,182.59L95.66,183.43L93.41,183.43L93.41,182.59ZM93.49,184.51L96.03,184.51L96.03,185.38L92.42,185.38L92.42,180.71L95.95,180.71L95.95,181.58L93.49,181.58L93.49,184.51ZM96.48,184.96L96.82,184.19C97.02,184.31 97.23,184.4 97.46,184.47C97.69,184.53 97.91,184.57 98.13,184.57C98.36,184.58 98.55,184.56 98.73,184.51C98.91,184.46 99.06,184.39 99.17,184.29C99.28,184.19 99.33,184.07 99.33,183.92C99.33,183.74 99.26,183.61 99.11,183.52C98.96,183.43 98.77,183.39 98.53,183.39L97.38,183.39L97.38,182.58L98.44,182.58C98.66,182.58 98.83,182.53 98.96,182.44C99.08,182.36 99.14,182.23 99.14,182.08C99.14,181.94 99.09,181.84 99,181.75C98.92,181.67 98.79,181.61 98.64,181.57C98.49,181.53 98.32,181.51 98.12,181.52C97.93,181.52 97.74,181.55 97.53,181.61C97.33,181.67 97.13,181.75 96.94,181.85L96.62,181.02C96.92,180.86 97.24,180.75 97.57,180.69C97.91,180.63 98.23,180.62 98.55,180.65C98.86,180.68 99.14,180.75 99.4,180.86C99.65,180.97 99.85,181.12 100,181.31C100.16,181.49 100.23,181.7 100.23,181.95C100.23,182.17 100.17,182.37 100.06,182.54C99.94,182.72 99.78,182.85 99.57,182.94C99.37,183.04 99.13,183.08 98.86,183.08L98.89,182.84C99.2,182.84 99.47,182.9 99.7,183C99.93,183.11 100.11,183.25 100.23,183.43C100.36,183.62 100.42,183.83 100.42,184.07C100.42,184.29 100.37,184.49 100.25,184.67C100.13,184.84 99.97,184.99 99.76,185.11C99.56,185.23 99.33,185.32 99.06,185.38C98.8,185.44 98.52,185.46 98.23,185.45C97.93,185.44 97.64,185.4 97.34,185.32C97.04,185.24 96.76,185.12 96.48,184.96ZM103.54,182.24C104.1,182.24 104.54,182.37 104.84,182.62C105.15,182.87 105.3,183.25 105.3,183.75C105.3,184.28 105.13,184.69 104.79,184.96C104.45,185.24 103.98,185.38 103.38,185.38L101.28,185.38L101.28,180.71L102.35,180.71L102.35,182.24L103.54,182.24ZM103.32,184.58C103.6,184.58 103.82,184.51 103.98,184.37C104.14,184.23 104.22,184.03 104.22,183.77C104.22,183.51 104.14,183.33 103.98,183.21C103.82,183.1 103.6,183.04 103.32,183.04L102.35,183.04L102.35,184.58L103.32,184.58ZM105.9,185.38L105.9,180.71L106.97,180.71L106.97,185.38L105.9,185.38ZM108.13,185.38L108.13,180.71L109.02,180.71L111.01,184L110.54,184L112.49,180.71L113.38,180.71L113.39,185.38L112.38,185.38L112.37,182.26L112.56,182.26L111,184.88L110.52,184.88L108.92,182.26L109.14,182.26L109.14,185.38L108.13,185.38ZM117.21,185.38L117.21,183.9L117.48,184.14L116.2,184.14C115.79,184.14 115.44,184.07 115.15,183.94C114.86,183.8 114.63,183.61 114.48,183.36C114.32,183.1 114.24,182.8 114.24,182.45C114.24,182.09 114.33,181.77 114.49,181.51C114.66,181.25 114.89,181.06 115.2,180.92C115.5,180.78 115.85,180.71 116.26,180.71L118.28,180.71L118.28,185.38L117.21,185.38ZM114.26,185.38L115.42,183.7L116.51,183.7L115.4,185.38L114.26,185.38ZM117.21,183.56L117.21,181.31L117.48,181.59L116.29,181.59C115.98,181.59 115.75,181.66 115.59,181.8C115.42,181.95 115.34,182.16 115.34,182.44C115.34,182.71 115.42,182.92 115.58,183.06C115.73,183.21 115.96,183.28 116.26,183.28L117.48,183.28L117.21,183.56ZM122.64,180.71L123.72,180.71L123.72,185.38L122.64,185.38L122.64,180.71ZM120.52,185.38L119.44,185.38L119.44,180.71L120.52,180.71L120.52,185.38ZM122.72,183.46L120.44,183.46L120.44,182.55L122.72,182.55L122.72,183.46ZM128.09,180.71L129.17,180.71L129.17,185.38L128.09,185.38L128.09,180.71ZM125.97,185.38L124.89,185.38L124.89,180.71L125.97,180.71L125.97,185.38ZM128.17,183.46L125.89,183.46L125.89,182.55L128.17,182.55L128.17,183.46ZM132.59,182.24C133.16,182.24 133.59,182.37 133.9,182.62C134.21,182.87 134.36,183.25 134.36,183.75C134.36,184.28 134.19,184.69 133.85,184.96C133.51,185.24 133.04,185.38 132.44,185.38L130.33,185.38L130.33,180.71L131.41,180.71L131.41,182.24L132.59,182.24ZM132.38,184.58C132.66,184.58 132.87,184.51 133.03,184.37C133.19,184.23 133.27,184.03 133.27,183.77C133.27,183.51 133.2,183.33 133.04,183.21C132.88,183.1 132.66,183.04 132.38,183.04L131.41,183.04L131.41,184.58L132.38,184.58ZM134.95,185.38L134.95,180.71L136.03,180.71L136.03,185.38L134.95,185.38ZM137.19,185.38L137.19,180.71L138.26,180.71L138.26,183.75L140.49,180.71L141.5,180.71L141.5,185.38L140.43,185.38L140.43,182.34L138.21,185.38L137.19,185.38ZM139.34,180.41C138.9,180.41 138.57,180.32 138.36,180.14C138.16,179.97 138.05,179.72 138.05,179.39L138.79,179.39C138.79,179.55 138.84,179.67 138.93,179.75C139.02,179.84 139.16,179.88 139.34,179.88C139.52,179.88 139.65,179.84 139.75,179.75C139.84,179.67 139.89,179.55 139.89,179.39L140.63,179.39C140.63,179.72 140.52,179.97 140.31,180.14C140.1,180.32 139.78,180.41 139.34,180.41Z" style="fill:rgb(16,16,16);fill-rule:nonzero;"/>
            <path d="M161,174.02L207,174.02C209.21,174.02 211,175.82 211,178.02L211,188.02C211,190.22 209.21,192.02 207,192.02L161,192.02C158.8,192.02 157,190.22 157,188.02L157,178.02C157,175.82 158.8,174.02 161,174.02Z" style="fill:rgb(213,241,207);"/>
            <path d="M168.94,185.46C168.58,185.46 168.24,185.4 167.94,185.28C167.63,185.16 167.36,184.99 167.13,184.78C166.91,184.56 166.73,184.3 166.6,184.01C166.48,183.72 166.41,183.4 166.41,183.04C166.41,182.69 166.48,182.37 166.6,182.08C166.73,181.78 166.91,181.53 167.14,181.31C167.36,181.09 167.63,180.93 167.94,180.81C168.25,180.69 168.58,180.63 168.95,180.63C169.35,180.63 169.72,180.7 170.04,180.84C170.37,180.98 170.64,181.19 170.87,181.46L170.17,182.1C170.01,181.92 169.83,181.78 169.64,181.69C169.44,181.6 169.23,181.55 169,181.55C168.78,181.55 168.58,181.59 168.4,181.66C168.22,181.73 168.06,181.83 167.93,181.96C167.79,182.1 167.69,182.26 167.62,182.44C167.54,182.62 167.51,182.82 167.51,183.04C167.51,183.27 167.54,183.47 167.62,183.65C167.69,183.83 167.79,183.99 167.93,184.12C168.06,184.26 168.22,184.36 168.4,184.43C168.58,184.5 168.78,184.54 169,184.54C169.23,184.54 169.44,184.49 169.64,184.4C169.83,184.31 170.01,184.17 170.17,183.98L170.87,184.62C170.64,184.9 170.37,185.1 170.04,185.24C169.72,185.39 169.35,185.46 168.94,185.46ZM171.57,185.38L171.57,180.71L173.59,180.71C174.01,180.71 174.37,180.78 174.67,180.91C174.97,181.05 175.21,181.24 175.37,181.5C175.54,181.75 175.62,182.05 175.62,182.4C175.62,182.75 175.54,183.05 175.37,183.3C175.21,183.56 174.97,183.75 174.67,183.89C174.37,184.02 174.01,184.09 173.59,184.09L172.17,184.09L172.65,183.6L172.65,185.38L171.57,185.38ZM172.65,183.72L172.17,183.21L173.53,183.21C173.87,183.21 174.11,183.14 174.28,183C174.44,182.86 174.53,182.66 174.53,182.4C174.53,182.15 174.44,181.95 174.28,181.8C174.11,181.66 173.87,181.59 173.53,181.59L172.17,181.59L172.65,181.08L172.65,183.72ZM177.33,182.59L179.57,182.59L179.57,183.43L177.33,183.43L177.33,182.59ZM177.41,184.51L179.95,184.51L179.95,185.38L176.33,185.38L176.33,180.71L179.86,180.71L179.86,181.58L177.41,181.58L177.41,184.51ZM183.91,184.9L183.91,181.59L182.31,181.59L182.29,182.27C182.28,182.56 182.26,182.83 182.23,183.09C182.21,183.35 182.17,183.58 182.12,183.79C182.08,184.01 182.01,184.18 181.93,184.33C181.86,184.48 181.76,184.58 181.65,184.64L180.49,184.5C180.65,184.5 180.78,184.45 180.89,184.33C180.99,184.22 181.08,184.05 181.14,183.84C181.2,183.63 181.25,183.38 181.28,183.1C181.3,182.81 181.33,182.5 181.34,182.17L181.39,180.71L184.98,180.71L184.98,184.9L183.91,184.9ZM180.34,186.34L180.34,184.5L185.63,184.5L185.63,186.34L184.63,186.34L184.63,185.38L181.34,185.38L181.34,186.34L180.34,186.34ZM189.56,180.71L190.64,180.71L190.64,185.38L189.56,185.38L189.56,180.71ZM187.44,185.38L186.36,185.38L186.36,180.71L187.44,180.71L187.44,185.38ZM189.64,183.46L187.36,183.46L187.36,182.55L189.64,182.55L189.64,183.46ZM191.8,185.38L191.8,180.71L192.88,180.71L192.88,183.75L195.1,180.71L196.12,180.71L196.12,185.38L195.05,185.38L195.05,182.34L192.82,185.38L191.8,185.38ZM197.28,185.38L197.28,180.71L198.35,180.71L198.35,183.75L200.58,180.71L201.59,180.71L201.59,185.38L200.52,185.38L200.52,182.34L198.3,185.38L197.28,185.38ZM199.43,180.41C198.99,180.41 198.66,180.32 198.45,180.14C198.25,179.97 198.14,179.72 198.14,179.39L198.88,179.39C198.88,179.55 198.93,179.67 199.02,179.75C199.11,179.84 199.25,179.88 199.43,179.88C199.61,179.88 199.74,179.84 199.84,179.75C199.93,179.67 199.98,179.55 199.98,179.39L200.72,179.39C200.72,179.72 200.61,179.97 200.4,180.14C200.19,180.32 199.87,180.41 199.43,180.41Z" style="fill:rgb(16,16,16);fill-rule:nonzero;"/>
            <path d="M478.01,174.02L530.01,174.02C532.21,174.02 534.01,175.82 534.01,178.02L534.01,188.02C534.01,190.22 532.21,192.02 530.01,192.02L478.01,192.02C475.8,192.02 474.01,190.22 474.01,188.02L474.01,178.02C474.01,175.82 475.8,174.02 478.01,174.02Z" style="fill:rgb(241,207,207);"/>
            <path d="M485.72,185.38L485.72,180.71L486.62,180.71L488.6,184L488.13,184L490.08,180.71L490.98,180.71L490.98,185.38L489.97,185.38L489.96,182.26L490.16,182.26L488.59,184.88L488.11,184.88L486.51,182.26L486.74,182.26L486.74,185.38L485.72,185.38ZM492.14,185.38L492.14,180.71L493.22,180.71L493.22,183.75L495.44,180.71L496.46,180.71L496.46,185.38L495.39,185.38L495.39,182.34L493.16,185.38L492.14,185.38ZM497.2,184.96L497.53,184.19C497.73,184.31 497.94,184.4 498.17,184.47C498.4,184.53 498.63,184.57 498.85,184.57C499.07,184.58 499.27,184.56 499.45,184.51C499.63,184.46 499.77,184.39 499.88,184.29C499.99,184.19 500.04,184.07 500.04,183.92C500.04,183.74 499.97,183.61 499.82,183.52C499.68,183.43 499.48,183.39 499.24,183.39L498.1,183.39L498.1,182.58L499.16,182.58C499.37,182.58 499.54,182.53 499.67,182.44C499.79,182.36 499.85,182.23 499.85,182.08C499.85,181.94 499.8,181.84 499.72,181.75C499.63,181.67 499.51,181.61 499.35,181.57C499.2,181.53 499.03,181.51 498.84,181.52C498.64,181.52 498.45,181.55 498.24,181.61C498.04,181.67 497.84,181.75 497.66,181.85L497.33,181.02C497.63,180.86 497.95,180.75 498.29,180.69C498.62,180.63 498.95,180.62 499.26,180.65C499.57,180.68 499.86,180.75 500.11,180.86C500.36,180.97 500.57,181.12 500.72,181.31C500.87,181.49 500.94,181.7 500.94,181.95C500.94,182.17 500.88,182.37 500.77,182.54C500.65,182.72 500.49,182.85 500.29,182.94C500.08,183.04 499.84,183.08 499.58,183.08L499.6,182.84C499.91,182.84 500.18,182.9 500.41,183C500.64,183.11 500.82,183.25 500.95,183.43C501.07,183.62 501.14,183.83 501.14,184.07C501.14,184.29 501.08,184.49 500.96,184.67C500.84,184.84 500.68,184.99 500.48,185.11C500.27,185.23 500.04,185.32 499.78,185.38C499.51,185.44 499.24,185.46 498.94,185.45C498.64,185.44 498.35,185.4 498.05,185.32C497.75,185.24 497.47,185.12 497.2,184.96ZM501.99,185.38L501.99,180.71L503.06,180.71L503.06,183.75L505.29,180.71L506.3,180.71L506.3,185.38L505.24,185.38L505.24,182.34L503.01,185.38L501.99,185.38ZM510.66,180.71L511.74,180.71L511.74,185.38L510.66,185.38L510.66,180.71ZM508.54,185.38L507.46,185.38L507.46,180.71L508.54,180.71L508.54,185.38ZM510.74,183.46L508.46,183.46L508.46,182.55L510.74,182.55L510.74,183.46ZM513.9,182.59L516.15,182.59L516.15,183.43L513.9,183.43L513.9,182.59ZM513.98,184.51L516.52,184.51L516.52,185.38L512.91,185.38L512.91,180.71L516.43,180.71L516.43,181.58L513.98,181.58L513.98,184.51ZM517.39,185.38L517.39,180.71L518.47,180.71L518.47,184.5L520.55,184.5L520.55,180.71L521.62,180.71L521.62,185.38L517.39,185.38ZM521.29,186.36L521.29,185.12L521.53,185.38L520.55,185.38L520.55,184.5L522.29,184.5L522.29,186.36L521.29,186.36Z" style="fill:rgb(16,16,16);fill-rule:nonzero;"/>
            <path d="M403.01,174.02L460.01,174.02C462.21,174.02 464.01,175.82 464.01,178.02L464.01,188.02C464.01,190.22 462.21,192.02 460.01,192.02L403.01,192.02C400.8,192.02 399.01,190.22 399.01,188.02L399.01,178.02C399.01,175.82 400.8,174.02 403.01,174.02Z" style="fill:rgb(241,239,207);"/>
            <path d="M404.51,185.38L404.51,180.71L408.27,180.71L408.27,181.57L405.58,181.57L405.58,182.53L406.87,182.53C407.44,182.53 407.87,182.65 408.16,182.88C408.46,183.12 408.6,183.46 408.6,183.91C408.6,184.37 408.44,184.73 408.11,184.99C407.78,185.25 407.32,185.38 406.72,185.38L404.51,185.38ZM405.58,184.58L406.66,184.58C406.93,184.58 407.14,184.52 407.29,184.41C407.44,184.31 407.51,184.15 407.51,183.94C407.51,183.53 407.23,183.32 406.66,183.32L405.58,183.32L405.58,184.58ZM410.42,182.59L412.66,182.59L412.66,183.43L410.42,183.43L410.42,182.59ZM410.5,184.51L413.04,184.51L413.04,185.38L409.42,185.38L409.42,180.71L412.95,180.71L412.95,181.58L410.5,181.58L410.5,184.51ZM413.49,184.96L413.82,184.19C414.02,184.31 414.24,184.4 414.47,184.47C414.7,184.53 414.92,184.57 415.14,184.57C415.36,184.58 415.56,184.56 415.74,184.51C415.92,184.46 416.06,184.39 416.17,184.29C416.28,184.19 416.34,184.07 416.34,183.92C416.34,183.74 416.26,183.61 416.12,183.52C415.97,183.43 415.77,183.39 415.53,183.39L414.39,183.39L414.39,182.58L415.45,182.58C415.67,182.58 415.84,182.53 415.96,182.44C416.08,182.36 416.14,182.23 416.14,182.08C416.14,181.94 416.1,181.84 416.01,181.75C415.92,181.67 415.8,181.61 415.65,181.57C415.49,181.53 415.32,181.51 415.13,181.52C414.94,181.52 414.74,181.55 414.54,181.61C414.33,181.67 414.14,181.75 413.95,181.85L413.62,181.02C413.93,180.86 414.24,180.75 414.58,180.69C414.92,180.63 415.24,180.62 415.55,180.65C415.87,180.68 416.15,180.75 416.4,180.86C416.66,180.97 416.86,181.12 417.01,181.31C417.16,181.49 417.24,181.7 417.24,181.95C417.24,182.17 417.18,182.37 417.06,182.54C416.95,182.72 416.79,182.85 416.58,182.94C416.37,183.04 416.14,183.08 415.87,183.08L415.9,182.84C416.21,182.84 416.48,182.9 416.71,183C416.94,183.11 417.11,183.25 417.24,183.43C417.37,183.62 417.43,183.83 417.43,184.07C417.43,184.29 417.37,184.49 417.25,184.67C417.14,184.84 416.97,184.99 416.77,185.11C416.57,185.23 416.33,185.32 416.07,185.38C415.81,185.44 415.53,185.46 415.23,185.45C414.94,185.44 414.64,185.4 414.34,185.32C414.05,185.24 413.76,185.12 413.49,184.96ZM420.54,182.24C421.11,182.24 421.54,182.37 421.85,182.62C422.16,182.87 422.31,183.25 422.31,183.75C422.31,184.28 422.14,184.69 421.8,184.96C421.46,185.24 420.99,185.38 420.39,185.38L418.28,185.38L418.28,180.71L419.36,180.71L419.36,182.24L420.54,182.24ZM420.33,184.58C420.6,184.58 420.82,184.51 420.98,184.37C421.14,184.23 421.22,184.03 421.22,183.77C421.22,183.51 421.14,183.33 420.99,183.21C420.83,183.1 420.61,183.04 420.33,183.04L419.36,183.04L419.36,184.58L420.33,184.58ZM422.9,185.38L422.9,180.71L423.98,180.71L423.98,185.38L422.9,185.38ZM425.14,185.38L425.14,180.71L426.03,180.71L428.01,184L427.54,184L429.49,180.71L430.39,180.71L430.39,185.38L429.38,185.38L429.38,182.26L429.57,182.26L428,184.88L427.52,184.88L425.92,182.26L426.15,182.26L426.15,185.38L425.14,185.38ZM434.21,185.38L434.21,183.9L434.48,184.14L433.2,184.14C432.8,184.14 432.45,184.07 432.15,183.94C431.86,183.8 431.64,183.61 431.48,183.36C431.33,183.1 431.25,182.8 431.25,182.45C431.25,182.09 431.33,181.77 431.5,181.51C431.66,181.25 431.9,181.06 432.2,180.92C432.5,180.78 432.86,180.71 433.27,180.71L435.28,180.71L435.28,185.38L434.21,185.38ZM431.26,185.38L432.42,183.7L433.51,183.7L432.4,185.38L431.26,185.38ZM434.21,183.56L434.21,181.31L434.48,181.59L433.29,181.59C432.99,181.59 432.75,181.66 432.59,181.8C432.43,181.95 432.35,182.16 432.35,182.44C432.35,182.71 432.43,182.92 432.58,183.06C432.74,183.21 432.97,183.28 433.27,183.28L434.48,183.28L434.21,183.56ZM439.65,180.71L440.73,180.71L440.73,185.38L439.65,185.38L439.65,180.71ZM437.53,185.38L436.45,185.38L436.45,180.71L437.53,180.71L437.53,185.38ZM439.73,183.46L437.45,183.46L437.45,182.55L439.73,182.55L439.73,183.46ZM445.09,180.71L446.17,180.71L446.17,185.38L445.09,185.38L445.09,180.71ZM442.97,185.38L441.89,185.38L441.89,180.71L442.97,180.71L442.97,185.38ZM445.17,183.46L442.89,183.46L442.89,182.55L445.17,182.55L445.17,183.46ZM449.6,182.24C450.16,182.24 450.6,182.37 450.91,182.62C451.21,182.87 451.37,183.25 451.37,183.75C451.37,184.28 451.2,184.69 450.86,184.96C450.52,185.24 450.05,185.38 449.45,185.38L447.34,185.38L447.34,180.71L448.41,180.71L448.41,182.24L449.6,182.24ZM449.39,184.58C449.66,184.58 449.88,184.51 450.04,184.37C450.2,184.23 450.28,184.03 450.28,183.77C450.28,183.51 450.2,183.33 450.04,183.21C449.89,183.1 449.67,183.04 449.39,183.04L448.41,183.04L448.41,184.58L449.39,184.58ZM451.96,185.38L451.96,180.71L453.03,180.71L453.03,185.38L451.96,185.38ZM454.19,185.38L454.19,180.71L455.27,180.71L455.27,183.75L457.49,180.71L458.51,180.71L458.51,185.38L457.44,185.38L457.44,182.34L455.21,185.38L454.19,185.38ZM456.35,180.41C455.9,180.41 455.58,180.32 455.37,180.14C455.16,179.97 455.06,179.72 455.05,179.39L455.79,179.39C455.8,179.55 455.85,179.67 455.94,179.75C456.03,179.84 456.16,179.88 456.35,179.88C456.52,179.88 456.66,179.84 456.75,179.75C456.85,179.67 456.9,179.55 456.9,179.39L457.64,179.39C457.63,179.72 457.53,179.97 457.32,180.14C457.11,180.32 456.79,180.41 456.35,180.41Z" style="fill:rgb(16,16,16);fill-rule:nonzero;"/>
            <path d="M339,174.02L385,174.02C387.2,174.02 389,175.82 389,178.02L389,188.02C389,190.22 387.2,192.02 385,192.02L339,192.02C336.79,192.02 335,190.22 335,188.02L335,178.02C335,175.82 336.79,174.02 339,174.02Z" style="fill:rgb(213,241,207);"/>
            <path d="M346.94,185.46C346.58,185.46 346.24,185.4 345.93,185.28C345.62,185.16 345.36,184.99 345.13,184.78C344.9,184.56 344.73,184.3 344.6,184.01C344.47,183.72 344.41,183.4 344.41,183.04C344.41,182.69 344.47,182.37 344.6,182.08C344.73,181.78 344.9,181.53 345.13,181.31C345.36,181.09 345.63,180.93 345.94,180.81C346.24,180.69 346.58,180.63 346.94,180.63C347.35,180.63 347.71,180.7 348.04,180.84C348.37,180.98 348.64,181.19 348.86,181.46L348.17,182.1C348.01,181.92 347.83,181.78 347.64,181.69C347.44,181.6 347.23,181.55 347,181.55C346.78,181.55 346.58,181.59 346.4,181.66C346.21,181.73 346.06,181.83 345.92,181.96C345.79,182.1 345.69,182.26 345.61,182.44C345.54,182.62 345.5,182.82 345.5,183.04C345.5,183.27 345.54,183.47 345.61,183.65C345.69,183.83 345.79,183.99 345.92,184.12C346.06,184.26 346.21,184.36 346.4,184.43C346.58,184.5 346.78,184.54 347,184.54C347.23,184.54 347.44,184.49 347.64,184.4C347.83,184.31 348.01,184.17 348.17,183.98L348.86,184.62C348.64,184.9 348.37,185.1 348.04,185.24C347.71,185.39 347.34,185.46 346.94,185.46ZM349.57,185.38L349.57,180.71L351.59,180.71C352.01,180.71 352.37,180.78 352.67,180.91C352.97,181.05 353.21,181.24 353.37,181.5C353.53,181.75 353.62,182.05 353.62,182.4C353.62,182.75 353.53,183.05 353.37,183.3C353.21,183.56 352.97,183.75 352.67,183.89C352.37,184.02 352.01,184.09 351.59,184.09L350.17,184.09L350.65,183.6L350.65,185.38L349.57,185.38ZM350.65,183.72L350.17,183.21L351.53,183.21C351.86,183.21 352.11,183.14 352.28,183C352.44,182.86 352.52,182.66 352.52,182.4C352.52,182.15 352.44,181.95 352.28,181.8C352.11,181.66 351.86,181.59 351.53,181.59L350.17,181.59L350.65,181.08L350.65,183.72ZM355.32,182.59L357.57,182.59L357.57,183.43L355.32,183.43L355.32,182.59ZM355.4,184.51L357.94,184.51L357.94,185.38L354.33,185.38L354.33,180.71L357.86,180.71L357.86,181.58L355.4,181.58L355.4,184.51ZM361.91,184.9L361.91,181.59L360.31,181.59L360.29,182.27C360.28,182.56 360.26,182.83 360.23,183.09C360.21,183.35 360.17,183.58 360.12,183.79C360.07,184.01 360.01,184.18 359.93,184.33C359.85,184.48 359.76,184.58 359.64,184.64L358.49,184.5C358.65,184.5 358.78,184.45 358.89,184.33C358.99,184.22 359.07,184.05 359.14,183.84C359.2,183.63 359.24,183.38 359.27,183.1C359.3,182.81 359.32,182.5 359.34,182.17L359.39,180.71L362.98,180.71L362.98,184.9L361.91,184.9ZM358.34,186.34L358.34,184.5L363.63,184.5L363.63,186.34L362.63,186.34L362.63,185.38L359.34,185.38L359.34,186.34L358.34,186.34ZM367.55,180.71L368.63,180.71L368.63,185.38L367.55,185.38L367.55,180.71ZM365.43,185.38L364.35,185.38L364.35,180.71L365.43,180.71L365.43,185.38ZM367.63,183.46L365.36,183.46L365.36,182.55L367.63,182.55L367.63,183.46ZM369.8,185.38L369.8,180.71L370.87,180.71L370.87,183.75L373.1,180.71L374.11,180.71L374.11,185.38L373.05,185.38L373.05,182.34L370.82,185.38L369.8,185.38ZM375.27,185.38L375.27,180.71L376.35,180.71L376.35,183.75L378.57,180.71L379.59,180.71L379.59,185.38L378.52,185.38L378.52,182.34L376.29,185.38L375.27,185.38ZM377.43,180.41C376.98,180.41 376.66,180.32 376.45,180.14C376.24,179.97 376.14,179.72 376.13,179.39L376.87,179.39C376.88,179.55 376.93,179.67 377.02,179.75C377.11,179.84 377.25,179.88 377.43,179.88C377.61,179.88 377.74,179.84 377.83,179.75C377.93,179.67 377.98,179.55 377.98,179.39L378.72,179.39C378.72,179.72 378.61,179.97 378.4,180.14C378.19,180.32 377.87,180.41 377.43,180.41Z" style="fill:rgb(16,16,16);fill-rule:nonzero;"/>
            <path d="M273,174.02L309,174.02C311.21,174.02 313,175.82 313,178.02L313,188.02C313,190.22 311.21,192.02 309,192.02L273,192.02L273,174.02Z" style="fill:rgb(241,207,241);"/>
            <path d="M237,174.02L273,174.02L273,192.02L237,192.02C234.8,192.02 233,190.22 233,188.02L233,178.02C233,175.82 234.8,174.02 237,174.02Z" style="fill:rgb(207,238,241);"/>
            <path d="M243.94,184.46C244.2,184.53 244.42,184.55 244.6,184.52C244.77,184.49 244.93,184.36 245.07,184.15L245.29,183.81L245.39,183.7L246.94,180.67L248,180.67L246.01,184.36C245.83,184.7 245.62,184.95 245.38,185.13C245.14,185.31 244.87,185.41 244.59,185.43C244.3,185.46 244,185.41 243.69,185.28L243.94,184.46ZM245.37,184.6L243.27,180.67L244.42,180.67L245.97,183.8L245.37,184.6ZM251.53,185.34L250.08,183.09L250.95,182.56L252.76,185.34L251.53,185.34ZM248.5,185.34L248.5,180.67L249.57,180.67L249.57,185.34L248.5,185.34ZM249.26,183.46L249.26,182.56L250.89,182.56L250.89,183.46L249.26,183.46ZM251.05,183.12L250.06,183L251.57,180.67L252.71,180.67L251.05,183.12ZM252.64,185.34L254.72,180.67L255.79,180.67L257.88,185.34L256.74,185.34L255.04,181.22L255.47,181.22L253.75,185.34L252.64,185.34ZM253.69,184.34L253.97,183.52L256.37,183.52L256.66,184.34L253.69,184.34ZM258.08,184.92L258.41,184.15C258.61,184.27 258.83,184.36 259.05,184.43C259.28,184.49 259.51,184.53 259.73,184.53C259.95,184.54 260.15,184.52 260.33,184.47C260.51,184.42 260.65,184.35 260.76,184.25C260.87,184.15 260.92,184.03 260.92,183.88C260.92,183.7 260.85,183.57 260.7,183.48C260.56,183.39 260.36,183.35 260.12,183.35L258.98,183.35L258.98,182.54L260.04,182.54C260.26,182.54 260.43,182.49 260.55,182.4C260.67,182.31 260.73,182.19 260.73,182.04C260.73,181.9 260.69,181.8 260.6,181.71C260.51,181.63 260.39,181.57 260.23,181.53C260.08,181.49 259.91,181.47 259.72,181.48C259.53,181.48 259.33,181.51 259.13,181.57C258.92,181.63 258.73,181.71 258.54,181.81L258.21,180.98C258.51,180.82 258.83,180.71 259.17,180.65C259.5,180.59 259.83,180.58 260.14,180.61C260.46,180.64 260.74,180.71 260.99,180.82C261.24,180.93 261.45,181.08 261.6,181.26C261.75,181.45 261.82,181.66 261.82,181.91C261.82,182.13 261.77,182.33 261.65,182.5C261.54,182.68 261.37,182.81 261.17,182.9C260.96,183 260.72,183.04 260.46,183.04L260.49,182.8C260.8,182.8 261.07,182.86 261.3,182.96C261.52,183.06 261.7,183.21 261.83,183.39C261.95,183.58 262.02,183.79 262.02,184.03C262.02,184.25 261.96,184.45 261.84,184.63C261.72,184.8 261.56,184.95 261.36,185.07C261.15,185.19 260.92,185.28 260.66,185.34C260.4,185.4 260.12,185.42 259.82,185.41C259.53,185.4 259.23,185.36 258.93,185.28C258.63,185.2 258.35,185.08 258.08,184.92ZM262.34,185.34L264.42,180.67L265.49,180.67L267.58,185.34L266.44,185.34L264.74,181.22L265.16,181.22L263.45,185.34L262.34,185.34ZM263.38,184.34L263.67,183.52L266.07,183.52L266.36,184.34L263.38,184.34ZM268.97,185.34L268.97,181.3L269.22,181.55L267.48,181.55L267.48,180.67L271.53,180.67L271.53,181.55L269.8,181.55L270.04,181.3L270.04,185.34L268.97,185.34ZM273.2,182.55L275.45,182.55L275.45,183.39L273.2,183.39L273.2,182.55ZM273.28,184.47L275.82,184.47L275.82,185.34L272.21,185.34L272.21,180.67L275.74,180.67L275.74,181.54L273.28,181.54L273.28,184.47ZM276.74,185.41C276.66,185.41 276.58,185.4 276.49,185.39C276.41,185.38 276.31,185.36 276.21,185.34L276.28,184.42C276.34,184.44 276.4,184.45 276.47,184.45C276.65,184.45 276.79,184.38 276.9,184.23C277,184.08 277.07,183.86 277.12,183.58C277.16,183.3 277.19,182.96 277.2,182.56L277.27,180.67L280.86,180.67L280.86,185.34L279.79,185.34L279.79,181.3L280.04,181.55L277.98,181.55L278.2,181.29L278.16,182.52C278.14,182.98 278.11,183.39 278.06,183.74C278.01,184.1 277.94,184.4 277.84,184.65C277.73,184.9 277.59,185.09 277.42,185.22C277.24,185.35 277.01,185.41 276.74,185.41ZM284.28,182.2C284.85,182.2 285.28,182.33 285.59,182.58C285.9,182.83 286.05,183.21 286.05,183.71C286.05,184.24 285.88,184.65 285.54,184.92C285.2,185.2 284.73,185.34 284.13,185.34L282.02,185.34L282.02,180.67L283.1,180.67L283.1,182.2L284.28,182.2ZM284.07,184.54C284.34,184.54 284.56,184.47 284.72,184.33C284.88,184.19 284.96,183.99 284.96,183.73C284.96,183.47 284.88,183.29 284.73,183.17C284.57,183.06 284.35,183 284.07,183L283.1,183L283.1,184.54L284.07,184.54ZM290.03,180.67L291.11,180.67L291.11,185.34L290.03,185.34L290.03,180.67ZM287.91,185.34L286.83,185.34L286.83,180.67L287.91,180.67L287.91,185.34ZM290.11,183.42L287.83,183.42L287.83,182.51L290.11,182.51L290.11,183.42ZM294.53,182.2C295.1,182.2 295.53,182.33 295.84,182.58C296.15,182.83 296.3,183.21 296.3,183.71C296.3,184.24 296.13,184.65 295.79,184.92C295.45,185.2 294.98,185.34 294.38,185.34L292.27,185.34L292.27,180.67L293.35,180.67L293.35,182.2L294.53,182.2ZM294.32,184.54C294.6,184.54 294.81,184.47 294.97,184.33C295.13,184.19 295.21,183.99 295.21,183.73C295.21,183.47 295.14,183.29 294.98,183.17C294.82,183.06 294.6,183 294.32,183L293.35,183L293.35,184.54L294.32,184.54ZM296.89,185.34L296.89,180.67L297.97,180.67L297.97,185.34L296.89,185.34ZM300.12,182.55L302.37,182.55L302.37,183.39L300.12,183.39L300.12,182.55ZM300.2,184.47L302.74,184.47L302.74,185.34L299.13,185.34L299.13,180.67L302.65,180.67L302.65,181.54L300.2,181.54L300.2,184.47Z" style="fill:rgb(16,16,16);fill-rule:nonzero;"/>
            <path d="M237,174.02L309,174.02C311.21,174.02 313,175.82 313,178.02L313,188.02C313,190.22 311.21,192.02 309,192.02L237,192.02C234.8,192.02 233,190.22 233,188.02L233,178.02C233,175.82 234.8,174.02 237,174.02Z" style="fill:none;"/>
        </g>
        <g id="buttons-bg">
            <g id="finger-pinky">
                <g id="finger-pinky-L">
                    <path d="M16,11.5L38,11.5C40.2,11.5 42,13.29 42,15.5L42,32.5C42,34.7 40.2,36.5 38,36.5L16,36.5C13.8,36.5 12,34.7 12,32.5L12,15.5C12,13.29 13.8,11.5 16,11.5Z" style="fill:rgb(241,207,207);"/>
                    <path d="M51,11.5L73,11.5C75.2,11.5 77,13.29 77,15.5L77,32.5C77,34.7 75.2,36.5 73,36.5L51,36.5C48.8,36.5 47,34.7 47,32.5L47,15.5C47,13.29 48.8,11.5 51,11.5Z" style="fill:rgb(241,207,207);"/>
                    <path d="M86,11.5L108,11.5C110.2,11.5 112,13.29 112,15.5L112,32.5C112,34.7 110.2,36.5 108,36.5L86,36.5C83.8,36.5 82,34.7 82,32.5L82,15.5C82,13.29 83.8,11.5 86,11.5Z" style="fill:rgb(241,207,207);"/>
                    <path d="M16,41.5L56,41.5C58.2,41.5 60,43.29 60,45.5L60,62.5C60,64.7 58.2,66.5 56,66.5L16,66.5C13.8,66.5 12,64.7 12,62.5L12,45.5C12,43.29 13.8,41.5 16,41.5Z" style="fill:rgb(241,207,207);"/>
                    <path d="M69,41.5L91,41.5C93.2,41.5 95,43.29 95,45.5L95,62.5C95,64.7 93.2,66.5 91,66.5L69,66.5C66.8,66.5 65,64.7 65,62.5L65,45.5C65,43.29 66.8,41.5 69,41.5Z" style="fill:rgb(241,207,207);"/>
                    <path d="M16,71.5L69,71.5C71.2,71.5 73,73.29 73,75.5L73,92.5C73,94.7 71.2,96.5 69,96.5L16,96.5C13.8,96.5 12,94.7 12,92.5L12,75.5C12,73.29 13.8,71.5 16,71.5Z" style="fill:rgb(241,207,207);"/>
                    <path d="M82,71.5L104,71.5C106.2,71.5 108,73.29 108,75.5L108,92.5C108,94.7 106.2,96.5 104,96.5L82,96.5C79.8,96.5 78,94.7 78,92.5L78,75.5C78,73.29 79.8,71.5 82,71.5Z" style="fill:rgb(241,207,207);"/>
                    <path d="M16,101.5L86,101.5C88.2,101.5 90,103.29 90,105.5L90,122.5C90,124.7 88.2,126.5 86,126.5L16,126.5C13.8,126.5 12,124.7 12,122.5L12,105.5C12,103.29 13.8,101.5 16,101.5Z" style="fill:rgb(241,207,207);"/>
                    <path d="M99,101.5L121,101.5C123.2,101.5 125,103.29 125,105.5L125,122.5C125,124.7 123.2,126.5 121,126.5L99,126.5C96.8,126.5 95,124.7 95,122.5L95,105.5C95,103.29 96.8,101.5 99,101.5Z" style="fill:rgb(241,207,207);"/>
                    <path d="M16,131.5L44,131.5C46.2,131.5 48,133.29 48,135.5L48,152.5C48,154.7 46.2,156.5 44,156.5L16,156.5C13.8,156.5 12,154.7 12,152.5L12,135.5C12,133.29 13.8,131.5 16,131.5Z" style="fill:rgb(241,207,207);"/>
                    <path d="M57,131.5L85,131.5C87.2,131.5 89,133.29 89,135.5L89,152.5C89,154.7 87.2,156.5 85,156.5L57,156.5C54.8,156.5 53,154.7 53,152.5L53,135.5C53,133.29 54.8,131.5 57,131.5Z" style="fill:rgb(241,207,207);"/>
                    <path d="M98,131.5L126,131.5C128.2,131.5 130,133.29 130,135.5L130,152.5C130,154.7 128.2,156.5 126,156.5L98,156.5C95.8,156.5 94,154.7 94,152.5L94,135.5C94,133.29 95.8,131.5 98,131.5Z" style="fill:rgb(241,207,207);"/>
                </g>
                <g id="finger-pinky-R">
                    <path d="M366,11.5L388,11.5C390.2,11.5 392,13.29 392,15.5L392,32.5C392,34.7 390.2,36.5 388,36.5L366,36.5C363.8,36.5 362,34.7 362,32.5L362,15.5C362,13.29 363.8,11.5 366,11.5Z" style="fill:rgb(241,207,207);"/>
                    <path d="M401,11.5L423,11.5C425.2,11.5 427,13.29 427,15.5L427,32.5C427,34.7 425.2,36.5 423,36.5L401,36.5C398.8,36.5 397,34.7 397,32.5L397,15.5C397,13.29 398.8,11.5 401,11.5Z" style="fill:rgb(241,207,207);"/>
                    <path d="M436,11.5L458,11.5C460.2,11.5 462,13.29 462,15.5L462,32.5C462,34.7 460.2,36.5 458,36.5L436,36.5C433.8,36.5 432,34.7 432,32.5L432,15.5C432,13.29 433.8,11.5 436,11.5Z" style="fill:rgb(241,207,207);"/>
                    <path d="M471,11.5L530,11.5C532.2,11.5 534,13.29 534,15.5L534,32.5C534,34.7 532.2,36.5 530,36.5L471,36.5C468.8,36.5 467,34.7 467,32.5L467,15.5C467,13.29 468.8,11.5 471,11.5Z" style="fill:rgb(241,207,207);"/>
                    <path d="M384.01,41.5L406.01,41.5C408.21,41.5 410.01,43.29 410.01,45.5L410.01,62.5C410.01,64.7 408.21,66.5 406.01,66.5L384.01,66.5C381.8,66.5 380.01,64.7 380.01,62.5L380.01,45.5C380.01,43.29 381.8,41.5 384.01,41.5Z" style="fill:rgb(241,207,207);"/>
                    <path d="M419.01,41.5L441.01,41.5C443.21,41.5 445.01,43.29 445.01,45.5L445.01,62.5C445.01,64.7 443.21,66.5 441.01,66.5L419.01,66.5C416.81,66.5 415.01,64.7 415.01,62.5L415.01,45.5C415.01,43.29 416.81,41.5 419.01,41.5Z" style="fill:rgb(241,207,207);"/>
                    <path d="M454.01,41.5L476.01,41.5C478.21,41.5 480.01,43.29 480.01,45.5L480.01,62.5C480.01,64.7 478.21,66.5 476.01,66.5L454.01,66.5C451.81,66.5 450.01,64.7 450.01,62.5L450.01,45.5C450.01,43.29 451.81,41.5 454.01,41.5Z" style="fill:rgb(241,207,207);"/>
                    <path d="M489.01,41.5L530,41.5C532.2,41.5 534,43.29 534,45.5L534,62.5C534,64.7 532.2,66.5 530,66.5L489.01,66.5C486.81,66.5 485.01,64.7 485.01,62.5L485.01,45.5C485.01,43.29 486.81,41.5 489.01,41.5Z" style="fill:rgb(241,207,207);"/>
                    <path d="M397,71.5L419,71.5C421.2,71.5 423,73.29 423,75.5L423,92.5C423,94.7 421.2,96.5 419,96.5L397,96.5C394.79,96.5 393,94.7 393,92.5L393,75.5C393,73.29 394.79,71.5 397,71.5Z" style="fill:rgb(241,207,207);"/>
                    <path d="M432,71.5L454,71.5C456.2,71.5 458,73.29 458,75.5L458,92.5C458,94.7 456.2,96.5 454,96.5L432,96.5C429.79,96.5 428,94.7 428,92.5L428,75.5C428,73.29 429.79,71.5 432,71.5Z" style="fill:rgb(241,207,207);"/>
                    <path d="M467,71.5L530,71.5C532.2,71.5 534,73.29 534,75.5L534,92.5C534,94.7 532.2,96.5 530,96.5L467,96.5C464.79,96.5 463,94.7 463,92.5L463,75.5C463,73.29 464.79,71.5 467,71.5Z" style="fill:rgb(241,207,207);"/>
                    <path d="M414,101.5L436,101.5C438.2,101.5 440,103.29 440,105.5L440,122.5C440,124.7 438.2,126.5 436,126.5L414,126.5C411.79,126.5 410,124.7 410,122.5L410,105.5C410,103.29 411.79,101.5 414,101.5Z" style="fill:rgb(241,207,207);"/>
                    <path d="M448.99,101.5L530,101.5C532.2,101.5 534,103.29 534,105.5L534,122.5C534,124.7 532.2,126.5 530,126.5L448.99,126.5C446.79,126.5 445,124.7 445,122.5L445,105.5C445,103.29 446.79,101.5 448.99,101.5Z" style="fill:rgb(241,207,207);"/>
                    <path d="M379,131.5L407,131.5C409.2,131.5 411,133.29 411,135.5L411,152.5C411,154.7 409.2,156.5 407,156.5L379,156.5C376.79,156.5 375,154.7 375,152.5L375,135.5C375,133.29 376.79,131.5 379,131.5Z" style="fill:rgb(241,207,207);"/>
                    <path d="M420,131.5L448,131.5C450.2,131.5 452,133.29 452,135.5L452,152.5C452,154.7 450.2,156.5 448,156.5L420,156.5C417.8,156.5 416,154.7 416,152.5L416,135.5C416,133.29 417.8,131.5 420,131.5Z" style="fill:rgb(241,207,207);"/>
                    <path d="M461,131.5L489,131.5C491.21,131.5 493,133.29 493,135.5L493,152.5C493,154.7 491.21,156.5 489,156.5L461,156.5C458.8,156.5 457,154.7 457,152.5L457,135.5C457,133.29 458.8,131.5 461,131.5Z" style="fill:rgb(241,207,207);"/>
                    <path d="M502.01,131.5L530.01,131.5C532.21,131.5 534.01,133.29 534.01,135.5L534.01,152.5C534.01,154.7 532.21,156.5 530.01,156.5L502.01,156.5C499.8,156.5 498.01,154.7 498.01,152.5L498.01,135.5C498.01,133.29 499.8,131.5 502.01,131.5Z" style="fill:rgb(241,207,207);"/>
                </g>
            </g>
            <g id="finger-ring">
                <g id="finger-ring-L">
                    <path d="M121,11.5L143,11.5C145.2,11.5 147,13.29 147,15.5L147,32.5C147,34.7 145.2,36.5 143,36.5L121,36.5C118.8,36.5 117,34.7 117,32.5L117,15.5C117,13.29 118.8,11.5 121,11.5Z" style="fill:rgb(241,239,207);"/>
                    <path d="M104,41.5L126,41.5C128.21,41.5 130,43.29 130,45.5L130,62.5C130,64.7 128.21,66.5 126,66.5L104,66.5C101.8,66.5 100,64.7 100,62.5L100,45.5C100,43.29 101.8,41.5 104,41.5Z" style="fill:rgb(241,239,207);"/>
                    <path d="M117,71.5L139,71.5C141.2,71.5 143,73.29 143,75.5L143,92.5C143,94.7 141.2,96.5 139,96.5L117,96.5C114.8,96.5 113,94.7 113,92.5L113,75.5C113,73.29 114.8,71.5 117,71.5Z" style="fill:rgb(241,239,207);"/>
                    <path d="M134,101.5L156,101.5C158.2,101.5 160,103.29 160,105.5L160,122.5C160,124.7 158.2,126.5 156,126.5L134,126.5C131.8,126.5 130,124.7 130,122.5L130,105.5C130,103.29 131.8,101.5 134,101.5Z" style="fill:rgb(241,239,207);"/>
                </g>
                <g id="finger-ring-R">
                    <path d="M331,11.5L353,11.5C355.2,11.5 357,13.29 357,15.5L357,32.5C357,34.7 355.2,36.5 353,36.5L331,36.5C328.8,36.5 327,34.7 327,32.5L327,15.5C327,13.29 328.8,11.5 331,11.5Z" style="fill:rgb(241,239,207);"/>
                    <path d="M349.01,41.5L371.01,41.5C373.21,41.5 375.01,43.29 375.01,45.5L375.01,62.5C375.01,64.7 373.21,66.5 371.01,66.5L349.01,66.5C346.8,66.5 345.01,64.7 345.01,62.5L345.01,45.5C345.01,43.29 346.8,41.5 349.01,41.5Z" style="fill:rgb(241,239,207);"/>
                    <path d="M362,71.5L384,71.5C386.2,71.5 388,73.29 388,75.5L388,92.5C388,94.7 386.2,96.5 384,96.5L362,96.5C359.79,96.5 358,94.7 358,92.5L358,75.5C358,73.29 359.79,71.5 362,71.5Z" style="fill:rgb(241,239,207);"/>
                    <path d="M379,101.5L401,101.5C403.2,101.5 405,103.29 405,105.5L405,122.5C405,124.7 403.2,126.5 401,126.5L379,126.5C376.79,126.5 375,124.7 375,122.5L375,105.5C375,103.29 376.79,101.5 379,101.5Z" style="fill:rgb(241,239,207);"/>
                </g>
            </g>
            <g id="finger-middle">
                <g id="finger-middle-L">
                    <path d="M156,11.5L178,11.5C180.2,11.5 182,13.29 182,15.5L182,32.5C182,34.7 180.2,36.5 178,36.5L156,36.5C153.8,36.5 152,34.7 152,32.5L152,15.5C152,13.29 153.8,11.5 156,11.5Z" style="fill:rgb(213,241,207);"/>
                    <path d="M139,41.5L161,41.5C163.21,41.5 165,43.29 165,45.5L165,62.5C165,64.7 163.21,66.5 161,66.5L139,66.5C136.8,66.5 135,64.7 135,62.5L135,45.5C135,43.29 136.8,41.5 139,41.5Z" style="fill:rgb(213,241,207);"/>
                    <path d="M152,71.5L174,71.5C176.2,71.5 178,73.29 178,75.5L178,92.5C178,94.7 176.2,96.5 174,96.5L152,96.5C149.8,96.5 148,94.7 148,92.5L148,75.5C148,73.29 149.8,71.5 152,71.5Z" style="fill:rgb(213,241,207);"/>
                    <path d="M169,101.5L191,101.5C193.2,101.5 195,103.29 195,105.5L195,122.5C195,124.7 193.2,126.5 191,126.5L169,126.5C166.8,126.5 165,124.7 165,122.5L165,105.5C165,103.29 166.8,101.5 169,101.5Z" style="fill:rgb(213,241,207);"/>
                </g>
                <g id="finger-middle-R">
                    <path d="M296,11.5L318,11.5C320.2,11.5 322,13.29 322,15.5L322,32.5C322,34.7 320.2,36.5 318,36.5L296,36.5C293.8,36.5 292,34.7 292,32.5L292,15.5C292,13.29 293.8,11.5 296,11.5Z" style="fill:rgb(213,241,207);"/>
                    <path d="M314.01,41.5L336.01,41.5C338.21,41.5 340.01,43.29 340.01,45.5L340.01,62.5C340.01,64.7 338.21,66.5 336.01,66.5L314.01,66.5C311.8,66.5 310.01,64.7 310.01,62.5L310.01,45.5C310.01,43.29 311.8,41.5 314.01,41.5Z" style="fill:rgb(213,241,207);"/>
                    <path d="M327,71.5L349,71.5C351.2,71.5 353,73.29 353,75.5L353,92.5C353,94.7 351.2,96.5 349,96.5L327,96.5C324.79,96.5 323,94.7 323,92.5L323,75.5C323,73.29 324.79,71.5 327,71.5Z" style="fill:rgb(213,241,207);"/>
                    <path d="M344,101.5L366,101.5C368.2,101.5 370,103.29 370,105.5L370,122.5C370,124.7 368.2,126.5 366,126.5L344,126.5C341.79,126.5 340,124.7 340,122.5L340,105.5C340,103.29 341.79,101.5 344,101.5Z" style="fill:rgb(213,241,207);"/>
                </g>
            </g>
            <g id="finger-index">
                <g id="finger-index-L">
                    <path d="M191,11.5L213,11.5C215.2,11.5 217,13.29 217,15.5L217,32.5C217,34.7 215.2,36.5 213,36.5L191,36.5C188.8,36.5 187,34.7 187,32.5L187,15.5C187,13.29 188.8,11.5 191,11.5Z" style="fill:rgb(207,238,241);"/>
                    <path d="M226,11.5L248,11.5C250.2,11.5 252,13.29 252,15.5L252,32.5C252,34.7 250.2,36.5 248,36.5L226,36.5C223.8,36.5 222,34.7 222,32.5L222,15.5C222,13.29 223.8,11.5 226,11.5Z" style="fill:rgb(207,238,241);"/>
                    <path d="M174,41.5L196,41.5C198.21,41.5 200,43.29 200,45.5L200,62.5C200,64.7 198.21,66.5 196,66.5L174,66.5C171.8,66.5 170,64.7 170,62.5L170,45.5C170,43.29 171.8,41.5 174,41.5Z" style="fill:rgb(207,238,241);"/>
                    <path d="M209,41.5L231,41.5C233.21,41.5 235,43.29 235,45.5L235,62.5C235,64.7 233.21,66.5 231,66.5L209,66.5C206.8,66.5 205,64.7 205,62.5L205,45.5C205,43.29 206.8,41.5 209,41.5Z" style="fill:rgb(207,238,241);"/>
                    <path d="M187,71.5L209,71.5C211.2,71.5 213,73.29 213,75.5L213,92.5C213,94.7 211.2,96.5 209,96.5L187,96.5C184.8,96.5 183,94.7 183,92.5L183,75.5C183,73.29 184.8,71.5 187,71.5Z" style="fill:rgb(207,238,241);"/>
                    <path d="M222,71.5L244,71.5C246.2,71.5 248,73.29 248,75.5L248,92.5C248,94.7 246.2,96.5 244,96.5L222,96.5C219.79,96.5 218,94.7 218,92.5L218,75.5C218,73.29 219.79,71.5 222,71.5Z" style="fill:rgb(207,238,241);"/>
                    <path d="M204,101.5L226,101.5C228.2,101.5 230,103.29 230,105.5L230,122.5C230,124.7 228.2,126.5 226,126.5L204,126.5C201.79,126.5 200,124.7 200,122.5L200,105.5C200,103.29 201.79,101.5 204,101.5Z" style="fill:rgb(207,238,241);"/>
                    <path d="M239,101.5L261,101.5C263.2,101.5 265,103.29 265,105.5L265,122.5C265,124.7 263.2,126.5 261,126.5L239,126.5C236.79,126.5 235,124.7 235,122.5L235,105.5C235,103.29 236.79,101.5 239,101.5Z" style="fill:rgb(207,238,241);"/>
                </g>
                <g id="finger-index-R">
                    <path d="M261,11.5L283,11.5C285.2,11.5 287,13.29 287,15.5L287,32.5C287,34.7 285.2,36.5 283,36.5L261,36.5C258.8,36.5 257,34.7 257,32.5L257,15.5C257,13.29 258.8,11.5 261,11.5Z" style="fill:rgb(241,207,241);"/>
                    <path d="M244,41.5L266.01,41.5C268.21,41.5 270,43.29 270,45.5L270,62.5C270,64.7 268.21,66.5 266.01,66.5L244,66.5C241.8,66.5 240,64.7 240,62.5L240,45.5C240,43.29 241.8,41.5 244,41.5Z" style="fill:rgb(241,207,241);"/>
                    <path d="M279,41.5L301.01,41.5C303.21,41.5 305.01,43.29 305.01,45.5L305.01,62.5C305.01,64.7 303.21,66.5 301.01,66.5L279,66.5C276.8,66.5 275.01,64.7 275.01,62.5L275.01,45.5C275.01,43.29 276.8,41.5 279,41.5Z" style="fill:rgb(241,207,241);"/>
                    <path d="M257,71.5L279,71.5C281.2,71.5 283,73.29 283,75.5L283,92.5C283,94.7 281.2,96.5 279,96.5L257,96.5C254.79,96.5 253,94.7 253,92.5L253,75.5C253,73.29 254.79,71.5 257,71.5Z" style="fill:rgb(241,207,241);"/>
                    <path d="M292,71.5L314,71.5C316.2,71.5 318,73.29 318,75.5L318,92.5C318,94.7 316.2,96.5 314,96.5L292,96.5C289.79,96.5 288,94.7 288,92.5L288,75.5C288,73.29 289.79,71.5 292,71.5Z" style="fill:rgb(241,207,241);"/>
                    <path d="M274,101.5L296,101.5C298.2,101.5 300,103.29 300,105.5L300,122.5C300,124.7 298.2,126.5 296,126.5L274,126.5C271.79,126.5 270,124.7 270,122.5L270,105.5C270,103.29 271.79,101.5 274,101.5Z" style="fill:rgb(241,207,241);"/>
                    <path d="M309,101.5L331,101.5C333.2,101.5 335,103.29 335,105.5L335,122.5C335,124.7 333.2,126.5 331,126.5L309,126.5C306.79,126.5 305,124.7 305,122.5L305,105.5C305,103.29 306.79,101.5 309,101.5Z" style="fill:rgb(241,207,241);"/>
                </g>
            </g>
            <path id="Space" d="M138.99,131.5L366,131.5C368.2,131.5 369.99,133.29 369.99,135.5L369.99,152.5C369.99,154.7 368.2,156.5 366,156.5L138.99,156.5C136.79,156.5 135,154.7 135,152.5L135,135.5C135,133.29 136.79,131.5 138.99,131.5Z" style="fill:rgb(241,207,241);"/>
        </g>
        <g id="type-keys">
            <path id="_-" serif:id="`" d="M21.61,19.36L18.6,16.96L21.4,16.96L23.65,19.36L21.61,19.36Z" style="fill:rgb(16,16,16);fill-rule:nonzero;"/>
            <path id="_1" serif:id="1" d="M61.82,29.83L61.82,19.16L62.98,20.33L59.48,20.33L59.48,18.16L64.52,18.16L64.52,29.83L61.82,29.83Z" style="fill:rgb(16,16,16);fill-rule:nonzero;"/>
            <path id="_2" serif:id="2" d="M92.86,29.93L92.86,28.18L97.36,23.93C97.71,23.61 97.98,23.32 98.14,23.06C98.31,22.81 98.42,22.58 98.48,22.37C98.55,22.15 98.58,21.96 98.58,21.78C98.58,21.32 98.42,20.96 98.1,20.71C97.78,20.46 97.32,20.33 96.71,20.33C96.22,20.33 95.77,20.43 95.35,20.61C94.93,20.8 94.58,21.1 94.29,21.5L92.33,20.23C92.77,19.56 93.39,19.04 94.19,18.65C94.99,18.26 95.91,18.06 96.96,18.06C97.83,18.06 98.58,18.21 99.23,18.49C99.88,18.77 100.39,19.17 100.75,19.68C101.11,20.19 101.29,20.8 101.29,21.51C101.29,21.89 101.25,22.27 101.15,22.64C101.06,23.01 100.87,23.4 100.58,23.81C100.3,24.23 99.89,24.69 99.34,25.2L95.61,28.71L95.09,27.73L101.68,27.73L101.68,29.93L92.86,29.93Z" style="fill:rgb(16,16,16);fill-rule:nonzero;"/>
            <path id="_3" serif:id="3" d="M131.81,29.93C131,29.93 130.19,29.82 129.39,29.61C128.59,29.39 127.91,29.08 127.36,28.68L128.41,26.61C128.85,26.94 129.37,27.19 129.96,27.38C130.55,27.57 131.14,27.66 131.74,27.66C132.42,27.66 132.95,27.53 133.34,27.27C133.73,27 133.93,26.63 133.93,26.16C133.93,25.72 133.75,25.37 133.41,25.11C133.06,24.86 132.51,24.73 131.74,24.73L130.51,24.73L130.51,22.95L133.76,19.26L134.06,20.23L127.94,20.23L127.94,18.06L136.11,18.06L136.11,19.82L132.88,23.5L131.51,22.71L132.29,22.71C133.72,22.71 134.81,23.04 135.54,23.68C136.27,24.33 136.64,25.15 136.64,26.16C136.64,26.82 136.47,27.43 136.12,28.01C135.78,28.58 135.25,29.04 134.54,29.4C133.83,29.75 132.92,29.93 131.81,29.93Z" style="fill:rgb(16,16,16);fill-rule:nonzero;"/>
            <path id="_4" serif:id="4" d="M161.59,27.38L161.59,25.56L167.09,18.16L169.93,18.16L164.54,25.56L163.22,25.18L172.41,25.18L172.41,27.38L161.59,27.38ZM167.87,29.83L167.87,27.38L167.96,25.18L167.96,23L170.51,23L170.51,29.83L167.87,29.83Z" style="fill:rgb(16,16,16);fill-rule:nonzero;"/>
            <path id="_5" serif:id="5" d="M201.8,29.93C200.99,29.93 200.19,29.82 199.39,29.61C198.6,29.39 197.92,29.08 197.35,28.68L198.42,26.61C198.86,26.94 199.38,27.19 199.96,27.38C200.54,27.57 201.13,27.66 201.73,27.66C202.41,27.66 202.95,27.53 203.33,27.27C203.72,27 203.92,26.63 203.92,26.15C203.92,25.85 203.84,25.58 203.68,25.35C203.53,25.11 203.25,24.94 202.86,24.81C202.46,24.69 201.91,24.63 201.2,24.63L198.22,24.63L198.82,18.06L205.93,18.06L205.93,20.23L199.78,20.23L201.18,19L200.77,23.68L199.37,22.45L201.83,22.45C202.99,22.45 203.92,22.61 204.63,22.92C205.33,23.24 205.84,23.67 206.17,24.21C206.49,24.76 206.65,25.38 206.65,26.07C206.65,26.75 206.48,27.39 206.13,27.97C205.79,28.56 205.26,29.03 204.54,29.39C203.83,29.75 202.91,29.93 201.8,29.93Z" style="fill:rgb(16,16,16);fill-rule:nonzero;"/>
            <path id="_6" serif:id="6" d="M237.4,30.03C236.33,30.03 235.41,29.81 234.63,29.36C233.84,28.92 233.24,28.27 232.82,27.41C232.39,26.56 232.18,25.5 232.18,24.25C232.18,22.9 232.44,21.76 232.94,20.83C233.45,19.9 234.15,19.19 235.04,18.7C235.94,18.21 236.97,17.96 238.13,17.96C238.76,17.96 239.35,18.03 239.92,18.16C240.48,18.3 240.97,18.5 241.38,18.76L240.38,20.75C240.06,20.53 239.72,20.37 239.35,20.29C238.98,20.21 238.6,20.16 238.2,20.16C237.19,20.16 236.39,20.47 235.8,21.08C235.21,21.69 234.92,22.6 234.92,23.8C234.92,24 234.92,24.22 234.93,24.46C234.93,24.71 234.96,24.95 235.02,25.2L234.27,24.5C234.48,24.06 234.75,23.7 235.08,23.41C235.42,23.11 235.81,22.89 236.28,22.74C236.74,22.59 237.24,22.51 237.8,22.51C238.56,22.51 239.23,22.66 239.83,22.96C240.43,23.26 240.91,23.69 241.28,24.23C241.64,24.78 241.82,25.41 241.82,26.15C241.82,26.94 241.62,27.62 241.23,28.21C240.83,28.79 240.3,29.24 239.64,29.56C238.98,29.87 238.23,30.03 237.4,30.03ZM237.25,28.01C237.63,28.01 237.96,27.94 238.26,27.81C238.55,27.67 238.78,27.46 238.95,27.2C239.12,26.93 239.2,26.63 239.2,26.28C239.2,25.75 239.02,25.32 238.66,25.01C238.3,24.69 237.82,24.53 237.22,24.53C236.82,24.53 236.47,24.61 236.17,24.76C235.87,24.91 235.63,25.11 235.46,25.37C235.29,25.63 235.2,25.94 235.2,26.28C235.2,26.61 235.28,26.91 235.45,27.17C235.62,27.43 235.85,27.64 236.15,27.79C236.45,27.94 236.82,28.01 237.25,28.01Z" style="fill:rgb(16,16,16);fill-rule:nonzero;"/>
            <path id="_7" serif:id="7" d="M269.41,29.83L274.11,19.2L274.81,20.36L268.52,20.36L269.72,19.1L269.72,22.26L267.32,22.26L267.32,18.16L276.67,18.16L276.67,19.91L272.34,29.83L269.41,29.83Z" style="fill:rgb(16,16,16);fill-rule:nonzero;"/>
            <path id="_8" serif:id="8" d="M306.99,30.03C306.01,30.03 305.15,29.88 304.42,29.59C303.69,29.29 303.11,28.88 302.7,28.34C302.29,27.8 302.08,27.17 302.08,26.45C302.08,25.73 302.29,25.11 302.69,24.61C303.1,24.1 303.67,23.72 304.4,23.46C305.13,23.19 306,23.06 306.99,23.06C307.98,23.06 308.85,23.19 309.59,23.46C310.33,23.72 310.9,24.1 311.31,24.61C311.72,25.11 311.92,25.73 311.92,26.45C311.92,27.17 311.71,27.8 311.3,28.34C310.89,28.88 310.31,29.29 309.58,29.59C308.84,29.88 307.97,30.03 306.99,30.03ZM306.99,28.05C307.66,28.05 308.2,27.9 308.59,27.6C308.99,27.3 309.18,26.89 309.18,26.36C309.18,25.84 308.99,25.43 308.59,25.14C308.2,24.84 307.66,24.7 306.99,24.7C306.32,24.7 305.79,24.84 305.4,25.14C305.01,25.43 304.82,25.84 304.82,26.36C304.82,26.89 305.01,27.3 305.4,27.6C305.79,27.9 306.32,28.05 306.99,28.05ZM306.99,24.43C306.09,24.43 305.3,24.31 304.63,24.06C303.95,23.82 303.43,23.46 303.06,22.99C302.69,22.52 302.5,21.95 302.5,21.3C302.5,20.61 302.69,20.02 303.07,19.52C303.45,19.03 303.97,18.64 304.65,18.37C305.33,18.1 306.11,17.96 306.99,17.96C307.89,17.96 308.67,18.1 309.34,18.37C310.01,18.64 310.54,19.03 310.93,19.52C311.31,20.02 311.5,20.61 311.5,21.3C311.5,21.95 311.31,22.52 310.94,22.99C310.57,23.46 310.05,23.82 309.37,24.06C308.69,24.31 307.9,24.43 306.99,24.43ZM306.99,22.85C307.55,22.85 308,22.72 308.33,22.46C308.65,22.21 308.82,21.86 308.82,21.41C308.82,20.95 308.65,20.59 308.31,20.33C307.97,20.08 307.53,19.95 306.99,19.95C306.45,19.95 306.02,20.08 305.68,20.33C305.35,20.59 305.19,20.95 305.19,21.41C305.19,21.86 305.35,22.21 305.67,22.46C305.99,22.72 306.43,22.85 306.99,22.85Z" style="fill:rgb(16,16,16);fill-rule:nonzero;"/>
            <path id="_9" serif:id="9" d="M341.6,17.96C342.68,17.96 343.61,18.19 344.38,18.63C345.16,19.08 345.76,19.72 346.18,20.57C346.61,21.42 346.82,22.48 346.82,23.75C346.82,25.09 346.56,26.23 346.06,27.16C345.55,28.1 344.86,28.81 343.97,29.3C343.08,29.79 342.04,30.03 340.87,30.03C340.26,30.03 339.67,29.96 339.1,29.83C338.53,29.7 338.04,29.5 337.63,29.23L338.63,27.25C338.96,27.47 339.3,27.62 339.67,27.71C340.03,27.79 340.42,27.83 340.82,27.83C341.82,27.83 342.61,27.53 343.21,26.91C343.8,26.3 344.1,25.4 344.1,24.2C344.1,24 344.1,23.78 344.08,23.53C344.07,23.29 344.04,23.04 344,22.8L344.73,23.5C344.55,23.93 344.28,24.3 343.93,24.59C343.59,24.88 343.19,25.11 342.73,25.26C342.28,25.41 341.77,25.48 341.2,25.48C340.46,25.48 339.78,25.33 339.17,25.03C338.57,24.73 338.09,24.31 337.73,23.76C337.36,23.22 337.18,22.58 337.18,21.85C337.18,21.05 337.38,20.36 337.78,19.78C338.17,19.2 338.7,18.76 339.38,18.44C340.05,18.12 340.79,17.96 341.6,17.96ZM341.77,19.98C341.38,19.98 341.04,20.05 340.75,20.19C340.46,20.33 340.23,20.53 340.07,20.79C339.9,21.05 339.82,21.36 339.82,21.71C339.82,22.25 340,22.67 340.36,22.99C340.72,23.31 341.2,23.46 341.8,23.46C342.19,23.46 342.54,23.39 342.84,23.24C343.15,23.09 343.38,22.88 343.55,22.61C343.72,22.35 343.8,22.05 343.8,21.71C343.8,21.38 343.72,21.08 343.56,20.82C343.4,20.56 343.17,20.36 342.87,20.21C342.57,20.06 342.2,19.98 341.77,19.98Z" style="fill:rgb(16,16,16);fill-rule:nonzero;"/>
            <path id="_0" serif:id="0" d="M377,30.03C376.05,30.03 375.19,29.79 374.43,29.32C373.68,28.85 373.08,28.16 372.65,27.26C372.22,26.36 372,25.28 372,24C372,22.72 372.22,21.63 372.65,20.73C373.08,19.83 373.68,19.14 374.43,18.67C375.19,18.2 376.05,17.96 377,17.96C377.97,17.96 378.83,18.2 379.58,18.67C380.33,19.14 380.92,19.83 381.35,20.73C381.78,21.63 382,22.72 382,24C382,25.28 381.78,26.36 381.35,27.26C380.92,28.16 380.33,28.85 379.58,29.32C378.83,29.79 377.97,30.03 377,30.03ZM377,27.75C377.46,27.75 377.85,27.62 378.19,27.36C378.53,27.11 378.8,26.7 378.99,26.15C379.19,25.59 379.28,24.88 379.28,24C379.28,23.12 379.19,22.4 378.99,21.85C378.8,21.29 378.53,20.89 378.19,20.63C377.85,20.38 377.46,20.25 377,20.25C376.56,20.25 376.16,20.38 375.83,20.63C375.49,20.89 375.22,21.29 375.02,21.85C374.83,22.4 374.73,23.12 374.73,24C374.73,24.88 374.83,25.59 375.02,26.15C375.22,26.7 375.49,27.11 375.83,27.36C376.16,27.62 376.56,27.75 377,27.75Z" style="fill:rgb(16,16,16);fill-rule:nonzero;"/>
            <path id="_-1" serif:id="-" d="M409.64,25.04L409.64,22.96L414.36,22.96L414.36,25.04L409.64,25.04Z" style="fill:rgb(16,16,16);fill-rule:nonzero;"/>
            <path id="_-2" serif:id="=" d="M443.03,22.95L443.03,20.91L450.97,20.91L450.97,22.95L443.03,22.95ZM443.03,27.08L443.03,25.05L450.97,25.05L450.97,27.08L443.03,27.08Z" style="fill:rgb(16,16,16);fill-rule:nonzero;"/>
            <path id="Q" d="M79.71,58.79C78.8,58.79 77.95,58.64 77.17,58.34C76.38,58.04 75.71,57.62 75.13,57.07C74.56,56.53 74.12,55.89 73.8,55.16C73.48,54.42 73.33,53.62 73.33,52.76C73.33,51.89 73.48,51.09 73.8,50.36C74.12,49.62 74.56,48.98 75.14,48.44C75.72,47.89 76.4,47.47 77.18,47.17C77.95,46.87 78.8,46.72 79.71,46.72C80.63,46.72 81.48,46.87 82.25,47.17C83.02,47.47 83.7,47.89 84.27,48.43C84.84,48.97 85.29,49.61 85.61,50.34C85.93,51.07 86.09,51.88 86.09,52.76C86.09,53.62 85.93,54.43 85.61,55.16C85.29,55.9 84.84,56.54 84.27,57.08C83.7,57.62 83.02,58.04 82.25,58.34C81.48,58.64 80.63,58.79 79.71,58.79ZM83.53,61.27C83.07,61.27 82.64,61.22 82.23,61.12C81.83,61.02 81.43,60.86 81.03,60.64C80.64,60.42 80.23,60.12 79.8,59.74C79.37,59.36 78.91,58.9 78.41,58.34L81.24,57.62C81.54,58.03 81.82,58.36 82.08,58.61C82.33,58.85 82.58,59.02 82.82,59.12C83.06,59.22 83.31,59.27 83.58,59.27C84.29,59.27 84.92,58.98 85.48,58.41L86.68,59.84C85.89,60.79 84.84,61.27 83.53,61.27ZM79.71,56.49C80.23,56.49 80.71,56.4 81.15,56.22C81.59,56.05 81.98,55.79 82.31,55.46C82.64,55.12 82.9,54.73 83.08,54.26C83.27,53.8 83.36,53.3 83.36,52.76C83.36,52.2 83.27,51.7 83.08,51.24C82.9,50.78 82.64,50.39 82.31,50.06C81.98,49.72 81.59,49.47 81.15,49.29C80.71,49.11 80.23,49.02 79.71,49.02C79.19,49.02 78.7,49.11 78.26,49.29C77.81,49.47 77.43,49.72 77.1,50.06C76.77,50.39 76.52,50.78 76.33,51.24C76.15,51.7 76.06,52.2 76.06,52.76C76.06,53.3 76.15,53.8 76.33,54.26C76.52,54.73 76.77,55.12 77.1,55.46C77.43,55.79 77.81,56.05 78.26,56.22C78.7,56.4 79.19,56.49 79.71,56.49Z" style="fill:rgb(16,16,16);fill-rule:nonzero;"/>
            <path id="W" d="M109.49,59.83L105.68,48.16L108.48,48.16L111.79,58.5L110.39,58.5L113.86,48.16L116.36,48.16L119.69,58.5L118.34,58.5L121.74,48.16L124.33,48.16L120.51,59.83L117.61,59.83L114.66,50.76L115.43,50.76L112.39,59.83L109.49,59.83Z" style="fill:rgb(16,16,16);fill-rule:nonzero;"/>
            <path id="E" d="M147.97,52.86L153.59,52.86L153.59,54.96L147.97,54.96L147.97,52.86ZM148.17,57.66L154.52,57.66L154.52,59.83L145.49,59.83L145.49,48.16L154.3,48.16L154.3,50.33L148.17,50.33L148.17,57.66Z" style="fill:rgb(16,16,16);fill-rule:nonzero;"/>
            <path id="R" d="M179.84,59.83L179.84,48.16L184.89,48.16C185.93,48.16 186.83,48.33 187.59,48.67C188.34,49.01 188.92,49.5 189.34,50.13C189.75,50.76 189.95,51.52 189.95,52.4C189.95,53.26 189.75,54.01 189.34,54.64C188.92,55.27 188.34,55.75 187.59,56.08C186.83,56.41 185.93,56.58 184.89,56.58L181.34,56.58L182.54,55.4L182.54,59.83L179.84,59.83ZM187.25,59.83L184.34,55.6L187.22,55.6L190.17,59.83L187.25,59.83ZM182.54,55.7L181.34,54.43L184.74,54.43C185.57,54.43 186.19,54.25 186.6,53.89C187.01,53.53 187.22,53.03 187.22,52.4C187.22,51.75 187.01,51.25 186.6,50.9C186.19,50.54 185.57,50.36 184.74,50.36L181.34,50.36L182.54,49.08L182.54,55.7Z" style="fill:rgb(16,16,16);fill-rule:nonzero;"/>
            <path id="T" d="M218.65,59.83L218.65,50.36L214.92,50.36L214.92,48.16L225.09,48.16L225.09,50.36L221.35,50.36L221.35,59.83L218.65,59.83Z" style="fill:rgb(16,16,16);fill-rule:nonzero;"/>
            <path id="Y" d="M253.65,59.83L253.65,55.06L254.26,56.7L249.13,48.16L252,48.16L255.93,54.71L254.28,54.71L258.23,48.16L260.88,48.16L255.75,56.7L256.35,55.06L256.35,59.83L253.65,59.83Z" style="fill:rgb(16,16,16);fill-rule:nonzero;"/>
            <path id="U" d="M290.01,59.93C288.35,59.93 287.06,59.47 286.12,58.55C285.19,57.63 284.72,56.31 284.72,54.6L284.72,48.06L287.42,48.06L287.42,54.5C287.42,55.61 287.65,56.41 288.11,56.9C288.56,57.39 289.2,57.63 290.02,57.63C290.84,57.63 291.48,57.39 291.94,56.9C292.39,56.41 292.62,55.61 292.62,54.5L292.62,48.06L295.29,48.06L295.29,54.6C295.29,56.31 294.82,57.63 293.89,58.55C292.95,59.47 291.66,59.93 290.01,59.93Z" style="fill:rgb(16,16,16);fill-rule:nonzero;"/>
            <path id="T1" serif:id="T" d="M323.66,59.83L323.66,48.16L326.36,48.16L326.36,59.83L323.66,59.83Z" style="fill:rgb(16,16,16);fill-rule:nonzero;"/>
            <path id="O" d="M360.02,60.03C359.1,60.03 358.25,59.88 357.47,59.58C356.68,59.28 356.01,58.86 355.43,58.31C354.86,57.77 354.42,57.13 354.1,56.4C353.78,55.66 353.62,54.86 353.62,54C353.62,53.13 353.78,52.33 354.1,51.6C354.42,50.86 354.86,50.23 355.44,49.68C356.02,49.14 356.7,48.71 357.47,48.41C358.25,48.11 359.1,47.96 360.01,47.96C360.93,47.96 361.78,48.11 362.55,48.41C363.32,48.71 363.99,49.14 364.57,49.68C365.14,50.23 365.59,50.86 365.91,51.59C366.23,52.32 366.39,53.12 366.39,54C366.39,54.86 366.23,55.67 365.91,56.41C365.59,57.15 365.14,57.78 364.57,58.32C363.99,58.86 363.32,59.28 362.55,59.58C361.78,59.88 360.94,60.03 360.02,60.03ZM360.01,57.73C360.53,57.73 361.01,57.64 361.45,57.46C361.89,57.29 362.27,57.03 362.61,56.7C362.94,56.36 363.2,55.97 363.38,55.51C363.57,55.06 363.66,54.55 363.66,54C363.66,53.44 363.57,52.94 363.38,52.48C363.2,52.03 362.94,51.63 362.62,51.3C362.29,50.96 361.9,50.71 361.46,50.53C361.01,50.35 360.53,50.26 360.01,50.26C359.49,50.26 359.01,50.35 358.57,50.53C358.13,50.71 357.74,50.96 357.41,51.3C357.07,51.63 356.82,52.03 356.63,52.48C356.45,52.94 356.36,53.44 356.36,54C356.36,54.54 356.45,55.05 356.63,55.51C356.82,55.97 357.07,56.36 357.4,56.7C357.73,57.03 358.11,57.29 358.56,57.46C359,57.64 359.49,57.73 360.01,57.73Z" style="fill:rgb(16,16,16);fill-rule:nonzero;"/>
            <path id="P" d="M389.95,59.83L389.95,48.16L395,48.16C396.04,48.16 396.94,48.33 397.7,48.67C398.46,49.01 399.04,49.5 399.45,50.13C399.86,50.76 400.07,51.52 400.07,52.4C400.07,53.26 399.86,54.01 399.45,54.65C399.04,55.28 398.46,55.77 397.7,56.11C396.94,56.44 396.04,56.61 395,56.61L391.45,56.61L392.65,55.4L392.65,59.83L389.95,59.83ZM392.65,55.7L391.45,54.41L394.85,54.41C395.68,54.41 396.3,54.24 396.72,53.88C397.13,53.53 397.33,53.03 397.33,52.4C397.33,51.75 397.13,51.25 396.72,50.9C396.3,50.54 395.68,50.36 394.85,50.36L391.45,50.36L392.65,49.08L392.65,55.7Z" style="fill:rgb(16,16,16);fill-rule:nonzero;"/>
            <path id="_-3" serif:id="[" d="M427.75,61.8L427.75,46.2L432.27,46.2L432.27,48.23L430.35,48.23L430.35,59.76L432.27,59.76L432.27,61.8L427.75,61.8Z" style="fill:rgb(16,16,16);fill-rule:nonzero;"/>
            <path id="_-4" serif:id="]" d="M467.26,61.8L462.76,61.8L462.76,59.76L464.66,59.76L464.66,48.23L462.76,48.23L462.76,46.2L467.26,46.2L467.26,61.8Z" style="fill:rgb(16,16,16);fill-rule:nonzero;"/>
            <path id="_-5" serif:id="\" d="M513.41,61.85L511.1,61.85L505.6,46.15L507.91,46.15L513.41,61.85Z" style="fill:rgb(16,16,16);fill-rule:nonzero;"/>
            <path id="A" d="M86.46,89.83L91.66,78.16L94.32,78.16L99.54,89.83L96.71,89.83L92.44,79.53L93.51,79.53L89.22,89.83L86.46,89.83ZM89.06,87.33L89.77,85.28L95.77,85.28L96.51,87.33L89.06,87.33Z" style="fill:rgb(16,16,16);fill-rule:nonzero;"/>
            <path id="S" d="M127.9,90.03C126.97,90.03 126.07,89.91 125.22,89.66C124.36,89.41 123.67,89.08 123.15,88.68L124.07,86.65C124.57,87 125.16,87.3 125.84,87.52C126.52,87.75 127.22,87.86 127.92,87.86C128.45,87.86 128.88,87.81 129.21,87.71C129.54,87.6 129.78,87.45 129.93,87.26C130.09,87.08 130.17,86.86 130.17,86.61C130.17,86.3 130.04,86.06 129.8,85.87C129.55,85.69 129.23,85.54 128.83,85.42C128.43,85.31 127.99,85.2 127.51,85.09C127.02,84.98 126.54,84.85 126.06,84.7C125.57,84.54 125.13,84.34 124.73,84.1C124.33,83.85 124.01,83.53 123.76,83.13C123.51,82.73 123.38,82.22 123.38,81.6C123.38,80.93 123.56,80.32 123.92,79.77C124.29,79.22 124.83,78.78 125.56,78.46C126.28,78.13 127.2,77.96 128.3,77.96C129.03,77.96 129.75,78.05 130.47,78.22C131.18,78.4 131.8,78.65 132.35,79L131.52,81.05C130.97,80.74 130.43,80.51 129.88,80.36C129.34,80.21 128.8,80.13 128.28,80.13C127.76,80.13 127.33,80.19 127,80.31C126.67,80.44 126.43,80.59 126.28,80.79C126.14,80.98 126.07,81.21 126.07,81.46C126.07,81.76 126.19,82.01 126.43,82.19C126.68,82.37 127,82.52 127.4,82.63C127.8,82.74 128.24,82.85 128.72,82.96C129.21,83.08 129.69,83.2 130.17,83.35C130.66,83.49 131.1,83.69 131.5,83.93C131.9,84.18 132.22,84.5 132.47,84.9C132.72,85.3 132.85,85.8 132.85,86.41C132.85,87.07 132.66,87.67 132.3,88.21C131.93,88.76 131.38,89.2 130.66,89.53C129.93,89.86 129.01,90.03 127.9,90.03Z" style="fill:rgb(16,16,16);fill-rule:nonzero;"/>
            <path id="D" d="M157.13,89.83L157.13,78.16L162.43,78.16C163.7,78.16 164.82,78.41 165.78,78.89C166.75,79.37 167.51,80.05 168.05,80.91C168.59,81.78 168.87,82.81 168.87,84C168.87,85.18 168.59,86.2 168.05,87.07C167.51,87.94 166.75,88.62 165.78,89.11C164.82,89.59 163.7,89.83 162.43,89.83L157.13,89.83ZM159.83,87.61L162.3,87.61C163.08,87.61 163.75,87.47 164.32,87.17C164.9,86.88 165.34,86.46 165.66,85.91C165.97,85.37 166.13,84.73 166.13,84C166.13,83.25 165.97,82.61 165.66,82.07C165.34,81.53 164.9,81.12 164.32,80.82C163.75,80.53 163.08,80.38 162.3,80.38L159.83,80.38L159.83,87.61Z" style="fill:rgb(16,16,16);fill-rule:nonzero;"/>
            <path id="F" d="M196.09,83.41L201.69,83.41L201.69,85.58L196.09,85.58L196.09,83.41ZM196.29,89.83L193.59,89.83L193.59,78.16L202.41,78.16L202.41,80.33L196.29,80.33L196.29,89.83Z" style="fill:rgb(16,16,16);fill-rule:nonzero;"/>
            <path id="G" d="M233.72,90.03C232.79,90.03 231.95,89.88 231.17,89.59C230.4,89.29 229.73,88.88 229.16,88.33C228.58,87.79 228.14,87.15 227.82,86.41C227.51,85.68 227.35,84.88 227.35,84C227.35,83.12 227.51,82.31 227.82,81.58C228.14,80.85 228.59,80.21 229.16,79.66C229.74,79.12 230.42,78.7 231.2,78.41C231.98,78.11 232.83,77.96 233.76,77.96C234.8,77.96 235.73,78.14 236.56,78.48C237.39,78.83 238.08,79.33 238.65,79.98L236.91,81.58C236.49,81.14 236.03,80.81 235.53,80.59C235.03,80.37 234.49,80.26 233.9,80.26C233.33,80.26 232.82,80.35 232.35,80.53C231.88,80.71 231.48,80.96 231.14,81.3C230.8,81.63 230.54,82.03 230.36,82.48C230.17,82.94 230.08,83.44 230.08,84C230.08,84.54 230.17,85.04 230.36,85.5C230.54,85.95 230.8,86.35 231.14,86.69C231.48,87.03 231.88,87.29 232.34,87.46C232.8,87.64 233.31,87.73 233.87,87.73C234.4,87.73 234.92,87.64 235.42,87.47C235.93,87.3 236.42,87.01 236.9,86.6L238.43,88.55C237.8,89.03 237.06,89.39 236.22,89.65C235.38,89.9 234.55,90.03 233.72,90.03ZM235.97,88.2L235.97,83.81L238.43,83.81L238.43,88.55L235.97,88.2Z" style="fill:rgb(16,16,16);fill-rule:nonzero;"/>
            <path id="H" d="M270.65,78.16L273.35,78.16L273.35,89.83L270.65,89.83L270.65,78.16ZM265.35,89.83L262.65,89.83L262.65,78.16L265.35,78.16L265.35,89.83ZM270.85,85.05L265.15,85.05L265.15,82.76L270.85,82.76L270.85,85.05Z" style="fill:rgb(16,16,16);fill-rule:nonzero;"/>
            <path id="J" d="M302.8,89.93C302.01,89.93 301.28,89.79 300.62,89.49C299.96,89.2 299.42,88.78 299,88.23L300.5,86.43C300.82,86.85 301.16,87.17 301.51,87.39C301.87,87.61 302.25,87.72 302.66,87.72C303.76,87.72 304.31,87.07 304.31,85.78L304.31,80.23L300.21,80.23L300.21,78.06L307,78.06L307,85.63C307,87.08 306.64,88.15 305.93,88.86C305.22,89.58 304.18,89.93 302.8,89.93Z" style="fill:rgb(16,16,16);fill-rule:nonzero;"/>
            <path id="K" d="M334.85,87.16L334.7,84.05L340.28,78.16L343.28,78.16L338.25,83.58L336.75,85.18L334.85,87.16ZM332.43,89.83L332.43,78.16L335.11,78.16L335.11,89.83L332.43,89.83ZM340.41,89.83L336.26,84.75L338.03,82.83L343.56,89.83L340.41,89.83Z" style="fill:rgb(16,16,16);fill-rule:nonzero;"/>
            <path id="L" d="M368.72,89.83L368.72,78.16L371.42,78.16L371.42,87.63L377.27,87.63L377.27,89.83L368.72,89.83Z" style="fill:rgb(16,16,16);fill-rule:nonzero;"/>
            <path id="_-6" serif:id=";" d="M408,81.41C407.55,81.41 407.17,81.25 406.86,80.95C406.54,80.64 406.38,80.25 406.38,79.77C406.38,79.3 406.54,78.91 406.86,78.61C407.17,78.32 407.55,78.17 408,78.17C408.45,78.17 408.84,78.32 409.15,78.61C409.46,78.91 409.61,79.3 409.61,79.77C409.61,80.25 409.46,80.64 409.15,80.95C408.84,81.25 408.45,81.41 408,81.41ZM406.56,89.82L407.66,85.82L408.03,87.32C407.55,87.32 407.16,87.18 406.86,86.91C406.55,86.63 406.4,86.25 406.4,85.76C406.4,85.27 406.55,84.88 406.86,84.59C407.17,84.3 407.56,84.16 408.01,84.16C408.48,84.16 408.86,84.3 409.16,84.6C409.46,84.89 409.61,85.28 409.61,85.76C409.61,85.9 409.6,86.04 409.58,86.18C409.56,86.32 409.52,86.49 409.46,86.68C409.39,86.88 409.3,87.12 409.16,87.42L408.21,89.82L406.56,89.82Z" style="fill:rgb(16,16,16);fill-rule:nonzero;"/>
            <path id="_-7" serif:id="&apos;" d="M441.54,83.84L442.64,79.84L443.01,81.34C442.53,81.34 442.14,81.2 441.84,80.92C441.54,80.65 441.39,80.26 441.39,79.77C441.39,79.3 441.54,78.91 441.85,78.62C442.15,78.32 442.53,78.17 442.99,78.17C443.46,78.17 443.84,78.32 444.15,78.62C444.45,78.91 444.6,79.3 444.6,79.77C444.6,79.92 444.59,80.06 444.57,80.2C444.55,80.34 444.51,80.5 444.44,80.69C444.37,80.88 444.28,81.13 444.15,81.44L443.19,83.84L441.54,83.84Z" style="fill:rgb(16,16,16);fill-rule:nonzero;"/>
            <path id="Z" d="M104.9,119.83L104.9,118.08L112.12,109.38L112.45,110.36L105.03,110.36L105.03,108.16L114.85,108.16L114.85,109.91L107.65,118.61L107.32,117.63L115.1,117.63L115.1,119.83L104.9,119.83Z" style="fill:rgb(16,16,16);fill-rule:nonzero;"/>
            <path id="X" d="M139.1,119.83L144.12,112.91L144.12,114.88L139.32,108.16L142.38,108.16L145.7,112.85L144.42,112.86L147.68,108.16L150.62,108.16L145.85,114.76L145.85,112.83L150.9,119.83L147.78,119.83L144.35,114.88L145.58,114.88L142.2,119.83L139.1,119.83Z" style="fill:rgb(16,16,16);fill-rule:nonzero;"/>
            <path id="C" d="M180.75,120.03C179.85,120.03 179.01,119.88 178.24,119.59C177.47,119.29 176.8,118.88 176.23,118.33C175.67,117.79 175.22,117.15 174.91,116.41C174.59,115.68 174.43,114.88 174.43,114C174.43,113.12 174.59,112.31 174.91,111.58C175.22,110.85 175.67,110.21 176.24,109.66C176.81,109.12 177.48,108.7 178.25,108.41C179.02,108.11 179.85,107.96 180.77,107.96C181.78,107.96 182.69,108.14 183.51,108.49C184.32,108.84 185.01,109.35 185.57,110.03L183.83,111.63C183.43,111.18 182.99,110.83 182.5,110.61C182.01,110.38 181.48,110.26 180.9,110.26C180.35,110.26 179.85,110.35 179.4,110.53C178.94,110.71 178.55,110.96 178.22,111.3C177.88,111.63 177.62,112.03 177.44,112.48C177.26,112.94 177.17,113.44 177.17,114C177.17,114.55 177.26,115.06 177.44,115.51C177.62,115.97 177.88,116.36 178.22,116.7C178.55,117.03 178.94,117.29 179.4,117.46C179.85,117.64 180.35,117.73 180.9,117.73C181.48,117.73 182.01,117.62 182.5,117.39C182.99,117.16 183.43,116.81 183.83,116.35L185.57,117.95C185.01,118.63 184.32,119.14 183.51,119.5C182.69,119.85 181.77,120.03 180.75,120.03Z" style="fill:rgb(16,16,16);fill-rule:nonzero;"/>
            <path id="V" d="M213.66,119.83L208.62,108.16L211.54,108.16L215.94,118.5L214.22,118.5L218.69,108.16L221.37,108.16L216.32,119.83L213.66,119.83Z" style="fill:rgb(16,16,16);fill-rule:nonzero;"/>
            <path id="B" d="M244.65,119.83L244.65,108.16L250.35,108.16C251.81,108.16 252.92,108.44 253.66,109C254.4,109.55 254.76,110.29 254.76,111.2C254.76,111.81 254.61,112.34 254.31,112.79C254.01,113.24 253.6,113.59 253.08,113.83C252.56,114.08 251.96,114.2 251.28,114.2L251.6,113.51C252.33,113.51 252.98,113.63 253.55,113.87C254.11,114.11 254.56,114.46 254.87,114.93C255.19,115.4 255.35,115.97 255.35,116.65C255.35,117.65 254.95,118.43 254.16,118.99C253.38,119.55 252.21,119.83 250.68,119.83L244.65,119.83ZM247.33,117.8L250.48,117.8C251.18,117.8 251.71,117.68 252.07,117.46C252.43,117.23 252.61,116.86 252.61,116.36C252.61,115.88 252.43,115.51 252.07,115.27C251.71,115.03 251.18,114.91 250.48,114.91L247.13,114.91L247.13,112.95L250.01,112.95C250.67,112.95 251.17,112.83 251.52,112.61C251.87,112.38 252.05,112.03 252.05,111.56C252.05,111.11 251.87,110.77 251.52,110.54C251.17,110.31 250.67,110.2 250.01,110.2L247.33,110.2L247.33,117.8Z" style="fill:rgb(16,16,16);fill-rule:nonzero;"/>
            <path id="N" d="M279.65,119.83L279.65,108.16L281.88,108.16L288.76,116.56L287.68,116.56L287.68,108.16L290.35,108.16L290.35,119.83L288.13,119.83L281.23,111.43L282.31,111.43L282.31,119.83L279.65,119.83Z" style="fill:rgb(16,16,16);fill-rule:nonzero;"/>
            <path id="M" d="M313.42,119.83L313.42,108.16L315.66,108.16L320.62,116.4L319.44,116.4L324.32,108.16L326.54,108.16L326.57,119.83L324.04,119.83L324.02,112.05L324.49,112.05L320.59,118.6L319.37,118.6L315.39,112.05L315.96,112.05L315.96,119.83L313.42,119.83Z" style="fill:rgb(16,16,16);fill-rule:nonzero;"/>
            <path id="_-8" serif:id="," d="M353.56,119.83L354.66,115.83L355.02,117.33C354.54,117.33 354.15,117.19 353.85,116.91C353.54,116.64 353.39,116.25 353.39,115.76C353.39,115.28 353.55,114.89 353.86,114.6C354.17,114.31 354.55,114.16 355.01,114.16C355.47,114.16 355.86,114.31 356.16,114.61C356.46,114.9 356.61,115.29 356.61,115.76C356.61,115.91 356.59,116.05 356.57,116.19C356.55,116.33 356.51,116.5 356.45,116.69C356.39,116.88 356.29,117.13 356.16,117.43L355.21,119.83L353.56,119.83Z" style="fill:rgb(16,16,16);fill-rule:nonzero;"/>
            <path id="_." serif:id="." d="M390,119.83C389.55,119.83 389.17,119.68 388.86,119.37C388.54,119.07 388.38,118.68 388.38,118.2C388.38,117.72 388.54,117.33 388.86,117.04C389.17,116.74 389.55,116.6 390,116.6C390.45,116.6 390.84,116.74 391.15,117.04C391.46,117.33 391.61,117.72 391.61,118.2C391.61,118.68 391.46,119.07 391.15,119.37C390.84,119.68 390.45,119.83 390,119.83Z" style="fill:rgb(16,16,16);fill-rule:nonzero;"/>
            <path id="_-9" serif:id="/" d="M421.09,121.85L426.59,106.15L428.9,106.15L423.41,121.85L421.09,121.85Z" style="fill:rgb(16,16,16);fill-rule:nonzero;"/>
        </g>
        <g id="function-keys">
            <path d="M474.1,26.91L474.1,21.08L476.95,21.08C477.69,21.08 478.24,21.22 478.61,21.5C478.98,21.78 479.16,22.14 479.16,22.6C479.16,22.9 479.09,23.17 478.94,23.39C478.79,23.62 478.58,23.79 478.32,23.91C478.06,24.04 477.76,24.1 477.42,24.1L477.58,23.76C477.94,23.76 478.27,23.82 478.55,23.94C478.84,24.06 479.06,24.23 479.22,24.47C479.37,24.7 479.45,24.98 479.45,25.32C479.45,25.82 479.26,26.21 478.86,26.49C478.47,26.77 477.89,26.91 477.12,26.91L474.1,26.91ZM475.44,25.9L477.02,25.9C477.37,25.9 477.63,25.84 477.81,25.73C478,25.61 478.09,25.43 478.09,25.18C478.09,24.94 478,24.75 477.81,24.64C477.63,24.52 477.37,24.46 477.02,24.46L475.34,24.46L475.34,23.47L476.79,23.47C477.11,23.47 477.36,23.42 477.54,23.3C477.71,23.19 477.8,23.01 477.8,22.78C477.8,22.55 477.71,22.38 477.54,22.27C477.36,22.16 477.11,22.1 476.79,22.1L475.44,22.1L475.44,25.9ZM479.71,26.91L482.31,21.08L483.64,21.08L486.25,26.91L484.84,26.91L482.7,21.76L483.24,21.76L481.09,26.91L479.71,26.91ZM481.01,25.67L481.37,24.64L484.37,24.64L484.74,25.67L481.01,25.67ZM489.57,27.02C489.12,27.02 488.7,26.94 488.31,26.79C487.93,26.65 487.59,26.44 487.31,26.16C487.03,25.89 486.81,25.57 486.65,25.21C486.49,24.84 486.41,24.44 486.41,24C486.41,23.56 486.49,23.16 486.65,22.79C486.81,22.42 487.03,22.1 487.32,21.83C487.6,21.56 487.94,21.35 488.32,21.2C488.7,21.05 489.12,20.98 489.58,20.98C490.08,20.98 490.54,21.07 490.95,21.24C491.36,21.42 491.7,21.68 491.98,22.01L491.11,22.81C490.91,22.59 490.69,22.42 490.44,22.3C490.2,22.19 489.93,22.13 489.64,22.13C489.37,22.13 489.12,22.18 488.89,22.26C488.67,22.35 488.47,22.48 488.3,22.65C488.14,22.81 488.01,23.01 487.92,23.24C487.82,23.47 487.78,23.72 487.78,24C487.78,24.28 487.82,24.53 487.92,24.76C488.01,24.98 488.14,25.18 488.3,25.35C488.47,25.52 488.67,25.64 488.89,25.73C489.12,25.82 489.37,25.86 489.64,25.86C489.93,25.86 490.2,25.81 490.44,25.69C490.69,25.58 490.91,25.41 491.11,25.17L491.98,25.97C491.7,26.31 491.36,26.57 490.95,26.75C490.54,26.93 490.08,27.02 489.57,27.02ZM494.1,25.58L494.02,24.02L496.81,21.08L498.31,21.08L495.79,23.79L495.04,24.59L494.1,25.58ZM492.89,26.91L492.89,21.08L494.23,21.08L494.23,26.91L492.89,26.91ZM496.88,26.91L494.8,24.37L495.69,23.41L498.45,26.91L496.88,26.91ZM500.85,27.02C500.38,27.02 499.93,26.95 499.5,26.83C499.08,26.7 498.73,26.54 498.47,26.34L498.93,25.32C499.18,25.5 499.48,25.65 499.82,25.76C500.16,25.87 500.5,25.93 500.85,25.93C501.12,25.93 501.34,25.91 501.5,25.85C501.66,25.8 501.79,25.73 501.86,25.63C501.94,25.54 501.98,25.43 501.98,25.31C501.98,25.15 501.92,25.03 501.8,24.94C501.67,24.84 501.51,24.77 501.31,24.71C501.11,24.65 500.89,24.6 500.65,24.54C500.41,24.49 500.17,24.43 499.93,24.35C499.68,24.27 499.46,24.17 499.26,24.05C499.06,23.93 498.9,23.76 498.77,23.56C498.65,23.36 498.59,23.11 498.59,22.8C498.59,22.46 498.68,22.16 498.86,21.89C499.04,21.61 499.31,21.39 499.67,21.23C500.04,21.06 500.5,20.98 501.05,20.98C501.41,20.98 501.77,21.02 502.13,21.11C502.48,21.2 502.8,21.33 503.07,21.5L502.65,22.52C502.38,22.37 502.11,22.25 501.84,22.18C501.57,22.1 501.3,22.06 501.04,22.06C500.78,22.06 500.56,22.09 500.4,22.16C500.23,22.22 500.11,22.3 500.04,22.39C499.97,22.49 499.93,22.6 499.93,22.73C499.93,22.88 499.99,23 500.11,23.09C500.23,23.19 500.4,23.26 500.6,23.31C500.8,23.37 501.02,23.43 501.26,23.48C501.5,23.54 501.74,23.6 501.98,23.67C502.22,23.74 502.45,23.84 502.65,23.96C502.85,24.09 503.01,24.25 503.13,24.45C503.26,24.65 503.32,24.9 503.32,25.21C503.32,25.53 503.23,25.83 503.05,26.11C502.86,26.38 502.59,26.6 502.22,26.76C501.86,26.93 501.4,27.02 500.85,27.02ZM504.25,26.91L504.25,21.08L506.77,21.08C507.29,21.08 507.74,21.17 508.12,21.34C508.5,21.5 508.79,21.75 509,22.06C509.2,22.38 509.31,22.76 509.31,23.2C509.31,23.63 509.2,24.01 509,24.32C508.79,24.64 508.5,24.88 508.12,25.05C507.74,25.22 507.29,25.31 506.77,25.31L505,25.31L505.6,24.7L505.6,26.91L504.25,26.91ZM505.6,24.85L505,24.21L506.7,24.21C507.11,24.21 507.42,24.12 507.63,23.94C507.84,23.76 507.94,23.51 507.94,23.2C507.94,22.88 507.84,22.63 507.63,22.45C507.42,22.27 507.11,22.18 506.7,22.18L505,22.18L505.6,21.54L505.6,24.85ZM509.2,26.91L511.8,21.08L513.14,21.08L515.75,26.91L514.33,26.91L512.2,21.76L512.73,21.76L510.59,26.91L509.2,26.91ZM510.5,25.67L510.86,24.64L513.86,24.64L514.23,25.67L510.5,25.67ZM519.06,27.02C518.61,27.02 518.19,26.94 517.81,26.79C517.42,26.65 517.09,26.44 516.8,26.16C516.52,25.89 516.3,25.57 516.14,25.21C515.98,24.84 515.9,24.44 515.9,24C515.9,23.56 515.98,23.16 516.14,22.79C516.3,22.42 516.52,22.1 516.81,21.83C517.09,21.56 517.43,21.35 517.81,21.2C518.2,21.05 518.62,20.98 519.07,20.98C519.58,20.98 520.03,21.07 520.44,21.24C520.85,21.42 521.19,21.68 521.47,22.01L520.61,22.81C520.4,22.59 520.18,22.42 519.94,22.3C519.69,22.19 519.43,22.13 519.14,22.13C518.87,22.13 518.62,22.18 518.39,22.26C518.16,22.35 517.96,22.48 517.8,22.65C517.63,22.81 517.5,23.01 517.41,23.24C517.32,23.47 517.27,23.72 517.27,24C517.27,24.28 517.32,24.53 517.41,24.76C517.5,24.98 517.63,25.18 517.8,25.35C517.96,25.52 518.16,25.64 518.39,25.73C518.62,25.82 518.87,25.86 519.14,25.86C519.43,25.86 519.69,25.81 519.94,25.69C520.18,25.58 520.4,25.41 520.61,25.17L521.47,25.97C521.19,26.31 520.85,26.57 520.44,26.75C520.03,26.93 519.57,27.02 519.06,27.02ZM523.62,23.43L526.43,23.43L526.43,24.48L523.62,24.48L523.62,23.43ZM523.72,25.83L526.9,25.83L526.9,26.91L522.38,26.91L522.38,21.08L526.79,21.08L526.79,22.16L523.72,22.16L523.72,25.83Z" style="fill:rgb(16,16,16);fill-rule:nonzero;"/>
            <path d="M29.24,56.91L29.24,52.18L27.37,52.18L27.37,51.08L32.46,51.08L32.46,52.18L30.59,52.18L30.59,56.91L29.24,56.91ZM32.12,56.91L34.72,51.08L36.06,51.08L38.67,56.91L37.25,56.91L35.12,51.76L35.65,51.76L33.51,56.91L32.12,56.91ZM33.42,55.67L33.78,54.64L36.78,54.64L37.15,55.67L33.42,55.67ZM39.28,56.91L39.28,51.08L42.13,51.08C42.86,51.08 43.41,51.22 43.78,51.5C44.15,51.78 44.33,52.14 44.33,52.6C44.33,52.9 44.26,53.17 44.11,53.39C43.96,53.62 43.75,53.79 43.49,53.91C43.23,54.04 42.93,54.1 42.59,54.1L42.75,53.76C43.12,53.76 43.44,53.82 43.73,53.94C44.01,54.06 44.23,54.23 44.39,54.47C44.55,54.7 44.63,54.98 44.63,55.32C44.63,55.82 44.43,56.21 44.03,56.49C43.64,56.77 43.06,56.91 42.29,56.91L39.28,56.91ZM40.62,55.9L42.19,55.9C42.54,55.9 42.81,55.84 42.99,55.73C43.17,55.61 43.26,55.43 43.26,55.18C43.26,54.94 43.17,54.75 42.99,54.64C42.81,54.52 42.54,54.46 42.19,54.46L40.52,54.46L40.52,53.47L41.96,53.47C42.29,53.47 42.54,53.42 42.71,53.3C42.89,53.19 42.98,53.01 42.98,52.78C42.98,52.55 42.89,52.38 42.71,52.27C42.54,52.16 42.29,52.1 41.96,52.1L40.62,52.1L40.62,55.9Z" style="fill:rgb(16,16,16);fill-rule:nonzero;"/>
            <path d="M21.76,87.02C21.31,87.02 20.89,86.94 20.5,86.8C20.12,86.65 19.78,86.44 19.5,86.17C19.21,85.89 18.99,85.57 18.84,85.21C18.68,84.84 18.6,84.44 18.6,84C18.6,83.56 18.68,83.16 18.84,82.79C18.99,82.42 19.22,82.1 19.5,81.83C19.79,81.56 20.12,81.35 20.51,81.2C20.89,81.06 21.31,80.98 21.76,80.98C22.27,80.98 22.73,81.07 23.14,81.24C23.54,81.42 23.89,81.68 24.17,82.02L23.3,82.82C23.1,82.59 22.88,82.42 22.63,82.3C22.39,82.19 22.12,82.13 21.83,82.13C21.56,82.13 21.31,82.18 21.08,82.27C20.85,82.35 20.66,82.48 20.49,82.65C20.32,82.82 20.19,83.01 20.1,83.24C20.01,83.47 19.96,83.72 19.96,84C19.96,84.28 20.01,84.53 20.1,84.76C20.19,84.99 20.32,85.18 20.49,85.35C20.66,85.52 20.85,85.64 21.08,85.73C21.31,85.82 21.56,85.87 21.83,85.87C22.12,85.87 22.39,85.81 22.63,85.69C22.88,85.58 23.1,85.41 23.3,85.17L24.17,85.97C23.89,86.31 23.54,86.57 23.14,86.75C22.73,86.93 22.27,87.02 21.76,87.02ZM24.19,86.92L26.79,81.08L28.12,81.08L30.73,86.92L29.31,86.92L27.18,81.77L27.71,81.77L25.57,86.92L24.19,86.92ZM25.49,85.67L25.85,84.64L28.85,84.64L29.21,85.67L25.49,85.67ZM31.34,86.92L31.34,81.08L33.87,81.08C34.39,81.08 34.84,81.17 35.22,81.34C35.59,81.51 35.89,81.75 36.09,82.07C36.3,82.38 36.4,82.76 36.4,83.2C36.4,83.63 36.3,84.01 36.09,84.32C35.89,84.64 35.59,84.88 35.22,85.05C34.84,85.22 34.39,85.31 33.87,85.31L32.09,85.31L32.69,84.7L32.69,86.92L31.34,86.92ZM32.69,84.85L32.09,84.21L33.79,84.21C34.21,84.21 34.52,84.12 34.72,83.94C34.93,83.76 35.03,83.52 35.03,83.2C35.03,82.88 34.93,82.63 34.72,82.45C34.52,82.27 34.21,82.18 33.79,82.18L32.09,82.18L32.69,81.54L32.69,84.85ZM39.36,87.02C38.89,87.02 38.44,86.95 38.02,86.83C37.59,86.7 37.24,86.54 36.98,86.34L37.44,85.32C37.69,85.5 37.99,85.65 38.33,85.76C38.67,85.88 39.02,85.93 39.37,85.93C39.63,85.93 39.85,85.91 40.01,85.85C40.18,85.8 40.3,85.73 40.37,85.63C40.45,85.54 40.49,85.43 40.49,85.31C40.49,85.15 40.43,85.03 40.31,84.94C40.18,84.85 40.02,84.77 39.82,84.71C39.62,84.65 39.4,84.6 39.16,84.55C38.92,84.49 38.68,84.43 38.44,84.35C38.19,84.27 37.97,84.17 37.77,84.05C37.57,83.93 37.41,83.77 37.29,83.57C37.16,83.37 37.1,83.11 37.1,82.8C37.1,82.47 37.19,82.16 37.37,81.89C37.55,81.61 37.82,81.39 38.19,81.23C38.55,81.06 39.01,80.98 39.56,80.98C39.92,80.98 40.29,81.03 40.64,81.11C41,81.2 41.31,81.33 41.58,81.5L41.17,82.52C40.89,82.37 40.62,82.25 40.35,82.18C40.08,82.1 39.81,82.07 39.55,82.07C39.29,82.07 39.07,82.1 38.91,82.16C38.74,82.22 38.62,82.3 38.55,82.39C38.48,82.49 38.44,82.61 38.44,82.73C38.44,82.88 38.5,83 38.62,83.1C38.75,83.19 38.91,83.26 39.11,83.32C39.31,83.37 39.53,83.43 39.77,83.48C40.01,83.54 40.25,83.6 40.5,83.67C40.74,83.75 40.96,83.84 41.16,83.97C41.36,84.09 41.52,84.25 41.64,84.45C41.77,84.65 41.83,84.9 41.83,85.21C41.83,85.54 41.74,85.84 41.56,86.11C41.37,86.38 41.1,86.6 40.74,86.77C40.37,86.93 39.91,87.02 39.36,87.02ZM42.76,86.92L42.76,81.08L44.11,81.08L44.11,85.82L47.03,85.82L47.03,86.92L42.76,86.92ZM50.53,87.02C50.06,87.02 49.64,86.94 49.25,86.79C48.85,86.64 48.51,86.43 48.23,86.16C47.94,85.89 47.72,85.57 47.56,85.2C47.4,84.83 47.32,84.43 47.32,84C47.32,83.57 47.4,83.17 47.56,82.8C47.72,82.43 47.94,82.11 48.23,81.84C48.52,81.57 48.86,81.36 49.25,81.21C49.64,81.06 50.06,80.98 50.52,80.98C50.98,80.98 51.4,81.06 51.79,81.21C52.17,81.36 52.51,81.57 52.8,81.84C53.08,82.11 53.31,82.43 53.47,82.8C53.63,83.16 53.71,83.56 53.71,84C53.71,84.43 53.63,84.83 53.47,85.2C53.31,85.57 53.08,85.89 52.8,86.16C52.51,86.43 52.17,86.64 51.79,86.79C51.4,86.94 50.98,87.02 50.53,87.02ZM50.52,85.87C50.78,85.87 51.02,85.82 51.24,85.73C51.46,85.64 51.65,85.52 51.82,85.35C51.98,85.18 52.11,84.99 52.2,84.76C52.3,84.53 52.34,84.28 52.34,84C52.34,83.72 52.3,83.47 52.2,83.24C52.11,83.01 51.99,82.82 51.82,82.65C51.66,82.48 51.46,82.35 51.24,82.27C51.02,82.18 50.78,82.13 50.52,82.13C50.26,82.13 50.01,82.18 49.8,82.27C49.58,82.35 49.38,82.48 49.22,82.65C49.05,82.82 48.92,83.01 48.83,83.24C48.74,83.47 48.69,83.72 48.69,84C48.69,84.27 48.74,84.52 48.83,84.75C48.92,84.98 49.05,85.18 49.21,85.35C49.38,85.52 49.57,85.64 49.79,85.73C50.01,85.82 50.26,85.87 50.52,85.87ZM57.52,87.02C57.07,87.02 56.65,86.94 56.26,86.8C55.88,86.65 55.54,86.44 55.26,86.17C54.97,85.89 54.75,85.57 54.6,85.21C54.44,84.84 54.36,84.44 54.36,84C54.36,83.56 54.44,83.16 54.6,82.79C54.75,82.42 54.98,82.1 55.26,81.83C55.55,81.56 55.88,81.35 56.27,81.2C56.65,81.06 57.07,80.98 57.52,80.98C58.03,80.98 58.49,81.07 58.9,81.24C59.3,81.42 59.65,81.68 59.93,82.02L59.06,82.82C58.86,82.59 58.64,82.42 58.39,82.3C58.15,82.19 57.88,82.13 57.59,82.13C57.32,82.13 57.07,82.18 56.84,82.27C56.61,82.35 56.42,82.48 56.25,82.65C56.08,82.82 55.95,83.01 55.86,83.24C55.77,83.47 55.72,83.72 55.72,84C55.72,84.28 55.77,84.53 55.86,84.76C55.95,84.99 56.08,85.18 56.25,85.35C56.42,85.52 56.61,85.64 56.84,85.73C57.07,85.82 57.32,85.87 57.59,85.87C57.88,85.87 58.15,85.81 58.39,85.69C58.64,85.58 58.86,85.41 59.06,85.17L59.93,85.97C59.65,86.31 59.3,86.57 58.9,86.75C58.49,86.93 58.03,87.02 57.52,87.02ZM62.04,85.58L61.97,84.02L64.76,81.08L66.26,81.08L63.74,83.79L62.99,84.59L62.04,85.58ZM60.83,86.92L60.83,81.08L62.18,81.08L62.18,86.92L60.83,86.92ZM64.82,86.92L62.75,84.37L63.63,83.42L66.4,86.92L64.82,86.92Z" style="fill:rgb(16,16,16);fill-rule:nonzero;"/>
            <path d="M40.86,117.02C40.39,117.02 39.94,116.95 39.51,116.83C39.09,116.7 38.74,116.54 38.48,116.34L38.94,115.32C39.19,115.5 39.49,115.65 39.83,115.76C40.17,115.87 40.51,115.93 40.86,115.93C41.13,115.93 41.35,115.91 41.51,115.85C41.67,115.8 41.8,115.73 41.87,115.63C41.95,115.54 41.99,115.43 41.99,115.31C41.99,115.15 41.93,115.03 41.81,114.94C41.68,114.84 41.52,114.77 41.32,114.71C41.12,114.65 40.9,114.6 40.66,114.54C40.42,114.49 40.18,114.43 39.94,114.35C39.69,114.27 39.47,114.17 39.27,114.05C39.07,113.93 38.91,113.76 38.79,113.56C38.66,113.36 38.6,113.11 38.6,112.8C38.6,112.46 38.69,112.16 38.87,111.89C39.05,111.61 39.32,111.39 39.69,111.23C40.05,111.06 40.51,110.98 41.06,110.98C41.42,110.98 41.78,111.02 42.14,111.11C42.49,111.2 42.81,111.33 43.08,111.5L42.66,112.52C42.39,112.37 42.12,112.25 41.85,112.18C41.58,112.1 41.31,112.06 41.05,112.06C40.79,112.06 40.57,112.09 40.41,112.16C40.24,112.22 40.12,112.3 40.05,112.39C39.98,112.49 39.94,112.6 39.94,112.73C39.94,112.88 40,113 40.12,113.09C40.24,113.19 40.41,113.26 40.61,113.31C40.81,113.37 41.03,113.43 41.27,113.48C41.51,113.54 41.75,113.6 41.99,113.67C42.24,113.74 42.46,113.84 42.66,113.96C42.86,114.09 43.02,114.25 43.14,114.45C43.27,114.65 43.33,114.9 43.33,115.21C43.33,115.53 43.24,115.83 43.06,116.11C42.87,116.38 42.6,116.6 42.24,116.76C41.87,116.93 41.41,117.02 40.86,117.02ZM48.26,111.08L49.61,111.08L49.61,116.91L48.26,116.91L48.26,111.08ZM45.61,116.91L44.26,116.91L44.26,111.08L45.61,111.08L45.61,116.91ZM48.36,114.52L45.51,114.52L45.51,113.38L48.36,113.38L48.36,114.52ZM50.99,116.91L50.99,111.08L52.34,111.08L52.34,116.91L50.99,116.91ZM54.97,113.71L57.77,113.71L57.77,114.79L54.97,114.79L54.97,113.71ZM55.07,116.91L53.72,116.91L53.72,111.08L58.13,111.08L58.13,112.16L55.07,112.16L55.07,116.91ZM60.3,116.91L60.3,112.18L58.43,112.18L58.43,111.08L63.51,111.08L63.51,112.18L61.65,112.18L61.65,116.91L60.3,116.91Z" style="fill:rgb(16,16,16);fill-rule:nonzero;"/>
            <path d="M22.17,147.02C21.72,147.02 21.31,146.94 20.92,146.79C20.53,146.65 20.2,146.44 19.92,146.16C19.63,145.89 19.41,145.57 19.25,145.21C19.09,144.84 19.02,144.44 19.02,144C19.02,143.56 19.09,143.16 19.25,142.79C19.41,142.42 19.63,142.1 19.92,141.83C20.21,141.56 20.54,141.35 20.92,141.2C21.31,141.05 21.73,140.98 22.18,140.98C22.69,140.98 23.14,141.07 23.55,141.24C23.96,141.42 24.3,141.68 24.58,142.01L23.72,142.81C23.52,142.59 23.29,142.42 23.05,142.3C22.8,142.19 22.54,142.13 22.25,142.13C21.98,142.13 21.73,142.18 21.5,142.26C21.27,142.35 21.07,142.48 20.91,142.65C20.74,142.81 20.61,143.01 20.52,143.24C20.43,143.47 20.38,143.72 20.38,144C20.38,144.28 20.43,144.53 20.52,144.76C20.61,144.98 20.74,145.18 20.91,145.35C21.07,145.52 21.27,145.64 21.5,145.73C21.73,145.82 21.98,145.86 22.25,145.86C22.54,145.86 22.8,145.81 23.05,145.69C23.29,145.58 23.52,145.41 23.72,145.17L24.58,145.97C24.3,146.31 23.96,146.57 23.55,146.75C23.14,146.93 22.69,147.02 22.17,147.02ZM26.64,146.91L26.64,142.18L24.77,142.18L24.77,141.08L29.86,141.08L29.86,142.18L27.99,142.18L27.99,146.91L26.64,146.91ZM30.58,146.91L30.58,141.08L33.11,141.08C33.63,141.08 34.08,141.17 34.46,141.34C34.84,141.5 35.13,141.75 35.34,142.06C35.54,142.38 35.64,142.76 35.64,143.2C35.64,143.63 35.54,144 35.34,144.32C35.13,144.63 34.84,144.87 34.46,145.04C34.08,145.21 33.63,145.29 33.11,145.29L31.33,145.29L31.93,144.7L31.93,146.91L30.58,146.91ZM34.29,146.91L32.83,144.8L34.28,144.8L35.75,146.91L34.29,146.91ZM31.93,144.85L31.33,144.21L33.03,144.21C33.45,144.21 33.76,144.12 33.97,143.94C34.17,143.76 34.28,143.51 34.28,143.2C34.28,142.88 34.17,142.63 33.97,142.45C33.76,142.27 33.45,142.18 33.03,142.18L31.33,142.18L31.93,141.54L31.93,144.85ZM36.71,146.91L36.71,141.08L38.06,141.08L38.06,145.82L40.98,145.82L40.98,146.91L36.71,146.91Z" style="fill:rgb(16,16,16);fill-rule:nonzero;"/>
            <path d="M63.83,146.91L61.92,141.08L63.32,141.08L64.98,146.25L64.28,146.25L66.01,141.08L67.26,141.08L68.93,146.25L68.25,146.25L69.95,141.08L71.25,141.08L69.34,146.91L67.89,146.91L66.41,142.38L66.79,142.38L65.28,146.91L63.83,146.91ZM72,146.91L72,141.08L73.35,141.08L73.35,146.91L72,146.91ZM74.73,146.91L74.73,141.08L75.84,141.08L79.29,145.28L78.75,145.28L78.75,141.08L80.08,141.08L80.08,146.91L78.97,146.91L75.52,142.71L76.06,142.71L76.06,146.91L74.73,146.91Z" style="fill:rgb(16,16,16);fill-rule:nonzero;"/>
            <path d="M384.96,146.91L387.56,141.08L388.9,141.08L391.5,146.91L390.09,146.91L387.96,141.76L388.49,141.76L386.35,146.91L384.96,146.91ZM386.26,145.67L386.62,144.64L389.62,144.64L389.99,145.67L386.26,145.67ZM392.11,146.91L392.11,141.08L393.46,141.08L393.46,145.82L396.39,145.82L396.39,146.91L392.11,146.91ZM397.81,146.91L397.81,142.18L395.95,142.18L395.95,141.08L401.03,141.08L401.03,142.18L399.16,142.18L399.16,146.91L397.81,146.91Z" style="fill:rgb(16,16,16);fill-rule:nonzero;"/>
            <path d="M426.83,146.91L424.92,141.08L426.32,141.08L427.98,146.25L427.28,146.25L429.01,141.08L430.26,141.08L431.93,146.25L431.25,146.25L432.95,141.08L434.25,141.08L432.34,146.91L430.89,146.91L429.41,142.38L429.8,142.38L428.28,146.91L426.83,146.91ZM435,146.91L435,141.08L436.35,141.08L436.35,146.91L435,146.91ZM437.73,146.91L437.73,141.08L438.85,141.08L442.29,145.28L441.75,145.28L441.75,141.08L443.08,141.08L443.08,146.91L441.97,146.91L438.52,142.71L439.06,142.71L439.06,146.91L437.73,146.91Z" style="fill:rgb(16,16,16);fill-rule:nonzero;"/>
            <path d="M508.18,147.02C507.73,147.02 507.31,146.94 506.93,146.79C506.54,146.65 506.21,146.44 505.92,146.16C505.64,145.89 505.42,145.57 505.26,145.21C505.1,144.84 505.02,144.44 505.02,144C505.02,143.56 505.1,143.16 505.26,142.79C505.42,142.42 505.64,142.1 505.93,141.83C506.21,141.56 506.55,141.35 506.93,141.2C507.31,141.05 507.73,140.98 508.19,140.98C508.69,140.98 509.15,141.07 509.56,141.24C509.97,141.42 510.31,141.68 510.59,142.01L509.72,142.81C509.52,142.59 509.3,142.42 509.06,142.3C508.81,142.19 508.54,142.13 508.26,142.13C507.98,142.13 507.73,142.18 507.51,142.26C507.28,142.35 507.08,142.48 506.91,142.65C506.75,142.81 506.62,143.01 506.53,143.24C506.43,143.47 506.39,143.72 506.39,144C506.39,144.28 506.43,144.53 506.53,144.76C506.62,144.98 506.75,145.18 506.91,145.35C507.08,145.52 507.28,145.64 507.51,145.73C507.73,145.82 507.98,145.86 508.26,145.86C508.54,145.86 508.81,145.81 509.06,145.69C509.3,145.58 509.52,145.41 509.72,145.17L510.59,145.97C510.31,146.31 509.97,146.57 509.56,146.75C509.15,146.93 508.69,147.02 508.18,147.02ZM512.65,146.91L512.65,142.18L510.78,142.18L510.78,141.08L515.86,141.08L515.86,142.18L514,142.18L514,146.91L512.65,146.91ZM516.59,146.91L516.59,141.08L519.12,141.08C519.64,141.08 520.09,141.17 520.47,141.34C520.84,141.5 521.14,141.75 521.34,142.06C521.55,142.38 521.65,142.76 521.65,143.2C521.65,143.63 521.55,144 521.34,144.32C521.14,144.63 520.84,144.87 520.47,145.04C520.09,145.21 519.64,145.29 519.12,145.29L517.34,145.29L517.94,144.7L517.94,146.91L516.59,146.91ZM520.3,146.91L518.84,144.8L520.28,144.8L521.76,146.91L520.3,146.91ZM517.94,144.85L517.34,144.21L519.04,144.21C519.46,144.21 519.77,144.12 519.97,143.94C520.18,143.76 520.28,143.51 520.28,143.2C520.28,142.88 520.18,142.63 519.97,142.45C519.77,142.27 519.46,142.18 519.04,142.18L517.34,142.18L517.94,141.54L517.94,144.85ZM522.72,146.91L522.72,141.08L524.07,141.08L524.07,145.82L526.99,145.82L526.99,146.91L522.72,146.91Z" style="fill:rgb(16,16,16);fill-rule:nonzero;"/>
            <path d="M462.24,146.86L462.24,141.03L463.36,141.03L465.84,145.15L465.25,145.15L467.69,141.03L468.8,141.03L468.82,146.86L467.55,146.86L467.54,142.97L467.78,142.97L465.83,146.25L465.22,146.25L463.23,142.97L463.51,142.97L463.51,146.86L462.24,146.86ZM471.44,143.38L474.25,143.38L474.25,144.43L471.44,144.43L471.44,143.38ZM471.54,145.78L474.72,145.78L474.72,146.86L470.2,146.86L470.2,141.03L474.61,141.03L474.61,142.11L471.54,142.11L471.54,145.78ZM475.8,146.86L475.8,141.03L476.91,141.03L480.35,145.23L479.81,145.23L479.81,141.03L481.15,141.03L481.15,146.86L480.04,146.86L476.59,142.66L477.13,142.66L477.13,146.86L475.8,146.86ZM485.12,146.96C484.29,146.96 483.64,146.73 483.18,146.27C482.71,145.81 482.48,145.15 482.48,144.3L482.48,141.03L483.83,141.03L483.83,144.25C483.83,144.8 483.94,145.2 484.17,145.45C484.4,145.69 484.72,145.81 485.13,145.81C485.54,145.81 485.86,145.69 486.09,145.45C486.31,145.2 486.43,144.8 486.43,144.25L486.43,141.03L487.76,141.03L487.76,144.3C487.76,145.15 487.53,145.81 487.06,146.27C486.6,146.73 485.95,146.96 485.12,146.96Z" style="fill:rgb(16,16,16);fill-rule:nonzero;"/>
            <path d="M479.36,117.02C478.89,117.02 478.44,116.95 478.01,116.83C477.58,116.7 477.24,116.54 476.98,116.34L477.44,115.32C477.69,115.5 477.98,115.65 478.33,115.76C478.67,115.87 479.01,115.93 479.36,115.93C479.63,115.93 479.85,115.91 480.01,115.85C480.17,115.8 480.29,115.73 480.37,115.63C480.45,115.54 480.49,115.43 480.49,115.31C480.49,115.15 480.43,115.03 480.3,114.94C480.18,114.84 480.02,114.77 479.82,114.71C479.62,114.65 479.4,114.6 479.16,114.54C478.92,114.49 478.67,114.43 478.43,114.35C478.19,114.27 477.97,114.17 477.77,114.05C477.57,113.93 477.41,113.76 477.28,113.56C477.16,113.36 477.1,113.11 477.1,112.8C477.1,112.46 477.19,112.16 477.37,111.89C477.55,111.61 477.82,111.39 478.18,111.23C478.55,111.06 479,110.98 479.55,110.98C479.92,110.98 480.28,111.02 480.64,111.11C480.99,111.2 481.31,111.33 481.58,111.5L481.16,112.52C480.89,112.37 480.62,112.25 480.35,112.18C480.07,112.1 479.81,112.06 479.55,112.06C479.29,112.06 479.07,112.09 478.91,112.16C478.74,112.22 478.62,112.3 478.55,112.39C478.47,112.49 478.44,112.6 478.44,112.73C478.44,112.88 478.5,113 478.62,113.09C478.74,113.19 478.91,113.26 479.1,113.31C479.3,113.37 479.53,113.43 479.77,113.48C480.01,113.54 480.25,113.6 480.49,113.67C480.73,113.74 480.95,113.84 481.16,113.96C481.35,114.09 481.52,114.25 481.64,114.45C481.77,114.65 481.83,114.9 481.83,115.21C481.83,115.53 481.74,115.83 481.55,116.11C481.37,116.38 481.1,116.6 480.73,116.76C480.37,116.93 479.91,117.02 479.36,117.02ZM486.76,111.08L488.11,111.08L488.11,116.91L486.76,116.91L486.76,111.08ZM484.11,116.91L482.76,116.91L482.76,111.08L484.11,111.08L484.11,116.91ZM486.86,114.52L484.01,114.52L484.01,113.38L486.86,113.38L486.86,114.52ZM489.49,116.91L489.49,111.08L490.84,111.08L490.84,116.91L489.49,116.91ZM493.47,113.71L496.27,113.71L496.27,114.79L493.47,114.79L493.47,113.71ZM493.57,116.91L492.22,116.91L492.22,111.08L496.63,111.08L496.63,112.16L493.57,112.16L493.57,116.91ZM498.8,116.91L498.8,112.18L496.93,112.18L496.93,111.08L502.01,111.08L502.01,112.18L500.15,112.18L500.15,116.91L498.8,116.91Z" style="fill:rgb(16,16,16);fill-rule:nonzero;"/>
            <path d="M485.62,83.43L488.43,83.43L488.43,84.48L485.62,84.48L485.62,83.43ZM485.72,85.83L488.9,85.83L488.9,86.91L484.38,86.91L484.38,81.08L488.79,81.08L488.79,82.16L485.72,82.16L485.72,85.83ZM489.97,86.91L489.97,81.08L491.09,81.08L494.53,85.28L493.99,85.28L493.99,81.08L495.32,81.08L495.32,86.91L494.21,86.91L490.76,82.71L491.31,82.71L491.31,86.91L489.97,86.91ZM497.91,86.91L497.91,82.18L496.05,82.18L496.05,81.08L501.13,81.08L501.13,82.18L499.26,82.18L499.26,86.91L497.91,86.91ZM503.1,83.43L505.91,83.43L505.91,84.48L503.1,84.48L503.1,83.43ZM503.2,85.83L506.37,85.83L506.37,86.91L501.86,86.91L501.86,81.08L506.26,81.08L506.26,82.16L503.2,82.16L503.2,85.83ZM507.45,86.91L507.45,81.08L509.97,81.08C510.5,81.08 510.95,81.17 511.32,81.34C511.7,81.5 511.99,81.75 512.2,82.06C512.4,82.38 512.51,82.76 512.51,83.2C512.51,83.63 512.4,84 512.2,84.32C511.99,84.63 511.7,84.87 511.32,85.04C510.95,85.21 510.5,85.29 509.97,85.29L508.2,85.29L508.8,84.7L508.8,86.91L507.45,86.91ZM511.16,86.91L509.7,84.8L511.14,84.8L512.61,86.91L511.16,86.91ZM508.8,84.85L508.2,84.21L509.9,84.21C510.32,84.21 510.63,84.12 510.83,83.94C511.04,83.76 511.14,83.51 511.14,83.2C511.14,82.88 511.04,82.63 510.83,82.45C510.63,82.27 510.32,82.18 509.9,82.18L508.2,82.18L508.8,81.54L508.8,84.85Z" style="fill:rgb(16,16,16);fill-rule:nonzero;"/>
            <path d="M103.97,146.91L106.57,141.08L107.9,141.08L110.51,146.91L109.09,146.91L106.96,141.76L107.49,141.76L105.35,146.91L103.97,146.91ZM105.27,145.67L105.62,144.64L108.62,144.64L108.99,145.67L105.27,145.67ZM111.12,146.91L111.12,141.08L112.47,141.08L112.47,145.82L115.39,145.82L115.39,146.91L111.12,146.91ZM116.82,146.91L116.82,142.18L114.95,142.18L114.95,141.08L120.03,141.08L120.03,142.18L118.17,142.18L118.17,146.91L116.82,146.91Z" style="fill:rgb(16,16,16);fill-rule:nonzero;"/>
            <path d="M234.11,146.91L234.11,141.08L239.42,141.08L239.42,146.91L238.08,146.91L238.08,141.87L238.39,142.18L235.14,142.18L235.45,141.87L235.45,146.91L234.11,146.91ZM240.87,146.91L240.87,141.08L243.4,141.08C243.92,141.08 244.37,141.17 244.75,141.34C245.13,141.5 245.42,141.75 245.62,142.06C245.83,142.38 245.93,142.76 245.93,143.2C245.93,143.63 245.83,144.01 245.62,144.32C245.42,144.64 245.13,144.88 244.75,145.05C244.37,145.22 243.92,145.31 243.4,145.31L241.62,145.31L242.22,144.7L242.22,146.91L240.87,146.91ZM242.22,144.85L241.62,144.21L243.32,144.21C243.74,144.21 244.05,144.12 244.26,143.94C244.46,143.76 244.56,143.51 244.56,143.2C244.56,142.88 244.46,142.63 244.26,142.45C244.05,142.27 243.74,142.18 243.32,142.18L241.62,142.18L242.22,141.54L242.22,144.85ZM249.7,147.02C249.24,147.02 248.81,146.94 248.42,146.79C248.03,146.64 247.69,146.43 247.4,146.16C247.12,145.88 246.89,145.56 246.74,145.2C246.58,144.83 246.5,144.43 246.5,144C246.5,143.56 246.58,143.16 246.74,142.8C246.89,142.43 247.12,142.11 247.41,141.84C247.7,141.57 248.04,141.36 248.42,141.21C248.81,141.06 249.24,140.98 249.69,140.98C250.15,140.98 250.58,141.06 250.96,141.21C251.35,141.36 251.68,141.57 251.97,141.84C252.26,142.11 252.48,142.43 252.64,142.79C252.8,143.16 252.88,143.56 252.88,144C252.88,144.43 252.8,144.83 252.64,145.2C252.48,145.57 252.26,145.89 251.97,146.16C251.68,146.43 251.35,146.64 250.96,146.79C250.58,146.94 250.15,147.02 249.7,147.02ZM249.69,145.86C249.95,145.86 250.19,145.82 250.41,145.73C250.63,145.64 250.82,145.52 250.99,145.35C251.16,145.18 251.29,144.98 251.38,144.76C251.47,144.53 251.52,144.28 251.52,144C251.52,143.72 251.47,143.47 251.38,143.24C251.29,143.01 251.16,142.81 250.99,142.65C250.83,142.48 250.64,142.35 250.41,142.26C250.19,142.18 249.95,142.13 249.69,142.13C249.43,142.13 249.19,142.18 248.97,142.26C248.75,142.35 248.56,142.48 248.39,142.65C248.22,142.81 248.09,143.01 248,143.24C247.91,143.47 247.86,143.72 247.86,144C247.86,144.27 247.91,144.52 248,144.75C248.09,144.98 248.22,145.18 248.39,145.35C248.55,145.52 248.74,145.64 248.97,145.73C249.19,145.82 249.43,145.86 249.69,145.86ZM253.92,146.91L253.92,141.08L258.63,141.08L258.63,142.16L255.27,142.16L255.27,143.36L256.88,143.36C257.59,143.36 258.13,143.5 258.49,143.8C258.86,144.09 259.05,144.52 259.05,145.08C259.05,145.66 258.84,146.11 258.43,146.43C258.02,146.75 257.44,146.91 256.69,146.91L253.92,146.91ZM255.27,145.91L256.62,145.91C256.96,145.91 257.22,145.85 257.41,145.71C257.59,145.57 257.68,145.38 257.68,145.11C257.68,144.6 257.33,144.35 256.62,144.35L255.27,144.35L255.27,145.91ZM261.32,143.43L264.12,143.43L264.12,144.48L261.32,144.48L261.32,143.43ZM261.42,145.83L264.59,145.83L264.59,146.91L260.07,146.91L260.07,141.08L264.48,141.08L264.48,142.16L261.42,142.16L261.42,145.83ZM265.74,147.01C265.64,147.01 265.54,147 265.43,146.98C265.32,146.96 265.2,146.94 265.07,146.91L265.16,145.77C265.24,145.8 265.32,145.81 265.4,145.81C265.63,145.81 265.8,145.71 265.93,145.53C266.06,145.34 266.15,145.07 266.21,144.72C266.26,144.37 266.3,143.95 266.32,143.45L266.4,141.08L270.88,141.08L270.88,146.91L269.55,146.91L269.55,141.87L269.86,142.18L267.28,142.18L267.56,141.86L267.51,143.4C267.49,143.97 267.45,144.48 267.39,144.92C267.33,145.37 267.24,145.75 267.11,146.06C266.98,146.37 266.81,146.6 266.58,146.76C266.36,146.93 266.08,147.01 265.74,147.01Z" style="fill:rgb(16,16,16);fill-rule:nonzero;"/>
        </g>
    </g>
</svg>
